<?xml version="1.0" standalone="no"?>
<!DOCTYPE svg PUBLIC "-//W3C//DTD SVG 1.1//EN"
"http://www.w3.org/Graphics/SVG/1.1/DTD/svg11.dtd">
<svg width="100%" height="100%" version="1.1"
xmlns="http://www.w3.org/2000/svg"
xmlns:xlink="http://www.w3.org/1999/xlink">
<g fill-rule="evenodd"><path d="M 0.159869,407.897 L 53.693,484.905 L 146.103,484.954 L 242.85,481.364 L 226.052,443.732 L 147.945,280.196 L 0.159869,407.897 z " style="fill-opacity:0.5;fill:rgb(169,169,169);stroke:rgb(169,169,169);stroke-width:1"/></g>
<g fill-rule="evenodd"><path d="M 234.49,455.926 L 334.44,304.747 L 260.821,327.293 L 118.681,218.482 L 234.49,455.926 z " style="fill-opacity:0.5;fill:rgb(169,169,169);stroke:rgb(169,169,169);stroke-width:1"/></g>
<g fill-rule="evenodd"><path d="M 399.142,393.792 L 314.237,338.463 L 277.618,401.028 L 236.116,474.562 L 264.969,478.645 L 371.038,486.436 L 399.142,393.792 z " style="fill-opacity:0.5;fill:rgb(169,169,169);stroke:rgb(169,169,169);stroke-width:1"/></g>
<g fill-rule="evenodd"><path d="M 4.20618,322.416 L 129.495,295.786 L 95.3739,135.26 L 31.5568,181.562 L 4.20618,322.416 z " style="fill-opacity:0.5;fill:rgb(169,169,169);stroke:rgb(169,169,169);stroke-width:1"/></g>
<g fill-rule="evenodd"><path d="M 184.646,274.717 L 251.449,100.359 L 78.0043,130.942 L 184.646,274.717 z " style="fill-opacity:0.5;fill:rgb(169,169,169);stroke:rgb(169,169,169);stroke-width:1"/></g>
<g fill-rule="evenodd"><path d="M 229.986,134.638 L 246.092,314.04 L 379.973,301.216 L 229.986,134.638 z " style="fill-opacity:0.5;fill:rgb(169,169,169);stroke:rgb(169,169,169);stroke-width:1"/></g>
<g fill-rule="evenodd"><path d="M 390.896,179.402 L 383.496,94.8145 L 255.662,159.981 L 271.487,178.485 L 337.852,255.072 L 390.896,179.402 z " style="fill-opacity:0.5;fill:rgb(169,169,169);stroke:rgb(169,169,169);stroke-width:1"/></g>
<g fill-rule="evenodd"><path d="M 117.414,78.8204 L 43.7731,56.3447 L 5.31366,71.1499 L 0.921339,131.164 L -5.3256e-15,224.002 L 117.414,78.8204 z " style="fill-opacity:0.5;fill:rgb(169,169,169);stroke:rgb(169,169,169);stroke-width:1"/></g>
<g fill-rule="evenodd"><path d="M 261.151,14.326 L 261.151,154.422 L 397.245,14.326 L 261.151,14.326 z " style="fill-opacity:0.5;fill:rgb(169,169,169);stroke:rgb(169,169,169);stroke-width:1"/></g>
<g fill-rule="evenodd"><path d="M 130.954,14.2252 L 24.5546,23.544 L 0.38059,39.8161 L 170.823,98.0716 L 130.954,14.2252 z " style="fill-opacity:0.5;fill:rgb(169,169,169);stroke:rgb(169,169,169);stroke-width:1"/></g>
<g fill-rule="evenodd"><path d="M 243.651,24.7074 L 118.435,109.184 L 266.447,104.015 L 243.651,24.7074 z " style="fill-opacity:0.5;fill:rgb(169,169,169);stroke:rgb(169,169,169);stroke-width:1"/></g>
<g fill-rule="evenodd"><path d="M 1.11329,414.069 L 87.7724,314.38 L 3.06831,320.303 L 1.11329,414.069 z " style="fill-opacity:0.5;fill:rgb(169,169,169);stroke:rgb(169,169,169);stroke-width:1"/></g>
<g fill-rule="evenodd"><path d="M 318.777,328.109 L 330.408,349.498 L 400,386.559 L 380.481,290.059 L 318.777,328.109 z " style="fill-opacity:0.5;fill:rgb(169,169,169);stroke:rgb(169,169,169);stroke-width:1"/></g>
<g fill-rule="evenodd"><path d="M 345.736,245.003 L 399.984,327.164 L 394.698,176.209 L 345.736,245.003 z " style="fill-opacity:0.5;fill:rgb(169,169,169);stroke:rgb(169,169,169);stroke-width:1"/></g>
<g fill-rule="evenodd"><path d="M 306.198,111.076 L 388.095,100.968 L 398.827,13.5638 L 306.198,111.076 z " style="fill-opacity:0.5;fill:rgb(169,169,169);stroke:rgb(169,169,169);stroke-width:1"/></g>
<g fill-rule="evenodd"><path d="M 157.818,72.669 L 251.898,23.0682 L 145.498,13.7694 L 157.818,72.669 z " style="fill-opacity:0.5;fill:rgb(169,169,169);stroke:rgb(169,169,169);stroke-width:1"/></g>
<rect x="-5.3256e-15" y="13.5638" width="400" height="472.872" style="opacity:0.8;fill:none;stroke:rgb(0,0,0);stroke-width:1;stroke-linecap:round"/>
</svg>
