<?xml version="1.0" standalone="no"?>
<!DOCTYPE svg PUBLIC "-//W3C//DTD SVG 1.1//EN"
"http://www.w3.org/Graphics/SVG/1.1/DTD/svg11.dtd">
<svg width="100%" height="100%" version="1.1"
xmlns="http://www.w3.org/2000/svg"
xmlns:xlink="http://www.w3.org/1999/xlink">
<g fill-rule="evenodd"><path d="M 1.25089,406.961 L 53.4414,484.906 L 145.854,486.568 L 242.666,484.666 L 226.525,446.74 L 151.27,281.835 L 1.25089,406.961 z " style="fill-opacity:0.5;fill:rgb(169,169,169);stroke:rgb(169,169,169);stroke-width:1"/></g>
<g fill-rule="evenodd"><path d="M 233.843,453.355 L 333.811,302.148 L 260.178,324.699 L 118.012,215.867 L 233.843,453.355 z " style="fill-opacity:0.5;fill:rgb(169,169,169);stroke:rgb(169,169,169);stroke-width:1"/></g>
<g fill-rule="evenodd"><path d="M 283.899,464.581 L 383.986,480.595 L 391.993,408.532 L 400,324.459 L 371.976,332.466 L 271.889,368.497 L 283.899,464.581 z " style="fill-opacity:0.5;fill:rgb(169,169,169);stroke:rgb(169,169,169);stroke-width:1"/></g>
<g fill-rule="evenodd"><path d="M 3.10049,321.429 L 128.412,294.793 L 94.285,134.237 L 30.4561,180.548 L 3.10049,321.429 z " style="fill-opacity:0.5;fill:rgb(169,169,169);stroke:rgb(169,169,169);stroke-width:1"/></g>
<g fill-rule="evenodd"><path d="M 76.2378,105.3 L 164.017,270.138 L 254.742,119.145 L 76.2378,105.3 z " style="fill-opacity:0.5;fill:rgb(169,169,169);stroke:rgb(169,169,169);stroke-width:1"/></g>
<g fill-rule="evenodd"><path d="M 223.866,136.859 L 239.976,316.293 L 373.882,303.468 L 223.866,136.859 z " style="fill-opacity:0.5;fill:rgb(169,169,169);stroke:rgb(169,169,169);stroke-width:1"/></g>
<g fill-rule="evenodd"><path d="M 389.746,183.121 L 382.345,98.5172 L 254.487,163.696 L 270.315,182.203 L 336.692,258.805 L 389.746,183.121 z " style="fill-opacity:0.5;fill:rgb(169,169,169);stroke:rgb(169,169,169);stroke-width:1"/></g>
<g fill-rule="evenodd"><path d="M 117.435,78.701 L 43.7811,56.2211 L 5.31463,71.0291 L 0.921508,131.054 L -3.24813e-14,223.909 L 117.435,78.701 z " style="fill-opacity:0.5;fill:rgb(169,169,169);stroke:rgb(169,169,169);stroke-width:1"/></g>
<g fill-rule="evenodd"><path d="M 261.199,14.1947 L 261.199,154.316 L 397.318,14.1947 L 261.199,14.1947 z " style="fill-opacity:0.5;fill:rgb(169,169,169);stroke:rgb(169,169,169);stroke-width:1"/></g>
<g fill-rule="evenodd"><path d="M 130.978,14.0939 L 24.5591,23.4144 L 0.38066,39.6895 L 170.855,97.9557 L 130.978,14.0939 z " style="fill-opacity:0.5;fill:rgb(169,169,169);stroke:rgb(169,169,169);stroke-width:1"/></g>
<g fill-rule="evenodd"><path d="M 247.153,25.0807 L 121.914,109.572 L 269.953,104.403 L 247.153,25.0807 z " style="fill-opacity:0.5;fill:rgb(169,169,169);stroke:rgb(169,169,169);stroke-width:1"/></g>
<g fill-rule="evenodd"><path d="M 1.1135,414.012 L 87.7885,314.303 L 3.06887,320.228 L 1.1135,414.012 z " style="fill-opacity:0.5;fill:rgb(169,169,169);stroke:rgb(169,169,169);stroke-width:1"/></g>
<g fill-rule="evenodd"><path d="M 224.464,293.484 L 237.174,272.712 L 234.474,193.899 L 160.648,259.065 L 224.464,293.484 z " style="fill-opacity:0.5;fill:rgb(169,169,169);stroke:rgb(169,169,169);stroke-width:1"/></g>
<g fill-rule="evenodd"><path d="M 342.433,255.898 L 396.69,338.074 L 391.404,187.092 L 342.433,255.898 z " style="fill-opacity:0.5;fill:rgb(169,169,169);stroke:rgb(169,169,169);stroke-width:1"/></g>
<g fill-rule="evenodd"><path d="M 306.254,110.962 L 388.166,100.852 L 398.9,13.4324 L 306.254,110.962 z " style="fill-opacity:0.5;fill:rgb(169,169,169);stroke:rgb(169,169,169);stroke-width:1"/></g>
<g fill-rule="evenodd"><path d="M 154.934,72.7264 L 249.032,23.1164 L 142.612,13.8159 L 154.934,72.7264 z " style="fill-opacity:0.5;fill:rgb(169,169,169);stroke:rgb(169,169,169);stroke-width:1"/></g>
<rect x="-3.24813e-14" y="13.4324" width="400" height="473.135" style="opacity:0.8;fill:none;stroke:rgb(0,0,0);stroke-width:1;stroke-linecap:round"/>
</svg>
