<?xml version="1.0" standalone="no"?>
<!DOCTYPE svg PUBLIC "-//W3C//DTD SVG 1.1//EN"
"http://www.w3.org/Graphics/SVG/1.1/DTD/svg11.dtd">
<svg width="100%" height="100%" version="1.1"
xmlns="http://www.w3.org/2000/svg"
xmlns:xlink="http://www.w3.org/1999/xlink">
<g fill-rule="evenodd"><path d="M 1.25063,406.928 L 53.4304,484.857 L 145.824,486.519 L 242.616,484.618 L 226.478,446.699 L 151.239,281.828 L 1.25063,406.928 z " style="fill-opacity:0.5;fill:rgb(169,169,169);stroke:rgb(169,169,169);stroke-width:1"/></g>
<g fill-rule="evenodd"><path d="M 135.825,274.694 L 227.886,430.797 L 239.894,354.747 L 400,274.694 L 135.825,274.694 z " style="fill-opacity:0.5;fill:rgb(169,169,169);stroke:rgb(169,169,169);stroke-width:1"/></g>
<g fill-rule="evenodd"><path d="M 381.204,471.712 L 397.215,371.646 L 325.167,363.64 L 241.112,355.635 L 249.117,383.654 L 285.141,483.72 L 381.204,471.712 z " style="fill-opacity:0.5;fill:rgb(169,169,169);stroke:rgb(169,169,169);stroke-width:1"/></g>
<g fill-rule="evenodd"><path d="M 30.8487,332.661 L 149.607,284.679 L 88.1306,132.521 L 33.3246,189.2 L 30.8487,332.661 z " style="fill-opacity:0.5;fill:rgb(169,169,169);stroke:rgb(169,169,169);stroke-width:1"/></g>
<g fill-rule="evenodd"><path d="M 148.534,276.009 L 258.186,124.885 L 82.7397,109.535 L 148.534,276.009 z " style="fill-opacity:0.5;fill:rgb(169,169,169);stroke:rgb(169,169,169);stroke-width:1"/></g>
<g fill-rule="evenodd"><path d="M 373.508,274.425 L 229.412,166.353 L 149.359,274.425 L 373.508,274.425 z " style="fill-opacity:0.5;fill:rgb(169,169,169);stroke:rgb(169,169,169);stroke-width:1"/></g>
<g fill-rule="evenodd"><path d="M 293.669,112.988 L 235.762,175.086 L 369.724,226.479 L 372.886,202.338 L 385.395,101.775 L 293.669,112.988 z " style="fill-opacity:0.5;fill:rgb(169,169,169);stroke:rgb(169,169,169);stroke-width:1"/></g>
<g fill-rule="evenodd"><path d="M 117.411,78.7364 L 43.7721,56.2612 L 5.31354,71.0661 L 0.921318,131.079 L -9.30731e-15,223.915 L 117.411,78.7364 z " style="fill-opacity:0.5;fill:rgb(169,169,169);stroke:rgb(169,169,169);stroke-width:1"/></g>
<g fill-rule="evenodd"><path d="M 254.129,15.0482 L 254.129,155.141 L 390.219,15.0482 L 254.129,15.0482 z " style="fill-opacity:0.5;fill:rgb(169,169,169);stroke:rgb(169,169,169);stroke-width:1"/></g>
<g fill-rule="evenodd"><path d="M 135.896,15.1133 L 29.4999,24.4319 L 5.32642,40.7036 L 175.765,98.9578 L 135.896,15.1133 z " style="fill-opacity:0.5;fill:rgb(169,169,169);stroke:rgb(169,169,169);stroke-width:1"/></g>
<g fill-rule="evenodd"><path d="M 237.195,31.874 L 111.982,116.348 L 259.99,111.18 L 237.195,31.874 z " style="fill-opacity:0.5;fill:rgb(169,169,169);stroke:rgb(169,169,169);stroke-width:1"/></g>
<g fill-rule="evenodd"><path d="M 399.613,291.159 L 399.613,159.072 L 339.574,219.111 L 399.613,291.159 z " style="fill-opacity:0.5;fill:rgb(169,169,169);stroke:rgb(169,169,169);stroke-width:1"/></g>
<g fill-rule="evenodd"><path d="M 381.367,296.401 L 357.179,299.173 L 296.748,349.812 L 393.531,367.864 L 381.367,296.401 z " style="fill-opacity:0.5;fill:rgb(169,169,169);stroke:rgb(169,169,169);stroke-width:1"/></g>
<g fill-rule="evenodd"><path d="M 54.4652,339.325 L 0.219062,257.166 L 5.50459,408.117 L 54.4652,339.325 z " style="fill-opacity:0.5;fill:rgb(169,169,169);stroke:rgb(169,169,169);stroke-width:1"/></g>
<g fill-rule="evenodd"><path d="M 306.191,110.991 L 388.086,100.883 L 398.818,13.4813 L 306.191,110.991 z " style="fill-opacity:0.5;fill:rgb(169,169,169);stroke:rgb(169,169,169);stroke-width:1"/></g>
<g fill-rule="evenodd"><path d="M 163.236,72.9746 L 258.988,26.6884 L 152.979,13.6822 L 163.236,72.9746 z " style="fill-opacity:0.5;fill:rgb(169,169,169);stroke:rgb(169,169,169);stroke-width:1"/></g>
<rect x="-9.30731e-15" y="13.4813" width="400" height="473.037" style="opacity:0.8;fill:none;stroke:rgb(0,0,0);stroke-width:1;stroke-linecap:round"/>
</svg>
