<?xml version="1.0" standalone="no"?>
<!DOCTYPE svg PUBLIC "-//W3C//DTD SVG 1.1//EN"
"http://www.w3.org/Graphics/SVG/1.1/DTD/svg11.dtd">
<svg width="100%" height="100%" version="1.1"
xmlns="http://www.w3.org/2000/svg"
xmlns:xlink="http://www.w3.org/1999/xlink">
<g fill-rule="evenodd"><path d="M 1.25063,406.822 L 53.4304,484.751 L 145.824,486.412 L 242.616,484.512 L 226.478,446.593 L 151.239,281.722 L 1.25063,406.822 z " style="fill-opacity:0.5;fill:rgb(169,169,169);stroke:rgb(169,169,169);stroke-width:1"/></g>
<g fill-rule="evenodd"><path d="M 135.825,274.588 L 227.886,430.691 L 239.894,354.641 L 400,274.588 L 135.825,274.588 z " style="fill-opacity:0.5;fill:rgb(169,169,169);stroke:rgb(169,169,169);stroke-width:1"/></g>
<g fill-rule="evenodd"><path d="M 381.204,471.605 L 397.215,371.539 L 325.167,363.534 L 241.112,355.529 L 249.117,383.547 L 285.141,483.613 L 381.204,471.605 z " style="fill-opacity:0.5;fill:rgb(169,169,169);stroke:rgb(169,169,169);stroke-width:1"/></g>
<g fill-rule="evenodd"><path d="M 29.63,326.529 L 148.388,278.548 L 86.9119,126.389 L 32.1059,183.068 L 29.63,326.529 z " style="fill-opacity:0.5;fill:rgb(169,169,169);stroke:rgb(169,169,169);stroke-width:1"/></g>
<g fill-rule="evenodd"><path d="M 147.844,277.205 L 257.496,126.081 L 82.0498,110.731 L 147.844,277.205 z " style="fill-opacity:0.5;fill:rgb(169,169,169);stroke:rgb(169,169,169);stroke-width:1"/></g>
<g fill-rule="evenodd"><path d="M 373.508,274.318 L 229.412,166.247 L 149.359,274.318 L 373.508,274.318 z " style="fill-opacity:0.5;fill:rgb(169,169,169);stroke:rgb(169,169,169);stroke-width:1"/></g>
<g fill-rule="evenodd"><path d="M 293.669,112.881 L 235.762,174.98 L 369.724,226.373 L 372.886,202.232 L 385.395,101.668 L 293.669,112.881 z " style="fill-opacity:0.5;fill:rgb(169,169,169);stroke:rgb(169,169,169);stroke-width:1"/></g>
<g fill-rule="evenodd"><path d="M 117.411,78.63 L 43.7721,56.1548 L 5.31354,70.9597 L 0.921318,130.972 L -9.30731e-15,223.808 L 117.411,78.63 z " style="fill-opacity:0.5;fill:rgb(169,169,169);stroke:rgb(169,169,169);stroke-width:1"/></g>
<g fill-rule="evenodd"><path d="M 256.053,13.5064 L 256.053,153.599 L 392.143,13.5064 L 256.053,13.5064 z " style="fill-opacity:0.5;fill:rgb(169,169,169);stroke:rgb(169,169,169);stroke-width:1"/></g>
<g fill-rule="evenodd"><path d="M 130.951,14.0363 L 24.554,23.3549 L 0.380581,39.6266 L 170.819,97.8808 L 130.951,14.0363 z " style="fill-opacity:0.5;fill:rgb(169,169,169);stroke:rgb(169,169,169);stroke-width:1"/></g>
<g fill-rule="evenodd"><path d="M 238.62,34.4723 L 113.407,118.947 L 261.414,113.778 L 238.62,34.4723 z " style="fill-opacity:0.5;fill:rgb(169,169,169);stroke:rgb(169,169,169);stroke-width:1"/></g>
<g fill-rule="evenodd"><path d="M 320.949,486.625 L 232.565,388.465 L 228.122,473.258 L 320.949,486.625 z " style="fill-opacity:0.5;fill:rgb(169,169,169);stroke:rgb(169,169,169);stroke-width:1"/></g>
<g fill-rule="evenodd"><path d="M 381.367,296.294 L 357.179,299.066 L 296.748,349.706 L 393.531,367.757 L 381.367,296.294 z " style="fill-opacity:0.5;fill:rgb(169,169,169);stroke:rgb(169,169,169);stroke-width:1"/></g>
<g fill-rule="evenodd"><path d="M 54.4001,345.287 L 0.154026,263.128 L 5.43955,414.079 L 54.4001,345.287 z " style="fill-opacity:0.5;fill:rgb(169,169,169);stroke:rgb(169,169,169);stroke-width:1"/></g>
<g fill-rule="evenodd"><path d="M 306.191,110.885 L 388.086,100.777 L 398.818,13.375 L 306.191,110.885 z " style="fill-opacity:0.5;fill:rgb(169,169,169);stroke:rgb(169,169,169);stroke-width:1"/></g>
<g fill-rule="evenodd"><path d="M 154.563,73.1587 L 250.315,26.8725 L 144.306,13.8663 L 154.563,73.1587 z " style="fill-opacity:0.5;fill:rgb(169,169,169);stroke:rgb(169,169,169);stroke-width:1"/></g>
<rect x="-9.30731e-15" y="13.375" width="400" height="473.25" style="opacity:0.8;fill:none;stroke:rgb(0,0,0);stroke-width:1;stroke-linecap:round"/>
</svg>
