<?xml version="1.0" standalone="no"?>
<!DOCTYPE svg PUBLIC "-//W3C//DTD SVG 1.1//EN"
"http://www.w3.org/Graphics/SVG/1.1/DTD/svg11.dtd">
<svg width="100%" height="100%" version="1.1"
xmlns="http://www.w3.org/2000/svg"
xmlns:xlink="http://www.w3.org/1999/xlink">
<g fill-rule="evenodd"><path d="M 0.159869,407.897 L 53.693,484.905 L 146.103,484.954 L 242.85,481.364 L 226.052,443.732 L 147.945,280.196 L 0.159869,407.897 z " style="fill-opacity:0.5;fill:rgb(169,169,169);stroke:rgb(169,169,169);stroke-width:1"/></g>
<g fill-rule="evenodd"><path d="M 234.36,457.089 L 334.31,305.91 L 260.691,328.456 L 118.551,219.645 L 234.36,457.089 z " style="fill-opacity:0.5;fill:rgb(169,169,169);stroke:rgb(169,169,169);stroke-width:1"/></g>
<g fill-rule="evenodd"><path d="M 399.142,393.792 L 314.237,338.463 L 277.618,401.028 L 236.116,474.562 L 264.969,478.645 L 371.038,486.436 L 399.142,393.792 z " style="fill-opacity:0.5;fill:rgb(169,169,169);stroke:rgb(169,169,169);stroke-width:1"/></g>
<g fill-rule="evenodd"><path d="M 4.20618,322.416 L 129.495,295.786 L 95.3739,135.26 L 31.5568,181.562 L 4.20618,322.416 z " style="fill-opacity:0.5;fill:rgb(169,169,169);stroke:rgb(169,169,169);stroke-width:1"/></g>
<g fill-rule="evenodd"><path d="M 187.858,275.691 L 254.662,101.332 L 81.2168,131.915 L 187.858,275.691 z " style="fill-opacity:0.5;fill:rgb(169,169,169);stroke:rgb(169,169,169);stroke-width:1"/></g>
<g fill-rule="evenodd"><path d="M 231.155,135.837 L 247.261,315.239 L 381.143,302.416 L 231.155,135.837 z " style="fill-opacity:0.5;fill:rgb(169,169,169);stroke:rgb(169,169,169);stroke-width:1"/></g>
<g fill-rule="evenodd"><path d="M 390.896,179.402 L 383.496,94.8145 L 255.662,159.981 L 271.487,178.485 L 337.852,255.072 L 390.896,179.402 z " style="fill-opacity:0.5;fill:rgb(169,169,169);stroke:rgb(169,169,169);stroke-width:1"/></g>
<g fill-rule="evenodd"><path d="M 117.414,78.8204 L 43.7731,56.3447 L 5.31366,71.1499 L 0.921339,131.164 L -5.3256e-15,224.002 L 117.414,78.8204 z " style="fill-opacity:0.5;fill:rgb(169,169,169);stroke:rgb(169,169,169);stroke-width:1"/></g>
<g fill-rule="evenodd"><path d="M 263.49,14.5009 L 263.49,154.597 L 399.583,14.5009 L 263.49,14.5009 z " style="fill-opacity:0.5;fill:rgb(169,169,169);stroke:rgb(169,169,169);stroke-width:1"/></g>
<g fill-rule="evenodd"><path d="M 130.954,14.2252 L 24.5546,23.544 L 0.38059,39.8161 L 170.823,98.0716 L 130.954,14.2252 z " style="fill-opacity:0.5;fill:rgb(169,169,169);stroke:rgb(169,169,169);stroke-width:1"/></g>
<g fill-rule="evenodd"><path d="M 233.29,21.2162 L 124.646,126.153 L 269.51,95.3605 L 233.29,21.2162 z " style="fill-opacity:0.5;fill:rgb(169,169,169);stroke:rgb(169,169,169);stroke-width:1"/></g>
<g fill-rule="evenodd"><path d="M 0.0239071,411.366 L 96.6287,321.281 L 11.7695,318.318 L 0.0239071,411.366 z " style="fill-opacity:0.5;fill:rgb(169,169,169);stroke:rgb(169,169,169);stroke-width:1"/></g>
<g fill-rule="evenodd"><path d="M 318.777,328.109 L 330.408,349.498 L 400,386.559 L 380.481,290.059 L 318.777,328.109 z " style="fill-opacity:0.5;fill:rgb(169,169,169);stroke:rgb(169,169,169);stroke-width:1"/></g>
<g fill-rule="evenodd"><path d="M 345.736,245.003 L 399.984,327.164 L 394.698,176.209 L 345.736,245.003 z " style="fill-opacity:0.5;fill:rgb(169,169,169);stroke:rgb(169,169,169);stroke-width:1"/></g>
<g fill-rule="evenodd"><path d="M 306.198,111.076 L 388.095,100.968 L 398.827,13.5638 L 306.198,111.076 z " style="fill-opacity:0.5;fill:rgb(169,169,169);stroke:rgb(169,169,169);stroke-width:1"/></g>
<g fill-rule="evenodd"><path d="M 145.207,73.7431 L 239.288,24.1422 L 132.887,14.8435 L 145.207,73.7431 z " style="fill-opacity:0.5;fill:rgb(169,169,169);stroke:rgb(169,169,169);stroke-width:1"/></g>
<rect x="-5.3256e-15" y="13.5638" width="400" height="472.872" style="opacity:0.8;fill:none;stroke:rgb(0,0,0);stroke-width:1;stroke-linecap:round"/>
</svg>
