<?xml version="1.0" standalone="no"?>
<!DOCTYPE svg PUBLIC "-//W3C//DTD SVG 1.1//EN"
"http://www.w3.org/Graphics/SVG/1.1/DTD/svg11.dtd">
<svg width="100%" height="100%" version="1.1"
xmlns="http://www.w3.org/2000/svg"
xmlns:xlink="http://www.w3.org/1999/xlink">
<g fill-rule="evenodd"><path d="M 0.446789,409.132 L 53.982,486.144 L 146.396,486.192 L 243.147,482.602 L 226.348,444.969 L 148.238,281.426 L 0.446789,409.132 z " style="fill-opacity:0.5;fill:rgb(169,169,169);stroke:rgb(169,169,169);stroke-width:1"/></g>
<g fill-rule="evenodd"><path d="M 235.159,457.369 L 335.113,306.185 L 261.491,328.732 L 119.345,219.916 L 235.159,457.369 z " style="fill-opacity:0.5;fill:rgb(169,169,169);stroke:rgb(169,169,169);stroke-width:1"/></g>
<g fill-rule="evenodd"><path d="M 399.158,393.389 L 314.25,338.059 L 277.63,400.626 L 236.125,474.163 L 264.979,478.246 L 371.053,486.038 L 399.158,393.389 z " style="fill-opacity:0.5;fill:rgb(169,169,169);stroke:rgb(169,169,169);stroke-width:1"/></g>
<g fill-rule="evenodd"><path d="M 1.78601,323.823 L 127.08,297.191 L 92.9574,136.659 L 29.1377,182.963 L 1.78601,323.823 z " style="fill-opacity:0.5;fill:rgb(169,169,169);stroke:rgb(169,169,169);stroke-width:1"/></g>
<g fill-rule="evenodd"><path d="M 187.866,275.284 L 254.672,100.918 L 81.2201,131.502 L 187.866,275.284 z " style="fill-opacity:0.5;fill:rgb(169,169,169);stroke:rgb(169,169,169);stroke-width:1"/></g>
<g fill-rule="evenodd"><path d="M 236.134,138.619 L 252.241,318.028 L 386.128,305.204 L 236.134,138.619 z " style="fill-opacity:0.5;fill:rgb(169,169,169);stroke:rgb(169,169,169);stroke-width:1"/></g>
<g fill-rule="evenodd"><path d="M 392.553,178.607 L 389.59,93.7444 L 258.515,152.133 L 273.351,171.441 L 335.619,251.4 L 392.553,178.607 z " style="fill-opacity:0.5;fill:rgb(169,169,169);stroke:rgb(169,169,169);stroke-width:1"/></g>
<g fill-rule="evenodd"><path d="M 117.419,78.4054 L 43.7748,55.9288 L 5.31387,70.7346 L 0.921376,130.751 L 1.74571e-14,223.593 L 117.419,78.4054 z " style="fill-opacity:0.5;fill:rgb(169,169,169);stroke:rgb(169,169,169);stroke-width:1"/></g>
<g fill-rule="evenodd"><path d="M 263.501,14.0834 L 263.501,154.185 L 399.6,14.0834 L 263.501,14.0834 z " style="fill-opacity:0.5;fill:rgb(169,169,169);stroke:rgb(169,169,169);stroke-width:1"/></g>
<g fill-rule="evenodd"><path d="M 130.959,13.8076 L 24.5556,23.1268 L 0.380605,39.3995 L 170.83,97.6574 L 130.959,13.8076 z " style="fill-opacity:0.5;fill:rgb(169,169,169);stroke:rgb(169,169,169);stroke-width:1"/></g>
<g fill-rule="evenodd"><path d="M 271.317,19.4315 L 120.355,14.174 L 243.142,96.9946 L 271.317,19.4315 z " style="fill-opacity:0.5;fill:rgb(169,169,169);stroke:rgb(169,169,169);stroke-width:1"/></g>
<g fill-rule="evenodd"><path d="M 0.023908,410.965 L 96.6326,320.876 L 11.77,317.912 L 0.023908,410.965 z " style="fill-opacity:0.5;fill:rgb(169,169,169);stroke:rgb(169,169,169);stroke-width:1"/></g>
<g fill-rule="evenodd"><path d="M 387.967,134.557 L 399.196,112.952 L 391.005,34.5307 L 321.915,104.678 L 387.967,134.557 z " style="fill-opacity:0.5;fill:rgb(169,169,169);stroke:rgb(169,169,169);stroke-width:1"/></g>
<g fill-rule="evenodd"><path d="M 345.75,244.594 L 400,326.759 L 394.714,175.798 L 345.75,244.594 z " style="fill-opacity:0.5;fill:rgb(169,169,169);stroke:rgb(169,169,169);stroke-width:1"/></g>
<g fill-rule="evenodd"><path d="M 399.751,396.61 L 389.642,314.71 L 302.235,303.977 L 399.751,396.61 z " style="fill-opacity:0.5;fill:rgb(169,169,169);stroke:rgb(169,169,169);stroke-width:1"/></g>
<g fill-rule="evenodd"><path d="M 251.697,281.04 L 231.77,176.564 L 191.767,275.601 L 251.697,281.04 z " style="fill-opacity:0.5;fill:rgb(169,169,169);stroke:rgb(169,169,169);stroke-width:1"/></g>
<rect x="1.74571e-14" y="13.8076" width="400" height="472.385" style="opacity:0.8;fill:none;stroke:rgb(0,0,0);stroke-width:1;stroke-linecap:round"/>
</svg>
