<?xml version="1.0" standalone="no"?>
<!DOCTYPE svg PUBLIC "-//W3C//DTD SVG 1.1//EN"
"http://www.w3.org/Graphics/SVG/1.1/DTD/svg11.dtd">
<svg width="100%" height="100%" version="1.1"
xmlns="http://www.w3.org/2000/svg"
xmlns:xlink="http://www.w3.org/1999/xlink">
<g fill-rule="evenodd"><path d="M 1.25063,406.928 L 53.4304,484.857 L 145.824,486.519 L 242.616,484.618 L 226.478,446.699 L 151.239,281.828 L 1.25063,406.928 z " style="fill-opacity:0.5;fill:rgb(169,169,169);stroke:rgb(169,169,169);stroke-width:1"/></g>
<g fill-rule="evenodd"><path d="M 135.825,274.694 L 227.886,430.797 L 239.894,354.747 L 400,274.694 L 135.825,274.694 z " style="fill-opacity:0.5;fill:rgb(169,169,169);stroke:rgb(169,169,169);stroke-width:1"/></g>
<g fill-rule="evenodd"><path d="M 381.204,471.712 L 397.215,371.646 L 325.167,363.64 L 241.112,355.635 L 249.117,383.654 L 285.141,483.72 L 381.204,471.712 z " style="fill-opacity:0.5;fill:rgb(169,169,169);stroke:rgb(169,169,169);stroke-width:1"/></g>
<g fill-rule="evenodd"><path d="M 29.63,326.635 L 148.388,278.654 L 86.9119,126.495 L 32.1059,183.174 L 29.63,326.635 z " style="fill-opacity:0.5;fill:rgb(169,169,169);stroke:rgb(169,169,169);stroke-width:1"/></g>
<g fill-rule="evenodd"><path d="M 147.844,277.311 L 257.496,126.187 L 82.0498,110.838 L 147.844,277.311 z " style="fill-opacity:0.5;fill:rgb(169,169,169);stroke:rgb(169,169,169);stroke-width:1"/></g>
<g fill-rule="evenodd"><path d="M 373.508,274.425 L 229.412,166.353 L 149.359,274.425 L 373.508,274.425 z " style="fill-opacity:0.5;fill:rgb(169,169,169);stroke:rgb(169,169,169);stroke-width:1"/></g>
<g fill-rule="evenodd"><path d="M 301.672,113.702 L 243.765,175.801 L 377.727,227.194 L 380.889,203.053 L 393.398,102.489 L 301.672,113.702 z " style="fill-opacity:0.5;fill:rgb(169,169,169);stroke:rgb(169,169,169);stroke-width:1"/></g>
<g fill-rule="evenodd"><path d="M 117.411,78.7364 L 43.7721,56.2612 L 5.31354,71.0661 L 0.921318,131.079 L -9.30731e-15,223.915 L 117.411,78.7364 z " style="fill-opacity:0.5;fill:rgb(169,169,169);stroke:rgb(169,169,169);stroke-width:1"/></g>
<g fill-rule="evenodd"><path d="M 261.145,14.2435 L 261.145,154.336 L 397.235,14.2435 L 261.145,14.2435 z " style="fill-opacity:0.5;fill:rgb(169,169,169);stroke:rgb(169,169,169);stroke-width:1"/></g>
<g fill-rule="evenodd"><path d="M 130.951,14.1427 L 24.554,23.4612 L 0.380581,39.7329 L 170.819,97.9871 L 130.951,14.1427 z " style="fill-opacity:0.5;fill:rgb(169,169,169);stroke:rgb(169,169,169);stroke-width:1"/></g>
<g fill-rule="evenodd"><path d="M 238.62,34.5786 L 113.407,119.053 L 261.414,113.884 L 238.62,34.5786 z " style="fill-opacity:0.5;fill:rgb(169,169,169);stroke:rgb(169,169,169);stroke-width:1"/></g>
<g fill-rule="evenodd"><path d="M 304.585,212.4 L 392.969,310.56 L 397.412,225.768 L 304.585,212.4 z " style="fill-opacity:0.5;fill:rgb(169,169,169);stroke:rgb(169,169,169);stroke-width:1"/></g>
<g fill-rule="evenodd"><path d="M 381.367,296.401 L 357.179,299.173 L 296.748,349.812 L 393.531,367.864 L 381.367,296.401 z " style="fill-opacity:0.5;fill:rgb(169,169,169);stroke:rgb(169,169,169);stroke-width:1"/></g>
<g fill-rule="evenodd"><path d="M 54.4001,345.394 L 0.154026,263.234 L 5.43955,414.185 L 54.4001,345.394 z " style="fill-opacity:0.5;fill:rgb(169,169,169);stroke:rgb(169,169,169);stroke-width:1"/></g>
<g fill-rule="evenodd"><path d="M 306.191,110.991 L 388.086,100.883 L 398.818,13.4813 L 306.191,110.991 z " style="fill-opacity:0.5;fill:rgb(169,169,169);stroke:rgb(169,169,169);stroke-width:1"/></g>
<g fill-rule="evenodd"><path d="M 159.005,74.7331 L 254.757,28.4469 L 148.748,15.4407 L 159.005,74.7331 z " style="fill-opacity:0.5;fill:rgb(169,169,169);stroke:rgb(169,169,169);stroke-width:1"/></g>
<rect x="-9.30731e-15" y="13.4813" width="400" height="473.037" style="opacity:0.8;fill:none;stroke:rgb(0,0,0);stroke-width:1;stroke-linecap:round"/>
</svg>
