<?xml version="1.0" standalone="no"?>
<!DOCTYPE svg PUBLIC "-//W3C//DTD SVG 1.1//EN"
"http://www.w3.org/Graphics/SVG/1.1/DTD/svg11.dtd">
<svg width="100%" height="100%" version="1.1"
xmlns="http://www.w3.org/2000/svg"
xmlns:xlink="http://www.w3.org/1999/xlink">
<g fill-rule="evenodd"><path d="M 0.447067,409.231 L 54.0156,486.291 L 146.487,486.339 L 243.298,482.747 L 226.489,445.09 L 148.33,281.445 L 0.447067,409.231 z " style="fill-opacity:0.5;fill:rgb(169,169,169);stroke:rgb(169,169,169);stroke-width:1"/></g>
<g fill-rule="evenodd"><path d="M 234.437,458.291 L 334.453,307.012 L 260.785,329.573 L 118.551,220.689 L 234.437,458.291 z " style="fill-opacity:0.5;fill:rgb(169,169,169);stroke:rgb(169,169,169);stroke-width:1"/></g>
<g fill-rule="evenodd"><path d="M 399.406,393.479 L 314.445,338.114 L 277.802,400.719 L 236.272,474.302 L 265.144,478.388 L 371.284,486.185 L 399.406,393.479 z " style="fill-opacity:0.5;fill:rgb(169,169,169);stroke:rgb(169,169,169);stroke-width:1"/></g>
<g fill-rule="evenodd"><path d="M 1.78712,323.869 L 127.159,297.221 L 93.0153,136.588 L 29.1559,182.921 L 1.78712,323.869 z " style="fill-opacity:0.5;fill:rgb(169,169,169);stroke:rgb(169,169,169);stroke-width:1"/></g>
<g fill-rule="evenodd"><path d="M 175.998,259.255 L 242.846,84.7804 L 69.2858,115.384 L 175.998,259.255 z " style="fill-opacity:0.5;fill:rgb(169,169,169);stroke:rgb(169,169,169);stroke-width:1"/></g>
<g fill-rule="evenodd"><path d="M 226.499,135.829 L 242.615,315.349 L 376.586,302.518 L 226.499,135.829 z " style="fill-opacity:0.5;fill:rgb(169,169,169);stroke:rgb(169,169,169);stroke-width:1"/></g>
<g fill-rule="evenodd"><path d="M 392.536,186.218 L 391.053,101.264 L 258.897,157.391 L 273.402,176.967 L 334.303,258.051 L 392.536,186.218 z " style="fill-opacity:0.5;fill:rgb(169,169,169);stroke:rgb(169,169,169);stroke-width:1"/></g>
<g fill-rule="evenodd"><path d="M 117.492,78.2986 L 43.8021,55.808 L 5.31718,70.6231 L 0.921949,130.677 L -2.13897e-14,223.576 L 117.492,78.2986 z " style="fill-opacity:0.5;fill:rgb(169,169,169);stroke:rgb(169,169,169);stroke-width:1"/></g>
<g fill-rule="evenodd"><path d="M 277.088,33.5027 L 209.123,156.114 L 396.196,99.5257 L 277.088,33.5027 z " style="fill-opacity:0.5;fill:rgb(169,169,169);stroke:rgb(169,169,169);stroke-width:1"/></g>
<g fill-rule="evenodd"><path d="M 131.04,13.6606 L 24.5709,22.9856 L 0.380842,39.2684 L 170.936,97.5625 L 131.04,13.6606 z " style="fill-opacity:0.5;fill:rgb(169,169,169);stroke:rgb(169,169,169);stroke-width:1"/></g>
<g fill-rule="evenodd"><path d="M 271.485,19.288 L 120.43,14.0272 L 243.293,96.8993 L 271.485,19.288 z " style="fill-opacity:0.5;fill:rgb(169,169,169);stroke:rgb(169,169,169);stroke-width:1"/></g>
<g fill-rule="evenodd"><path d="M 0.0239229,411.065 L 96.6927,320.92 L 11.7773,317.954 L 0.0239229,411.065 z " style="fill-opacity:0.5;fill:rgb(169,169,169);stroke:rgb(169,169,169);stroke-width:1"/></g>
<g fill-rule="evenodd"><path d="M 393.505,17.8176 L 369.407,14.2323 L 297.88,47.5288 L 386.754,90.0435 L 393.505,17.8176 z " style="fill-opacity:0.5;fill:rgb(169,169,169);stroke:rgb(169,169,169);stroke-width:1"/></g>
<g fill-rule="evenodd"><path d="M 345.451,247.911 L 399.734,330.127 L 394.445,179.072 L 345.451,247.911 z " style="fill-opacity:0.5;fill:rgb(169,169,169);stroke:rgb(169,169,169);stroke-width:1"/></g>
<g fill-rule="evenodd"><path d="M 400,396.701 L 389.885,314.75 L 302.423,304.011 L 400,396.701 z " style="fill-opacity:0.5;fill:rgb(169,169,169);stroke:rgb(169,169,169);stroke-width:1"/></g>
<g fill-rule="evenodd"><path d="M 234.691,268.526 L 214.75,163.985 L 174.723,263.083 L 234.691,268.526 z " style="fill-opacity:0.5;fill:rgb(169,169,169);stroke:rgb(169,169,169);stroke-width:1"/></g>
<rect x="-2.13897e-14" y="13.6606" width="400" height="472.679" style="opacity:0.8;fill:none;stroke:rgb(0,0,0);stroke-width:1;stroke-linecap:round"/>
</svg>
