<?xml version="1.0" standalone="no"?>
<!DOCTYPE svg PUBLIC "-//W3C//DTD SVG 1.1//EN"
"http://www.w3.org/Graphics/SVG/1.1/DTD/svg11.dtd">
<svg width="100%" height="100%" version="1.1"
xmlns="http://www.w3.org/2000/svg"
xmlns:xlink="http://www.w3.org/1999/xlink">
<g fill-rule="evenodd"><path d="M 1.25141,407.027 L 53.4641,485.005 L 145.916,486.668 L 242.769,484.766 L 226.621,446.823 L 151.334,281.848 L 1.25141,407.027 z " style="fill-opacity:0.5;fill:rgb(169,169,169);stroke:rgb(169,169,169);stroke-width:1"/></g>
<g fill-rule="evenodd"><path d="M 232.431,449.992 L 332.441,298.722 L 258.778,321.282 L 116.551,212.404 L 232.431,449.992 z " style="fill-opacity:0.5;fill:rgb(169,169,169);stroke:rgb(169,169,169);stroke-width:1"/></g>
<g fill-rule="evenodd"><path d="M 254.978,368.785 L 238.957,468.915 L 311.05,476.925 L 395.159,484.935 L 387.148,456.899 L 351.102,356.77 L 254.978,368.785 z " style="fill-opacity:0.5;fill:rgb(169,169,169);stroke:rgb(169,169,169);stroke-width:1"/></g>
<g fill-rule="evenodd"><path d="M 4.15848,312.369 L 129.523,285.722 L 95.3816,125.098 L 31.5257,171.428 L 4.15848,312.369 z " style="fill-opacity:0.5;fill:rgb(169,169,169);stroke:rgb(169,169,169);stroke-width:1"/></g>
<g fill-rule="evenodd"><path d="M 147.937,277.329 L 257.658,126.109 L 82.1015,110.75 L 147.937,277.329 z " style="fill-opacity:0.5;fill:rgb(169,169,169);stroke:rgb(169,169,169);stroke-width:1"/></g>
<g fill-rule="evenodd"><path d="M 373.743,274.44 L 229.557,166.3 L 149.453,274.44 L 373.743,274.44 z " style="fill-opacity:0.5;fill:rgb(169,169,169);stroke:rgb(169,169,169);stroke-width:1"/></g>
<g fill-rule="evenodd"><path d="M 308.819,121.808 L 235.239,164.289 L 348.394,252.659 L 358.482,230.484 L 399.872,137.913 L 308.819,121.808 z " style="fill-opacity:0.5;fill:rgb(169,169,169);stroke:rgb(169,169,169);stroke-width:1"/></g>
<g fill-rule="evenodd"><path d="M 117.485,78.6285 L 43.7997,56.1391 L 5.31688,70.9533 L 0.921898,131.004 L 4.98435e-16,223.898 L 117.485,78.6285 z " style="fill-opacity:0.5;fill:rgb(169,169,169);stroke:rgb(169,169,169);stroke-width:1"/></g>
<g fill-rule="evenodd"><path d="M 261.31,14.0949 L 261.31,154.276 L 397.486,14.0949 L 261.31,14.0949 z " style="fill-opacity:0.5;fill:rgb(169,169,169);stroke:rgb(169,169,169);stroke-width:1"/></g>
<g fill-rule="evenodd"><path d="M 131.033,13.9941 L 24.5695,23.3185 L 0.380821,39.6005 L 170.927,97.8913 L 131.033,13.9941 z " style="fill-opacity:0.5;fill:rgb(169,169,169);stroke:rgb(169,169,169);stroke-width:1"/></g>
<g fill-rule="evenodd"><path d="M 245.727,30.3283 L 120.435,114.856 L 268.536,109.684 L 245.727,30.3283 z " style="fill-opacity:0.5;fill:rgb(169,169,169);stroke:rgb(169,169,169);stroke-width:1"/></g>
<g fill-rule="evenodd"><path d="M 3.82632,401.351 L 106.542,318.174 L 22.0451,309.293 L 3.82632,401.351 z " style="fill-opacity:0.5;fill:rgb(169,169,169);stroke:rgb(169,169,169);stroke-width:1"/></g>
<g fill-rule="evenodd"><path d="M 381.058,296.801 L 356.854,299.575 L 296.386,350.246 L 393.23,368.309 L 381.058,296.801 z " style="fill-opacity:0.5;fill:rgb(169,169,169);stroke:rgb(169,169,169);stroke-width:1"/></g>
<g fill-rule="evenodd"><path d="M 345.72,244.122 L 400,326.333 L 394.711,175.287 L 345.72,244.122 z " style="fill-opacity:0.5;fill:rgb(169,169,169);stroke:rgb(169,169,169);stroke-width:1"/></g>
<g fill-rule="evenodd"><path d="M 306.384,110.904 L 388.33,100.789 L 399.069,13.3323 L 306.384,110.904 z " style="fill-opacity:0.5;fill:rgb(169,169,169);stroke:rgb(169,169,169);stroke-width:1"/></g>
<g fill-rule="evenodd"><path d="M 156.212,74.9653 L 252.024,28.6499 L 145.949,15.6356 L 156.212,74.9653 z " style="fill-opacity:0.5;fill:rgb(169,169,169);stroke:rgb(169,169,169);stroke-width:1"/></g>
<rect x="4.98435e-16" y="13.3323" width="400" height="473.335" style="opacity:0.8;fill:none;stroke:rgb(0,0,0);stroke-width:1;stroke-linecap:round"/>
</svg>
