<?xml version="1.0" standalone="no"?>
<!DOCTYPE svg PUBLIC "-//W3C//DTD SVG 1.1//EN"
"http://www.w3.org/Graphics/SVG/1.1/DTD/svg11.dtd">
<svg width="100%" height="100%" version="1.1"
xmlns="http://www.w3.org/2000/svg"
xmlns:xlink="http://www.w3.org/1999/xlink">
<g fill-rule="evenodd"><path d="M 1.25089,406.961 L 53.4414,484.906 L 145.854,486.568 L 242.666,484.666 L 226.525,446.74 L 151.27,281.835 L 1.25089,406.961 z " style="fill-opacity:0.5;fill:rgb(169,169,169);stroke:rgb(169,169,169);stroke-width:1"/></g>
<g fill-rule="evenodd"><path d="M 232.332,449.908 L 332.301,298.702 L 258.668,321.252 L 116.502,212.42 L 232.332,449.908 z " style="fill-opacity:0.5;fill:rgb(169,169,169);stroke:rgb(169,169,169);stroke-width:1"/></g>
<g fill-rule="evenodd"><path d="M 283.899,464.581 L 383.986,480.595 L 391.993,408.532 L 400,324.459 L 371.976,332.466 L 271.889,368.497 L 283.899,464.581 z " style="fill-opacity:0.5;fill:rgb(169,169,169);stroke:rgb(169,169,169);stroke-width:1"/></g>
<g fill-rule="evenodd"><path d="M 3.10049,321.429 L 128.412,294.793 L 94.285,134.237 L 30.4561,180.548 L 3.10049,321.429 z " style="fill-opacity:0.5;fill:rgb(169,169,169);stroke:rgb(169,169,169);stroke-width:1"/></g>
<g fill-rule="evenodd"><path d="M 77.6982,108.254 L 165.477,273.091 L 256.203,122.099 L 77.6982,108.254 z " style="fill-opacity:0.5;fill:rgb(169,169,169);stroke:rgb(169,169,169);stroke-width:1"/></g>
<g fill-rule="evenodd"><path d="M 229.997,140.504 L 246.106,319.939 L 380.012,307.113 L 229.997,140.504 z " style="fill-opacity:0.5;fill:rgb(169,169,169);stroke:rgb(169,169,169);stroke-width:1"/></g>
<g fill-rule="evenodd"><path d="M 307.601,120.984 L 234.052,163.447 L 347.159,251.779 L 357.243,229.613 L 398.615,137.081 L 307.601,120.984 z " style="fill-opacity:0.5;fill:rgb(169,169,169);stroke:rgb(169,169,169);stroke-width:1"/></g>
<g fill-rule="evenodd"><path d="M 117.435,78.701 L 43.7811,56.2211 L 5.31463,71.0291 L 0.921508,131.054 L -3.24813e-14,223.909 L 117.435,78.701 z " style="fill-opacity:0.5;fill:rgb(169,169,169);stroke:rgb(169,169,169);stroke-width:1"/></g>
<g fill-rule="evenodd"><path d="M 261.199,14.1947 L 261.199,154.316 L 397.318,14.1947 L 261.199,14.1947 z " style="fill-opacity:0.5;fill:rgb(169,169,169);stroke:rgb(169,169,169);stroke-width:1"/></g>
<g fill-rule="evenodd"><path d="M 130.978,14.0939 L 24.5591,23.4144 L 0.38066,39.6895 L 170.855,97.9557 L 130.978,14.0939 z " style="fill-opacity:0.5;fill:rgb(169,169,169);stroke:rgb(169,169,169);stroke-width:1"/></g>
<g fill-rule="evenodd"><path d="M 244.428,30.4823 L 119.19,114.974 L 267.228,109.804 L 244.428,30.4823 z " style="fill-opacity:0.5;fill:rgb(169,169,169);stroke:rgb(169,169,169);stroke-width:1"/></g>
<g fill-rule="evenodd"><path d="M 3.8247,401.287 L 106.497,318.145 L 22.0358,309.268 L 3.8247,401.287 z " style="fill-opacity:0.5;fill:rgb(169,169,169);stroke:rgb(169,169,169);stroke-width:1"/></g>
<g fill-rule="evenodd"><path d="M 166.792,222.089 L 172.078,245.86 L 228.769,300.677 L 236.606,202.517 L 166.792,222.089 z " style="fill-opacity:0.5;fill:rgb(169,169,169);stroke:rgb(169,169,169);stroke-width:1"/></g>
<g fill-rule="evenodd"><path d="M 342.433,255.898 L 396.69,338.074 L 391.404,187.092 L 342.433,255.898 z " style="fill-opacity:0.5;fill:rgb(169,169,169);stroke:rgb(169,169,169);stroke-width:1"/></g>
<g fill-rule="evenodd"><path d="M 306.254,110.962 L 388.166,100.852 L 398.9,13.4324 L 306.254,110.962 z " style="fill-opacity:0.5;fill:rgb(169,169,169);stroke:rgb(169,169,169);stroke-width:1"/></g>
<g fill-rule="evenodd"><path d="M 156.145,75.0394 L 251.918,28.7436 L 145.887,15.7347 L 156.145,75.0394 z " style="fill-opacity:0.5;fill:rgb(169,169,169);stroke:rgb(169,169,169);stroke-width:1"/></g>
<rect x="-3.24813e-14" y="13.4324" width="400" height="473.135" style="opacity:0.8;fill:none;stroke:rgb(0,0,0);stroke-width:1;stroke-linecap:round"/>
</svg>
