<?xml version="1.0" standalone="no"?>
<!DOCTYPE svg PUBLIC "-//W3C//DTD SVG 1.1//EN"
"http://www.w3.org/Graphics/SVG/1.1/DTD/svg11.dtd">
<svg width="100%" height="100%" version="1.1"
xmlns="http://www.w3.org/2000/svg"
xmlns:xlink="http://www.w3.org/1999/xlink">
<g fill-rule="evenodd"><path d="M 9.74125,431.507 L 66.8189,500 L 154.338,492.39 L 245.662,480.974 L 226.636,446.728 L 139.117,298.326 L 9.74125,431.507 z " style="fill-opacity:0.5;fill:rgb(169,169,169);stroke:rgb(169,169,169);stroke-width:1"/></g>
<g fill-rule="evenodd"><path d="M 139.117,298.326 L 226.636,446.728 L 238.052,374.429 L 390.259,298.326 L 139.117,298.326 z " style="fill-opacity:0.5;fill:rgb(169,169,169);stroke:rgb(169,169,169);stroke-width:1"/></g>
<g fill-rule="evenodd"><path d="M 371.233,488.584 L 386.454,393.455 L 317.96,385.845 L 238.052,378.234 L 245.662,404.871 L 279.909,500 L 371.233,488.584 z " style="fill-opacity:0.5;fill:rgb(169,169,169);stroke:rgb(169,169,169);stroke-width:1"/></g>
<g fill-rule="evenodd"><path d="M 131.507,233.638 L 9.74125,233.638 L 9.74125,389.65 L 78.2344,359.209 L 131.507,233.638 z " style="fill-opacity:0.5;fill:rgb(169,169,169);stroke:rgb(169,169,169);stroke-width:1"/></g>
<g fill-rule="evenodd"><path d="M 165.753,298.326 L 257.078,146.119 L 89.6499,146.119 L 165.753,298.326 z " style="fill-opacity:0.5;fill:rgb(169,169,169);stroke:rgb(169,169,169);stroke-width:1"/></g>
<g fill-rule="evenodd"><path d="M 378.843,298.326 L 241.857,195.586 L 165.753,298.326 L 378.843,298.326 z " style="fill-opacity:0.5;fill:rgb(169,169,169);stroke:rgb(169,169,169);stroke-width:1"/></g>
<g fill-rule="evenodd"><path d="M 302.148,139.84 L 245.071,196.917 L 370.641,250.19 L 374.447,227.359 L 389.667,132.229 L 302.148,139.84 z " style="fill-opacity:0.5;fill:rgb(169,169,169);stroke:rgb(169,169,169);stroke-width:1"/></g>
<g fill-rule="evenodd"><path d="M 117.097,92.7357 L 45.4956,77.552 L 10.3003,94.7595 L 11.113,151.958 L 17.9325,239.955 L 117.097,92.7357 z " style="fill-opacity:0.5;fill:rgb(169,169,169);stroke:rgb(169,169,169);stroke-width:1"/></g>
<g fill-rule="evenodd"><path d="M 255.059,49.3898 L 255.059,182.571 L 384.435,49.3898 L 255.059,49.3898 z " style="fill-opacity:0.5;fill:rgb(169,169,169);stroke:rgb(169,169,169);stroke-width:1"/></g>
<g fill-rule="evenodd"><path d="M 121.976,120.837 L 220.911,143.668 L 247.547,136.057 L 110.561,33.3176 L 121.976,120.837 z " style="fill-opacity:0.5;fill:rgb(169,169,169);stroke:rgb(169,169,169);stroke-width:1"/></g>
<g fill-rule="evenodd"><path d="M 178.347,29.2352 L 254.451,151.001 L 254.451,10.2094 L 178.347,29.2352 z " style="fill-opacity:0.5;fill:rgb(169,169,169);stroke:rgb(169,169,169);stroke-width:1"/></g>
<g fill-rule="evenodd"><path d="M 211.416,-1.15186e-14 L 85.8447,-1.15186e-14 L 142.922,57.0776 L 211.416,-1.15186e-14 z " style="fill-opacity:0.5;fill:rgb(169,169,169);stroke:rgb(169,169,169);stroke-width:1"/></g>
<g fill-rule="evenodd"><path d="M 382.648,321.157 L 359.817,317.352 L 291.324,347.793 L 375.038,389.65 L 382.648,321.157 z " style="fill-opacity:0.5;fill:rgb(169,169,169);stroke:rgb(169,169,169);stroke-width:1"/></g>
<g fill-rule="evenodd"><path d="M 307.813,51.9027 L 385.919,0.33287 L 242.415,5.35763 L 307.813,51.9027 z " style="fill-opacity:0.5;fill:rgb(169,169,169);stroke:rgb(169,169,169);stroke-width:1"/></g>
<g fill-rule="evenodd"><path d="M 301.078,139.656 L 378.933,130.046 L 389.135,46.9566 L 301.078,139.656 z " style="fill-opacity:0.5;fill:rgb(169,169,169);stroke:rgb(169,169,169);stroke-width:1"/></g>
<g fill-rule="evenodd"><path d="M 37.3436,37.0574 L 120.965,93.889 L 81.2837,0.429557 L 37.3436,37.0574 z " style="fill-opacity:0.5;fill:rgb(169,169,169);stroke:rgb(169,169,169);stroke-width:1"/></g>
<rect x="9.74125" y="-1.15186e-14" width="380.518" height="500" style="opacity:0.8;fill:none;stroke:rgb(0,0,0);stroke-width:1;stroke-linecap:round"/>
</svg>
