<?xml version="1.0" standalone="no"?>
<!DOCTYPE svg PUBLIC "-//W3C//DTD SVG 1.1//EN"
"http://www.w3.org/Graphics/SVG/1.1/DTD/svg11.dtd">
<svg width="200mm" height="200mm" viewBox="-250 -250 800 800" version="1.1"
xmlns="http://www.w3.org/2000/svg"
xmlns:xlink="http://www.w3.org/1999/xlink">
<g fill-rule="evenodd"><path d="M 32.8125,126.562 L 32.8125,145.312 L 37.5,145.312 L 37.5,135.938 L 51.5625,135.938 L 51.5625,126.562 L 32.8125,126.562 z " style="fill-opacity:0.5;fill:rgb(204,153,0);stroke:rgb(204,153,0);stroke-width:1"/></g>
<g fill-rule="evenodd"><path d="M 37.5,135.938 L 37.5,164.062 L 65.625,164.062 L 65.625,135.938 L 37.5,135.938 z " style="fill-opacity:0.5;fill:rgb(204,153,0);stroke:rgb(204,153,0);stroke-width:1"/></g>
<g fill-rule="evenodd"><path d="M 98.4375,154.688 L 98.4375,131.25 L 75,131.25 L 75,154.688 L 98.4375,154.688 z " style="fill-opacity:0.5;fill:rgb(204,153,0);stroke:rgb(204,153,0);stroke-width:1"/></g>
<g fill-rule="evenodd"><path d="M 65.625,140.625 L 75,140.625 L 75,131.25 L 84.375,131.25 L 84.375,121.875 L 75,121.875 L 75,112.5 L 65.625,112.5 L 65.625,121.875 L 56.25,121.875 L 56.25,131.25 L 65.625,131.25 L 65.625,140.625 z " style="fill-opacity:0.5;fill:rgb(204,153,0);stroke:rgb(204,153,0);stroke-width:1"/></g>
<g fill-rule="evenodd"><path d="M 93.75,164.062 L 126.562,182.812 L 126.562,164.062 L 93.75,164.062 z " style="fill-opacity:0.5;fill:rgb(204,153,0);stroke:rgb(204,153,0);stroke-width:1"/></g>
<g fill-rule="evenodd"><path d="M 145.312,150 L 117.188,150 L 117.188,164.062 L 126.562,164.062 L 126.562,178.125 L 145.312,178.125 L 145.312,150 z " style="fill-opacity:0.5;fill:rgb(204,153,0);stroke:rgb(204,153,0);stroke-width:1"/></g>
<g fill-rule="evenodd"><path d="M 154.688,164.062 L 182.812,178.125 L 182.812,164.062 L 154.688,164.062 z " style="fill-opacity:0.5;fill:rgb(204,153,0);stroke:rgb(204,153,0);stroke-width:1"/></g>
<g fill-rule="evenodd"><path d="M 201.562,150 L 173.438,150 L 173.438,164.062 L 182.812,164.062 L 182.812,178.125 L 201.562,178.125 L 201.562,150 z " style="fill-opacity:0.5;fill:rgb(204,153,0);stroke:rgb(204,153,0);stroke-width:1"/></g>
<g fill-rule="evenodd"><path d="M 168.75,164.062 L 168.75,140.625 L 145.312,140.625 L 168.75,164.062 z " style="fill-opacity:0.5;fill:rgb(204,153,0);stroke:rgb(204,153,0);stroke-width:1"/></g>
<g fill-rule="evenodd"><path d="M 126.562,131.25 L 126.562,140.625 L 135.938,140.625 L 135.938,150 L 145.312,150 L 145.312,140.625 L 154.688,140.625 L 154.688,131.25 L 145.312,131.25 L 145.312,121.875 L 135.938,121.875 L 135.938,131.25 L 126.562,131.25 z " style="fill-opacity:0.5;fill:rgb(204,153,0);stroke:rgb(204,153,0);stroke-width:1"/></g>
<g fill-rule="evenodd"><path d="M 215.625,164.062 L 229.688,164.062 L 239.062,154.688 L 239.062,145.312 L 225,140.625 L 210.938,140.625 L 201.562,145.312 L 201.562,154.688 L 215.625,164.062 z " style="fill-opacity:0.5;fill:rgb(204,153,0);stroke:rgb(204,153,0);stroke-width:1"/></g>
<g fill-rule="evenodd"><path d="M 248.438,164.062 L 257.812,164.062 L 267.188,154.688 L 267.188,145.312 L 257.812,135.938 L 248.438,135.938 L 239.062,145.312 L 239.062,154.688 L 248.438,164.062 z " style="fill-opacity:0.5;fill:rgb(204,153,0);stroke:rgb(204,153,0);stroke-width:1"/></g>
<g fill-rule="evenodd"><path d="M 37.5,164.062 L 14.0625,164.062 L 14.0625,178.125 L 23.4375,178.125 L 23.4375,187.5 L 37.5,187.5 L 37.5,164.062 z " style="fill-opacity:0.5;fill:rgb(204,153,0);stroke:rgb(204,153,0);stroke-width:1"/></g>
<g fill-rule="evenodd"><path d="M 23.4375,178.125 L 14.0625,178.125 L 23.4375,187.5 L 23.4375,178.125 z " style="fill-opacity:0.5;fill:rgb(204,153,0);stroke:rgb(204,153,0);stroke-width:1"/></g>
<g fill-rule="evenodd"><path d="M 295.312,164.062 L 295.312,145.312 L 276.562,145.312 L 276.562,164.062 L 295.312,164.062 z " style="fill-opacity:0.5;fill:rgb(204,153,0);stroke:rgb(204,153,0);stroke-width:1"/></g>
<g fill-rule="evenodd"><path d="M 300,159.375 L 300,135.938 L 290.625,135.938 L 290.625,145.312 L 295.312,145.312 L 295.312,159.375 L 300,159.375 z " style="fill-opacity:0.5;fill:rgb(204,153,0);stroke:rgb(204,153,0);stroke-width:1"/></g>
<g fill-rule="evenodd"><path d="M 32.8125,145.312 L 4.6875,145.312 L 4.6875,159.375 L 32.8125,159.375 L 32.8125,145.312 z " style="fill-opacity:0.5;fill:rgb(204,153,0);stroke:rgb(204,153,0);stroke-width:1"/></g>
<g fill-rule="evenodd"><path d="M 18.75,140.625 L 0,140.625 L 0,150 L 4.6875,150 L 4.6875,145.312 L 18.75,145.312 L 18.75,140.625 z " style="fill-opacity:0.5;fill:rgb(204,153,0);stroke:rgb(204,153,0);stroke-width:1"/></g>
<g fill-rule="evenodd"><path d="M 65.625,164.062 L 75,168.75 L 84.375,168.75 L 93.75,164.062 L 93.75,159.375 L 84.375,154.688 L 75,154.688 L 65.625,159.375 L 65.625,164.062 z " style="fill-opacity:0.5;fill:rgb(204,153,0);stroke:rgb(204,153,0);stroke-width:1"/></g>
<g fill-rule="evenodd"><path d="M 290.625,164.062 L 271.875,164.062 L 290.625,182.812 L 290.625,164.062 z " style="fill-opacity:0.5;fill:rgb(204,153,0);stroke:rgb(204,153,0);stroke-width:1"/></g>
<g fill-rule="evenodd"><path d="M 262.5,159.375 L 262.5,164.062 L 267.188,164.062 L 267.188,168.75 L 271.875,168.75 L 271.875,164.062 L 276.562,164.062 L 276.562,159.375 L 271.875,159.375 L 271.875,154.688 L 267.188,154.688 L 267.188,159.375 L 262.5,159.375 z " style="fill-opacity:0.5;fill:rgb(204,153,0);stroke:rgb(204,153,0);stroke-width:1"/></g>
<g fill-rule="evenodd"><path d="M 93.75,164.062 L 117.188,164.062 L 117.188,154.688 L 93.75,154.688 L 93.75,164.062 z " style="fill-opacity:0.5;fill:rgb(204,153,0);stroke:rgb(204,153,0);stroke-width:1"/></g>
<g fill-rule="evenodd"><path d="M 182.812,135.938 L 168.75,135.938 L 182.812,150 L 182.812,135.938 z " style="fill-opacity:0.5;fill:rgb(204,153,0);stroke:rgb(204,153,0);stroke-width:1"/></g>
<g fill-rule="evenodd"><path d="M 159.375,131.25 L 159.375,135.938 L 164.062,135.938 L 164.062,140.625 L 168.75,140.625 L 168.75,135.938 L 173.438,135.938 L 173.438,131.25 L 168.75,131.25 L 168.75,126.562 L 164.062,126.562 L 164.062,131.25 L 159.375,131.25 z " style="fill-opacity:0.5;fill:rgb(204,153,0);stroke:rgb(204,153,0);stroke-width:1"/></g>
<g fill-rule="evenodd"><path d="M 32.8125,164.062 L 37.5,164.062 L 37.5,145.312 L 32.8125,145.312 L 32.8125,164.062 z " style="fill-opacity:0.5;fill:rgb(204,153,0);stroke:rgb(204,153,0);stroke-width:1"/></g>
<rect x="0" y="112.5" width="300" height="75" style="opacity:0.8;fill:none;stroke:rgb(212,0,0);stroke-width:4;stroke-dasharray:1,7;stroke-linecap:round"/>
</svg>
