<?xml version="1.0" standalone="no"?>
<!DOCTYPE svg PUBLIC "-//W3C//DTD SVG 1.1//EN"
"http://www.w3.org/Graphics/SVG/1.1/DTD/svg11.dtd">
<svg width="200mm" height="200mm" viewBox="-250 -250 800 800" version="1.1"
xmlns="http://www.w3.org/2000/svg"
xmlns:xlink="http://www.w3.org/1999/xlink">
<g fill-rule="evenodd"><path d="M 1.33227e-14,172.388 L 17.9104,172.388 L 17.9104,167.91 L 8.95522,167.91 L 8.95522,154.478 L 1.33264e-14,154.478 L 1.33227e-14,172.388 z " style="fill-opacity:0.5;fill:rgb(169,169,169);stroke:rgb(169,169,169);stroke-width:2"/></g>
<g fill-rule="evenodd"><path d="M 8.95522,167.91 L 35.8209,167.91 L 35.8209,141.045 L 8.95522,141.045 L 8.95522,167.91 z " style="fill-opacity:0.5;fill:rgb(169,169,169);stroke:rgb(169,169,169);stroke-width:2"/></g>
<g fill-rule="evenodd"><path d="M 35.8209,132.09 L 35.8209,154.478 L 58.209,154.478 L 58.209,132.09 L 35.8209,132.09 z " style="fill-opacity:0.5;fill:rgb(169,169,169);stroke:rgb(169,169,169);stroke-width:2"/></g>
<g fill-rule="evenodd"><path d="M 67.1642,145.522 L 58.209,145.522 L 58.209,154.478 L 49.2537,154.478 L 49.2537,163.433 L 58.209,163.433 L 58.209,172.388 L 67.1642,172.388 L 67.1642,163.433 L 76.1194,163.433 L 76.1194,154.478 L 67.1642,154.478 L 67.1642,145.522 z " style="fill-opacity:0.5;fill:rgb(169,169,169);stroke:rgb(169,169,169);stroke-width:2"/></g>
<g fill-rule="evenodd"><path d="M 85.0746,154.478 L 116.418,172.388 L 116.418,154.478 L 85.0746,154.478 z " style="fill-opacity:0.5;fill:rgb(169,169,169);stroke:rgb(169,169,169);stroke-width:2"/></g>
<g fill-rule="evenodd"><path d="M 134.328,141.045 L 107.463,141.045 L 107.463,154.478 L 116.418,154.478 L 116.418,167.91 L 134.328,167.91 L 134.328,141.045 z " style="fill-opacity:0.5;fill:rgb(169,169,169);stroke:rgb(169,169,169);stroke-width:2"/></g>
<g fill-rule="evenodd"><path d="M 143.284,158.955 L 170.149,172.388 L 170.149,158.955 L 143.284,158.955 z " style="fill-opacity:0.5;fill:rgb(169,169,169);stroke:rgb(169,169,169);stroke-width:2"/></g>
<g fill-rule="evenodd"><path d="M 188.06,145.522 L 161.194,145.522 L 161.194,158.955 L 170.149,158.955 L 170.149,172.388 L 188.06,172.388 L 188.06,145.522 z " style="fill-opacity:0.5;fill:rgb(169,169,169);stroke:rgb(169,169,169);stroke-width:2"/></g>
<g fill-rule="evenodd"><path d="M 188.06,132.09 L 188.06,154.478 L 210.448,154.478 L 188.06,132.09 z " style="fill-opacity:0.5;fill:rgb(169,169,169);stroke:rgb(169,169,169);stroke-width:2"/></g>
<g fill-rule="evenodd"><path d="M 228.358,163.433 L 228.358,154.478 L 219.403,154.478 L 219.403,145.522 L 210.448,145.522 L 210.448,154.478 L 201.493,154.478 L 201.493,163.433 L 210.448,163.433 L 210.448,172.388 L 219.403,172.388 L 219.403,163.433 L 228.358,163.433 z " style="fill-opacity:0.5;fill:rgb(169,169,169);stroke:rgb(169,169,169);stroke-width:2"/></g>
<g fill-rule="evenodd"><path d="M 250.746,158.955 L 250.746,145.522 L 241.791,136.567 L 232.836,136.567 L 228.358,150 L 228.358,163.433 L 232.836,172.388 L 241.791,172.388 L 250.746,158.955 z " style="fill-opacity:0.5;fill:rgb(169,169,169);stroke:rgb(169,169,169);stroke-width:2"/></g>
<g fill-rule="evenodd"><path d="M 277.612,163.433 L 277.612,154.478 L 268.657,145.522 L 259.701,145.522 L 250.746,154.478 L 250.746,163.433 L 259.701,172.388 L 268.657,172.388 L 277.612,163.433 z " style="fill-opacity:0.5;fill:rgb(169,169,169);stroke:rgb(169,169,169);stroke-width:2"/></g>
<g fill-rule="evenodd"><path d="M 277.612,150 L 277.612,172.388 L 291.045,172.388 L 291.045,163.433 L 300,163.433 L 300,150 L 277.612,150 z " style="fill-opacity:0.5;fill:rgb(169,169,169);stroke:rgb(169,169,169);stroke-width:2"/></g>
<g fill-rule="evenodd"><path d="M 291.045,163.433 L 291.045,172.388 L 300,163.433 L 291.045,163.433 z " style="fill-opacity:0.5;fill:rgb(169,169,169);stroke:rgb(169,169,169);stroke-width:2"/></g>
<g fill-rule="evenodd"><path d="M 85.0746,136.567 L 67.1642,136.567 L 67.1642,154.478 L 85.0746,154.478 L 85.0746,136.567 z " style="fill-opacity:0.5;fill:rgb(169,169,169);stroke:rgb(169,169,169);stroke-width:2"/></g>
<g fill-rule="evenodd"><path d="M 80.597,132.09 L 58.209,132.09 L 58.209,141.045 L 67.1642,141.045 L 67.1642,136.567 L 80.597,136.567 L 80.597,132.09 z " style="fill-opacity:0.5;fill:rgb(169,169,169);stroke:rgb(169,169,169);stroke-width:2"/></g>
<g fill-rule="evenodd"><path d="M 268.657,145.522 L 295.522,145.522 L 295.522,132.09 L 268.657,132.09 L 268.657,145.522 z " style="fill-opacity:0.5;fill:rgb(169,169,169);stroke:rgb(169,169,169);stroke-width:2"/></g>
<g fill-rule="evenodd"><path d="M 282.09,150 L 300,150 L 300,141.045 L 295.522,141.045 L 295.522,145.522 L 282.09,145.522 L 282.09,150 z " style="fill-opacity:0.5;fill:rgb(169,169,169);stroke:rgb(169,169,169);stroke-width:2"/></g>
<g fill-rule="evenodd"><path d="M 161.194,150 L 152.239,145.522 L 143.284,145.522 L 134.328,150 L 134.328,154.478 L 143.284,158.955 L 152.239,158.955 L 161.194,154.478 L 161.194,150 z " style="fill-opacity:0.5;fill:rgb(169,169,169);stroke:rgb(169,169,169);stroke-width:2"/></g>
<g fill-rule="evenodd"><path d="M 98.5075,127.612 L 98.5075,145.522 L 116.418,127.612 L 98.5075,127.612 z " style="fill-opacity:0.5;fill:rgb(169,169,169);stroke:rgb(169,169,169);stroke-width:2"/></g>
<g fill-rule="evenodd"><path d="M 94.0299,154.478 L 98.5075,154.478 L 98.5075,150 L 102.985,150 L 102.985,145.522 L 98.5075,145.522 L 98.5075,141.045 L 94.0299,141.045 L 94.0299,145.522 L 89.5522,145.522 L 89.5522,150 L 94.0299,150 L 94.0299,154.478 z " style="fill-opacity:0.5;fill:rgb(169,169,169);stroke:rgb(169,169,169);stroke-width:2"/></g>
<g fill-rule="evenodd"><path d="M 58.209,163.433 L 35.8209,163.433 L 35.8209,172.388 L 58.209,172.388 L 58.209,163.433 z " style="fill-opacity:0.5;fill:rgb(169,169,169);stroke:rgb(169,169,169);stroke-width:2"/></g>
<g fill-rule="evenodd"><path d="M 223.881,127.612 L 223.881,141.045 L 237.313,127.612 L 223.881,127.612 z " style="fill-opacity:0.5;fill:rgb(169,169,169);stroke:rgb(169,169,169);stroke-width:2"/></g>
<g fill-rule="evenodd"><path d="M 219.403,150 L 223.881,150 L 223.881,145.522 L 228.358,145.522 L 228.358,141.045 L 223.881,141.045 L 223.881,136.567 L 219.403,136.567 L 219.403,141.045 L 214.925,141.045 L 214.925,145.522 L 219.403,145.522 L 219.403,150 z " style="fill-opacity:0.5;fill:rgb(169,169,169);stroke:rgb(169,169,169);stroke-width:2"/></g>
<g fill-rule="evenodd"><path d="M 35.8209,172.388 L 35.8209,167.91 L 17.9104,167.91 L 17.9104,172.388 L 35.8209,172.388 z " style="fill-opacity:0.5;fill:rgb(169,169,169);stroke:rgb(169,169,169);stroke-width:2"/></g>
<rect x="1.33227e-14" y="127.612" width="300" height="44.7761" style="opacity:0.8;fill:none;stroke:rgb(0,0,0);stroke-width:2;stroke-linecap:round"/>
</svg>
