<?xml version="1.0" standalone="no"?>
<!DOCTYPE svg PUBLIC "-//W3C//DTD SVG 1.1//EN"
"http://www.w3.org/Graphics/SVG/1.1/DTD/svg11.dtd">
<svg width="200mm" height="200mm" viewBox="-250 -250 800 800" version="1.1"
xmlns="http://www.w3.org/2000/svg"
xmlns:xlink="http://www.w3.org/1999/xlink">
<g fill-rule="evenodd"><path d="M 25.7143,167.143 L 25.7143,141.429 L 4.44647e-15,141.429 L 4.44089e-15,167.143 L 25.7143,167.143 z " style="fill-opacity:0.5;fill:rgb(169,169,169);stroke:rgb(169,169,169);stroke-width:2"/></g>
<g fill-rule="evenodd"><path d="M 287.143,145.714 L 274.286,145.714 L 265.714,154.286 L 265.714,162.857 L 278.571,167.143 L 291.429,167.143 L 300,162.857 L 300,154.286 L 287.143,145.714 z " style="fill-opacity:0.5;fill:rgb(169,169,169);stroke:rgb(169,169,169);stroke-width:2"/></g>
<g fill-rule="evenodd"><path d="M 51.4286,167.143 L 51.4286,141.429 L 38.5714,141.429 L 38.5714,150 L 25.7143,150 L 25.7143,167.143 L 51.4286,167.143 z " style="fill-opacity:0.5;fill:rgb(169,169,169);stroke:rgb(169,169,169);stroke-width:2"/></g>
<g fill-rule="evenodd"><path d="M 77.1429,167.143 L 77.1429,141.429 L 64.2857,141.429 L 64.2857,150 L 51.4286,150 L 51.4286,167.143 L 77.1429,167.143 z " style="fill-opacity:0.5;fill:rgb(169,169,169);stroke:rgb(169,169,169);stroke-width:2"/></g>
<g fill-rule="evenodd"><path d="M 265.714,158.571 L 265.714,150 L 257.143,141.429 L 248.571,141.429 L 240,150 L 240,158.571 L 248.571,167.143 L 257.143,167.143 L 265.714,158.571 z " style="fill-opacity:0.5;fill:rgb(169,169,169);stroke:rgb(169,169,169);stroke-width:2"/></g>
<g fill-rule="evenodd"><path d="M 240,167.143 L 240,145.714 L 218.571,145.714 L 218.571,167.143 L 240,167.143 z " style="fill-opacity:0.5;fill:rgb(169,169,169);stroke:rgb(169,169,169);stroke-width:2"/></g>
<g fill-rule="evenodd"><path d="M 218.571,167.143 L 218.571,145.714 L 205.714,145.714 L 205.714,154.286 L 197.143,154.286 L 197.143,167.143 L 218.571,167.143 z " style="fill-opacity:0.5;fill:rgb(169,169,169);stroke:rgb(169,169,169);stroke-width:2"/></g>
<g fill-rule="evenodd"><path d="M 197.143,158.571 L 197.143,150 L 188.571,150 L 188.571,141.429 L 180,141.429 L 180,150 L 171.429,150 L 171.429,158.571 L 180,158.571 L 180,167.143 L 188.571,167.143 L 188.571,158.571 L 197.143,158.571 z " style="fill-opacity:0.5;fill:rgb(169,169,169);stroke:rgb(169,169,169);stroke-width:2"/></g>
<g fill-rule="evenodd"><path d="M 171.429,158.571 L 171.429,150 L 162.857,150 L 162.857,141.429 L 154.286,141.429 L 154.286,150 L 145.714,150 L 145.714,158.571 L 154.286,158.571 L 154.286,167.143 L 162.857,167.143 L 162.857,158.571 L 171.429,158.571 z " style="fill-opacity:0.5;fill:rgb(169,169,169);stroke:rgb(169,169,169);stroke-width:2"/></g>
<g fill-rule="evenodd"><path d="M 90,167.143 L 90,141.429 L 77.1429,141.429 L 77.1429,167.143 L 90,167.143 z " style="fill-opacity:0.5;fill:rgb(169,169,169);stroke:rgb(169,169,169);stroke-width:2"/></g>
<g fill-rule="evenodd"><path d="M 145.714,167.143 L 145.714,150 L 128.571,150 L 128.571,167.143 L 145.714,167.143 z " style="fill-opacity:0.5;fill:rgb(169,169,169);stroke:rgb(169,169,169);stroke-width:2"/></g>
<g fill-rule="evenodd"><path d="M 124.286,167.143 L 128.571,158.571 L 128.571,150 L 124.286,141.429 L 120,141.429 L 115.714,150 L 115.714,158.571 L 120,167.143 L 124.286,167.143 z " style="fill-opacity:0.5;fill:rgb(169,169,169);stroke:rgb(169,169,169);stroke-width:2"/></g>
<g fill-rule="evenodd"><path d="M 105.306,167.143 L 122.449,137.143 L 105.306,137.143 L 105.306,167.143 z " style="fill-opacity:0.5;fill:rgb(169,169,169);stroke:rgb(169,169,169);stroke-width:2"/></g>
<g fill-rule="evenodd"><path d="M 218.571,132.857 L 197.143,132.857 L 197.143,154.286 L 218.571,132.857 z " style="fill-opacity:0.5;fill:rgb(169,169,169);stroke:rgb(169,169,169);stroke-width:2"/></g>
<g fill-rule="evenodd"><path d="M 145.714,150 L 145.714,132.857 L 141.429,132.857 L 141.429,141.429 L 128.571,141.429 L 128.571,150 L 145.714,150 z " style="fill-opacity:0.5;fill:rgb(169,169,169);stroke:rgb(169,169,169);stroke-width:2"/></g>
<g fill-rule="evenodd"><path d="M 282.857,137.143 L 261.429,137.143 L 261.429,145.714 L 282.857,145.714 L 282.857,137.143 z " style="fill-opacity:0.5;fill:rgb(169,169,169);stroke:rgb(169,169,169);stroke-width:2"/></g>
<g fill-rule="evenodd"><path d="M 90,167.143 L 102.857,141.429 L 90,141.429 L 90,167.143 z " style="fill-opacity:0.5;fill:rgb(169,169,169);stroke:rgb(169,169,169);stroke-width:2"/></g>
<g fill-rule="evenodd"><path d="M 300,137.143 L 282.857,137.143 L 300,154.286 L 300,137.143 z " style="fill-opacity:0.5;fill:rgb(169,169,169);stroke:rgb(169,169,169);stroke-width:2"/></g>
<g fill-rule="evenodd"><path d="M 47.1429,132.857 L 25.7143,132.857 L 25.7143,141.429 L 34.2857,141.429 L 34.2857,137.143 L 47.1429,137.143 L 47.1429,132.857 z " style="fill-opacity:0.5;fill:rgb(169,169,169);stroke:rgb(169,169,169);stroke-width:2"/></g>
<g fill-rule="evenodd"><path d="M 192.857,150 L 192.857,132.857 L 184.286,132.857 L 184.286,137.143 L 188.571,137.143 L 188.571,150 L 192.857,150 z " style="fill-opacity:0.5;fill:rgb(169,169,169);stroke:rgb(169,169,169);stroke-width:2"/></g>
<g fill-rule="evenodd"><path d="M 175.714,145.714 L 175.714,141.429 L 171.429,141.429 L 171.429,137.143 L 167.143,137.143 L 167.143,141.429 L 162.857,141.429 L 162.857,145.714 L 167.143,145.714 L 167.143,150 L 171.429,150 L 171.429,145.714 L 175.714,145.714 z " style="fill-opacity:0.5;fill:rgb(169,169,169);stroke:rgb(169,169,169);stroke-width:2"/></g>
<g fill-rule="evenodd"><path d="M 64.2857,141.429 L 64.2857,137.143 L 60,137.143 L 60,132.857 L 55.7143,132.857 L 55.7143,137.143 L 51.4286,137.143 L 51.4286,141.429 L 55.7143,141.429 L 55.7143,145.714 L 60,145.714 L 60,141.429 L 64.2857,141.429 z " style="fill-opacity:0.5;fill:rgb(169,169,169);stroke:rgb(169,169,169);stroke-width:2"/></g>
<g fill-rule="evenodd"><path d="M 218.571,145.714 L 218.571,132.857 L 205.714,145.714 L 218.571,145.714 z " style="fill-opacity:0.5;fill:rgb(169,169,169);stroke:rgb(169,169,169);stroke-width:2"/></g>
<g fill-rule="evenodd"><path d="M 180,167.143 L 180,162.857 L 162.857,162.857 L 162.857,167.143 L 180,167.143 z " style="fill-opacity:0.5;fill:rgb(169,169,169);stroke:rgb(169,169,169);stroke-width:2"/></g>
<g fill-rule="evenodd"><path d="M 113.878,167.143 L 113.878,158.571 L 105.306,167.143 L 113.878,167.143 z " style="fill-opacity:0.5;fill:rgb(169,169,169);stroke:rgb(169,169,169);stroke-width:2"/></g>
<rect x="4.44089e-15" y="132.857" width="300" height="34.2857" style="opacity:0.8;fill:none;stroke:rgb(0,0,0);stroke-width:2;stroke-linecap:round"/>
</svg>
