<?xml version="1.0" standalone="no"?>
<!DOCTYPE svg PUBLIC "-//W3C//DTD SVG 1.1//EN"
"http://www.w3.org/Graphics/SVG/1.1/DTD/svg11.dtd">
<svg width="200mm" height="200mm" viewBox="-250 -250 800 800" version="1.1"
xmlns="http://www.w3.org/2000/svg"
xmlns:xlink="http://www.w3.org/1999/xlink">
<g fill-rule="evenodd"><path d="M 117.889,248.094 L 117.009,258.651 L 115.249,260.411 L 117.889,269.208 L 118.768,277.126 L 119.648,300 L 129.326,300 L 129.326,251.613 L 124.927,251.613 L 122.287,249.853 L 122.287,248.094 L 117.889,248.094 z " style="fill-opacity:0.5;fill:rgb(169,169,169);stroke:rgb(169,169,169);stroke-width:2"/></g>
<g fill-rule="evenodd"><path d="M 139.003,202.346 L 126.686,202.346 L 124.047,226.1 L 121.408,234.897 L 119.648,238.416 L 122.287,243.695 L 124.927,251.613 L 139.003,251.613 L 139.003,202.346 z " style="fill-opacity:0.5;fill:rgb(169,169,169);stroke:rgb(169,169,169);stroke-width:2"/></g>
<g fill-rule="evenodd"><path d="M 151.32,248.094 L 150.44,258.651 L 148.68,260.411 L 151.32,269.208 L 152.199,277.126 L 153.079,300 L 162.757,300 L 162.757,251.613 L 158.358,251.613 L 155.718,249.853 L 155.718,248.094 L 151.32,248.094 z " style="fill-opacity:0.5;fill:rgb(169,169,169);stroke:rgb(169,169,169);stroke-width:2"/></g>
<g fill-rule="evenodd"><path d="M 172.434,202.346 L 160.117,202.346 L 157.478,226.1 L 154.839,234.897 L 153.079,238.416 L 155.718,243.695 L 158.358,251.613 L 172.434,251.613 L 172.434,202.346 z " style="fill-opacity:0.5;fill:rgb(169,169,169);stroke:rgb(169,169,169);stroke-width:2"/></g>
<g fill-rule="evenodd"><path d="M 160.117,202.346 L 160.997,191.789 L 162.757,190.029 L 160.117,181.232 L 159.238,173.314 L 158.358,150.44 L 148.68,150.44 L 148.68,198.827 L 153.079,198.827 L 155.718,200.587 L 155.718,202.346 L 160.117,202.346 z " style="fill-opacity:0.5;fill:rgb(169,169,169);stroke:rgb(169,169,169);stroke-width:2"/></g>
<g fill-rule="evenodd"><path d="M 139.003,248.094 L 151.32,248.094 L 153.959,224.34 L 156.598,215.543 L 158.358,212.023 L 155.718,206.745 L 153.079,198.827 L 139.003,198.827 L 139.003,248.094 z " style="fill-opacity:0.5;fill:rgb(169,169,169);stroke:rgb(169,169,169);stroke-width:2"/></g>
<g fill-rule="evenodd"><path d="M 117.889,146.921 L 117.009,157.478 L 115.249,159.238 L 117.889,168.035 L 118.768,175.953 L 119.648,198.827 L 129.326,198.827 L 129.326,150.44 L 124.927,150.44 L 122.287,148.68 L 122.287,146.921 L 117.889,146.921 z " style="fill-opacity:0.5;fill:rgb(169,169,169);stroke:rgb(169,169,169);stroke-width:2"/></g>
<g fill-rule="evenodd"><path d="M 139.003,101.173 L 126.686,101.173 L 124.047,124.927 L 121.408,133.724 L 119.648,137.243 L 122.287,142.522 L 124.927,150.44 L 139.003,150.44 L 139.003,101.173 z " style="fill-opacity:0.5;fill:rgb(169,169,169);stroke:rgb(169,169,169);stroke-width:2"/></g>
<g fill-rule="evenodd"><path d="M 163.636,146.921 L 162.757,157.478 L 160.997,159.238 L 163.636,168.035 L 164.516,175.953 L 165.396,198.827 L 175.073,198.827 L 175.073,150.44 L 170.674,150.44 L 168.035,148.68 L 168.035,146.921 L 163.636,146.921 z " style="fill-opacity:0.5;fill:rgb(169,169,169);stroke:rgb(169,169,169);stroke-width:2"/></g>
<g fill-rule="evenodd"><path d="M 184.751,101.173 L 172.434,101.173 L 169.795,124.927 L 167.155,133.724 L 165.396,137.243 L 168.035,142.522 L 170.674,150.44 L 184.751,150.44 L 184.751,101.173 z " style="fill-opacity:0.5;fill:rgb(169,169,169);stroke:rgb(169,169,169);stroke-width:2"/></g>
<g fill-rule="evenodd"><path d="M 141.642,97.654 L 140.762,108.211 L 139.003,109.971 L 141.642,118.768 L 142.522,126.686 L 143.402,149.56 L 153.079,149.56 L 153.079,101.173 L 148.68,101.173 L 146.041,99.4135 L 146.041,97.654 L 141.642,97.654 z " style="fill-opacity:0.5;fill:rgb(169,169,169);stroke:rgb(169,169,169);stroke-width:2"/></g>
<g fill-rule="evenodd"><path d="M 162.757,51.9062 L 150.44,51.9062 L 147.801,75.6598 L 145.161,84.4575 L 143.402,87.9765 L 146.041,93.2551 L 148.68,101.173 L 162.757,101.173 L 162.757,51.9062 z " style="fill-opacity:0.5;fill:rgb(169,169,169);stroke:rgb(169,169,169);stroke-width:2"/></g>
<g fill-rule="evenodd"><path d="M 139.003,49.2669 L 126.686,49.2669 L 124.047,73.0205 L 121.408,81.8182 L 119.648,85.3372 L 122.287,90.6158 L 124.927,98.5337 L 139.003,98.5337 L 139.003,49.2669 z " style="fill-opacity:0.5;fill:rgb(169,169,169);stroke:rgb(169,169,169);stroke-width:2"/></g>
<g fill-rule="evenodd"><path d="M 119.648,34.3109 L 119.648,73.0205 L 124.047,73.0205 L 124.047,34.3109 L 119.648,34.3109 z " style="fill-opacity:0.5;fill:rgb(169,169,169);stroke:rgb(169,169,169);stroke-width:2"/></g>
<g fill-rule="evenodd"><path d="M 182.111,28.1525 L 169.795,28.1525 L 167.155,51.9062 L 164.516,60.7038 L 162.757,64.2229 L 165.396,69.5015 L 168.035,77.4194 L 182.111,77.4194 L 182.111,28.1525 z " style="fill-opacity:0.5;fill:rgb(169,169,169);stroke:rgb(169,169,169);stroke-width:2"/></g>
<g fill-rule="evenodd"><path d="M 162.757,14.956 L 162.757,51.9062 L 167.155,51.9062 L 167.155,14.956 L 162.757,14.956 z " style="fill-opacity:0.5;fill:rgb(169,169,169);stroke:rgb(169,169,169);stroke-width:2"/></g>
<g fill-rule="evenodd"><path d="M 172.727,248.094 L 171.848,258.651 L 170.088,260.411 L 172.727,269.208 L 173.607,277.126 L 174.487,300 L 184.164,300 L 184.164,251.613 L 179.765,251.613 L 177.126,249.853 L 177.126,248.094 L 172.727,248.094 z " style="fill-opacity:0.5;fill:rgb(169,169,169);stroke:rgb(169,169,169);stroke-width:2"/></g>
<g fill-rule="evenodd"><path d="M 179.765,201.466 L 179.765,251.613 L 184.164,251.613 L 184.164,201.466 L 179.765,201.466 z " style="fill-opacity:0.5;fill:rgb(169,169,169);stroke:rgb(169,169,169);stroke-width:2"/></g>
<g fill-rule="evenodd"><path d="M 150.44,51.9062 L 151.32,41.349 L 153.079,39.5894 L 150.44,30.7918 L 149.56,22.8739 L 148.68,7.21645e-16 L 139.003,7.21645e-16 L 139.003,48.3871 L 143.402,48.3871 L 146.041,50.1466 L 146.041,51.9062 L 150.44,51.9062 z " style="fill-opacity:0.5;fill:rgb(169,169,169);stroke:rgb(169,169,169);stroke-width:2"/></g>
<g fill-rule="evenodd"><path d="M 143.402,94.1349 L 143.402,48.3871 L 139.003,48.3871 L 139.003,94.1349 L 143.402,94.1349 z " style="fill-opacity:0.5;fill:rgb(169,169,169);stroke:rgb(169,169,169);stroke-width:2"/></g>
<g fill-rule="evenodd"><path d="M 139.003,294.721 L 137.243,291.202 L 130.205,289.443 L 129.326,291.202 L 129.326,298.24 L 130.205,300 L 137.243,298.24 L 139.003,294.721 z " style="fill-opacity:0.5;fill:rgb(169,169,169);stroke:rgb(169,169,169);stroke-width:2"/></g>
<g fill-rule="evenodd"><path d="M 148.68,294.721 L 146.921,291.202 L 139.883,289.443 L 139.003,291.202 L 139.003,298.24 L 139.883,300 L 146.921,298.24 L 148.68,294.721 z " style="fill-opacity:0.5;fill:rgb(169,169,169);stroke:rgb(169,169,169);stroke-width:2"/></g>
<g fill-rule="evenodd"><path d="M 172.434,294.721 L 170.674,291.202 L 163.636,289.443 L 162.757,291.202 L 162.757,298.24 L 163.636,300 L 170.674,298.24 L 172.434,294.721 z " style="fill-opacity:0.5;fill:rgb(169,169,169);stroke:rgb(169,169,169);stroke-width:2"/></g>
<g fill-rule="evenodd"><path d="M 143.842,285.374 L 142.082,281.855 L 135.044,280.095 L 134.164,281.855 L 134.164,288.893 L 135.044,290.652 L 142.082,288.893 L 143.842,285.374 z " style="fill-opacity:0.5;fill:rgb(169,169,169);stroke:rgb(169,169,169);stroke-width:2"/></g>
<g fill-rule="evenodd"><path d="M 172.434,284.164 L 170.674,280.645 L 163.636,278.886 L 162.757,280.645 L 162.757,287.683 L 163.636,289.443 L 170.674,287.683 L 172.434,284.164 z " style="fill-opacity:0.5;fill:rgb(169,169,169);stroke:rgb(169,169,169);stroke-width:2"/></g>
<g fill-rule="evenodd"><path d="M 152.286,279.39 L 150.527,275.871 L 143.489,274.111 L 142.609,275.871 L 142.609,282.909 L 143.489,284.668 L 150.527,282.909 L 152.286,279.39 z " style="fill-opacity:0.5;fill:rgb(169,169,169);stroke:rgb(169,169,169);stroke-width:2"/></g>
<g fill-rule="evenodd"><path d="M 139.003,276.026 L 137.243,272.507 L 130.205,270.748 L 129.326,272.507 L 129.326,279.545 L 130.205,281.305 L 137.243,279.545 L 139.003,276.026 z " style="fill-opacity:0.5;fill:rgb(169,169,169);stroke:rgb(169,169,169);stroke-width:2"/></g>
<g fill-rule="evenodd"><path d="M 172.434,273.607 L 170.674,270.088 L 163.636,268.328 L 162.757,270.088 L 162.757,277.126 L 163.636,278.886 L 170.674,277.126 L 172.434,273.607 z " style="fill-opacity:0.5;fill:rgb(169,169,169);stroke:rgb(169,169,169);stroke-width:2"/></g>
<g fill-rule="evenodd"><path d="M 142.966,275.156 L 142.966,262.839 L 138.568,262.839 L 138.568,275.156 L 142.966,275.156 z " style="fill-opacity:0.5;fill:rgb(169,169,169);stroke:rgb(169,169,169);stroke-width:2"/></g>
<g fill-rule="evenodd"><path d="M 149.119,274.199 L 145.6,261.002 L 142.961,262.762 L 143.84,274.199 L 149.119,274.199 z " style="fill-opacity:0.5;fill:rgb(169,169,169);stroke:rgb(169,169,169);stroke-width:2"/></g>
<g fill-rule="evenodd"><path d="M 138.568,271.519 L 135.049,258.322 L 132.409,260.082 L 133.289,271.519 L 138.568,271.519 z " style="fill-opacity:0.5;fill:rgb(169,169,169);stroke:rgb(169,169,169);stroke-width:2"/></g>
<g fill-rule="evenodd"><path d="M 168.915,268.328 L 165.396,255.132 L 162.757,256.891 L 163.636,268.328 L 168.915,268.328 z " style="fill-opacity:0.5;fill:rgb(169,169,169);stroke:rgb(169,169,169);stroke-width:2"/></g>
<g fill-rule="evenodd"><path d="M 145.161,261.29 L 141.642,248.094 L 139.003,249.853 L 139.883,261.29 L 145.161,261.29 z " style="fill-opacity:0.5;fill:rgb(169,169,169);stroke:rgb(169,169,169);stroke-width:2"/></g>
<g fill-rule="evenodd"><path d="M 121.408,248.094 L 117.889,234.897 L 115.249,236.657 L 116.129,248.094 L 121.408,248.094 z " style="fill-opacity:0.5;fill:rgb(169,169,169);stroke:rgb(169,169,169);stroke-width:2"/></g>
<g fill-rule="evenodd"><path d="M 178.592,248.094 L 175.073,234.897 L 172.434,236.657 L 173.314,248.094 L 178.592,248.094 z " style="fill-opacity:0.5;fill:rgb(169,169,169);stroke:rgb(169,169,169);stroke-width:2"/></g>
<g fill-rule="evenodd"><path d="M 121.408,234.897 L 117.889,221.701 L 115.249,223.46 L 116.129,234.897 L 121.408,234.897 z " style="fill-opacity:0.5;fill:rgb(169,169,169);stroke:rgb(169,169,169);stroke-width:2"/></g>
<g fill-rule="evenodd"><path d="M 178.592,234.897 L 175.073,221.701 L 172.434,223.46 L 173.314,234.897 L 178.592,234.897 z " style="fill-opacity:0.5;fill:rgb(169,169,169);stroke:rgb(169,169,169);stroke-width:2"/></g>
<g fill-rule="evenodd"><path d="M 149.19,259.901 L 149.19,248.464 L 144.791,248.464 L 144.791,259.901 L 149.19,259.901 z " style="fill-opacity:0.5;fill:rgb(169,169,169);stroke:rgb(169,169,169);stroke-width:2"/></g>
<g fill-rule="evenodd"><path d="M 150.88,292.192 L 152.639,289.553 L 150.88,285.154 L 143.842,285.154 L 143.842,290.433 L 150.88,292.192 z " style="fill-opacity:0.5;fill:rgb(169,169,169);stroke:rgb(169,169,169);stroke-width:2"/></g>
<g fill-rule="evenodd"><path d="M 137.744,258.996 L 139.503,256.357 L 137.744,251.958 L 130.706,251.958 L 130.706,257.237 L 137.744,258.996 z " style="fill-opacity:0.5;fill:rgb(169,169,169);stroke:rgb(169,169,169);stroke-width:2"/></g>
<g fill-rule="evenodd"><path d="M 122.287,222.801 L 124.047,220.161 L 122.287,215.762 L 115.249,215.762 L 115.249,221.041 L 122.287,222.801 z " style="fill-opacity:0.5;fill:rgb(169,169,169);stroke:rgb(169,169,169);stroke-width:2"/></g>
<g fill-rule="evenodd"><path d="M 123.69,216.113 L 125.45,213.474 L 123.69,209.075 L 116.652,209.075 L 116.652,214.354 L 123.69,216.113 z " style="fill-opacity:0.5;fill:rgb(169,169,169);stroke:rgb(169,169,169);stroke-width:2"/></g>
<g fill-rule="evenodd"><path d="M 124.451,209.265 L 126.211,206.626 L 124.451,202.227 L 117.413,202.227 L 117.413,207.506 L 124.451,209.265 z " style="fill-opacity:0.5;fill:rgb(169,169,169);stroke:rgb(169,169,169);stroke-width:2"/></g>
<g fill-rule="evenodd"><path d="M 136.364,202.346 L 138.123,199.707 L 136.364,195.308 L 129.326,195.308 L 129.326,200.587 L 136.364,202.346 z " style="fill-opacity:0.5;fill:rgb(169,169,169);stroke:rgb(169,169,169);stroke-width:2"/></g>
<g fill-rule="evenodd"><path d="M 182.111,201.466 L 183.871,198.827 L 182.111,194.428 L 175.073,194.428 L 175.073,199.707 L 182.111,201.466 z " style="fill-opacity:0.5;fill:rgb(169,169,169);stroke:rgb(169,169,169);stroke-width:2"/></g>
<g fill-rule="evenodd"><path d="M 144.106,198.827 L 145.865,196.188 L 144.106,191.789 L 137.067,191.789 L 137.067,197.067 L 144.106,198.827 z " style="fill-opacity:0.5;fill:rgb(169,169,169);stroke:rgb(169,169,169);stroke-width:2"/></g>
<g fill-rule="evenodd"><path d="M 179.765,222.801 L 179.765,212.243 L 175.367,212.243 L 175.367,222.801 L 179.765,222.801 z " style="fill-opacity:0.5;fill:rgb(169,169,169);stroke:rgb(169,169,169);stroke-width:2"/></g>
<g fill-rule="evenodd"><path d="M 176.833,212.243 L 176.833,201.686 L 172.434,201.686 L 172.434,212.243 L 176.833,212.243 z " style="fill-opacity:0.5;fill:rgb(169,169,169);stroke:rgb(169,169,169);stroke-width:2"/></g>
<g fill-rule="evenodd"><path d="M 118.768,300 L 117.889,286.804 L 115.249,286.804 L 115.249,300 L 118.768,300 z " style="fill-opacity:0.5;fill:rgb(169,169,169);stroke:rgb(169,169,169);stroke-width:2"/></g>
<g fill-rule="evenodd"><path d="M 118.768,286.804 L 117.889,274.487 L 115.249,274.487 L 115.249,286.804 L 118.768,286.804 z " style="fill-opacity:0.5;fill:rgb(169,169,169);stroke:rgb(169,169,169);stroke-width:2"/></g>
<g fill-rule="evenodd"><path d="M 132.845,270.748 L 131.965,259.311 L 129.326,259.311 L 129.326,270.748 L 132.845,270.748 z " style="fill-opacity:0.5;fill:rgb(169,169,169);stroke:rgb(169,169,169);stroke-width:2"/></g>
<g fill-rule="evenodd"><path d="M 165.396,202.346 L 164.516,190.909 L 161.877,190.909 L 161.877,202.346 L 165.396,202.346 z " style="fill-opacity:0.5;fill:rgb(169,169,169);stroke:rgb(169,169,169);stroke-width:2"/></g>
<g fill-rule="evenodd"><path d="M 117.009,209.075 L 117.009,190.6 L 115.249,190.6 L 115.249,209.075 L 117.009,209.075 z " style="fill-opacity:0.5;fill:rgb(169,169,169);stroke:rgb(169,169,169);stroke-width:2"/></g>
<g fill-rule="evenodd"><path d="M 118.768,202.227 L 118.768,183.752 L 117.009,183.752 L 117.009,202.227 L 118.768,202.227 z " style="fill-opacity:0.5;fill:rgb(169,169,169);stroke:rgb(169,169,169);stroke-width:2"/></g>
<g fill-rule="evenodd"><path d="M 147.625,198.827 L 147.625,180.352 L 145.865,180.352 L 145.865,198.827 L 147.625,198.827 z " style="fill-opacity:0.5;fill:rgb(169,169,169);stroke:rgb(169,169,169);stroke-width:2"/></g>
<g fill-rule="evenodd"><path d="M 184.751,196.628 L 184.751,178.152 L 182.991,178.152 L 182.991,196.628 L 184.751,196.628 z " style="fill-opacity:0.5;fill:rgb(169,169,169);stroke:rgb(169,169,169);stroke-width:2"/></g>
<g fill-rule="evenodd"><path d="M 131.085,195.308 L 131.085,176.833 L 129.326,176.833 L 129.326,195.308 L 131.085,195.308 z " style="fill-opacity:0.5;fill:rgb(169,169,169);stroke:rgb(169,169,169);stroke-width:2"/></g>
<g fill-rule="evenodd"><path d="M 132.845,195.308 L 132.845,176.833 L 131.085,176.833 L 131.085,195.308 L 132.845,195.308 z " style="fill-opacity:0.5;fill:rgb(169,169,169);stroke:rgb(169,169,169);stroke-width:2"/></g>
<g fill-rule="evenodd"><path d="M 134.604,195.308 L 134.604,176.833 L 132.845,176.833 L 132.845,195.308 L 134.604,195.308 z " style="fill-opacity:0.5;fill:rgb(169,169,169);stroke:rgb(169,169,169);stroke-width:2"/></g>
<g fill-rule="evenodd"><path d="M 136.364,195.308 L 136.364,176.833 L 134.604,176.833 L 134.604,195.308 L 136.364,195.308 z " style="fill-opacity:0.5;fill:rgb(169,169,169);stroke:rgb(169,169,169);stroke-width:2"/></g>
<g fill-rule="evenodd"><path d="M 171.789,254.252 L 170.909,252.493 L 166.51,251.613 L 165.63,252.493 L 165.63,256.012 L 166.51,256.891 L 170.909,256.012 L 171.789,254.252 z " style="fill-opacity:0.5;fill:rgb(169,169,169);stroke:rgb(169,169,169);stroke-width:2"/></g>
<g fill-rule="evenodd"><path d="M 181.232,191.789 L 180.352,190.029 L 175.953,189.15 L 175.073,190.029 L 175.073,193.548 L 175.953,194.428 L 180.352,193.548 L 181.232,191.789 z " style="fill-opacity:0.5;fill:rgb(169,169,169);stroke:rgb(169,169,169);stroke-width:2"/></g>
<g fill-rule="evenodd"><path d="M 142.522,189.15 L 141.642,187.39 L 137.243,186.51 L 136.364,187.39 L 136.364,190.909 L 137.243,191.789 L 141.642,190.909 L 142.522,189.15 z " style="fill-opacity:0.5;fill:rgb(169,169,169);stroke:rgb(169,169,169);stroke-width:2"/></g>
<g fill-rule="evenodd"><path d="M 181.232,186.51 L 180.352,184.751 L 175.953,183.871 L 175.073,184.751 L 175.073,188.27 L 175.953,189.15 L 180.352,188.27 L 181.232,186.51 z " style="fill-opacity:0.5;fill:rgb(169,169,169);stroke:rgb(169,169,169);stroke-width:2"/></g>
<rect x="115.249" y="7.21645e-16" width="69.5015" height="300" style="opacity:0.8;fill:none;stroke:rgb(0,0,0);stroke-width:2;stroke-linecap:round"/>
</svg>
