<?xml version="1.0" standalone="no"?>
<!DOCTYPE svg PUBLIC "-//W3C//DTD SVG 1.1//EN"
"http://www.w3.org/Graphics/SVG/1.1/DTD/svg11.dtd">
<svg width="200mm" height="200mm" viewBox="-250 -250 800 800" version="1.1"
xmlns="http://www.w3.org/2000/svg"
xmlns:xlink="http://www.w3.org/1999/xlink">
<g fill-rule="evenodd"><path d="M 168.75,300 L 168.75,284.091 L 138.068,280.682 L 126.705,277.273 L 122.159,275 L 115.341,278.409 L 105.114,281.818 L 105.114,300 L 168.75,300 z " style="fill-opacity:0.5;fill:rgb(169,169,169);stroke:rgb(169,169,169);stroke-width:2"/></g>
<g fill-rule="evenodd"><path d="M 126.705,261.364 L 126.705,277.273 L 157.386,280.682 L 168.75,284.091 L 173.295,286.364 L 180.114,282.955 L 190.341,279.545 L 190.341,261.364 L 126.705,261.364 z " style="fill-opacity:0.5;fill:rgb(169,169,169);stroke:rgb(169,169,169);stroke-width:2"/></g>
<g fill-rule="evenodd"><path d="M 168.75,261.364 L 168.75,245.455 L 138.068,242.045 L 126.705,238.636 L 122.159,236.364 L 115.341,239.773 L 105.114,243.182 L 105.114,261.364 L 168.75,261.364 z " style="fill-opacity:0.5;fill:rgb(169,169,169);stroke:rgb(169,169,169);stroke-width:2"/></g>
<g fill-rule="evenodd"><path d="M 131.25,224.091 L 131.25,240 L 161.932,243.409 L 173.295,246.818 L 177.841,249.091 L 184.659,245.682 L 194.886,242.273 L 194.886,224.091 L 131.25,224.091 z " style="fill-opacity:0.5;fill:rgb(169,169,169);stroke:rgb(169,169,169);stroke-width:2"/></g>
<g fill-rule="evenodd"><path d="M 106.25,236.364 L 122.159,236.364 L 125.568,205.682 L 128.977,194.318 L 131.25,189.773 L 127.841,182.955 L 124.432,172.727 L 106.25,172.727 L 106.25,236.364 z " style="fill-opacity:0.5;fill:rgb(169,169,169);stroke:rgb(169,169,169);stroke-width:2"/></g>
<g fill-rule="evenodd"><path d="M 168.75,172.727 L 168.75,156.818 L 138.068,153.409 L 126.705,150 L 122.159,147.727 L 115.341,151.136 L 105.114,154.545 L 105.114,172.727 L 168.75,172.727 z " style="fill-opacity:0.5;fill:rgb(169,169,169);stroke:rgb(169,169,169);stroke-width:2"/></g>
<g fill-rule="evenodd"><path d="M 168.75,220.455 L 184.659,220.455 L 188.068,189.773 L 191.477,178.409 L 193.75,173.864 L 190.341,167.045 L 186.932,156.818 L 168.75,156.818 L 168.75,220.455 z " style="fill-opacity:0.5;fill:rgb(169,169,169);stroke:rgb(169,169,169);stroke-width:2"/></g>
<g fill-rule="evenodd"><path d="M 122.159,131.818 L 122.159,147.727 L 152.841,151.136 L 164.205,154.545 L 168.75,156.818 L 175.568,153.409 L 185.795,150 L 185.795,131.818 L 122.159,131.818 z " style="fill-opacity:0.5;fill:rgb(169,169,169);stroke:rgb(169,169,169);stroke-width:2"/></g>
<g fill-rule="evenodd"><path d="M 172.159,117.045 L 158.523,115.909 L 156.25,113.636 L 144.886,117.045 L 134.659,118.182 L 105.114,119.318 L 105.114,131.818 L 167.614,131.818 L 167.614,126.136 L 169.886,122.727 L 172.159,122.727 L 172.159,117.045 z " style="fill-opacity:0.5;fill:rgb(169,169,169);stroke:rgb(169,169,169);stroke-width:2"/></g>
<g fill-rule="evenodd"><path d="M 105.114,115.297 L 118.75,116.434 L 121.023,118.706 L 132.386,115.297 L 142.614,114.161 L 172.159,113.024 L 172.159,100.524 L 109.659,100.524 L 109.659,106.206 L 107.386,109.615 L 105.114,109.615 L 105.114,115.297 z " style="fill-opacity:0.5;fill:rgb(169,169,169);stroke:rgb(169,169,169);stroke-width:2"/></g>
<g fill-rule="evenodd"><path d="M 191.477,134.091 L 192.614,120.455 L 194.886,118.182 L 191.477,106.818 L 190.341,96.5909 L 189.205,67.0455 L 176.705,67.0455 L 176.705,129.545 L 182.386,129.545 L 185.795,131.818 L 185.795,134.091 L 191.477,134.091 z " style="fill-opacity:0.5;fill:rgb(169,169,169);stroke:rgb(169,169,169);stroke-width:2"/></g>
<g fill-rule="evenodd"><path d="M 109.659,81.8182 L 123.295,82.9545 L 125.568,85.2273 L 136.932,81.8182 L 147.159,80.6818 L 176.705,79.5455 L 176.705,67.0455 L 114.205,67.0455 L 114.205,72.7273 L 111.932,76.1364 L 109.659,76.1364 L 109.659,81.8182 z " style="fill-opacity:0.5;fill:rgb(169,169,169);stroke:rgb(169,169,169);stroke-width:2"/></g>
<g fill-rule="evenodd"><path d="M 176.705,83.5664 L 163.068,82.4301 L 160.795,80.1573 L 149.432,83.5664 L 139.205,84.7028 L 109.659,85.8392 L 109.659,98.3392 L 172.159,98.3392 L 172.159,92.6573 L 174.432,89.2483 L 176.705,89.2483 L 176.705,83.5664 z " style="fill-opacity:0.5;fill:rgb(169,169,169);stroke:rgb(169,169,169);stroke-width:2"/></g>
<g fill-rule="evenodd"><path d="M 172.159,52.2727 L 158.523,51.1364 L 156.25,48.8636 L 144.886,52.2727 L 134.659,53.4091 L 105.114,54.5455 L 105.114,67.0455 L 167.614,67.0455 L 167.614,61.3636 L 169.886,57.9545 L 172.159,57.9545 L 172.159,52.2727 z " style="fill-opacity:0.5;fill:rgb(169,169,169);stroke:rgb(169,169,169);stroke-width:2"/></g>
<g fill-rule="evenodd"><path d="M 105.114,50.5245 L 118.75,51.6608 L 121.023,53.9336 L 132.386,50.5245 L 142.614,49.3881 L 172.159,48.2517 L 172.159,35.7517 L 109.659,35.7517 L 109.659,41.4336 L 107.386,44.8427 L 105.114,44.8427 L 105.114,50.5245 z " style="fill-opacity:0.5;fill:rgb(169,169,169);stroke:rgb(169,169,169);stroke-width:2"/></g>
<g fill-rule="evenodd"><path d="M 186.932,67.0455 L 188.068,53.4091 L 190.341,51.1364 L 186.932,39.7727 L 185.795,29.5455 L 184.659,-1.33227e-14 L 172.159,-1.33227e-14 L 172.159,62.5 L 177.841,62.5 L 181.25,64.7727 L 181.25,67.0455 L 186.932,67.0455 z " style="fill-opacity:0.5;fill:rgb(169,169,169);stroke:rgb(169,169,169);stroke-width:2"/></g>
<g fill-rule="evenodd"><path d="M 172.159,-1.33227e-14 L 107.386,-1.33227e-14 L 107.386,5.68182 L 172.159,5.68182 L 172.159,-1.33227e-14 z " style="fill-opacity:0.5;fill:rgb(169,169,169);stroke:rgb(169,169,169);stroke-width:2"/></g>
<g fill-rule="evenodd"><path d="M 164.205,5.68182 L 105.114,5.68182 L 105.114,11.3636 L 164.205,11.3636 L 164.205,5.68182 z " style="fill-opacity:0.5;fill:rgb(169,169,169);stroke:rgb(169,169,169);stroke-width:2"/></g>
<g fill-rule="evenodd"><path d="M 155.114,11.3636 L 105.114,11.3636 L 105.114,17.0455 L 155.114,17.0455 L 155.114,11.3636 z " style="fill-opacity:0.5;fill:rgb(169,169,169);stroke:rgb(169,169,169);stroke-width:2"/></g>
<g fill-rule="evenodd"><path d="M 168.75,220.455 L 168.75,172.727 L 163.068,172.727 L 163.068,220.455 L 168.75,220.455 z " style="fill-opacity:0.5;fill:rgb(169,169,169);stroke:rgb(169,169,169);stroke-width:2"/></g>
<g fill-rule="evenodd"><path d="M 181.25,293.182 L 178.977,288.636 L 169.886,286.364 L 168.75,288.636 L 168.75,297.727 L 169.886,300 L 178.977,297.727 L 181.25,293.182 z " style="fill-opacity:0.5;fill:rgb(169,169,169);stroke:rgb(169,169,169);stroke-width:2"/></g>
<g fill-rule="evenodd"><path d="M 193.75,293.182 L 191.477,288.636 L 182.386,286.364 L 181.25,288.636 L 181.25,297.727 L 182.386,300 L 191.477,297.727 L 193.75,293.182 z " style="fill-opacity:0.5;fill:rgb(169,169,169);stroke:rgb(169,169,169);stroke-width:2"/></g>
<g fill-rule="evenodd"><path d="M 117.614,273.864 L 115.341,269.318 L 106.25,267.045 L 105.114,269.318 L 105.114,278.409 L 106.25,280.682 L 115.341,278.409 L 117.614,273.864 z " style="fill-opacity:0.5;fill:rgb(169,169,169);stroke:rgb(169,169,169);stroke-width:2"/></g>
<g fill-rule="evenodd"><path d="M 181.25,254.545 L 178.977,250 L 169.886,247.727 L 168.75,250 L 168.75,259.091 L 169.886,261.364 L 178.977,259.091 L 181.25,254.545 z " style="fill-opacity:0.5;fill:rgb(169,169,169);stroke:rgb(169,169,169);stroke-width:2"/></g>
<g fill-rule="evenodd"><path d="M 193.75,254.545 L 191.477,250 L 182.386,247.727 L 181.25,250 L 181.25,259.091 L 182.386,261.364 L 191.477,259.091 L 193.75,254.545 z " style="fill-opacity:0.5;fill:rgb(169,169,169);stroke:rgb(169,169,169);stroke-width:2"/></g>
<g fill-rule="evenodd"><path d="M 163.068,179.545 L 160.795,175 L 151.705,172.727 L 150.568,175 L 150.568,184.091 L 151.705,186.364 L 160.795,184.091 L 163.068,179.545 z " style="fill-opacity:0.5;fill:rgb(169,169,169);stroke:rgb(169,169,169);stroke-width:2"/></g>
<g fill-rule="evenodd"><path d="M 163.068,193.182 L 160.795,188.636 L 151.705,186.364 L 150.568,188.636 L 150.568,197.727 L 151.705,200 L 160.795,197.727 L 163.068,193.182 z " style="fill-opacity:0.5;fill:rgb(169,169,169);stroke:rgb(169,169,169);stroke-width:2"/></g>
<g fill-rule="evenodd"><path d="M 163.068,206.818 L 160.795,202.273 L 151.705,200 L 150.568,202.273 L 150.568,211.364 L 151.705,213.636 L 160.795,211.364 L 163.068,206.818 z " style="fill-opacity:0.5;fill:rgb(169,169,169);stroke:rgb(169,169,169);stroke-width:2"/></g>
<g fill-rule="evenodd"><path d="M 131.25,224.091 L 131.25,208.182 L 125.568,208.182 L 125.568,224.091 L 131.25,224.091 z " style="fill-opacity:0.5;fill:rgb(169,169,169);stroke:rgb(169,169,169);stroke-width:2"/></g>
<g fill-rule="evenodd"><path d="M 139.205,222.955 L 134.659,205.909 L 131.25,208.182 L 132.386,222.955 L 139.205,222.955 z " style="fill-opacity:0.5;fill:rgb(169,169,169);stroke:rgb(169,169,169);stroke-width:2"/></g>
<g fill-rule="evenodd"><path d="M 146.023,222.955 L 141.477,205.909 L 138.068,208.182 L 139.205,222.955 L 146.023,222.955 z " style="fill-opacity:0.5;fill:rgb(169,169,169);stroke:rgb(169,169,169);stroke-width:2"/></g>
<g fill-rule="evenodd"><path d="M 152.841,222.955 L 148.295,205.909 L 144.886,208.182 L 146.023,222.955 L 152.841,222.955 z " style="fill-opacity:0.5;fill:rgb(169,169,169);stroke:rgb(169,169,169);stroke-width:2"/></g>
<g fill-rule="evenodd"><path d="M 141.477,205.909 L 136.932,188.864 L 133.523,191.136 L 134.659,205.909 L 141.477,205.909 z " style="fill-opacity:0.5;fill:rgb(169,169,169);stroke:rgb(169,169,169);stroke-width:2"/></g>
<g fill-rule="evenodd"><path d="M 148.295,205.909 L 143.75,188.864 L 140.341,191.136 L 141.477,205.909 L 148.295,205.909 z " style="fill-opacity:0.5;fill:rgb(169,169,169);stroke:rgb(169,169,169);stroke-width:2"/></g>
<g fill-rule="evenodd"><path d="M 193.75,156.818 L 189.205,139.773 L 185.795,142.045 L 186.932,156.818 L 193.75,156.818 z " style="fill-opacity:0.5;fill:rgb(169,169,169);stroke:rgb(169,169,169);stroke-width:2"/></g>
<g fill-rule="evenodd"><path d="M 115.341,151.136 L 110.795,134.091 L 107.386,136.364 L 108.523,151.136 L 115.341,151.136 z " style="fill-opacity:0.5;fill:rgb(169,169,169);stroke:rgb(169,169,169);stroke-width:2"/></g>
<g fill-rule="evenodd"><path d="M 193.75,39.7727 L 189.205,22.7273 L 185.795,25 L 186.932,39.7727 L 193.75,39.7727 z " style="fill-opacity:0.5;fill:rgb(169,169,169);stroke:rgb(169,169,169);stroke-width:2"/></g>
<g fill-rule="evenodd"><path d="M 193.75,204.545 L 193.75,189.773 L 188.068,189.773 L 188.068,204.545 L 193.75,204.545 z " style="fill-opacity:0.5;fill:rgb(169,169,169);stroke:rgb(169,169,169);stroke-width:2"/></g>
<g fill-rule="evenodd"><path d="M 124.432,271.591 L 126.705,268.182 L 124.432,262.5 L 115.341,262.5 L 115.341,269.318 L 124.432,271.591 z " style="fill-opacity:0.5;fill:rgb(169,169,169);stroke:rgb(169,169,169);stroke-width:2"/></g>
<g fill-rule="evenodd"><path d="M 149.306,190.025 L 151.578,186.616 L 149.306,180.934 L 140.215,180.934 L 140.215,187.753 L 149.306,190.025 z " style="fill-opacity:0.5;fill:rgb(169,169,169);stroke:rgb(169,169,169);stroke-width:2"/></g>
<g fill-rule="evenodd"><path d="M 137.942,184.343 L 140.215,180.934 L 137.942,175.253 L 128.851,175.253 L 128.851,182.071 L 137.942,184.343 z " style="fill-opacity:0.5;fill:rgb(169,169,169);stroke:rgb(169,169,169);stroke-width:2"/></g>
<g fill-rule="evenodd"><path d="M 114.205,26.1364 L 116.477,22.7273 L 114.205,17.0455 L 105.114,17.0455 L 105.114,23.8636 L 114.205,26.1364 z " style="fill-opacity:0.5;fill:rgb(169,169,169);stroke:rgb(169,169,169);stroke-width:2"/></g>
<g fill-rule="evenodd"><path d="M 114.205,35.2273 L 116.477,31.8182 L 114.205,26.1364 L 105.114,26.1364 L 105.114,32.9545 L 114.205,35.2273 z " style="fill-opacity:0.5;fill:rgb(169,169,169);stroke:rgb(169,169,169);stroke-width:2"/></g>
<g fill-rule="evenodd"><path d="M 125.568,34.0909 L 127.841,30.6818 L 125.568,25 L 116.477,25 L 116.477,31.8182 L 125.568,34.0909 z " style="fill-opacity:0.5;fill:rgb(169,169,169);stroke:rgb(169,169,169);stroke-width:2"/></g>
<g fill-rule="evenodd"><path d="M 136.932,32.9545 L 139.205,29.5455 L 136.932,23.8636 L 127.841,23.8636 L 127.841,30.6818 L 136.932,32.9545 z " style="fill-opacity:0.5;fill:rgb(169,169,169);stroke:rgb(169,169,169);stroke-width:2"/></g>
<g fill-rule="evenodd"><path d="M 148.295,31.8182 L 150.568,28.4091 L 148.295,22.7273 L 139.205,22.7273 L 139.205,29.5455 L 148.295,31.8182 z " style="fill-opacity:0.5;fill:rgb(169,169,169);stroke:rgb(169,169,169);stroke-width:2"/></g>
<g fill-rule="evenodd"><path d="M 130.568,237.727 L 130.568,224.091 L 124.886,224.091 L 124.886,237.727 L 130.568,237.727 z " style="fill-opacity:0.5;fill:rgb(169,169,169);stroke:rgb(169,169,169);stroke-width:2"/></g>
<g fill-rule="evenodd"><path d="M 193.75,218.182 L 193.75,204.545 L 188.068,204.545 L 188.068,218.182 L 193.75,218.182 z " style="fill-opacity:0.5;fill:rgb(169,169,169);stroke:rgb(169,169,169);stroke-width:2"/></g>
<g fill-rule="evenodd"><path d="M 194.886,288.352 L 193.75,271.307 L 190.341,271.307 L 190.341,288.352 L 194.886,288.352 z " style="fill-opacity:0.5;fill:rgb(169,169,169);stroke:rgb(169,169,169);stroke-width:2"/></g>
<g fill-rule="evenodd"><path d="M 119.352,149.131 L 118.215,133.222 L 114.806,133.222 L 114.806,149.131 L 119.352,149.131 z " style="fill-opacity:0.5;fill:rgb(169,169,169);stroke:rgb(169,169,169);stroke-width:2"/></g>
<g fill-rule="evenodd"><path d="M 176.705,131.818 L 175.568,117.045 L 172.159,117.045 L 172.159,131.818 L 176.705,131.818 z " style="fill-opacity:0.5;fill:rgb(169,169,169);stroke:rgb(169,169,169);stroke-width:2"/></g>
<g fill-rule="evenodd"><path d="M 176.705,117.045 L 175.568,102.273 L 172.159,102.273 L 172.159,117.045 L 176.705,117.045 z " style="fill-opacity:0.5;fill:rgb(169,169,169);stroke:rgb(169,169,169);stroke-width:2"/></g>
<g fill-rule="evenodd"><path d="M 194.886,152.557 L 194.886,128.693 L 192.614,128.693 L 192.614,152.557 L 194.886,152.557 z " style="fill-opacity:0.5;fill:rgb(169,169,169);stroke:rgb(169,169,169);stroke-width:2"/></g>
<g fill-rule="evenodd"><path d="M 107.386,109.615 L 107.386,85.7517 L 105.114,85.7517 L 105.114,109.615 L 107.386,109.615 z " style="fill-opacity:0.5;fill:rgb(169,169,169);stroke:rgb(169,169,169);stroke-width:2"/></g>
<g fill-rule="evenodd"><path d="M 193.75,106.818 L 193.75,82.9545 L 191.477,82.9545 L 191.477,106.818 L 193.75,106.818 z " style="fill-opacity:0.5;fill:rgb(169,169,169);stroke:rgb(169,169,169);stroke-width:2"/></g>
<g fill-rule="evenodd"><path d="M 193.75,82.9545 L 193.75,59.0909 L 191.477,59.0909 L 191.477,82.9545 L 193.75,82.9545 z " style="fill-opacity:0.5;fill:rgb(169,169,169);stroke:rgb(169,169,169);stroke-width:2"/></g>
<g fill-rule="evenodd"><path d="M 157.386,35.2273 L 157.386,11.3636 L 155.114,11.3636 L 155.114,35.2273 L 157.386,35.2273 z " style="fill-opacity:0.5;fill:rgb(169,169,169);stroke:rgb(169,169,169);stroke-width:2"/></g>
<g fill-rule="evenodd"><path d="M 159.659,35.2273 L 159.659,11.3636 L 157.386,11.3636 L 157.386,35.2273 L 159.659,35.2273 z " style="fill-opacity:0.5;fill:rgb(169,169,169);stroke:rgb(169,169,169);stroke-width:2"/></g>
<g fill-rule="evenodd"><path d="M 161.932,35.2273 L 161.932,11.3636 L 159.659,11.3636 L 159.659,35.2273 L 161.932,35.2273 z " style="fill-opacity:0.5;fill:rgb(169,169,169);stroke:rgb(169,169,169);stroke-width:2"/></g>
<g fill-rule="evenodd"><path d="M 166.477,35.2273 L 166.477,11.3636 L 164.205,11.3636 L 164.205,35.2273 L 166.477,35.2273 z " style="fill-opacity:0.5;fill:rgb(169,169,169);stroke:rgb(169,169,169);stroke-width:2"/></g>
<g fill-rule="evenodd"><path d="M 163.068,220.455 L 161.932,218.182 L 156.25,217.045 L 155.114,218.182 L 155.114,222.727 L 156.25,223.864 L 161.932,222.727 L 163.068,220.455 z " style="fill-opacity:0.5;fill:rgb(169,169,169);stroke:rgb(169,169,169);stroke-width:2"/></g>
<g fill-rule="evenodd"><path d="M 150.568,176.136 L 149.432,173.864 L 143.75,172.727 L 142.614,173.864 L 142.614,178.409 L 143.75,179.545 L 149.432,178.409 L 150.568,176.136 z " style="fill-opacity:0.5;fill:rgb(169,169,169);stroke:rgb(169,169,169);stroke-width:2"/></g>
<g fill-rule="evenodd"><path d="M 113.068,73.4091 L 111.932,71.1364 L 106.25,70 L 105.114,71.1364 L 105.114,75.6818 L 106.25,76.8182 L 111.932,75.6818 L 113.068,73.4091 z " style="fill-opacity:0.5;fill:rgb(169,169,169);stroke:rgb(169,169,169);stroke-width:2"/></g>
<g fill-rule="evenodd"><path d="M 128.977,21.5909 L 127.841,19.3182 L 122.159,18.1818 L 121.023,19.3182 L 121.023,23.8636 L 122.159,25 L 127.841,23.8636 L 128.977,21.5909 z " style="fill-opacity:0.5;fill:rgb(169,169,169);stroke:rgb(169,169,169);stroke-width:2"/></g>
<rect x="105.114" y="-1.33227e-14" width="89.7727" height="300" style="opacity:0.8;fill:none;stroke:rgb(0,0,0);stroke-width:2;stroke-linecap:round"/>
</svg>
