<?xml version="1.0" standalone="no"?>
<!DOCTYPE svg PUBLIC "-//W3C//DTD SVG 1.1//EN"
"http://www.w3.org/Graphics/SVG/1.1/DTD/svg11.dtd">
<svg width="100%" height="100%" version="1.1"
xmlns="http://www.w3.org/2000/svg"
xmlns:xlink="http://www.w3.org/1999/xlink">
<g fill-rule="evenodd"><path d="M 0,414.52 L 60,486.52 L 152,478.52 L 248,466.52 L 228,430.52 L 136,274.52 L 0,414.52 z " style="fill-opacity:0.5;fill:rgb(169,169,169);stroke:rgb(169,169,169);stroke-width:1"/></g>
<g fill-rule="evenodd"><path d="M 136,274.52 L 228,430.52 L 240,354.52 L 400,274.52 L 136,274.52 z " style="fill-opacity:0.5;fill:rgb(169,169,169);stroke:rgb(169,169,169);stroke-width:1"/></g>
<g fill-rule="evenodd"><path d="M 380,474.52 L 396,374.52 L 324,366.52 L 240,358.52 L 248,386.52 L 284,486.52 L 380,474.52 z " style="fill-opacity:0.5;fill:rgb(169,169,169);stroke:rgb(169,169,169);stroke-width:1"/></g>
<g fill-rule="evenodd"><path d="M 128.466,207.593 L 0.465566,207.593 L 0.465566,371.593 L 72.4656,339.593 L 128.466,207.593 z " style="fill-opacity:0.5;fill:rgb(169,169,169);stroke:rgb(169,169,169);stroke-width:1"/></g>
<g fill-rule="evenodd"><path d="M 253.85,108.421 L 67.3776,115.051 L 163.234,262.657 L 253.85,108.421 z " style="fill-opacity:0.5;fill:rgb(169,169,169);stroke:rgb(169,169,169);stroke-width:1"/></g>
<g fill-rule="evenodd"><path d="M 374.674,274.412 L 230.674,166.412 L 150.674,274.412 L 374.674,274.412 z " style="fill-opacity:0.5;fill:rgb(169,169,169);stroke:rgb(169,169,169);stroke-width:1"/></g>
<g fill-rule="evenodd"><path d="M 317.576,238.822 L 397.805,266.447 L 390.273,123.257 L 366.948,130.183 L 270.055,159.64 L 317.576,238.822 z " style="fill-opacity:0.5;fill:rgb(169,169,169);stroke:rgb(169,169,169);stroke-width:1"/></g>
<g fill-rule="evenodd"><path d="M 140.194,72.4334 L 71.0234,38.7375 L 30.749,47.3382 L 17.0319,105.886 L 1.60936,197.374 L 140.194,72.4334 z " style="fill-opacity:0.5;fill:rgb(169,169,169);stroke:rgb(169,169,169);stroke-width:1"/></g>
<g fill-rule="evenodd"><path d="M 262.507,13.48 L 262.507,153.48 L 398.507,13.48 L 262.507,13.48 z " style="fill-opacity:0.5;fill:rgb(169,169,169);stroke:rgb(169,169,169);stroke-width:1"/></g>
<g fill-rule="evenodd"><path d="M 185.361,25.4987 L 79.2109,14.352 L 52.3946,25.7047 L 208.483,115.35 L 185.361,25.4987 z " style="fill-opacity:0.5;fill:rgb(169,169,169);stroke:rgb(169,169,169);stroke-width:1"/></g>
<g fill-rule="evenodd"><path d="M 180.855,33.48 L 260.855,161.48 L 260.855,13.48 L 180.855,33.48 z " style="fill-opacity:0.5;fill:rgb(169,169,169);stroke:rgb(169,169,169);stroke-width:1"/></g>
<g fill-rule="evenodd"><path d="M 1.95493,205.709 L 133.955,205.709 L 73.9549,145.709 L 1.95493,205.709 z " style="fill-opacity:0.5;fill:rgb(169,169,169);stroke:rgb(169,169,169);stroke-width:1"/></g>
<g fill-rule="evenodd"><path d="M 395.028,294.583 L 371.028,290.583 L 299.028,322.583 L 387.028,366.583 L 395.028,294.583 z " style="fill-opacity:0.5;fill:rgb(169,169,169);stroke:rgb(169,169,169);stroke-width:1"/></g>
<g fill-rule="evenodd"><path d="M 390.364,111.425 L 381.045,13.48 L 314.888,149.154 L 390.364,111.425 z " style="fill-opacity:0.5;fill:rgb(169,169,169);stroke:rgb(169,169,169);stroke-width:1"/></g>
<g fill-rule="evenodd"><path d="M 367.823,369.442 L 307.478,313.241 L 233.675,361.17 L 367.823,369.442 z " style="fill-opacity:0.5;fill:rgb(169,169,169);stroke:rgb(169,169,169);stroke-width:1"/></g>
<g fill-rule="evenodd"><path d="M 279.087,480.937 L 243.087,380.937 L 219.087,484.937 L 279.087,480.937 z " style="fill-opacity:0.5;fill:rgb(169,169,169);stroke:rgb(169,169,169);stroke-width:1"/></g>
<rect x="0" y="13.48" width="400" height="473.04" style="opacity:0.8;fill:none;stroke:rgb(0,0,0);stroke-width:1;stroke-linecap:round"/>
</svg>
