<?xml version="1.0" standalone="no"?>
<!DOCTYPE svg PUBLIC "-//W3C//DTD SVG 1.1//EN"
"http://www.w3.org/Graphics/SVG/1.1/DTD/svg11.dtd">
<svg width="100%" height="100%" version="1.1"
xmlns="http://www.w3.org/2000/svg"
xmlns:xlink="http://www.w3.org/1999/xlink">
<g fill-rule="evenodd"><path d="M 238.989,376.614 L 189.94,306.056 L 105.269,306.011 L 16.6254,309.301 L 32.0163,343.781 L 103.582,493.62 L 238.989,376.614 z " style="fill-opacity:0.5;fill:rgb(169,169,169);stroke:rgb(169,169,169);stroke-width:1"/></g>
<g fill-rule="evenodd"><path d="M 383.375,500 L 299.022,356.968 L 288.02,426.65 L 141.32,500 L 383.375,500 z " style="fill-opacity:0.5;fill:rgb(169,169,169);stroke:rgb(169,169,169);stroke-width:1"/></g>
<g fill-rule="evenodd"><path d="M 247.677,257.946 L 233.007,349.633 L 299.022,356.968 L 376.04,364.303 L 368.705,338.63 L 335.697,246.943 L 247.677,257.946 z " style="fill-opacity:0.5;fill:rgb(169,169,169);stroke:rgb(169,169,169);stroke-width:1"/></g>
<g fill-rule="evenodd"><path d="M 236.235,327.656 L 236.235,210.296 L 85.8677,210.296 L 115.208,276.311 L 236.235,327.656 z " style="fill-opacity:0.5;fill:rgb(169,169,169);stroke:rgb(169,169,169);stroke-width:1"/></g>
<g fill-rule="evenodd"><path d="M 379.167,151.9 L 248.043,42.0145 L 222.799,201.397 L 379.167,151.9 z " style="fill-opacity:0.5;fill:rgb(169,169,169);stroke:rgb(169,169,169);stroke-width:1"/></g>
<g fill-rule="evenodd"><path d="M 238.142,206.548 L 106.112,107.525 L 32.7624,206.548 L 238.142,206.548 z " style="fill-opacity:0.5;fill:rgb(169,169,169);stroke:rgb(169,169,169);stroke-width:1"/></g>
<g fill-rule="evenodd"><path d="M 237.734,87.2719 L 209.853,14.64 L 113.719,104.319 L 132.33,116.62 L 210.125,167.315 L 237.734,87.2719 z " style="fill-opacity:0.5;fill:rgb(169,169,169);stroke:rgb(169,169,169);stroke-width:1"/></g>
<g fill-rule="evenodd"><path d="M 372.372,105.286 L 383.375,35.6039 L 365.037,2.59648 L 310.025,6.26397 L 225.672,17.2664 L 372.372,105.286 z " style="fill-opacity:0.5;fill:rgb(169,169,169);stroke:rgb(169,169,169);stroke-width:1"/></g>
<g fill-rule="evenodd"><path d="M 119.141,77.251 L 16.6254,-1.62925e-14 L 44.0978,176.837 L 119.141,77.251 z " style="fill-opacity:0.5;fill:rgb(169,169,169);stroke:rgb(169,169,169);stroke-width:1"/></g>
<g fill-rule="evenodd"><path d="M 112.612,70.4996 L 199.013,24.5486 L 213.576,2.17014 L 48.9679,14.0564 L 112.612,70.4996 z " style="fill-opacity:0.5;fill:rgb(169,169,169);stroke:rgb(169,169,169);stroke-width:1"/></g>
<g fill-rule="evenodd"><path d="M 251.547,360.515 L 164.461,468.077 L 292.765,423.899 L 251.547,360.515 z " style="fill-opacity:0.5;fill:rgb(169,169,169);stroke:rgb(169,169,169);stroke-width:1"/></g>
<g fill-rule="evenodd"><path d="M 383.375,304.156 L 383.375,183.129 L 328.362,238.141 L 383.375,304.156 z " style="fill-opacity:0.5;fill:rgb(169,169,169);stroke:rgb(169,169,169);stroke-width:1"/></g>
<g fill-rule="evenodd"><path d="M 82.6403,500 L 86.3078,477.995 L 56.9678,411.98 L 16.6254,492.665 L 82.6403,500 z " style="fill-opacity:0.5;fill:rgb(169,169,169);stroke:rgb(169,169,169);stroke-width:1"/></g>
<g fill-rule="evenodd"><path d="M 379.707,397.31 L 299.022,356.968 L 372.372,474.328 L 379.707,397.31 z " style="fill-opacity:0.5;fill:rgb(169,169,169);stroke:rgb(169,169,169);stroke-width:1"/></g>
<g fill-rule="evenodd"><path d="M 48.7527,227.357 L 67.0901,300.707 L 147.775,300.707 L 48.7527,227.357 z " style="fill-opacity:0.5;fill:rgb(169,169,169);stroke:rgb(169,169,169);stroke-width:1"/></g>
<g fill-rule="evenodd"><path d="M 318.105,174.36 L 237.126,228.568 L 334.972,226.851 L 318.105,174.36 z " style="fill-opacity:0.5;fill:rgb(169,169,169);stroke:rgb(169,169,169);stroke-width:1"/></g>
<rect x="16.6254" y="-1.62925e-14" width="366.749" height="500" style="opacity:0.8;fill:none;stroke:rgb(0,0,0);stroke-width:1;stroke-linecap:round"/>
</svg>
