<?xml version="1.0" standalone="no"?>
<!DOCTYPE svg PUBLIC "-//W3C//DTD SVG 1.1//EN"
"http://www.w3.org/Graphics/SVG/1.1/DTD/svg11.dtd">
<svg width="100%" height="100%" version="1.1"
xmlns="http://www.w3.org/2000/svg"
xmlns:xlink="http://www.w3.org/1999/xlink">
<g fill-rule="evenodd"><path d="M 239.159,376.077 L 189.896,305.211 L 104.856,305.166 L 15.8261,308.469 L 31.284,343.1 L 103.161,493.592 L 239.159,376.077 z " style="fill-opacity:0.5;fill:rgb(169,169,169);stroke:rgb(169,169,169);stroke-width:1"/></g>
<g fill-rule="evenodd"><path d="M 384.174,500 L 299.454,356.344 L 288.403,426.33 L 141.064,500 L 384.174,500 z " style="fill-opacity:0.5;fill:rgb(169,169,169);stroke:rgb(169,169,169);stroke-width:1"/></g>
<g fill-rule="evenodd"><path d="M 247.885,256.89 L 233.151,348.977 L 299.454,356.344 L 376.807,363.711 L 369.44,337.927 L 336.289,245.84 L 247.885,256.89 z " style="fill-opacity:0.5;fill:rgb(169,169,169);stroke:rgb(169,169,169);stroke-width:1"/></g>
<g fill-rule="evenodd"><path d="M 236.393,326.904 L 236.393,209.033 L 85.3701,209.033 L 114.838,275.336 L 236.393,326.904 z " style="fill-opacity:0.5;fill:rgb(169,169,169);stroke:rgb(169,169,169);stroke-width:1"/></g>
<g fill-rule="evenodd"><path d="M 218.61,200.774 L 380.035,141.904 L 254.081,39.9078 L 218.61,200.774 z " style="fill-opacity:0.5;fill:rgb(169,169,169);stroke:rgb(169,169,169);stroke-width:1"/></g>
<g fill-rule="evenodd"><path d="M 235.067,205.269 L 102.461,105.814 L 28.7919,205.269 L 235.067,205.269 z " style="fill-opacity:0.5;fill:rgb(169,169,169);stroke:rgb(169,169,169);stroke-width:1"/></g>
<g fill-rule="evenodd"><path d="M 162.429,53.8094 L 107.176,109.062 L 228.731,160.632 L 232.415,138.531 L 247.149,46.4424 L 162.429,53.8094 z " style="fill-opacity:0.5;fill:rgb(169,169,169);stroke:rgb(169,169,169);stroke-width:1"/></g>
<g fill-rule="evenodd"><path d="M 373.123,103.566 L 384.174,33.5795 L 365.757,0.428198 L 310.504,4.11168 L 225.784,15.1621 L 373.123,103.566 z " style="fill-opacity:0.5;fill:rgb(169,169,169);stroke:rgb(169,169,169);stroke-width:1"/></g>
<g fill-rule="evenodd"><path d="M 18.0761,67.1765 L 15.8261,196.08 L 143.295,69.3622 L 18.0761,67.1765 z " style="fill-opacity:0.5;fill:rgb(169,169,169);stroke:rgb(169,169,169);stroke-width:1"/></g>
<g fill-rule="evenodd"><path d="M 112.231,68.6273 L 199.009,22.476 L 213.636,-3.38063e-14 L 48.3095,11.938 L 112.231,68.6273 z " style="fill-opacity:0.5;fill:rgb(169,169,169);stroke:rgb(169,169,169);stroke-width:1"/></g>
<g fill-rule="evenodd"><path d="M 244.926,353.048 L 181.833,476.903 L 298.655,406.709 L 244.926,353.048 z " style="fill-opacity:0.5;fill:rgb(169,169,169);stroke:rgb(169,169,169);stroke-width:1"/></g>
<g fill-rule="evenodd"><path d="M 384.174,303.302 L 384.174,181.747 L 328.922,237 L 384.174,303.302 z " style="fill-opacity:0.5;fill:rgb(169,169,169);stroke:rgb(169,169,169);stroke-width:1"/></g>
<g fill-rule="evenodd"><path d="M 82.1287,500 L 85.8122,477.899 L 56.3443,411.597 L 15.8261,492.633 L 82.1287,500 z " style="fill-opacity:0.5;fill:rgb(169,169,169);stroke:rgb(169,169,169);stroke-width:1"/></g>
<g fill-rule="evenodd"><path d="M 380.49,396.863 L 299.454,356.344 L 373.123,474.216 L 380.49,396.863 z " style="fill-opacity:0.5;fill:rgb(169,169,169);stroke:rgb(169,169,169);stroke-width:1"/></g>
<g fill-rule="evenodd"><path d="M 48.0933,226.169 L 66.5107,299.838 L 147.547,299.838 L 48.0933,226.169 z " style="fill-opacity:0.5;fill:rgb(169,169,169);stroke:rgb(169,169,169);stroke-width:1"/></g>
<g fill-rule="evenodd"><path d="M 324.165,240.724 L 361.147,150.108 L 280.64,206.49 L 324.165,240.724 z " style="fill-opacity:0.5;fill:rgb(169,169,169);stroke:rgb(169,169,169);stroke-width:1"/></g>
<rect x="15.8261" y="-3.38063e-14" width="368.348" height="500" style="opacity:0.8;fill:none;stroke:rgb(0,0,0);stroke-width:1;stroke-linecap:round"/>
</svg>
