<?xml version="1.0" standalone="no"?>
<!DOCTYPE svg PUBLIC "-//W3C//DTD SVG 1.1//EN"
"http://www.w3.org/Graphics/SVG/1.1/DTD/svg11.dtd">
<svg width="100%" height="100%" version="1.1"
xmlns="http://www.w3.org/2000/svg"
xmlns:xlink="http://www.w3.org/1999/xlink">
<g fill-rule="evenodd"><path d="M 0.159876,407.573 L 53.6951,484.584 L 146.109,484.633 L 242.86,481.043 L 226.061,443.409 L 147.951,279.866 L 0.159876,407.573 z " style="fill-opacity:0.5;fill:rgb(169,169,169);stroke:rgb(169,169,169);stroke-width:1"/></g>
<g fill-rule="evenodd"><path d="M 235.159,457.447 L 335.113,306.262 L 261.491,328.809 L 119.345,219.993 L 235.159,457.447 z " style="fill-opacity:0.5;fill:rgb(169,169,169);stroke:rgb(169,169,169);stroke-width:1"/></g>
<g fill-rule="evenodd"><path d="M 399.158,393.467 L 314.25,338.136 L 277.63,400.703 L 236.125,474.24 L 264.979,478.323 L 371.053,486.115 L 399.158,393.467 z " style="fill-opacity:0.5;fill:rgb(169,169,169);stroke:rgb(169,169,169);stroke-width:1"/></g>
<g fill-rule="evenodd"><path d="M 2.36753,325.549 L 127.661,298.917 L 93.539,138.384 L 29.7193,184.688 L 2.36753,325.549 z " style="fill-opacity:0.5;fill:rgb(169,169,169);stroke:rgb(169,169,169);stroke-width:1"/></g>
<g fill-rule="evenodd"><path d="M 187.866,275.361 L 254.672,100.995 L 81.2201,131.579 L 187.866,275.361 z " style="fill-opacity:0.5;fill:rgb(169,169,169);stroke:rgb(169,169,169);stroke-width:1"/></g>
<g fill-rule="evenodd"><path d="M 236.134,138.696 L 252.241,318.105 L 386.128,305.281 L 236.134,138.696 z " style="fill-opacity:0.5;fill:rgb(169,169,169);stroke:rgb(169,169,169);stroke-width:1"/></g>
<g fill-rule="evenodd"><path d="M 391.745,180.062 L 388.781,95.1989 L 257.707,153.588 L 272.542,172.895 L 334.811,252.855 L 391.745,180.062 z " style="fill-opacity:0.5;fill:rgb(169,169,169);stroke:rgb(169,169,169);stroke-width:1"/></g>
<g fill-rule="evenodd"><path d="M 117.419,78.4828 L 43.7748,56.0061 L 5.31387,70.812 L 0.921376,130.828 L 1.74571e-14,223.67 L 117.419,78.4828 z " style="fill-opacity:0.5;fill:rgb(169,169,169);stroke:rgb(169,169,169);stroke-width:1"/></g>
<g fill-rule="evenodd"><path d="M 263.501,14.1607 L 263.501,154.262 L 399.6,14.1607 L 263.501,14.1607 z " style="fill-opacity:0.5;fill:rgb(169,169,169);stroke:rgb(169,169,169);stroke-width:1"/></g>
<g fill-rule="evenodd"><path d="M 130.959,13.885 L 24.5556,23.2041 L 0.380605,39.4769 L 170.83,97.7347 L 130.959,13.885 z " style="fill-opacity:0.5;fill:rgb(169,169,169);stroke:rgb(169,169,169);stroke-width:1"/></g>
<g fill-rule="evenodd"><path d="M 271.317,19.5089 L 120.355,14.2514 L 243.142,97.0719 L 271.317,19.5089 z " style="fill-opacity:0.5;fill:rgb(169,169,169);stroke:rgb(169,169,169);stroke-width:1"/></g>
<g fill-rule="evenodd"><path d="M 0.023908,411.042 L 96.6326,320.953 L 11.77,317.99 L 0.023908,411.042 z " style="fill-opacity:0.5;fill:rgb(169,169,169);stroke:rgb(169,169,169);stroke-width:1"/></g>
<g fill-rule="evenodd"><path d="M 130.533,101.853 L 152.138,113.081 L 230.559,104.891 L 160.412,35.8009 L 130.533,101.853 z " style="fill-opacity:0.5;fill:rgb(169,169,169);stroke:rgb(169,169,169);stroke-width:1"/></g>
<g fill-rule="evenodd"><path d="M 345.75,244.672 L 400,326.836 L 394.714,175.876 L 345.75,244.672 z " style="fill-opacity:0.5;fill:rgb(169,169,169);stroke:rgb(169,169,169);stroke-width:1"/></g>
<g fill-rule="evenodd"><path d="M 399.147,395.056 L 389.038,313.155 L 301.631,302.423 L 399.147,395.056 z " style="fill-opacity:0.5;fill:rgb(169,169,169);stroke:rgb(169,169,169);stroke-width:1"/></g>
<g fill-rule="evenodd"><path d="M 245.806,285.291 L 225.878,180.815 L 185.875,279.852 L 245.806,285.291 z " style="fill-opacity:0.5;fill:rgb(169,169,169);stroke:rgb(169,169,169);stroke-width:1"/></g>
<rect x="1.74571e-14" y="13.885" width="400" height="472.23" style="opacity:0.8;fill:none;stroke:rgb(0,0,0);stroke-width:1;stroke-linecap:round"/>
</svg>
