<?xml version="1.0" standalone="no"?>
<!DOCTYPE svg PUBLIC "-//W3C//DTD SVG 1.1//EN"
"http://www.w3.org/Graphics/SVG/1.1/DTD/svg11.dtd">
<svg width="100%" height="100%" version="1.1"
xmlns="http://www.w3.org/2000/svg"
xmlns:xlink="http://www.w3.org/1999/xlink">
<g fill-rule="evenodd"><path d="M 236.942,389.137 L 190.468,322.283 L 110.242,322.24 L 26.2522,325.357 L 40.8351,358.027 L 108.643,500 L 236.942,389.137 z " style="fill-opacity:0.5;fill:rgb(169,169,169);stroke:rgb(169,169,169);stroke-width:1"/></g>
<g fill-rule="evenodd"><path d="M 373.748,500 L 293.824,364.477 L 283.399,430.501 L 144.401,500 L 373.748,500 z " style="fill-opacity:0.5;fill:rgb(169,169,169);stroke:rgb(169,169,169);stroke-width:1"/></g>
<g fill-rule="evenodd"><path d="M 245.174,270.653 L 231.275,357.527 L 293.824,364.477 L 366.798,371.427 L 359.848,347.102 L 328.573,260.228 L 245.174,270.653 z " style="fill-opacity:0.5;fill:rgb(169,169,169);stroke:rgb(169,169,169);stroke-width:1"/></g>
<g fill-rule="evenodd"><path d="M 234.872,335.044 L 234.872,223.846 L 92.3987,223.846 L 120.198,286.395 L 234.872,335.044 z " style="fill-opacity:0.5;fill:rgb(169,169,169);stroke:rgb(169,169,169);stroke-width:1"/></g>
<g fill-rule="evenodd"><path d="M 290.349,265.006 L 373.748,126.008 L 220.85,126.008 L 290.349,265.006 z " style="fill-opacity:0.5;fill:rgb(169,169,169);stroke:rgb(169,169,169);stroke-width:1"/></g>
<g fill-rule="evenodd"><path d="M 220.85,223.846 L 95.7513,130.021 L 26.2522,223.846 L 220.85,223.846 z " style="fill-opacity:0.5;fill:rgb(169,169,169);stroke:rgb(169,169,169);stroke-width:1"/></g>
<g fill-rule="evenodd"><path d="M 155.938,85.4048 L 103.813,137.529 L 218.487,186.18 L 221.962,165.331 L 235.862,78.4549 L 155.938,85.4048 z " style="fill-opacity:0.5;fill:rgb(169,169,169);stroke:rgb(169,169,169);stroke-width:1"/></g>
<g fill-rule="evenodd"><path d="M 363.323,126.008 L 373.748,59.9837 L 356.373,28.7091 L 304.249,32.1841 L 224.325,42.6089 L 363.323,126.008 z " style="fill-opacity:0.5;fill:rgb(169,169,169);stroke:rgb(169,169,169);stroke-width:1"/></g>
<g fill-rule="evenodd"><path d="M 26.2522,83.2426 L 26.2522,204.867 L 144.401,83.2426 L 26.2522,83.2426 z " style="fill-opacity:0.5;fill:rgb(169,169,169);stroke:rgb(169,169,169);stroke-width:1"/></g>
<g fill-rule="evenodd"><path d="M 50.3974,76.8995 L 142.994,81.7436 L 165.742,70.6753 L 26.2522,-4.16334e-16 L 50.3974,76.8995 z " style="fill-opacity:0.5;fill:rgb(169,169,169);stroke:rgb(169,169,169);stroke-width:1"/></g>
<g fill-rule="evenodd"><path d="M 151.351,72.9905 L 262.549,3.49136 L 133.976,3.49136 L 151.351,72.9905 z " style="fill-opacity:0.5;fill:rgb(169,169,169);stroke:rgb(169,169,169);stroke-width:1"/></g>
<g fill-rule="evenodd"><path d="M 373.748,314.437 L 373.748,199.764 L 321.623,251.888 L 373.748,314.437 z " style="fill-opacity:0.5;fill:rgb(169,169,169);stroke:rgb(169,169,169);stroke-width:1"/></g>
<g fill-rule="evenodd"><path d="M 88.8014,500 L 92.2764,479.15 L 64.4767,416.601 L 26.2522,493.05 L 88.8014,500 z " style="fill-opacity:0.5;fill:rgb(169,169,169);stroke:rgb(169,169,169);stroke-width:1"/></g>
<g fill-rule="evenodd"><path d="M 370.273,402.701 L 293.824,364.477 L 363.323,475.675 L 370.273,402.701 z " style="fill-opacity:0.5;fill:rgb(169,169,169);stroke:rgb(169,169,169);stroke-width:1"/></g>
<g fill-rule="evenodd"><path d="M 120.076,321.871 L 102.701,252.372 L 26.2522,252.372 L 120.076,321.871 z " style="fill-opacity:0.5;fill:rgb(169,169,169);stroke:rgb(169,169,169);stroke-width:1"/></g>
<g fill-rule="evenodd"><path d="M 246.534,450.258 L 281.422,364.772 L 205.473,417.963 L 246.534,450.258 z " style="fill-opacity:0.5;fill:rgb(169,169,169);stroke:rgb(169,169,169);stroke-width:1"/></g>
<rect x="26.2522" y="-4.16334e-16" width="347.496" height="500" style="opacity:0.8;fill:none;stroke:rgb(0,0,0);stroke-width:1;stroke-linecap:round"/>
</svg>
