<?xml version="1.0" standalone="no"?>
<!DOCTYPE svg PUBLIC "-//W3C//DTD SVG 1.1//EN"
"http://www.w3.org/Graphics/SVG/1.1/DTD/svg11.dtd">
<svg width="100%" height="100%" version="1.1"
xmlns="http://www.w3.org/2000/svg"
xmlns:xlink="http://www.w3.org/1999/xlink">
<g fill-rule="evenodd"><path d="M 0,414.52 L 60,486.52 L 152,478.52 L 248,466.52 L 228,430.52 L 136,274.52 L 0,414.52 z " style="fill-opacity:0.5;fill:rgb(169,169,169);stroke:rgb(169,169,169);stroke-width:1"/></g>
<g fill-rule="evenodd"><path d="M 136,274.52 L 228,430.52 L 240,354.52 L 400,274.52 L 136,274.52 z " style="fill-opacity:0.5;fill:rgb(169,169,169);stroke:rgb(169,169,169);stroke-width:1"/></g>
<g fill-rule="evenodd"><path d="M 380,474.52 L 396,374.52 L 324,366.52 L 240,358.52 L 248,386.52 L 284,486.52 L 380,474.52 z " style="fill-opacity:0.5;fill:rgb(169,169,169);stroke:rgb(169,169,169);stroke-width:1"/></g>
<g fill-rule="evenodd"><path d="M 48.1825,331.237 L 156.733,263.407 L 69.8259,124.328 L 25.7239,189.619 L 48.1825,331.237 z " style="fill-opacity:0.5;fill:rgb(169,169,169);stroke:rgb(169,169,169);stroke-width:1"/></g>
<g fill-rule="evenodd"><path d="M 271.763,142.463 L 89.9288,100.605 L 144.316,267.991 L 271.763,142.463 z " style="fill-opacity:0.5;fill:rgb(169,169,169);stroke:rgb(169,169,169);stroke-width:1"/></g>
<g fill-rule="evenodd"><path d="M 382.3,273.922 L 238.3,165.922 L 158.3,273.922 L 382.3,273.922 z " style="fill-opacity:0.5;fill:rgb(169,169,169);stroke:rgb(169,169,169);stroke-width:1"/></g>
<g fill-rule="evenodd"><path d="M 304.257,110.537 L 244.257,170.537 L 376.257,226.537 L 380.257,202.537 L 396.257,102.537 L 304.257,110.537 z " style="fill-opacity:0.5;fill:rgb(169,169,169);stroke:rgb(169,169,169);stroke-width:1"/></g>
<g fill-rule="evenodd"><path d="M 112.853,58.4038 L 37.585,42.4427 L 0.587629,60.5312 L 1.44199,120.658 L 8.61064,213.16 L 112.853,58.4038 z " style="fill-opacity:0.5;fill:rgb(169,169,169);stroke:rgb(169,169,169);stroke-width:1"/></g>
<g fill-rule="evenodd"><path d="M 260.093,13.48 L 260.093,153.48 L 396.093,13.48 L 260.093,13.48 z " style="fill-opacity:0.5;fill:rgb(169,169,169);stroke:rgb(169,169,169);stroke-width:1"/></g>
<g fill-rule="evenodd"><path d="M 168.583,41.2733 L 64.5832,17.2733 L 36.5832,25.2733 L 180.583,133.273 L 168.583,41.2733 z " style="fill-opacity:0.5;fill:rgb(169,169,169);stroke:rgb(169,169,169);stroke-width:1"/></g>
<g fill-rule="evenodd"><path d="M 141.796,60.821 L 262.354,151.65 L 209.315,13.48 L 141.796,60.821 z " style="fill-opacity:0.5;fill:rgb(169,169,169);stroke:rgb(169,169,169);stroke-width:1"/></g>
<g fill-rule="evenodd"><path d="M 399.908,318.213 L 399.908,186.213 L 339.908,246.213 L 399.908,318.213 z " style="fill-opacity:0.5;fill:rgb(169,169,169);stroke:rgb(169,169,169);stroke-width:1"/></g>
<g fill-rule="evenodd"><path d="M 382.483,302.671 L 358.311,305.441 L 297.92,356.047 L 394.639,374.087 L 382.483,302.671 z " style="fill-opacity:0.5;fill:rgb(169,169,169);stroke:rgb(169,169,169);stroke-width:1"/></g>
<g fill-rule="evenodd"><path d="M 54.6936,339.109 L 0.483382,257.004 L 5.76541,407.855 L 54.6936,339.109 z " style="fill-opacity:0.5;fill:rgb(169,169,169);stroke:rgb(169,169,169);stroke-width:1"/></g>
<g fill-rule="evenodd"><path d="M 306.253,110.925 L 388.094,100.824 L 398.818,13.48 L 306.253,110.925 z " style="fill-opacity:0.5;fill:rgb(169,169,169);stroke:rgb(169,169,169);stroke-width:1"/></g>
<g fill-rule="evenodd"><path d="M 210.371,24.4427 L 256.626,120.132 L 269.624,14.1929 L 210.371,24.4427 z " style="fill-opacity:0.5;fill:rgb(169,169,169);stroke:rgb(169,169,169);stroke-width:1"/></g>
<rect x="0" y="13.48" width="400" height="473.04" style="opacity:0.8;fill:none;stroke:rgb(0,0,0);stroke-width:1;stroke-linecap:round"/>
</svg>
