<?xml version="1.0" standalone="no"?>
<!DOCTYPE svg PUBLIC "-//W3C//DTD SVG 1.1//EN"
"http://www.w3.org/Graphics/SVG/1.1/DTD/svg11.dtd">
<svg width="100%" height="100%" version="1.1"
xmlns="http://www.w3.org/2000/svg"
xmlns:xlink="http://www.w3.org/1999/xlink">
<g fill-rule="evenodd"><path d="M 0.159876,407.904 L 53.6951,484.915 L 146.109,484.964 L 242.86,481.374 L 226.061,443.74 L 147.951,280.197 L 0.159876,407.904 z " style="fill-opacity:0.5;fill:rgb(169,169,169);stroke:rgb(169,169,169);stroke-width:1"/></g>
<g fill-rule="evenodd"><path d="M 234.369,457.097 L 334.323,305.913 L 260.701,328.46 L 118.555,219.643 L 234.369,457.097 z " style="fill-opacity:0.5;fill:rgb(169,169,169);stroke:rgb(169,169,169);stroke-width:1"/></g>
<g fill-rule="evenodd"><path d="M 399.158,393.797 L 314.25,338.467 L 277.63,401.034 L 236.125,474.571 L 264.979,478.654 L 371.053,486.446 L 399.158,393.797 z " style="fill-opacity:0.5;fill:rgb(169,169,169);stroke:rgb(169,169,169);stroke-width:1"/></g>
<g fill-rule="evenodd"><path d="M 2.36753,325.879 L 127.661,299.247 L 93.539,138.715 L 29.7193,185.019 L 2.36753,325.879 z " style="fill-opacity:0.5;fill:rgb(169,169,169);stroke:rgb(169,169,169);stroke-width:1"/></g>
<g fill-rule="evenodd"><path d="M 187.866,275.692 L 254.672,101.326 L 81.2201,131.91 L 187.866,275.692 z " style="fill-opacity:0.5;fill:rgb(169,169,169);stroke:rgb(169,169,169);stroke-width:1"/></g>
<g fill-rule="evenodd"><path d="M 231.164,135.832 L 247.271,315.241 L 381.158,302.418 L 231.164,135.832 z " style="fill-opacity:0.5;fill:rgb(169,169,169);stroke:rgb(169,169,169);stroke-width:1"/></g>
<g fill-rule="evenodd"><path d="M 390.912,179.399 L 383.511,94.8083 L 255.672,159.977 L 271.498,178.482 L 337.866,255.073 L 390.912,179.399 z " style="fill-opacity:0.5;fill:rgb(169,169,169);stroke:rgb(169,169,169);stroke-width:1"/></g>
<g fill-rule="evenodd"><path d="M 117.419,78.8135 L 43.7748,56.3368 L 5.31387,71.1427 L 0.921376,131.159 L 1.74571e-14,224.001 L 117.419,78.8135 z " style="fill-opacity:0.5;fill:rgb(169,169,169);stroke:rgb(169,169,169);stroke-width:1"/></g>
<g fill-rule="evenodd"><path d="M 263.501,14.4914 L 263.501,154.593 L 399.6,14.4914 L 263.501,14.4914 z " style="fill-opacity:0.5;fill:rgb(169,169,169);stroke:rgb(169,169,169);stroke-width:1"/></g>
<g fill-rule="evenodd"><path d="M 130.959,14.2157 L 24.5556,23.5348 L 0.380605,39.8076 L 170.83,98.0654 L 130.959,14.2157 z " style="fill-opacity:0.5;fill:rgb(169,169,169);stroke:rgb(169,169,169);stroke-width:1"/></g>
<g fill-rule="evenodd"><path d="M 233.299,21.207 L 124.651,126.148 L 269.521,95.3543 L 233.299,21.207 z " style="fill-opacity:0.5;fill:rgb(169,169,169);stroke:rgb(169,169,169);stroke-width:1"/></g>
<g fill-rule="evenodd"><path d="M 0.023908,411.373 L 96.6326,321.284 L 11.77,318.32 L 0.023908,411.373 z " style="fill-opacity:0.5;fill:rgb(169,169,169);stroke:rgb(169,169,169);stroke-width:1"/></g>
<g fill-rule="evenodd"><path d="M 318.653,329.997 L 330.285,351.388 L 399.88,388.45 L 380.36,291.946 L 318.653,329.997 z " style="fill-opacity:0.5;fill:rgb(169,169,169);stroke:rgb(169,169,169);stroke-width:1"/></g>
<g fill-rule="evenodd"><path d="M 345.75,245.002 L 400,327.167 L 394.714,176.206 L 345.75,245.002 z " style="fill-opacity:0.5;fill:rgb(169,169,169);stroke:rgb(169,169,169);stroke-width:1"/></g>
<g fill-rule="evenodd"><path d="M 306.21,111.07 L 388.111,100.962 L 398.843,13.5543 L 306.21,111.07 z " style="fill-opacity:0.5;fill:rgb(169,169,169);stroke:rgb(169,169,169);stroke-width:1"/></g>
<g fill-rule="evenodd"><path d="M 245.806,285.622 L 225.878,181.146 L 185.875,280.183 L 245.806,285.622 z " style="fill-opacity:0.5;fill:rgb(169,169,169);stroke:rgb(169,169,169);stroke-width:1"/></g>
<rect x="1.74571e-14" y="13.5543" width="400" height="472.891" style="opacity:0.8;fill:none;stroke:rgb(0,0,0);stroke-width:1;stroke-linecap:round"/>
</svg>
