<?xml version="1.0" standalone="no"?>
<!DOCTYPE svg PUBLIC "-//W3C//DTD SVG 1.1//EN"
"http://www.w3.org/Graphics/SVG/1.1/DTD/svg11.dtd">
<svg width="100%" height="100%" version="1.1"
xmlns="http://www.w3.org/2000/svg"
xmlns:xlink="http://www.w3.org/1999/xlink">
<g fill-rule="evenodd"><path d="M 0,426.289 L 60,498.289 L 152,490.289 L 248,478.289 L 228,442.289 L 136,286.289 L 0,426.289 z " style="fill-opacity:0.5;fill:rgb(169,169,169);stroke:rgb(169,169,169);stroke-width:1"/></g>
<g fill-rule="evenodd"><path d="M 136,286.289 L 228,442.289 L 240,366.289 L 400,286.289 L 136,286.289 z " style="fill-opacity:0.5;fill:rgb(169,169,169);stroke:rgb(169,169,169);stroke-width:1"/></g>
<g fill-rule="evenodd"><path d="M 380,486.289 L 396,386.289 L 324,378.289 L 240,370.289 L 248,398.289 L 284,498.289 L 380,486.289 z " style="fill-opacity:0.5;fill:rgb(169,169,169);stroke:rgb(169,169,169);stroke-width:1"/></g>
<g fill-rule="evenodd"><path d="M 128.466,219.362 L 0.465568,219.362 L 0.465568,383.362 L 72.4656,351.362 L 128.466,219.362 z " style="fill-opacity:0.5;fill:rgb(169,169,169);stroke:rgb(169,169,169);stroke-width:1"/></g>
<g fill-rule="evenodd"><path d="M 260.545,129.805 L 74.0724,136.435 L 169.929,284.041 L 260.545,129.805 z " style="fill-opacity:0.5;fill:rgb(169,169,169);stroke:rgb(169,169,169);stroke-width:1"/></g>
<g fill-rule="evenodd"><path d="M 389.338,284.597 L 245.338,176.597 L 165.338,284.597 L 389.338,284.597 z " style="fill-opacity:0.5;fill:rgb(169,169,169);stroke:rgb(169,169,169);stroke-width:1"/></g>
<g fill-rule="evenodd"><path d="M 303.666,219.641 L 388.312,213.722 L 325.429,84.8588 L 306.665,100.348 L 228.984,165.322 L 303.666,219.641 z " style="fill-opacity:0.5;fill:rgb(169,169,169);stroke:rgb(169,169,169);stroke-width:1"/></g>
<g fill-rule="evenodd"><path d="M 114.884,64.7444 L 40.5543,44.8659 L 2.66088,60.9926 L 0.367267,121.082 L 2.68491,213.833 L 114.884,64.7444 z " style="fill-opacity:0.5;fill:rgb(169,169,169);stroke:rgb(169,169,169);stroke-width:1"/></g>
<g fill-rule="evenodd"><path d="M 256.908,1.7112 L 256.908,141.71 L 392.908,1.7112 L 256.908,1.7112 z " style="fill-opacity:0.5;fill:rgb(169,169,169);stroke:rgb(169,169,169);stroke-width:1"/></g>
<g fill-rule="evenodd"><path d="M 137.075,3.50945 L 30.407,7.24311 L 5.43144,22.2168 L 172.478,89.2674 L 137.075,3.50945 z " style="fill-opacity:0.5;fill:rgb(169,169,169);stroke:rgb(169,169,169);stroke-width:1"/></g>
<g fill-rule="evenodd"><path d="M 317.5,75.824 L 397.5,203.823 L 397.5,55.824 L 317.5,75.824 z " style="fill-opacity:0.5;fill:rgb(169,169,169);stroke:rgb(169,169,169);stroke-width:1"/></g>
<g fill-rule="evenodd"><path d="M 0.00271734,213.947 L 132.003,213.947 L 72.0026,153.947 L 0.00271734,213.947 z " style="fill-opacity:0.5;fill:rgb(169,169,169);stroke:rgb(169,169,169);stroke-width:1"/></g>
<g fill-rule="evenodd"><path d="M 389.919,311.451 L 365.919,307.451 L 293.919,339.451 L 381.919,383.451 L 389.919,311.451 z " style="fill-opacity:0.5;fill:rgb(169,169,169);stroke:rgb(169,169,169);stroke-width:1"/></g>
<g fill-rule="evenodd"><path d="M 128.408,74.7158 L 54.6471,139.825 L 203.294,113.601 L 128.408,74.7158 z " style="fill-opacity:0.5;fill:rgb(169,169,169);stroke:rgb(169,169,169);stroke-width:1"/></g>
<g fill-rule="evenodd"><path d="M 242.844,91.4875 L 229.893,10.0488 L 142.228,2.37909 L 242.844,91.4875 z " style="fill-opacity:0.5;fill:rgb(169,169,169);stroke:rgb(169,169,169);stroke-width:1"/></g>
<g fill-rule="evenodd"><path d="M 160.107,104.907 L 266.311,108.989 L 178.875,47.7773 L 160.107,104.907 z " style="fill-opacity:0.5;fill:rgb(169,169,169);stroke:rgb(169,169,169);stroke-width:1"/></g>
<rect x="0" y="1.7112" width="400" height="496.578" style="opacity:0.8;fill:none;stroke:rgb(0,0,0);stroke-width:1;stroke-linecap:round"/>
</svg>
