<?xml version="1.0" standalone="no"?>
<!DOCTYPE svg PUBLIC "-//W3C//DTD SVG 1.1//EN"
"http://www.w3.org/Graphics/SVG/1.1/DTD/svg11.dtd">
<svg width="100%" height="100%" version="1.1"
xmlns="http://www.w3.org/2000/svg"
xmlns:xlink="http://www.w3.org/1999/xlink">
<g fill-rule="evenodd"><path d="M 0,414.52 L 60,486.52 L 152,478.52 L 248,466.52 L 228,430.52 L 136,274.52 L 0,414.52 z " style="fill-opacity:0.5;fill:rgb(169,169,169);stroke:rgb(169,169,169);stroke-width:1"/></g>
<g fill-rule="evenodd"><path d="M 136,274.52 L 228,430.52 L 240,354.52 L 400,274.52 L 136,274.52 z " style="fill-opacity:0.5;fill:rgb(169,169,169);stroke:rgb(169,169,169);stroke-width:1"/></g>
<g fill-rule="evenodd"><path d="M 380,474.52 L 396,374.52 L 324,366.52 L 240,358.52 L 248,386.52 L 284,486.52 L 380,474.52 z " style="fill-opacity:0.5;fill:rgb(169,169,169);stroke:rgb(169,169,169);stroke-width:1"/></g>
<g fill-rule="evenodd"><path d="M 128.466,207.593 L 0.465566,207.593 L 0.465566,371.593 L 72.4656,339.593 L 128.466,207.593 z " style="fill-opacity:0.5;fill:rgb(169,169,169);stroke:rgb(169,169,169);stroke-width:1"/></g>
<g fill-rule="evenodd"><path d="M 252.162,111.404 L 65.6891,118.034 L 161.546,265.64 L 252.162,111.404 z " style="fill-opacity:0.5;fill:rgb(169,169,169);stroke:rgb(169,169,169);stroke-width:1"/></g>
<g fill-rule="evenodd"><path d="M 374.674,274.412 L 230.674,166.412 L 150.674,274.412 L 374.674,274.412 z " style="fill-opacity:0.5;fill:rgb(169,169,169);stroke:rgb(169,169,169);stroke-width:1"/></g>
<g fill-rule="evenodd"><path d="M 319.768,236.71 L 399.998,264.335 L 392.466,121.146 L 369.141,128.071 L 272.248,157.528 L 319.768,236.71 z " style="fill-opacity:0.5;fill:rgb(169,169,169);stroke:rgb(169,169,169);stroke-width:1"/></g>
<g fill-rule="evenodd"><path d="M 8.04315,14.251 L 4.05305,91.089 L 27.7065,124.801 L 86.9597,114.551 L 177.201,93.0006 L 8.04315,14.251 z " style="fill-opacity:0.5;fill:rgb(169,169,169);stroke:rgb(169,169,169);stroke-width:1"/></g>
<g fill-rule="evenodd"><path d="M 262.507,13.48 L 262.507,153.48 L 398.507,13.48 L 262.507,13.48 z " style="fill-opacity:0.5;fill:rgb(169,169,169);stroke:rgb(169,169,169);stroke-width:1"/></g>
<g fill-rule="evenodd"><path d="M 185.361,25.4987 L 79.2109,14.352 L 52.3946,25.7047 L 208.483,115.35 L 185.361,25.4987 z " style="fill-opacity:0.5;fill:rgb(169,169,169);stroke:rgb(169,169,169);stroke-width:1"/></g>
<g fill-rule="evenodd"><path d="M 180.855,33.48 L 260.855,161.48 L 260.855,13.48 L 180.855,33.48 z " style="fill-opacity:0.5;fill:rgb(169,169,169);stroke:rgb(169,169,169);stroke-width:1"/></g>
<g fill-rule="evenodd"><path d="M 1.95493,205.709 L 133.955,205.709 L 73.9549,145.709 L 1.95493,205.709 z " style="fill-opacity:0.5;fill:rgb(169,169,169);stroke:rgb(169,169,169);stroke-width:1"/></g>
<g fill-rule="evenodd"><path d="M 395.049,297.051 L 371.049,293.051 L 299.049,325.051 L 387.049,369.051 L 395.049,297.051 z " style="fill-opacity:0.5;fill:rgb(169,169,169);stroke:rgb(169,169,169);stroke-width:1"/></g>
<g fill-rule="evenodd"><path d="M 399.376,112.008 L 390.057,14.0634 L 323.9,149.737 L 399.376,112.008 z " style="fill-opacity:0.5;fill:rgb(169,169,169);stroke:rgb(169,169,169);stroke-width:1"/></g>
<g fill-rule="evenodd"><path d="M 256.424,153.236 L 338.77,148.868 L 355.561,62.485 L 256.424,153.236 z " style="fill-opacity:0.5;fill:rgb(169,169,169);stroke:rgb(169,169,169);stroke-width:1"/></g>
<g fill-rule="evenodd"><path d="M 111.202,220.181 L 83.3343,322.745 L 162.646,251.319 L 111.202,220.181 z " style="fill-opacity:0.5;fill:rgb(169,169,169);stroke:rgb(169,169,169);stroke-width:1"/></g>
<rect x="0" y="13.48" width="400" height="473.04" style="opacity:0.8;fill:none;stroke:rgb(0,0,0);stroke-width:1;stroke-linecap:round"/>
</svg>
