<?xml version="1.0" standalone="no"?>
<!DOCTYPE svg PUBLIC "-//W3C//DTD SVG 1.1//EN"
"http://www.w3.org/Graphics/SVG/1.1/DTD/svg11.dtd">
<svg width="100%" height="100%" version="1.1"
xmlns="http://www.w3.org/2000/svg"
xmlns:xlink="http://www.w3.org/1999/xlink">
<g fill-rule="evenodd"><path d="M 0,424.21 L 60,496.21 L 152,488.21 L 248,476.21 L 228,440.21 L 136,284.21 L 0,424.21 z " style="fill-opacity:0.5;fill:rgb(169,169,169);stroke:rgb(169,169,169);stroke-width:1"/></g>
<g fill-rule="evenodd"><path d="M 136,284.21 L 228,440.21 L 240,364.21 L 400,284.21 L 136,284.21 z " style="fill-opacity:0.5;fill:rgb(169,169,169);stroke:rgb(169,169,169);stroke-width:1"/></g>
<g fill-rule="evenodd"><path d="M 380,484.21 L 396,384.21 L 324,376.21 L 240,368.21 L 248,396.21 L 284,496.21 L 380,484.21 z " style="fill-opacity:0.5;fill:rgb(169,169,169);stroke:rgb(169,169,169);stroke-width:1"/></g>
<g fill-rule="evenodd"><path d="M 128.466,217.283 L 0.465568,217.283 L 0.465568,381.283 L 72.4656,349.283 L 128.466,217.283 z " style="fill-opacity:0.5;fill:rgb(169,169,169);stroke:rgb(169,169,169);stroke-width:1"/></g>
<g fill-rule="evenodd"><path d="M 168.327,279.844 L 264.327,119.844 L 88.3274,119.844 L 168.327,279.844 z " style="fill-opacity:0.5;fill:rgb(169,169,169);stroke:rgb(169,169,169);stroke-width:1"/></g>
<g fill-rule="evenodd"><path d="M 384.479,283.711 L 240.479,175.711 L 160.479,283.711 L 384.479,283.711 z " style="fill-opacity:0.5;fill:rgb(169,169,169);stroke:rgb(169,169,169);stroke-width:1"/></g>
<g fill-rule="evenodd"><path d="M 314.902,233.229 L 399.548,227.31 L 336.666,98.4465 L 317.902,113.936 L 240.22,178.909 L 314.902,233.229 z " style="fill-opacity:0.5;fill:rgb(169,169,169);stroke:rgb(169,169,169);stroke-width:1"/></g>
<g fill-rule="evenodd"><path d="M 117.641,66.1214 L 44.0506,43.661 L 5.61744,58.4554 L 1.22813,118.428 L 0.30742,211.203 L 117.641,66.1214 z " style="fill-opacity:0.5;fill:rgb(169,169,169);stroke:rgb(169,169,169);stroke-width:1"/></g>
<g fill-rule="evenodd"><path d="M 262.872,7.66579 L 262.872,147.664 L 398.872,7.66579 L 262.872,7.66579 z " style="fill-opacity:0.5;fill:rgb(169,169,169);stroke:rgb(169,169,169);stroke-width:1"/></g>
<g fill-rule="evenodd"><path d="M 143.643,4.95589 L 36.9752,8.68955 L 11.9996,23.6632 L 179.046,90.7138 L 143.643,4.95589 z " style="fill-opacity:0.5;fill:rgb(169,169,169);stroke:rgb(169,169,169);stroke-width:1"/></g>
<g fill-rule="evenodd"><path d="M 317.5,73.7453 L 397.5,201.744 L 397.5,53.7453 L 317.5,73.7453 z " style="fill-opacity:0.5;fill:rgb(169,169,169);stroke:rgb(169,169,169);stroke-width:1"/></g>
<g fill-rule="evenodd"><path d="M 0.00271734,211.868 L 132.003,211.868 L 72.0026,151.868 L 0.00271734,211.868 z " style="fill-opacity:0.5;fill:rgb(169,169,169);stroke:rgb(169,169,169);stroke-width:1"/></g>
<g fill-rule="evenodd"><path d="M 389.919,309.373 L 365.919,305.373 L 293.919,337.373 L 381.919,381.373 L 389.919,309.373 z " style="fill-opacity:0.5;fill:rgb(169,169,169);stroke:rgb(169,169,169);stroke-width:1"/></g>
<g fill-rule="evenodd"><path d="M 108.704,75.3595 L 46.0368,151.206 L 188.751,102.051 L 108.704,75.3595 z " style="fill-opacity:0.5;fill:rgb(169,169,169);stroke:rgb(169,169,169);stroke-width:1"/></g>
<g fill-rule="evenodd"><path d="M 260.882,92.8983 L 247.93,11.4596 L 160.265,3.78992 L 260.882,92.8983 z " style="fill-opacity:0.5;fill:rgb(169,169,169);stroke:rgb(169,169,169);stroke-width:1"/></g>
<g fill-rule="evenodd"><path d="M 164.136,285.811 L 128.136,185.811 L 104.136,289.811 L 164.136,285.811 z " style="fill-opacity:0.5;fill:rgb(169,169,169);stroke:rgb(169,169,169);stroke-width:1"/></g>
<rect x="0" y="3.78992" width="400" height="492.42" style="opacity:0.8;fill:none;stroke:rgb(0,0,0);stroke-width:1;stroke-linecap:round"/>
</svg>
