<?xml version="1.0" standalone="no"?>
<!DOCTYPE svg PUBLIC "-//W3C//DTD SVG 1.1//EN"
"http://www.w3.org/Graphics/SVG/1.1/DTD/svg11.dtd">
<svg width="100%" height="100%" version="1.1"
xmlns="http://www.w3.org/2000/svg"
xmlns:xlink="http://www.w3.org/1999/xlink">
<g fill-rule="evenodd"><path d="M 77.0824,482.387 L 167.694,458.437 L 199.325,371.675 L 229.02,279.598 L 187.941,282.51 L 7.67518,299.962 L 77.0824,482.387 z " style="fill-opacity:0.5;fill:rgb(169,169,169);stroke:rgb(169,169,169);stroke-width:1"/></g>
<g fill-rule="evenodd"><path d="M 400,492.81 L 308,336.809 L 296,412.809 L 135.999,492.81 L 400,492.81 z " style="fill-opacity:0.5;fill:rgb(169,169,169);stroke:rgb(169,169,169);stroke-width:1"/></g>
<g fill-rule="evenodd"><path d="M 228.193,247.948 L 222.733,349.073 L 295.175,349.503 L 379.552,348.679 L 368.669,321.669 L 322.413,225.979 L 228.193,247.948 z " style="fill-opacity:0.5;fill:rgb(169,169,169);stroke:rgb(169,169,169);stroke-width:1"/></g>
<g fill-rule="evenodd"><path d="M 46.4725,171.094 L 83.8962,293.501 L 240.731,245.552 L 189.078,186.054 L 46.4725,171.094 z " style="fill-opacity:0.5;fill:rgb(169,169,169);stroke:rgb(169,169,169);stroke-width:1"/></g>
<g fill-rule="evenodd"><path d="M 233.036,24.6145 L 233.154,211.206 L 384.016,120.559 L 233.036,24.6145 z " style="fill-opacity:0.5;fill:rgb(169,169,169);stroke:rgb(169,169,169);stroke-width:1"/></g>
<g fill-rule="evenodd"><path d="M 228.233,172.53 L 84.2325,64.5292 L 4.23226,172.53 L 228.233,172.53 z " style="fill-opacity:0.5;fill:rgb(169,169,169);stroke:rgb(169,169,169);stroke-width:1"/></g>
<g fill-rule="evenodd"><path d="M 145.752,111.937 L 220.673,151.773 L 235.635,9.16669 L 211.514,12.3584 L 111.203,26.2953 L 145.752,111.937 z " style="fill-opacity:0.5;fill:rgb(169,169,169);stroke:rgb(169,169,169);stroke-width:1"/></g>
<g fill-rule="evenodd"><path d="M 388,119.191 L 400,43.1904 L 380,7.19029 L 320,11.1903 L 227.999,23.1903 L 388,119.191 z " style="fill-opacity:0.5;fill:rgb(169,169,169);stroke:rgb(169,169,169);stroke-width:1"/></g>
<g fill-rule="evenodd"><path d="M -1.07385e-14,12.6076 L 4.88599,152.524 L 135.918,7.86127 L -1.07385e-14,12.6076 z " style="fill-opacity:0.5;fill:rgb(169,169,169);stroke:rgb(169,169,169);stroke-width:1"/></g>
<g fill-rule="evenodd"><path d="M 219.862,352.987 L 169.762,447.232 L 170.243,476.348 L 311.833,365.207 L 219.862,352.987 z " style="fill-opacity:0.5;fill:rgb(169,169,169);stroke:rgb(169,169,169);stroke-width:1"/></g>
<g fill-rule="evenodd"><path d="M 341.085,147.411 L 213.084,227.411 L 361.085,227.411 L 341.085,147.411 z " style="fill-opacity:0.5;fill:rgb(169,169,169);stroke:rgb(169,169,169);stroke-width:1"/></g>
<g fill-rule="evenodd"><path d="M 398.089,337.079 L 398.089,205.079 L 338.089,265.079 L 398.089,337.079 z " style="fill-opacity:0.5;fill:rgb(169,169,169);stroke:rgb(169,169,169);stroke-width:1"/></g>
<g fill-rule="evenodd"><path d="M 68.5395,462.132 L 61.2077,438.932 L 0.00794084,389.307 L 0.75482,487.692 L 68.5395,462.132 z " style="fill-opacity:0.5;fill:rgb(169,169,169);stroke:rgb(169,169,169);stroke-width:1"/></g>
<g fill-rule="evenodd"><path d="M 399.373,387.531 L 311.373,343.53 L 391.373,471.531 L 399.373,387.531 z " style="fill-opacity:0.5;fill:rgb(169,169,169);stroke:rgb(169,169,169);stroke-width:1"/></g>
<g fill-rule="evenodd"><path d="M 1.00293,299.778 L 71.6601,257.262 L 45.9313,173.107 L 1.00293,299.778 z " style="fill-opacity:0.5;fill:rgb(169,169,169);stroke:rgb(169,169,169);stroke-width:1"/></g>
<g fill-rule="evenodd"><path d="M 339.119,139.833 L 366.266,242.591 L 399.239,141.078 L 339.119,139.833 z " style="fill-opacity:0.5;fill:rgb(169,169,169);stroke:rgb(169,169,169);stroke-width:1"/></g>
<rect x="-1.07385e-14" y="7.19029" width="400" height="485.619" style="opacity:0.8;fill:none;stroke:rgb(0,0,0);stroke-width:1;stroke-linecap:round"/>
</svg>
