<?xml version="1.0" standalone="no"?>
<!DOCTYPE svg PUBLIC "-//W3C//DTD SVG 1.1//EN"
"http://www.w3.org/Graphics/SVG/1.1/DTD/svg11.dtd">
<svg width="100%" height="100%" version="1.1"
xmlns="http://www.w3.org/2000/svg"
xmlns:xlink="http://www.w3.org/1999/xlink">
<g fill-rule="evenodd"><path d="M 77.5905,482.918 L 168.202,458.968 L 199.833,372.206 L 229.528,280.129 L 188.449,283.041 L 8.18321,300.492 L 77.5905,482.918 z " style="fill-opacity:0.5;fill:rgb(169,169,169);stroke:rgb(169,169,169);stroke-width:1"/></g>
<g fill-rule="evenodd"><path d="M 400,492.81 L 308,336.809 L 296,412.809 L 135.999,492.81 L 400,492.81 z " style="fill-opacity:0.5;fill:rgb(169,169,169);stroke:rgb(169,169,169);stroke-width:1"/></g>
<g fill-rule="evenodd"><path d="M 228.193,247.948 L 222.733,349.073 L 295.175,349.503 L 379.552,348.679 L 368.669,321.669 L 322.413,225.979 L 228.193,247.948 z " style="fill-opacity:0.5;fill:rgb(169,169,169);stroke:rgb(169,169,169);stroke-width:1"/></g>
<g fill-rule="evenodd"><path d="M 47.2452,172.002 L 84.669,294.409 L 241.503,246.46 L 189.851,186.962 L 47.2452,172.002 z " style="fill-opacity:0.5;fill:rgb(169,169,169);stroke:rgb(169,169,169);stroke-width:1"/></g>
<g fill-rule="evenodd"><path d="M 232.226,25.1263 L 232.344,211.717 L 383.206,121.07 L 232.226,25.1263 z " style="fill-opacity:0.5;fill:rgb(169,169,169);stroke:rgb(169,169,169);stroke-width:1"/></g>
<g fill-rule="evenodd"><path d="M 228.233,172.53 L 84.2325,64.5292 L 4.23226,172.53 L 228.233,172.53 z " style="fill-opacity:0.5;fill:rgb(169,169,169);stroke:rgb(169,169,169);stroke-width:1"/></g>
<g fill-rule="evenodd"><path d="M 144.292,111.514 L 219.213,151.35 L 234.175,8.7438 L 210.054,11.9355 L 109.743,25.8724 L 144.292,111.514 z " style="fill-opacity:0.5;fill:rgb(169,169,169);stroke:rgb(169,169,169);stroke-width:1"/></g>
<g fill-rule="evenodd"><path d="M 388,119.191 L 400,43.1904 L 380,7.19029 L 320,11.1903 L 227.999,23.1903 L 388,119.191 z " style="fill-opacity:0.5;fill:rgb(169,169,169);stroke:rgb(169,169,169);stroke-width:1"/></g>
<g fill-rule="evenodd"><path d="M -1.07385e-14,12.6076 L 4.88599,152.524 L 135.918,7.86127 L -1.07385e-14,12.6076 z " style="fill-opacity:0.5;fill:rgb(169,169,169);stroke:rgb(169,169,169);stroke-width:1"/></g>
<g fill-rule="evenodd"><path d="M 220.764,354.198 L 170.665,448.443 L 171.145,477.56 L 312.736,366.418 L 220.764,354.198 z " style="fill-opacity:0.5;fill:rgb(169,169,169);stroke:rgb(169,169,169);stroke-width:1"/></g>
<g fill-rule="evenodd"><path d="M 341.085,147.411 L 213.084,227.411 L 361.085,227.411 L 341.085,147.411 z " style="fill-opacity:0.5;fill:rgb(169,169,169);stroke:rgb(169,169,169);stroke-width:1"/></g>
<g fill-rule="evenodd"><path d="M 398.089,337.079 L 398.089,205.079 L 338.089,265.079 L 398.089,337.079 z " style="fill-opacity:0.5;fill:rgb(169,169,169);stroke:rgb(169,169,169);stroke-width:1"/></g>
<g fill-rule="evenodd"><path d="M 70.2919,467.294 L 63.3662,443.969 L 3.04184,393.284 L 2.07156,491.666 L 70.2919,467.294 z " style="fill-opacity:0.5;fill:rgb(169,169,169);stroke:rgb(169,169,169);stroke-width:1"/></g>
<g fill-rule="evenodd"><path d="M 399.373,387.531 L 311.373,343.53 L 391.373,471.531 L 399.373,387.531 z " style="fill-opacity:0.5;fill:rgb(169,169,169);stroke:rgb(169,169,169);stroke-width:1"/></g>
<g fill-rule="evenodd"><path d="M 1.00293,299.778 L 71.6601,257.262 L 45.9313,173.107 L 1.00293,299.778 z " style="fill-opacity:0.5;fill:rgb(169,169,169);stroke:rgb(169,169,169);stroke-width:1"/></g>
<g fill-rule="evenodd"><path d="M 339.119,139.833 L 366.266,242.591 L 399.239,141.078 L 339.119,139.833 z " style="fill-opacity:0.5;fill:rgb(169,169,169);stroke:rgb(169,169,169);stroke-width:1"/></g>
<rect x="-1.07385e-14" y="7.19029" width="400" height="485.619" style="opacity:0.8;fill:none;stroke:rgb(0,0,0);stroke-width:1;stroke-linecap:round"/>
</svg>
