<?xml version="1.0" standalone="no"?>
<!DOCTYPE svg PUBLIC "-//W3C//DTD SVG 1.1//EN"
"http://www.w3.org/Graphics/SVG/1.1/DTD/svg11.dtd">
<svg width="100%" height="100%" version="1.1"
xmlns="http://www.w3.org/2000/svg"
xmlns:xlink="http://www.w3.org/1999/xlink">
<g fill-rule="evenodd"><path d="M 0,425.39 L 60,497.39 L 152,489.39 L 248,477.39 L 228,441.39 L 136,285.39 L 0,425.39 z " style="fill-opacity:0.5;fill:rgb(169,169,169);stroke:rgb(169,169,169);stroke-width:1"/></g>
<g fill-rule="evenodd"><path d="M 136,285.39 L 228,441.39 L 240,365.39 L 400,285.39 L 136,285.39 z " style="fill-opacity:0.5;fill:rgb(169,169,169);stroke:rgb(169,169,169);stroke-width:1"/></g>
<g fill-rule="evenodd"><path d="M 380,485.39 L 396,385.39 L 324,377.39 L 240,369.39 L 248,397.39 L 284,497.39 L 380,485.39 z " style="fill-opacity:0.5;fill:rgb(169,169,169);stroke:rgb(169,169,169);stroke-width:1"/></g>
<g fill-rule="evenodd"><path d="M 128.466,218.462 L 0.465568,218.462 L 0.465568,382.462 L 72.4656,350.462 L 128.466,218.462 z " style="fill-opacity:0.5;fill:rgb(169,169,169);stroke:rgb(169,169,169);stroke-width:1"/></g>
<g fill-rule="evenodd"><path d="M 260.545,128.906 L 74.0724,135.535 L 169.929,283.141 L 260.545,128.906 z " style="fill-opacity:0.5;fill:rgb(169,169,169);stroke:rgb(169,169,169);stroke-width:1"/></g>
<g fill-rule="evenodd"><path d="M 389.338,283.698 L 245.338,175.698 L 165.338,283.698 L 389.338,283.698 z " style="fill-opacity:0.5;fill:rgb(169,169,169);stroke:rgb(169,169,169);stroke-width:1"/></g>
<g fill-rule="evenodd"><path d="M 303.411,218.551 L 388.057,212.631 L 325.174,83.768 L 306.41,99.257 L 228.729,164.231 L 303.411,218.551 z " style="fill-opacity:0.5;fill:rgb(169,169,169);stroke:rgb(169,169,169);stroke-width:1"/></g>
<g fill-rule="evenodd"><path d="M 114.884,63.8453 L 40.5543,43.9668 L 2.66088,60.0935 L 0.367267,120.183 L 2.68491,212.933 L 114.884,63.8453 z " style="fill-opacity:0.5;fill:rgb(169,169,169);stroke:rgb(169,169,169);stroke-width:1"/></g>
<g fill-rule="evenodd"><path d="M 256.805,2.76446 L 256.805,142.763 L 392.805,2.76446 L 256.805,2.76446 z " style="fill-opacity:0.5;fill:rgb(169,169,169);stroke:rgb(169,169,169);stroke-width:1"/></g>
<g fill-rule="evenodd"><path d="M 137.075,2.61032 L 30.407,6.34398 L 5.43144,21.3176 L 172.478,88.3682 L 137.075,2.61032 z " style="fill-opacity:0.5;fill:rgb(169,169,169);stroke:rgb(169,169,169);stroke-width:1"/></g>
<g fill-rule="evenodd"><path d="M 317.5,74.9249 L 397.5,202.924 L 397.5,54.9249 L 317.5,74.9249 z " style="fill-opacity:0.5;fill:rgb(169,169,169);stroke:rgb(169,169,169);stroke-width:1"/></g>
<g fill-rule="evenodd"><path d="M 0.00271734,213.048 L 132.003,213.048 L 72.0026,153.048 L 0.00271734,213.048 z " style="fill-opacity:0.5;fill:rgb(169,169,169);stroke:rgb(169,169,169);stroke-width:1"/></g>
<g fill-rule="evenodd"><path d="M 389.919,310.552 L 365.919,306.552 L 293.919,338.552 L 381.919,382.552 L 389.919,310.552 z " style="fill-opacity:0.5;fill:rgb(169,169,169);stroke:rgb(169,169,169);stroke-width:1"/></g>
<g fill-rule="evenodd"><path d="M 120.358,80.2135 L 46.5971,145.323 L 195.244,119.099 L 120.358,80.2135 z " style="fill-opacity:0.5;fill:rgb(169,169,169);stroke:rgb(169,169,169);stroke-width:1"/></g>
<g fill-rule="evenodd"><path d="M 260.882,94.0779 L 247.93,12.6392 L 160.265,4.96952 L 260.882,94.0779 z " style="fill-opacity:0.5;fill:rgb(169,169,169);stroke:rgb(169,169,169);stroke-width:1"/></g>
<g fill-rule="evenodd"><path d="M 162.132,99.7569 L 268.337,103.839 L 180.9,42.6275 L 162.132,99.7569 z " style="fill-opacity:0.5;fill:rgb(169,169,169);stroke:rgb(169,169,169);stroke-width:1"/></g>
<rect x="0" y="2.61032" width="400" height="494.779" style="opacity:0.8;fill:none;stroke:rgb(0,0,0);stroke-width:1;stroke-linecap:round"/>
</svg>
