<?xml version="1.0" standalone="no"?>
<!DOCTYPE svg PUBLIC "-//W3C//DTD SVG 1.1//EN"
"http://www.w3.org/Graphics/SVG/1.1/DTD/svg11.dtd">
<svg width="100%" height="100%" version="1.1"
xmlns="http://www.w3.org/2000/svg"
xmlns:xlink="http://www.w3.org/1999/xlink">
<g fill-rule="evenodd"><path d="M 1.25071,406.938 L 53.4338,484.872 L 145.833,486.534 L 242.632,484.633 L 226.492,446.712 L 151.248,281.83 L 1.25071,406.938 z " style="fill-opacity:0.5;fill:rgb(169,169,169);stroke:rgb(169,169,169);stroke-width:1"/></g>
<g fill-rule="evenodd"><path d="M 233.809,453.325 L 333.763,302.141 L 260.141,324.688 L 117.995,215.872 L 233.809,453.325 z " style="fill-opacity:0.5;fill:rgb(169,169,169);stroke:rgb(169,169,169);stroke-width:1"/></g>
<g fill-rule="evenodd"><path d="M 283.859,464.55 L 383.931,480.561 L 391.937,408.509 L 399.943,324.448 L 371.922,332.454 L 271.85,368.48 L 283.859,464.55 z " style="fill-opacity:0.5;fill:rgb(169,169,169);stroke:rgb(169,169,169);stroke-width:1"/></g>
<g fill-rule="evenodd"><path d="M 4.20635,322.331 L 129.5,295.699 L 95.3778,135.167 L 31.5581,181.471 L 4.20635,322.331 z " style="fill-opacity:0.5;fill:rgb(169,169,169);stroke:rgb(169,169,169);stroke-width:1"/></g>
<g fill-rule="evenodd"><path d="M 75.8246,101.04 L 163.591,265.853 L 254.304,114.882 L 75.8246,101.04 z " style="fill-opacity:0.5;fill:rgb(169,169,169);stroke:rgb(169,169,169);stroke-width:1"/></g>
<g fill-rule="evenodd"><path d="M 223.834,136.875 L 239.941,316.284 L 373.828,303.46 L 223.834,136.875 z " style="fill-opacity:0.5;fill:rgb(169,169,169);stroke:rgb(169,169,169);stroke-width:1"/></g>
<g fill-rule="evenodd"><path d="M 388.318,183.217 L 380.917,98.6257 L 253.078,163.795 L 268.904,182.299 L 335.272,258.89 L 388.318,183.217 z " style="fill-opacity:0.5;fill:rgb(169,169,169);stroke:rgb(169,169,169);stroke-width:1"/></g>
<g fill-rule="evenodd"><path d="M 117.419,78.7255 L 43.7748,56.2489 L 5.31387,71.0547 L 0.921376,131.071 L 1.74571e-14,223.913 L 117.419,78.7255 z " style="fill-opacity:0.5;fill:rgb(169,169,169);stroke:rgb(169,169,169);stroke-width:1"/></g>
<g fill-rule="evenodd"><path d="M 261.162,14.2285 L 261.162,154.33 L 397.261,14.2285 L 261.162,14.2285 z " style="fill-opacity:0.5;fill:rgb(169,169,169);stroke:rgb(169,169,169);stroke-width:1"/></g>
<g fill-rule="evenodd"><path d="M 130.959,14.1277 L 24.5556,23.4469 L 0.380605,39.7196 L 170.83,97.9775 L 130.959,14.1277 z " style="fill-opacity:0.5;fill:rgb(169,169,169);stroke:rgb(169,169,169);stroke-width:1"/></g>
<g fill-rule="evenodd"><path d="M 243.214,26.0938 L 117.993,110.573 L 266.01,105.404 L 243.214,26.0938 z " style="fill-opacity:0.5;fill:rgb(169,169,169);stroke:rgb(169,169,169);stroke-width:1"/></g>
<g fill-rule="evenodd"><path d="M 1.11334,413.988 L 87.7759,314.294 L 3.06843,320.217 L 1.11334,413.988 z " style="fill-opacity:0.5;fill:rgb(169,169,169);stroke:rgb(169,169,169);stroke-width:1"/></g>
<g fill-rule="evenodd"><path d="M 163.953,247.295 L 175.585,268.685 L 245.18,305.748 L 225.66,209.244 L 163.953,247.295 z " style="fill-opacity:0.5;fill:rgb(169,169,169);stroke:rgb(169,169,169);stroke-width:1"/></g>
<g fill-rule="evenodd"><path d="M 345.75,244.914 L 400,327.079 L 394.714,176.118 L 345.75,244.914 z " style="fill-opacity:0.5;fill:rgb(169,169,169);stroke:rgb(169,169,169);stroke-width:1"/></g>
<g fill-rule="evenodd"><path d="M 306.21,110.982 L 388.111,100.874 L 398.843,13.4663 L 306.21,110.982 z " style="fill-opacity:0.5;fill:rgb(169,169,169);stroke:rgb(169,169,169);stroke-width:1"/></g>
<g fill-rule="evenodd"><path d="M 157.824,72.5739 L 251.909,22.971 L 145.504,13.6719 L 157.824,72.5739 z " style="fill-opacity:0.5;fill:rgb(169,169,169);stroke:rgb(169,169,169);stroke-width:1"/></g>
<rect x="1.74571e-14" y="13.4663" width="400" height="473.067" style="opacity:0.8;fill:none;stroke:rgb(0,0,0);stroke-width:1;stroke-linecap:round"/>
</svg>
