<?xml version="1.0" standalone="no"?>
<!DOCTYPE svg PUBLIC "-//W3C//DTD SVG 1.1//EN"
"http://www.w3.org/Graphics/SVG/1.1/DTD/svg11.dtd">
<svg width="100%" height="100%" version="1.1"
xmlns="http://www.w3.org/2000/svg"
xmlns:xlink="http://www.w3.org/1999/xlink">
<g fill-rule="evenodd"><path d="M 9.74125,431.507 L 66.8189,500 L 154.338,492.39 L 245.662,480.974 L 226.636,446.728 L 139.117,298.326 L 9.74125,431.507 z " style="fill-opacity:0.5;fill:rgb(169,169,169);stroke:rgb(169,169,169);stroke-width:1"/></g>
<g fill-rule="evenodd"><path d="M 139.117,298.326 L 226.636,446.728 L 238.052,374.429 L 390.259,298.326 L 139.117,298.326 z " style="fill-opacity:0.5;fill:rgb(169,169,169);stroke:rgb(169,169,169);stroke-width:1"/></g>
<g fill-rule="evenodd"><path d="M 371.233,488.584 L 386.454,393.455 L 317.96,385.845 L 238.052,378.234 L 245.662,404.871 L 279.909,500 L 371.233,488.584 z " style="fill-opacity:0.5;fill:rgb(169,169,169);stroke:rgb(169,169,169);stroke-width:1"/></g>
<g fill-rule="evenodd"><path d="M 131.95,234.658 L 10.1841,234.658 L 10.1841,390.67 L 78.6773,360.229 L 131.95,234.658 z " style="fill-opacity:0.5;fill:rgb(169,169,169);stroke:rgb(169,169,169);stroke-width:1"/></g>
<g fill-rule="evenodd"><path d="M 169.665,296.702 L 260.989,144.495 L 93.5613,144.495 L 169.665,296.702 z " style="fill-opacity:0.5;fill:rgb(169,169,169);stroke:rgb(169,169,169);stroke-width:1"/></g>
<g fill-rule="evenodd"><path d="M 382.813,298.303 L 245.827,195.564 L 169.723,298.303 L 382.813,298.303 z " style="fill-opacity:0.5;fill:rgb(169,169,169);stroke:rgb(169,169,169);stroke-width:1"/></g>
<g fill-rule="evenodd"><path d="M 308.49,244.595 L 384.812,270.875 L 377.646,134.659 L 355.458,141.248 L 263.284,169.27 L 308.49,244.595 z " style="fill-opacity:0.5;fill:rgb(169,169,169);stroke:rgb(169,169,169);stroke-width:1"/></g>
<g fill-rule="evenodd"><path d="M 143.693,96.64 L 77.8916,64.5852 L 39.5788,72.7664 L 26.5298,128.463 L 11.8584,215.495 L 143.693,96.64 z " style="fill-opacity:0.5;fill:rgb(169,169,169);stroke:rgb(169,169,169);stroke-width:1"/></g>
<g fill-rule="evenodd"><path d="M 259.462,3.98402 L 259.462,137.164 L 388.838,3.98402 L 259.462,3.98402 z " style="fill-opacity:0.5;fill:rgb(169,169,169);stroke:rgb(169,169,169);stroke-width:1"/></g>
<g fill-rule="evenodd"><path d="M 205.578,59.2466 L 104.599,48.6416 L 79.0883,59.4406 L 227.575,144.721 L 205.578,59.2466 z " style="fill-opacity:0.5;fill:rgb(169,169,169);stroke:rgb(169,169,169);stroke-width:1"/></g>
<g fill-rule="evenodd"><path d="M 181.787,19.5129 L 257.89,141.277 L 257.89,0.487062 L 181.787,19.5129 z " style="fill-opacity:0.5;fill:rgb(169,169,169);stroke:rgb(169,169,169);stroke-width:1"/></g>
<g fill-rule="evenodd"><path d="M 11.601,232.866 L 137.172,232.866 L 80.094,175.788 L 11.601,232.866 z " style="fill-opacity:0.5;fill:rgb(169,169,169);stroke:rgb(169,169,169);stroke-width:1"/></g>
<g fill-rule="evenodd"><path d="M 382.648,321.157 L 359.817,317.352 L 291.324,347.793 L 375.038,389.65 L 382.648,321.157 z " style="fill-opacity:0.5;fill:rgb(169,169,169);stroke:rgb(169,169,169);stroke-width:1"/></g>
<g fill-rule="evenodd"><path d="M 381.092,116.043 L 372.227,22.8691 L 309.292,151.933 L 381.092,116.043 z " style="fill-opacity:0.5;fill:rgb(169,169,169);stroke:rgb(169,169,169);stroke-width:1"/></g>
<g fill-rule="evenodd"><path d="M 85.8447,-6.93889e-16 L 9.74125,19.0259 L 9.74125,102.74 L 85.8447,-6.93889e-16 z " style="fill-opacity:0.5;fill:rgb(169,169,169);stroke:rgb(169,169,169);stroke-width:1"/></g>
<g fill-rule="evenodd"><path d="M 173.068,0.418569 L 77.9387,34.6651 L 176.873,57.4962 L 173.068,0.418569 z " style="fill-opacity:0.5;fill:rgb(169,169,169);stroke:rgb(169,169,169);stroke-width:1"/></g>
<rect x="9.74125" y="-6.93889e-16" width="380.518" height="500" style="opacity:0.8;fill:none;stroke:rgb(0,0,0);stroke-width:1;stroke-linecap:round"/>
</svg>
