<?xml version="1.0" standalone="no"?>
<!DOCTYPE svg PUBLIC "-//W3C//DTD SVG 1.1//EN"
"http://www.w3.org/Graphics/SVG/1.1/DTD/svg11.dtd">
<svg width="100%" height="100%" version="1.1"
xmlns="http://www.w3.org/2000/svg"
xmlns:xlink="http://www.w3.org/1999/xlink">
<g fill-rule="evenodd"><path d="M 1.25063,406.928 L 53.4304,484.857 L 145.824,486.519 L 242.616,484.618 L 226.478,446.699 L 151.239,281.828 L 1.25063,406.928 z " style="fill-opacity:0.5;fill:rgb(169,169,169);stroke:rgb(169,169,169);stroke-width:1"/></g>
<g fill-rule="evenodd"><path d="M 135.825,274.694 L 227.886,430.797 L 239.894,354.747 L 400,274.694 L 135.825,274.694 z " style="fill-opacity:0.5;fill:rgb(169,169,169);stroke:rgb(169,169,169);stroke-width:1"/></g>
<g fill-rule="evenodd"><path d="M 381.204,471.712 L 397.215,371.646 L 325.167,363.64 L 241.112,355.635 L 249.117,383.654 L 285.141,483.72 L 381.204,471.712 z " style="fill-opacity:0.5;fill:rgb(169,169,169);stroke:rgb(169,169,169);stroke-width:1"/></g>
<g fill-rule="evenodd"><path d="M 26.326,324.644 L 145.084,276.663 L 83.6079,124.504 L 28.8018,181.183 L 26.326,324.644 z " style="fill-opacity:0.5;fill:rgb(169,169,169);stroke:rgb(169,169,169);stroke-width:1"/></g>
<g fill-rule="evenodd"><path d="M 147.844,277.311 L 257.496,126.187 L 82.0498,110.838 L 147.844,277.311 z " style="fill-opacity:0.5;fill:rgb(169,169,169);stroke:rgb(169,169,169);stroke-width:1"/></g>
<g fill-rule="evenodd"><path d="M 373.508,274.425 L 229.412,166.353 L 149.359,274.425 L 373.508,274.425 z " style="fill-opacity:0.5;fill:rgb(169,169,169);stroke:rgb(169,169,169);stroke-width:1"/></g>
<g fill-rule="evenodd"><path d="M 301.672,113.702 L 243.765,175.801 L 377.727,227.194 L 380.889,203.053 L 393.398,102.489 L 301.672,113.702 z " style="fill-opacity:0.5;fill:rgb(169,169,169);stroke:rgb(169,169,169);stroke-width:1"/></g>
<g fill-rule="evenodd"><path d="M 117.411,78.7364 L 43.7721,56.2612 L 5.31354,71.0661 L 0.921318,131.079 L -9.30731e-15,223.915 L 117.411,78.7364 z " style="fill-opacity:0.5;fill:rgb(169,169,169);stroke:rgb(169,169,169);stroke-width:1"/></g>
<g fill-rule="evenodd"><path d="M 261.145,14.2435 L 261.145,154.336 L 397.235,14.2435 L 261.145,14.2435 z " style="fill-opacity:0.5;fill:rgb(169,169,169);stroke:rgb(169,169,169);stroke-width:1"/></g>
<g fill-rule="evenodd"><path d="M 130.951,14.1427 L 24.554,23.4612 L 0.380581,39.7329 L 170.819,97.9871 L 130.951,14.1427 z " style="fill-opacity:0.5;fill:rgb(169,169,169);stroke:rgb(169,169,169);stroke-width:1"/></g>
<g fill-rule="evenodd"><path d="M 245.572,30.4666 L 120.359,114.941 L 268.367,109.772 L 245.572,30.4666 z " style="fill-opacity:0.5;fill:rgb(169,169,169);stroke:rgb(169,169,169);stroke-width:1"/></g>
<g fill-rule="evenodd"><path d="M 35.5982,378.101 L 138.249,294.976 L 53.8055,286.101 L 35.5982,378.101 z " style="fill-opacity:0.5;fill:rgb(169,169,169);stroke:rgb(169,169,169);stroke-width:1"/></g>
<g fill-rule="evenodd"><path d="M 381.367,296.401 L 357.179,299.173 L 296.748,349.812 L 393.531,367.864 L 381.367,296.401 z " style="fill-opacity:0.5;fill:rgb(169,169,169);stroke:rgb(169,169,169);stroke-width:1"/></g>
<g fill-rule="evenodd"><path d="M 345.502,244.126 L 399.748,326.285 L 394.463,175.334 L 345.502,244.126 z " style="fill-opacity:0.5;fill:rgb(169,169,169);stroke:rgb(169,169,169);stroke-width:1"/></g>
<g fill-rule="evenodd"><path d="M 306.191,110.991 L 388.086,100.883 L 398.818,13.4813 L 306.191,110.991 z " style="fill-opacity:0.5;fill:rgb(169,169,169);stroke:rgb(169,169,169);stroke-width:1"/></g>
<g fill-rule="evenodd"><path d="M 156.113,75.0755 L 251.866,28.7893 L 145.857,15.7831 L 156.113,75.0755 z " style="fill-opacity:0.5;fill:rgb(169,169,169);stroke:rgb(169,169,169);stroke-width:1"/></g>
<rect x="-9.30731e-15" y="13.4813" width="400" height="473.037" style="opacity:0.8;fill:none;stroke:rgb(0,0,0);stroke-width:1;stroke-linecap:round"/>
</svg>
