<?xml version="1.0" standalone="no"?>
<!DOCTYPE svg PUBLIC "-//W3C//DTD SVG 1.1//EN"
"http://www.w3.org/Graphics/SVG/1.1/DTD/svg11.dtd">
<svg width="100%" height="100%" version="1.1"
xmlns="http://www.w3.org/2000/svg"
xmlns:xlink="http://www.w3.org/1999/xlink">
<g fill-rule="evenodd"><path d="M 239.159,382.484 L 189.896,311.618 L 104.856,311.573 L 15.8261,314.877 L 31.284,349.507 L 103.161,500 L 239.159,382.484 z " style="fill-opacity:0.5;fill:rgb(169,169,169);stroke:rgb(169,169,169);stroke-width:1"/></g>
<g fill-rule="evenodd"><path d="M 384.174,500 L 299.454,356.344 L 288.403,426.33 L 141.064,500 L 384.174,500 z " style="fill-opacity:0.5;fill:rgb(169,169,169);stroke:rgb(169,169,169);stroke-width:1"/></g>
<g fill-rule="evenodd"><path d="M 247.885,256.89 L 233.151,348.977 L 299.454,356.344 L 376.807,363.711 L 369.44,337.927 L 336.289,245.84 L 247.885,256.89 z " style="fill-opacity:0.5;fill:rgb(169,169,169);stroke:rgb(169,169,169);stroke-width:1"/></g>
<g fill-rule="evenodd"><path d="M 236.393,326.904 L 236.393,209.033 L 85.3701,209.033 L 114.838,275.336 L 236.393,326.904 z " style="fill-opacity:0.5;fill:rgb(169,169,169);stroke:rgb(169,169,169);stroke-width:1"/></g>
<g fill-rule="evenodd"><path d="M 218.61,193.815 L 380.035,134.945 L 254.081,32.949 L 218.61,193.815 z " style="fill-opacity:0.5;fill:rgb(169,169,169);stroke:rgb(169,169,169);stroke-width:1"/></g>
<g fill-rule="evenodd"><path d="M 241.55,205.269 L 108.944,105.814 L 35.2748,205.269 L 241.55,205.269 z " style="fill-opacity:0.5;fill:rgb(169,169,169);stroke:rgb(169,169,169);stroke-width:1"/></g>
<g fill-rule="evenodd"><path d="M 162.429,53.8094 L 107.176,109.062 L 228.731,160.632 L 232.415,138.531 L 247.149,46.4424 L 162.429,53.8094 z " style="fill-opacity:0.5;fill:rgb(169,169,169);stroke:rgb(169,169,169);stroke-width:1"/></g>
<g fill-rule="evenodd"><path d="M 373.123,103.566 L 384.174,33.5795 L 365.757,0.428198 L 310.504,4.11168 L 225.784,15.1621 L 373.123,103.566 z " style="fill-opacity:0.5;fill:rgb(169,169,169);stroke:rgb(169,169,169);stroke-width:1"/></g>
<g fill-rule="evenodd"><path d="M 15.8261,74.7702 L 15.8261,203.693 L 141.064,74.7702 L 15.8261,74.7702 z " style="fill-opacity:0.5;fill:rgb(169,169,169);stroke:rgb(169,169,169);stroke-width:1"/></g>
<g fill-rule="evenodd"><path d="M 124.412,68.6273 L 211.19,22.476 L 225.817,-3.3834e-14 L 60.4909,11.938 L 124.412,68.6273 z " style="fill-opacity:0.5;fill:rgb(169,169,169);stroke:rgb(169,169,169);stroke-width:1"/></g>
<g fill-rule="evenodd"><path d="M 249.956,353.048 L 186.864,476.903 L 303.686,406.709 L 249.956,353.048 z " style="fill-opacity:0.5;fill:rgb(169,169,169);stroke:rgb(169,169,169);stroke-width:1"/></g>
<g fill-rule="evenodd"><path d="M 384.174,303.302 L 384.174,181.747 L 328.922,237 L 384.174,303.302 z " style="fill-opacity:0.5;fill:rgb(169,169,169);stroke:rgb(169,169,169);stroke-width:1"/></g>
<g fill-rule="evenodd"><path d="M 82.1287,500 L 85.8122,477.899 L 56.3443,411.597 L 15.8261,492.633 L 82.1287,500 z " style="fill-opacity:0.5;fill:rgb(169,169,169);stroke:rgb(169,169,169);stroke-width:1"/></g>
<g fill-rule="evenodd"><path d="M 380.49,396.863 L 299.454,356.344 L 373.123,474.216 L 380.49,396.863 z " style="fill-opacity:0.5;fill:rgb(169,169,169);stroke:rgb(169,169,169);stroke-width:1"/></g>
<g fill-rule="evenodd"><path d="M 115.28,311.182 L 96.8626,237.512 L 15.8261,237.512 L 115.28,311.182 z " style="fill-opacity:0.5;fill:rgb(169,169,169);stroke:rgb(169,169,169);stroke-width:1"/></g>
<g fill-rule="evenodd"><path d="M 324.165,236.368 L 361.147,145.751 L 280.64,202.134 L 324.165,236.368 z " style="fill-opacity:0.5;fill:rgb(169,169,169);stroke:rgb(169,169,169);stroke-width:1"/></g>
<rect x="15.8261" y="-3.3834e-14" width="368.348" height="500" style="opacity:0.8;fill:none;stroke:rgb(0,0,0);stroke-width:1;stroke-linecap:round"/>
</svg>
