<?xml version="1.0" standalone="no"?>
<!DOCTYPE svg PUBLIC "-//W3C//DTD SVG 1.1//EN"
"http://www.w3.org/Graphics/SVG/1.1/DTD/svg11.dtd">
<svg width="100%" height="100%" version="1.1"
xmlns="http://www.w3.org/2000/svg"
xmlns:xlink="http://www.w3.org/1999/xlink">
<g fill-rule="evenodd"><path d="M 0,426.277 L 60,498.277 L 152,490.277 L 248,478.277 L 228,442.277 L 136,286.277 L 0,426.277 z " style="fill-opacity:0.5;fill:rgb(169,169,169);stroke:rgb(169,169,169);stroke-width:1"/></g>
<g fill-rule="evenodd"><path d="M 136,286.277 L 228,442.277 L 240,366.277 L 400,286.277 L 136,286.277 z " style="fill-opacity:0.5;fill:rgb(169,169,169);stroke:rgb(169,169,169);stroke-width:1"/></g>
<g fill-rule="evenodd"><path d="M 380,486.277 L 396,386.277 L 324,378.277 L 240,370.277 L 248,398.277 L 284,498.277 L 380,486.277 z " style="fill-opacity:0.5;fill:rgb(169,169,169);stroke:rgb(169,169,169);stroke-width:1"/></g>
<g fill-rule="evenodd"><path d="M 128.466,219.35 L 0.465568,219.35 L 0.465568,383.35 L 72.4656,351.35 L 128.466,219.35 z " style="fill-opacity:0.5;fill:rgb(169,169,169);stroke:rgb(169,169,169);stroke-width:1"/></g>
<g fill-rule="evenodd"><path d="M 162.253,291.976 L 258.253,131.976 L 82.2532,131.976 L 162.253,291.976 z " style="fill-opacity:0.5;fill:rgb(169,169,169);stroke:rgb(169,169,169);stroke-width:1"/></g>
<g fill-rule="evenodd"><path d="M 389.338,284.585 L 245.338,176.585 L 165.338,284.585 L 389.338,284.585 z " style="fill-opacity:0.5;fill:rgb(169,169,169);stroke:rgb(169,169,169);stroke-width:1"/></g>
<g fill-rule="evenodd"><path d="M 310.639,222.374 L 395.285,216.455 L 332.402,87.5914 L 313.638,103.08 L 235.957,168.054 L 310.639,222.374 z " style="fill-opacity:0.5;fill:rgb(169,169,169);stroke:rgb(169,169,169);stroke-width:1"/></g>
<g fill-rule="evenodd"><path d="M 114.884,64.7327 L 40.5543,44.8542 L 2.66088,60.9809 L 0.367267,121.071 L 2.68491,213.821 L 114.884,64.7327 z " style="fill-opacity:0.5;fill:rgb(169,169,169);stroke:rgb(169,169,169);stroke-width:1"/></g>
<g fill-rule="evenodd"><path d="M 262.037,5.77996 L 262.037,145.778 L 398.037,5.77996 L 262.037,5.77996 z " style="fill-opacity:0.5;fill:rgb(169,169,169);stroke:rgb(169,169,169);stroke-width:1"/></g>
<g fill-rule="evenodd"><path d="M 139.59,1.72288 L 32.9221,5.45654 L 7.94662,20.4302 L 174.993,87.4808 L 139.59,1.72288 z " style="fill-opacity:0.5;fill:rgb(169,169,169);stroke:rgb(169,169,169);stroke-width:1"/></g>
<g fill-rule="evenodd"><path d="M 317.5,75.8123 L 397.5,203.811 L 397.5,55.8123 L 317.5,75.8123 z " style="fill-opacity:0.5;fill:rgb(169,169,169);stroke:rgb(169,169,169);stroke-width:1"/></g>
<g fill-rule="evenodd"><path d="M 0.00271734,213.936 L 132.003,213.936 L 72.0026,153.936 L 0.00271734,213.936 z " style="fill-opacity:0.5;fill:rgb(169,169,169);stroke:rgb(169,169,169);stroke-width:1"/></g>
<g fill-rule="evenodd"><path d="M 389.919,311.44 L 365.919,307.44 L 293.919,339.44 L 381.919,383.44 L 389.919,311.44 z " style="fill-opacity:0.5;fill:rgb(169,169,169);stroke:rgb(169,169,169);stroke-width:1"/></g>
<g fill-rule="evenodd"><path d="M 108.579,67.8397 L 58.5476,152.555 L 191.816,81.6805 L 108.579,67.8397 z " style="fill-opacity:0.5;fill:rgb(169,169,169);stroke:rgb(169,169,169);stroke-width:1"/></g>
<g fill-rule="evenodd"><path d="M 260.882,94.9654 L 247.93,13.5267 L 160.265,5.85696 L 260.882,94.9654 z " style="fill-opacity:0.5;fill:rgb(169,169,169);stroke:rgb(169,169,169);stroke-width:1"/></g>
<g fill-rule="evenodd"><path d="M 172.095,108.601 L 278.299,112.683 L 190.863,51.4712 L 172.095,108.601 z " style="fill-opacity:0.5;fill:rgb(169,169,169);stroke:rgb(169,169,169);stroke-width:1"/></g>
<rect x="0" y="1.72288" width="400" height="496.554" style="opacity:0.8;fill:none;stroke:rgb(0,0,0);stroke-width:1;stroke-linecap:round"/>
</svg>
