<?xml version="1.0" standalone="no"?>
<!DOCTYPE svg PUBLIC "-//W3C//DTD SVG 1.1//EN"
"http://www.w3.org/Graphics/SVG/1.1/DTD/svg11.dtd">
<svg width="100%" height="100%" version="1.1"
xmlns="http://www.w3.org/2000/svg"
xmlns:xlink="http://www.w3.org/1999/xlink">
<g fill-rule="evenodd"><path d="M 73.0432,486.677 L 163.851,462.675 L 195.549,375.726 L 225.309,283.45 L 184.141,286.368 L 3.48601,303.858 L 73.0432,486.677 z " style="fill-opacity:0.5;fill:rgb(169,169,169);stroke:rgb(169,169,169);stroke-width:1"/></g>
<g fill-rule="evenodd"><path d="M 400,493.334 L 307.801,336.997 L 295.775,413.161 L 135.429,493.334 L 400,493.334 z " style="fill-opacity:0.5;fill:rgb(169,169,169);stroke:rgb(169,169,169);stroke-width:1"/></g>
<g fill-rule="evenodd"><path d="M 250.742,234.33 L 234.708,334.547 L 306.863,342.564 L 391.045,350.581 L 383.028,322.521 L 346.95,222.304 L 250.742,234.33 z " style="fill-opacity:0.5;fill:rgb(169,169,169);stroke:rgb(169,169,169);stroke-width:1"/></g>
<g fill-rule="evenodd"><path d="M 67.7164,173.888 L 105.221,296.559 L 262.394,248.507 L 210.63,188.88 L 67.7164,173.888 z " style="fill-opacity:0.5;fill:rgb(169,169,169);stroke:rgb(169,169,169);stroke-width:1"/></g>
<g fill-rule="evenodd"><path d="M 235.029,26.7515 L 235.148,213.746 L 386.336,122.903 L 235.029,26.7515 z " style="fill-opacity:0.5;fill:rgb(169,169,169);stroke:rgb(169,169,169);stroke-width:1"/></g>
<g fill-rule="evenodd"><path d="M 231.244,174.949 L 86.9326,66.7144 L 6.75951,174.949 L 231.244,174.949 z " style="fill-opacity:0.5;fill:rgb(169,169,169);stroke:rgb(169,169,169);stroke-width:1"/></g>
<g fill-rule="evenodd"><path d="M 148.615,9.9334 L 85.4203,66.8339 L 214.587,129.803 L 219.849,105.994 L 241.107,6.7524 L 148.615,9.9334 z " style="fill-opacity:0.5;fill:rgb(169,169,169);stroke:rgb(169,169,169);stroke-width:1"/></g>
<g fill-rule="evenodd"><path d="M 387.974,118.908 L 400,42.7436 L 379.957,6.66573 L 319.827,10.6744 L 227.628,22.7004 L 387.974,118.908 z " style="fill-opacity:0.5;fill:rgb(169,169,169);stroke:rgb(169,169,169);stroke-width:1"/></g>
<g fill-rule="evenodd"><path d="M 5.51005,6.66573 L 5.51005,146.97 L 141.804,6.66573 L 5.51005,6.66573 z " style="fill-opacity:0.5;fill:rgb(169,169,169);stroke:rgb(169,169,169);stroke-width:1"/></g>
<g fill-rule="evenodd"><path d="M 198.862,345.74 L 174.81,449.965 L 182.828,478.025 L 291.061,333.714 L 198.862,345.74 z " style="fill-opacity:0.5;fill:rgb(169,169,169);stroke:rgb(169,169,169);stroke-width:1"/></g>
<g fill-rule="evenodd"><path d="M 347.335,145.488 L 219.058,225.661 L 367.378,225.661 L 347.335,145.488 z " style="fill-opacity:0.5;fill:rgb(169,169,169);stroke:rgb(169,169,169);stroke-width:1"/></g>
<g fill-rule="evenodd"><path d="M 399.551,243.948 L 399.551,111.663 L 339.421,171.792 L 399.551,243.948 z " style="fill-opacity:0.5;fill:rgb(169,169,169);stroke:rgb(169,169,169);stroke-width:1"/></g>
<g fill-rule="evenodd"><path d="M 71.7722,479.016 L 69.4192,454.747 L 19.7673,393.35 L -1.70179e-14,489.948 L 71.7722,479.016 z " style="fill-opacity:0.5;fill:rgb(169,169,169);stroke:rgb(169,169,169);stroke-width:1"/></g>
<g fill-rule="evenodd"><path d="M 399.372,387.828 L 311.181,343.733 L 391.355,472.01 L 399.372,387.828 z " style="fill-opacity:0.5;fill:rgb(169,169,169);stroke:rgb(169,169,169);stroke-width:1"/></g>
<g fill-rule="evenodd"><path d="M 13.2624,188.861 L 33.3056,269.034 L 121.496,269.034 L 13.2624,188.861 z " style="fill-opacity:0.5;fill:rgb(169,169,169);stroke:rgb(169,169,169);stroke-width:1"/></g>
<g fill-rule="evenodd"><path d="M 269.497,357.834 L 214.319,448.94 L 310.453,402.04 L 269.497,357.834 z " style="fill-opacity:0.5;fill:rgb(169,169,169);stroke:rgb(169,169,169);stroke-width:1"/></g>
<rect x="-1.70179e-14" y="6.66573" width="400" height="486.669" style="opacity:0.8;fill:none;stroke:rgb(0,0,0);stroke-width:1;stroke-linecap:round"/>
</svg>
