<?xml version="1.0" standalone="no"?>
<!DOCTYPE svg PUBLIC "-//W3C//DTD SVG 1.1//EN"
"http://www.w3.org/Graphics/SVG/1.1/DTD/svg11.dtd">
<svg width="100%" height="100%" version="1.1"
xmlns="http://www.w3.org/2000/svg"
xmlns:xlink="http://www.w3.org/1999/xlink">
<g fill-rule="evenodd"><path d="M -1.41415e-14,414.564 L 60.0162,486.584 L 152.041,478.582 L 248.067,466.578 L 228.061,430.569 L 136.037,274.527 L -1.41415e-14,414.564 z " style="fill-opacity:0.5;fill:rgb(169,169,169);stroke:rgb(169,169,169);stroke-width:1"/></g>
<g fill-rule="evenodd"><path d="M 135.929,274.875 L 227.954,430.917 L 239.957,354.896 L 400,274.875 L 135.929,274.875 z " style="fill-opacity:0.5;fill:rgb(169,169,169);stroke:rgb(169,169,169);stroke-width:1"/></g>
<g fill-rule="evenodd"><path d="M 380.102,474.581 L 396.107,374.554 L 324.087,366.551 L 240.065,358.549 L 248.067,386.557 L 284.077,486.584 L 380.102,474.581 z " style="fill-opacity:0.5;fill:rgb(169,169,169);stroke:rgb(169,169,169);stroke-width:1"/></g>
<g fill-rule="evenodd"><path d="M 128.5,207.581 L 0.465693,207.581 L 0.465693,371.626 L 72.4851,339.617 L 128.5,207.581 z " style="fill-opacity:0.5;fill:rgb(169,169,169);stroke:rgb(169,169,169);stroke-width:1"/></g>
<g fill-rule="evenodd"><path d="M 164.204,263.119 L 260.23,103.076 L 84.1822,103.076 L 164.204,263.119 z " style="fill-opacity:0.5;fill:rgb(169,169,169);stroke:rgb(169,169,169);stroke-width:1"/></g>
<g fill-rule="evenodd"><path d="M 385.637,274.748 L 241.598,166.719 L 161.577,274.748 L 385.637,274.748 z " style="fill-opacity:0.5;fill:rgb(169,169,169);stroke:rgb(169,169,169);stroke-width:1"/></g>
<g fill-rule="evenodd"><path d="M 315.165,220.851 L 399.834,214.93 L 336.935,86.032 L 318.166,101.525 L 240.464,166.517 L 315.165,220.851 z " style="fill-opacity:0.5;fill:rgb(169,169,169);stroke:rgb(169,169,169);stroke-width:1"/></g>
<g fill-rule="evenodd"><path d="M 117.673,56.3792 L 44.0625,33.9127 L 5.61896,48.7111 L 1.22846,108.7 L 0.307502,201.5 L 117.673,56.3792 z " style="fill-opacity:0.5;fill:rgb(169,169,169);stroke:rgb(169,169,169);stroke-width:1"/></g>
<g fill-rule="evenodd"><path d="M 262.578,13.4162 L 262.578,153.452 L 398.614,13.4162 L 262.578,13.4162 z " style="fill-opacity:0.5;fill:rgb(169,169,169);stroke:rgb(169,169,169);stroke-width:1"/></g>
<g fill-rule="evenodd"><path d="M 189.302,23.1878 L 82.9449,13.8915 L 56.3236,25.713 L 213.996,112.645 L 189.302,23.1878 z " style="fill-opacity:0.5;fill:rgb(169,169,169);stroke:rgb(169,169,169);stroke-width:1"/></g>
<g fill-rule="evenodd"><path d="M 319.565,71.6768 L 399.586,199.71 L 399.586,51.6714 L 319.565,71.6768 z " style="fill-opacity:0.5;fill:rgb(169,169,169);stroke:rgb(169,169,169);stroke-width:1"/></g>
<g fill-rule="evenodd"><path d="M 0.00271807,202.165 L 132.038,202.165 L 72.022,142.149 L 0.00271807,202.165 z " style="fill-opacity:0.5;fill:rgb(169,169,169);stroke:rgb(169,169,169);stroke-width:1"/></g>
<g fill-rule="evenodd"><path d="M 398.574,301.404 L 374.567,297.403 L 302.548,329.411 L 390.572,373.423 L 398.574,301.404 z " style="fill-opacity:0.5;fill:rgb(169,169,169);stroke:rgb(169,169,169);stroke-width:1"/></g>
<g fill-rule="evenodd"><path d="M 104.87,275.668 L 180.737,338.352 L 131.569,195.599 L 104.87,275.668 z " style="fill-opacity:0.5;fill:rgb(169,169,169);stroke:rgb(169,169,169);stroke-width:1"/></g>
<g fill-rule="evenodd"><path d="M 266.341,113.974 L 260.535,31.6941 L 173.849,16.4089 L 266.341,113.974 z " style="fill-opacity:0.5;fill:rgb(169,169,169);stroke:rgb(169,169,169);stroke-width:1"/></g>
<g fill-rule="evenodd"><path d="M 393.249,205.085 L 293.222,241.095 L 397.25,265.101 L 393.249,205.085 z " style="fill-opacity:0.5;fill:rgb(169,169,169);stroke:rgb(169,169,169);stroke-width:1"/></g>
<rect x="-1.41415e-14" y="13.4162" width="400" height="473.168" style="opacity:0.8;fill:none;stroke:rgb(0,0,0);stroke-width:1;stroke-linecap:round"/>
</svg>
