<?xml version="1.0" standalone="no"?>
<!DOCTYPE svg PUBLIC "-//W3C//DTD SVG 1.1//EN"
"http://www.w3.org/Graphics/SVG/1.1/DTD/svg11.dtd">
<svg width="100%" height="100%" version="1.1"
xmlns="http://www.w3.org/2000/svg"
xmlns:xlink="http://www.w3.org/1999/xlink">
<g fill-rule="evenodd"><path d="M 1.25063,406.771 L 53.4304,484.699 L 145.824,486.361 L 242.616,484.46 L 226.478,446.542 L 151.239,281.671 L 1.25063,406.771 z " style="fill-opacity:0.5;fill:rgb(169,169,169);stroke:rgb(169,169,169);stroke-width:1"/></g>
<g fill-rule="evenodd"><path d="M 135.825,274.536 L 227.886,430.639 L 239.894,354.589 L 400,274.536 L 135.825,274.536 z " style="fill-opacity:0.5;fill:rgb(169,169,169);stroke:rgb(169,169,169);stroke-width:1"/></g>
<g fill-rule="evenodd"><path d="M 379.987,474.669 L 395.997,374.602 L 323.95,366.597 L 239.894,358.592 L 247.899,386.61 L 283.923,486.676 L 379.987,474.669 z " style="fill-opacity:0.5;fill:rgb(169,169,169);stroke:rgb(169,169,169);stroke-width:1"/></g>
<g fill-rule="evenodd"><path d="M 45.326,348.341 L 153.948,280.466 L 66.9837,141.294 L 22.8525,206.629 L 45.326,348.341 z " style="fill-opacity:0.5;fill:rgb(169,169,169);stroke:rgb(169,169,169);stroke-width:1"/></g>
<g fill-rule="evenodd"><path d="M 148.131,278.425 L 257.783,127.301 L 82.3369,111.952 L 148.131,278.425 z " style="fill-opacity:0.5;fill:rgb(169,169,169);stroke:rgb(169,169,169);stroke-width:1"/></g>
<g fill-rule="evenodd"><path d="M 376.316,273.578 L 232.22,165.506 L 152.167,273.578 L 376.316,273.578 z " style="fill-opacity:0.5;fill:rgb(169,169,169);stroke:rgb(169,169,169);stroke-width:1"/></g>
<g fill-rule="evenodd"><path d="M 295.135,112.912 L 237.227,175.011 L 371.19,226.404 L 374.352,202.263 L 386.86,101.699 L 295.135,112.912 z " style="fill-opacity:0.5;fill:rgb(169,169,169);stroke:rgb(169,169,169);stroke-width:1"/></g>
<g fill-rule="evenodd"><path d="M 117.411,78.5786 L 43.7721,56.1034 L 5.31354,70.9083 L 0.921318,130.921 L -9.30731e-15,223.757 L 117.411,78.5786 z " style="fill-opacity:0.5;fill:rgb(169,169,169);stroke:rgb(169,169,169);stroke-width:1"/></g>
<g fill-rule="evenodd"><path d="M 260.001,13.3235 L 260.001,153.416 L 396.091,13.3235 L 260.001,13.3235 z " style="fill-opacity:0.5;fill:rgb(169,169,169);stroke:rgb(169,169,169);stroke-width:1"/></g>
<g fill-rule="evenodd"><path d="M 139.997,14.7983 L 33.6001,24.1169 L 9.42669,40.3886 L 179.865,98.6428 L 139.997,14.7983 z " style="fill-opacity:0.5;fill:rgb(169,169,169);stroke:rgb(169,169,169);stroke-width:1"/></g>
<g fill-rule="evenodd"><path d="M 242.515,30.2694 L 117.302,114.744 L 265.31,109.575 L 242.515,30.2694 z " style="fill-opacity:0.5;fill:rgb(169,169,169);stroke:rgb(169,169,169);stroke-width:1"/></g>
<g fill-rule="evenodd"><path d="M 397.809,292.511 L 397.809,160.424 L 337.769,220.463 L 397.809,292.511 z " style="fill-opacity:0.5;fill:rgb(169,169,169);stroke:rgb(169,169,169);stroke-width:1"/></g>
<g fill-rule="evenodd"><path d="M 382.472,302.706 L 358.283,305.478 L 297.853,356.118 L 394.636,374.169 L 382.472,302.706 z " style="fill-opacity:0.5;fill:rgb(169,169,169);stroke:rgb(169,169,169);stroke-width:1"/></g>
<g fill-rule="evenodd"><path d="M 54.4652,339.168 L 0.219062,257.008 L 5.50459,407.959 L 54.4652,339.168 z " style="fill-opacity:0.5;fill:rgb(169,169,169);stroke:rgb(169,169,169);stroke-width:1"/></g>
<g fill-rule="evenodd"><path d="M 306.191,110.833 L 388.086,100.725 L 398.818,13.3235 L 306.191,110.833 z " style="fill-opacity:0.5;fill:rgb(169,169,169);stroke:rgb(169,169,169);stroke-width:1"/></g>
<g fill-rule="evenodd"><path d="M 282.71,471.842 L 236.424,376.09 L 223.417,482.099 L 282.71,471.842 z " style="fill-opacity:0.5;fill:rgb(169,169,169);stroke:rgb(169,169,169);stroke-width:1"/></g>
<rect x="-9.30731e-15" y="13.3235" width="400" height="473.353" style="opacity:0.8;fill:none;stroke:rgb(0,0,0);stroke-width:1;stroke-linecap:round"/>
</svg>
