<?xml version="1.0" standalone="no"?>
<!DOCTYPE svg PUBLIC "-//W3C//DTD SVG 1.1//EN"
"http://www.w3.org/Graphics/SVG/1.1/DTD/svg11.dtd">
<svg width="100%" height="100%" version="1.1"
xmlns="http://www.w3.org/2000/svg"
xmlns:xlink="http://www.w3.org/1999/xlink">
<g fill-rule="evenodd"><path d="M 1.25141,407.027 L 53.4641,485.005 L 145.916,486.668 L 242.769,484.766 L 226.621,446.823 L 151.334,281.848 L 1.25141,407.027 z " style="fill-opacity:0.5;fill:rgb(169,169,169);stroke:rgb(169,169,169);stroke-width:1"/></g>
<g fill-rule="evenodd"><path d="M 232.431,449.992 L 332.441,298.722 L 258.778,321.282 L 116.551,212.404 L 232.431,449.992 z " style="fill-opacity:0.5;fill:rgb(169,169,169);stroke:rgb(169,169,169);stroke-width:1"/></g>
<g fill-rule="evenodd"><path d="M 282.643,466.03 L 382.772,482.05 L 390.782,409.957 L 398.792,325.849 L 370.756,333.859 L 270.627,369.906 L 282.643,466.03 z " style="fill-opacity:0.5;fill:rgb(169,169,169);stroke:rgb(169,169,169);stroke-width:1"/></g>
<g fill-rule="evenodd"><path d="M 3.1018,321.459 L 128.466,294.812 L 94.3249,134.188 L 30.469,180.518 L 3.1018,321.459 z " style="fill-opacity:0.5;fill:rgb(169,169,169);stroke:rgb(169,169,169);stroke-width:1"/></g>
<g fill-rule="evenodd"><path d="M 80.9572,104.685 L 168.774,269.591 L 259.538,118.535 L 80.9572,104.685 z " style="fill-opacity:0.5;fill:rgb(169,169,169);stroke:rgb(169,169,169);stroke-width:1"/></g>
<g fill-rule="evenodd"><path d="M 214.809,134.016 L 230.925,313.527 L 364.888,300.695 L 214.809,134.016 z " style="fill-opacity:0.5;fill:rgb(169,169,169);stroke:rgb(169,169,169);stroke-width:1"/></g>
<g fill-rule="evenodd"><path d="M 307.731,120.929 L 234.151,163.41 L 347.305,251.78 L 357.394,229.605 L 398.784,137.034 L 307.731,120.929 z " style="fill-opacity:0.5;fill:rgb(169,169,169);stroke:rgb(169,169,169);stroke-width:1"/></g>
<g fill-rule="evenodd"><path d="M 117.485,78.6285 L 43.7997,56.1391 L 5.31688,70.9533 L 0.921898,131.004 L 4.98435e-16,223.898 L 117.485,78.6285 z " style="fill-opacity:0.5;fill:rgb(169,169,169);stroke:rgb(169,169,169);stroke-width:1"/></g>
<g fill-rule="evenodd"><path d="M 261.31,14.0949 L 261.31,154.276 L 397.486,14.0949 L 261.31,14.0949 z " style="fill-opacity:0.5;fill:rgb(169,169,169);stroke:rgb(169,169,169);stroke-width:1"/></g>
<g fill-rule="evenodd"><path d="M 131.033,13.9941 L 24.5695,23.3185 L 0.380821,39.6005 L 170.927,97.8913 L 131.033,13.9941 z " style="fill-opacity:0.5;fill:rgb(169,169,169);stroke:rgb(169,169,169);stroke-width:1"/></g>
<g fill-rule="evenodd"><path d="M 245.727,30.3283 L 120.435,114.856 L 268.536,109.684 L 245.727,30.3283 z " style="fill-opacity:0.5;fill:rgb(169,169,169);stroke:rgb(169,169,169);stroke-width:1"/></g>
<g fill-rule="evenodd"><path d="M 3.82632,401.351 L 106.542,318.174 L 22.0451,309.293 L 3.82632,401.351 z " style="fill-opacity:0.5;fill:rgb(169,169,169);stroke:rgb(169,169,169);stroke-width:1"/></g>
<g fill-rule="evenodd"><path d="M 367.077,273.443 L 344.415,282.386 L 299.122,346.982 L 397.341,339.364 L 367.077,273.443 z " style="fill-opacity:0.5;fill:rgb(169,169,169);stroke:rgb(169,169,169);stroke-width:1"/></g>
<g fill-rule="evenodd"><path d="M 345.72,244.122 L 400,326.333 L 394.711,175.287 L 345.72,244.122 z " style="fill-opacity:0.5;fill:rgb(169,169,169);stroke:rgb(169,169,169);stroke-width:1"/></g>
<g fill-rule="evenodd"><path d="M 306.384,110.904 L 388.33,100.789 L 399.069,13.3323 L 306.384,110.904 z " style="fill-opacity:0.5;fill:rgb(169,169,169);stroke:rgb(169,169,169);stroke-width:1"/></g>
<g fill-rule="evenodd"><path d="M 156.212,74.9653 L 252.024,28.6499 L 145.949,15.6356 L 156.212,74.9653 z " style="fill-opacity:0.5;fill:rgb(169,169,169);stroke:rgb(169,169,169);stroke-width:1"/></g>
<rect x="4.98435e-16" y="13.3323" width="400" height="473.335" style="opacity:0.8;fill:none;stroke:rgb(0,0,0);stroke-width:1;stroke-linecap:round"/>
</svg>
