<?xml version="1.0" standalone="no"?>
<!DOCTYPE svg PUBLIC "-//W3C//DTD SVG 1.1//EN"
"http://www.w3.org/Graphics/SVG/1.1/DTD/svg11.dtd">
<svg width="100%" height="100%" version="1.1"
xmlns="http://www.w3.org/2000/svg"
xmlns:xlink="http://www.w3.org/1999/xlink">
<g fill-rule="evenodd"><path d="M 1.25066,406.932 L 53.4316,484.863 L 145.827,486.524 L 242.622,484.623 L 226.483,446.704 L 151.242,281.829 L 1.25066,406.932 z " style="fill-opacity:0.5;fill:rgb(169,169,169);stroke:rgb(169,169,169);stroke-width:1"/></g>
<g fill-rule="evenodd"><path d="M 233.8,453.317 L 333.75,302.139 L 260.131,324.685 L 117.991,215.873 L 233.8,453.317 z " style="fill-opacity:0.5;fill:rgb(169,169,169);stroke:rgb(169,169,169);stroke-width:1"/></g>
<g fill-rule="evenodd"><path d="M 399.184,393.661 L 314.279,338.333 L 277.661,400.897 L 236.158,474.432 L 265.011,478.515 L 371.08,486.306 L 399.184,393.661 z " style="fill-opacity:0.5;fill:rgb(169,169,169);stroke:rgb(169,169,169);stroke-width:1"/></g>
<g fill-rule="evenodd"><path d="M 4.20618,322.329 L 129.495,295.698 L 95.3739,135.172 L 31.5568,181.474 L 4.20618,322.329 z " style="fill-opacity:0.5;fill:rgb(169,169,169);stroke:rgb(169,169,169);stroke-width:1"/></g>
<g fill-rule="evenodd"><path d="M 262.992,108.088 L 76.2737,108.206 L 166.982,259.171 L 262.992,108.088 z " style="fill-opacity:0.5;fill:rgb(169,169,169);stroke:rgb(169,169,169);stroke-width:1"/></g>
<g fill-rule="evenodd"><path d="M 225.933,136.409 L 242.039,315.811 L 375.921,302.987 L 225.933,136.409 z " style="fill-opacity:0.5;fill:rgb(169,169,169);stroke:rgb(169,169,169);stroke-width:1"/></g>
<g fill-rule="evenodd"><path d="M 388.302,183.22 L 380.902,98.6318 L 253.068,163.798 L 268.893,182.302 L 335.258,258.89 L 388.302,183.22 z " style="fill-opacity:0.5;fill:rgb(169,169,169);stroke:rgb(169,169,169);stroke-width:1"/></g>
<g fill-rule="evenodd"><path d="M 117.414,78.7325 L 43.7731,56.2567 L 5.31366,71.062 L 0.921339,131.076 L -5.3256e-15,223.914 L 117.414,78.7325 z " style="fill-opacity:0.5;fill:rgb(169,169,169);stroke:rgb(169,169,169);stroke-width:1"/></g>
<g fill-rule="evenodd"><path d="M 261.151,14.238 L 261.151,154.334 L 397.245,14.238 L 261.151,14.238 z " style="fill-opacity:0.5;fill:rgb(169,169,169);stroke:rgb(169,169,169);stroke-width:1"/></g>
<g fill-rule="evenodd"><path d="M 130.954,14.1373 L 24.5546,23.456 L 0.38059,39.7281 L 170.823,97.9836 L 130.954,14.1373 z " style="fill-opacity:0.5;fill:rgb(169,169,169);stroke:rgb(169,169,169);stroke-width:1"/></g>
<g fill-rule="evenodd"><path d="M 243.651,24.6194 L 118.435,109.096 L 266.447,103.927 L 243.651,24.6194 z " style="fill-opacity:0.5;fill:rgb(169,169,169);stroke:rgb(169,169,169);stroke-width:1"/></g>
<g fill-rule="evenodd"><path d="M 1.11329,413.981 L 87.7724,314.292 L 3.06831,320.215 L 1.11329,413.981 z " style="fill-opacity:0.5;fill:rgb(169,169,169);stroke:rgb(169,169,169);stroke-width:1"/></g>
<g fill-rule="evenodd"><path d="M 318.777,328.021 L 330.408,349.411 L 400,386.472 L 380.481,289.971 L 318.777,328.021 z " style="fill-opacity:0.5;fill:rgb(169,169,169);stroke:rgb(169,169,169);stroke-width:1"/></g>
<g fill-rule="evenodd"><path d="M 345.736,244.915 L 399.984,327.076 L 394.698,176.121 L 345.736,244.915 z " style="fill-opacity:0.5;fill:rgb(169,169,169);stroke:rgb(169,169,169);stroke-width:1"/></g>
<g fill-rule="evenodd"><path d="M 306.198,110.988 L 388.095,100.88 L 398.827,13.4759 L 306.198,110.988 z " style="fill-opacity:0.5;fill:rgb(169,169,169);stroke:rgb(169,169,169);stroke-width:1"/></g>
<g fill-rule="evenodd"><path d="M 157.818,72.5811 L 251.898,22.9802 L 145.498,13.6814 L 157.818,72.5811 z " style="fill-opacity:0.5;fill:rgb(169,169,169);stroke:rgb(169,169,169);stroke-width:1"/></g>
<rect x="-5.3256e-15" y="13.4759" width="400" height="473.048" style="opacity:0.8;fill:none;stroke:rgb(0,0,0);stroke-width:1;stroke-linecap:round"/>
</svg>
