<?xml version="1.0" standalone="no"?>
<!DOCTYPE svg PUBLIC "-//W3C//DTD SVG 1.1//EN"
"http://www.w3.org/Graphics/SVG/1.1/DTD/svg11.dtd">
<svg width="100%" height="100%" version="1.1"
xmlns="http://www.w3.org/2000/svg"
xmlns:xlink="http://www.w3.org/1999/xlink">
<g fill-rule="evenodd"><path d="M 0.446789,409.132 L 53.982,486.144 L 146.396,486.192 L 243.147,482.602 L 226.348,444.969 L 148.238,281.426 L 0.446789,409.132 z " style="fill-opacity:0.5;fill:rgb(169,169,169);stroke:rgb(169,169,169);stroke-width:1"/></g>
<g fill-rule="evenodd"><path d="M 234.291,458.161 L 334.245,306.976 L 260.623,329.524 L 118.477,220.707 L 234.291,458.161 z " style="fill-opacity:0.5;fill:rgb(169,169,169);stroke:rgb(169,169,169);stroke-width:1"/></g>
<g fill-rule="evenodd"><path d="M 399.158,393.389 L 314.25,338.059 L 277.63,400.626 L 236.125,474.163 L 264.979,478.246 L 371.053,486.038 L 399.158,393.389 z " style="fill-opacity:0.5;fill:rgb(169,169,169);stroke:rgb(169,169,169);stroke-width:1"/></g>
<g fill-rule="evenodd"><path d="M 1.78601,323.823 L 127.08,297.191 L 92.9574,136.659 L 29.1377,182.963 L 1.78601,323.823 z " style="fill-opacity:0.5;fill:rgb(169,169,169);stroke:rgb(169,169,169);stroke-width:1"/></g>
<g fill-rule="evenodd"><path d="M 173.516,259.15 L 240.322,84.7841 L 66.8706,115.368 L 173.516,259.15 z " style="fill-opacity:0.5;fill:rgb(169,169,169);stroke:rgb(169,169,169);stroke-width:1"/></g>
<g fill-rule="evenodd"><path d="M 223.446,130.081 L 239.552,309.49 L 373.439,296.666 L 223.446,130.081 z " style="fill-opacity:0.5;fill:rgb(169,169,169);stroke:rgb(169,169,169);stroke-width:1"/></g>
<g fill-rule="evenodd"><path d="M 391.99,181.055 L 389.027,96.1924 L 257.952,154.582 L 272.788,173.889 L 335.056,253.848 L 391.99,181.055 z " style="fill-opacity:0.5;fill:rgb(169,169,169);stroke:rgb(169,169,169);stroke-width:1"/></g>
<g fill-rule="evenodd"><path d="M 117.419,78.4054 L 43.7748,55.9288 L 5.31387,70.7346 L 0.921376,130.751 L 1.74571e-14,223.593 L 117.419,78.4054 z " style="fill-opacity:0.5;fill:rgb(169,169,169);stroke:rgb(169,169,169);stroke-width:1"/></g>
<g fill-rule="evenodd"><path d="M 274.816,33.9296 L 206.893,156.465 L 393.85,99.9115 L 274.816,33.9296 z " style="fill-opacity:0.5;fill:rgb(169,169,169);stroke:rgb(169,169,169);stroke-width:1"/></g>
<g fill-rule="evenodd"><path d="M 130.959,13.8076 L 24.5556,23.1268 L 0.380605,39.3995 L 170.83,97.6574 L 130.959,13.8076 z " style="fill-opacity:0.5;fill:rgb(169,169,169);stroke:rgb(169,169,169);stroke-width:1"/></g>
<g fill-rule="evenodd"><path d="M 271.317,19.4315 L 120.355,14.174 L 243.142,96.9946 L 271.317,19.4315 z " style="fill-opacity:0.5;fill:rgb(169,169,169);stroke:rgb(169,169,169);stroke-width:1"/></g>
<g fill-rule="evenodd"><path d="M 0.023908,410.965 L 96.6326,320.876 L 11.77,317.912 L 0.023908,410.965 z " style="fill-opacity:0.5;fill:rgb(169,169,169);stroke:rgb(169,169,169);stroke-width:1"/></g>
<g fill-rule="evenodd"><path d="M 397.237,20.5828 L 373.153,16.9996 L 301.671,50.2754 L 390.49,92.7637 L 397.237,20.5828 z " style="fill-opacity:0.5;fill:rgb(169,169,169);stroke:rgb(169,169,169);stroke-width:1"/></g>
<g fill-rule="evenodd"><path d="M 345.75,244.594 L 400,326.759 L 394.714,175.798 L 345.75,244.594 z " style="fill-opacity:0.5;fill:rgb(169,169,169);stroke:rgb(169,169,169);stroke-width:1"/></g>
<g fill-rule="evenodd"><path d="M 399.751,396.61 L 389.642,314.71 L 302.235,303.977 L 399.751,396.61 z " style="fill-opacity:0.5;fill:rgb(169,169,169);stroke:rgb(169,169,169);stroke-width:1"/></g>
<g fill-rule="evenodd"><path d="M 234.545,268.514 L 214.617,164.038 L 174.614,263.075 L 234.545,268.514 z " style="fill-opacity:0.5;fill:rgb(169,169,169);stroke:rgb(169,169,169);stroke-width:1"/></g>
<rect x="1.74571e-14" y="13.8076" width="400" height="472.385" style="opacity:0.8;fill:none;stroke:rgb(0,0,0);stroke-width:1;stroke-linecap:round"/>
</svg>
