<?xml version="1.0" standalone="no"?>
<!DOCTYPE svg PUBLIC "-//W3C//DTD SVG 1.1//EN"
"http://www.w3.org/Graphics/SVG/1.1/DTD/svg11.dtd">
<svg width="200mm" height="200mm" viewBox="-250 -250 800 800" version="1.1"
xmlns="http://www.w3.org/2000/svg"
xmlns:xlink="http://www.w3.org/1999/xlink">
<g fill-rule="evenodd"><path d="M 149.873,300 L 149.935,300 L 149.935,299.934 L 149.915,299.916 L 149.893,299.916 L 149.873,299.934 L 149.873,300 z " style="fill-opacity:0.5;fill:rgb(204,153,0);stroke:rgb(204,153,0);stroke-width:1"/></g>
<g fill-rule="evenodd"><path d="M 149.943,299.869 L 149.844,299.869 L 149.844,299.911 L 149.853,299.911 L 149.865,299.92 L 149.904,299.914 L 149.943,299.92 L 149.943,299.869 z " style="fill-opacity:0.5;fill:rgb(204,153,0);stroke:rgb(204,153,0);stroke-width:1"/></g>
<g fill-rule="evenodd"><path d="M 150.026,300 L 150.089,300 L 150.089,299.934 L 150.068,299.916 L 150.047,299.916 L 150.026,299.934 L 150.026,300 z " style="fill-opacity:0.5;fill:rgb(204,153,0);stroke:rgb(204,153,0);stroke-width:1"/></g>
<g fill-rule="evenodd"><path d="M 150.097,299.869 L 149.998,299.869 L 149.998,299.911 L 150.007,299.911 L 150.019,299.92 L 150.058,299.914 L 150.097,299.92 L 150.097,299.869 z " style="fill-opacity:0.5;fill:rgb(204,153,0);stroke:rgb(204,153,0);stroke-width:1"/></g>
<g fill-rule="evenodd"><path d="M 149.844,299.869 L 149.931,299.869 L 149.925,299.833 L 149.931,299.803 L 149.919,299.791 L 149.919,299.77 L 149.898,299.758 L 149.892,299.764 L 149.886,299.764 L 149.88,299.758 L 149.856,299.767 L 149.856,299.791 L 149.844,299.803 L 149.85,299.833 L 149.844,299.869 z " style="fill-opacity:0.5;fill:rgb(204,153,0);stroke:rgb(204,153,0);stroke-width:1"/></g>
<g fill-rule="evenodd"><path d="M 149.931,299.869 L 150.018,299.869 L 150.012,299.833 L 150.018,299.803 L 150.006,299.791 L 150.006,299.77 L 149.985,299.758 L 149.979,299.764 L 149.973,299.764 L 149.967,299.758 L 149.943,299.767 L 149.943,299.791 L 149.931,299.803 L 149.937,299.833 L 149.931,299.869 z " style="fill-opacity:0.5;fill:rgb(204,153,0);stroke:rgb(204,153,0);stroke-width:1"/></g>
<g fill-rule="evenodd"><path d="M 149.935,300 L 149.999,300 L 149.999,299.934 L 149.977,299.916 L 149.957,299.916 L 149.935,299.934 L 149.935,300 z " style="fill-opacity:0.5;fill:rgb(204,153,0);stroke:rgb(204,153,0);stroke-width:1"/></g>
<g fill-rule="evenodd"><path d="M 150.089,300 L 150.152,300 L 150.152,299.934 L 150.131,299.916 L 150.11,299.916 L 150.089,299.934 L 150.089,300 z " style="fill-opacity:0.5;fill:rgb(204,153,0);stroke:rgb(204,153,0);stroke-width:1"/></g>
<g fill-rule="evenodd"><path d="M 150.018,299.869 L 150.117,299.869 L 150.12,299.851 L 150.123,299.83 L 150.102,299.83 L 150.093,299.824 L 150.06,299.83 L 150.018,299.824 L 150.018,299.869 z " style="fill-opacity:0.5;fill:rgb(204,153,0);stroke:rgb(204,153,0);stroke-width:1"/></g>
<g fill-rule="evenodd"><path d="M 150.018,299.824 L 150.117,299.824 L 150.12,299.806 L 150.123,299.785 L 150.102,299.785 L 150.093,299.779 L 150.06,299.785 L 150.018,299.779 L 150.018,299.824 z " style="fill-opacity:0.5;fill:rgb(204,153,0);stroke:rgb(204,153,0);stroke-width:1"/></g>
<g fill-rule="evenodd"><path d="M 149.844,0.003 L 149.85,0.018 L 149.877,0.012 L 149.901,0.018 L 149.907,0.003 L 149.895,0.006 L 149.877,-3.13638e-15 L 149.856,0.006 L 149.844,0.003 z " style="fill-opacity:0.5;fill:rgb(204,153,0);stroke:rgb(204,153,0);stroke-width:1"/></g>
<g fill-rule="evenodd"><path d="M 149.893,0.0458824 L 149.893,0.0158824 L 149.86,0.0158824 L 149.86,0.0458824 L 149.893,0.0458824 z " style="fill-opacity:0.5;fill:rgb(204,153,0);stroke:rgb(204,153,0);stroke-width:1"/></g>
<g fill-rule="evenodd"><path d="M 149.844,0.0788824 L 149.85,0.0938824 L 149.877,0.0878824 L 149.901,0.0938824 L 149.907,0.0788824 L 149.895,0.0818824 L 149.877,0.0758824 L 149.856,0.0818824 L 149.844,0.0788824 z " style="fill-opacity:0.5;fill:rgb(204,153,0);stroke:rgb(204,153,0);stroke-width:1"/></g>
<g fill-rule="evenodd"><path d="M 149.893,0.121765 L 149.893,0.0917647 L 149.86,0.0917647 L 149.86,0.121765 L 149.893,0.121765 z " style="fill-opacity:0.5;fill:rgb(204,153,0);stroke:rgb(204,153,0);stroke-width:1"/></g>
<g fill-rule="evenodd"><path d="M 149.844,0.154765 L 149.85,0.169765 L 149.877,0.163765 L 149.901,0.169765 L 149.907,0.154765 L 149.895,0.157765 L 149.877,0.151765 L 149.856,0.157765 L 149.844,0.154765 z " style="fill-opacity:0.5;fill:rgb(204,153,0);stroke:rgb(204,153,0);stroke-width:1"/></g>
<g fill-rule="evenodd"><path d="M 149.893,0.197647 L 149.893,0.167647 L 149.86,0.167647 L 149.86,0.197647 L 149.893,0.197647 z " style="fill-opacity:0.5;fill:rgb(204,153,0);stroke:rgb(204,153,0);stroke-width:1"/></g>
<g fill-rule="evenodd"><path d="M 149.86,0.230647 L 149.866,0.245647 L 149.893,0.239647 L 149.917,0.245647 L 149.923,0.230647 L 149.911,0.233647 L 149.893,0.227647 L 149.872,0.233647 L 149.86,0.230647 z " style="fill-opacity:0.5;fill:rgb(204,153,0);stroke:rgb(204,153,0);stroke-width:1"/></g>
<g fill-rule="evenodd"><path d="M 149.908,0.273529 L 149.908,0.243529 L 149.875,0.243529 L 149.875,0.273529 L 149.908,0.273529 z " style="fill-opacity:0.5;fill:rgb(204,153,0);stroke:rgb(204,153,0);stroke-width:1"/></g>
<g fill-rule="evenodd"><path d="M 150.144,299.927 L 150.156,299.927 L 150.156,299.81 L 150.144,299.81 L 150.144,299.927 z " style="fill-opacity:0.5;fill:rgb(204,153,0);stroke:rgb(204,153,0);stroke-width:1"/></g>
<g fill-rule="evenodd"><path d="M 150.132,299.917 L 150.144,299.917 L 150.144,299.8 L 150.132,299.8 L 150.132,299.917 z " style="fill-opacity:0.5;fill:rgb(204,153,0);stroke:rgb(204,153,0);stroke-width:1"/></g>
<g fill-rule="evenodd"><path d="M 149.857,299.94 L 149.851,299.946 L 149.857,299.97 L 149.851,299.994 L 149.857,300 L 149.863,299.97 L 149.857,299.94 z " style="fill-opacity:0.5;fill:rgb(204,153,0);stroke:rgb(204,153,0);stroke-width:1"/></g>
<g fill-rule="evenodd"><path d="M 149.85,299.94 L 149.844,299.946 L 149.85,299.97 L 149.844,299.994 L 149.85,300 L 149.856,299.97 L 149.85,299.94 z " style="fill-opacity:0.5;fill:rgb(204,153,0);stroke:rgb(204,153,0);stroke-width:1"/></g>
<g fill-rule="evenodd"><path d="M 150.014,299.94 L 150.008,299.946 L 150.014,299.97 L 150.008,299.994 L 150.014,300 L 150.02,299.97 L 150.014,299.94 z " style="fill-opacity:0.5;fill:rgb(204,153,0);stroke:rgb(204,153,0);stroke-width:1"/></g>
<g fill-rule="evenodd"><path d="M 150.007,299.94 L 150.001,299.946 L 150.007,299.97 L 150.001,299.994 L 150.007,300 L 150.013,299.97 L 150.007,299.94 z " style="fill-opacity:0.5;fill:rgb(204,153,0);stroke:rgb(204,153,0);stroke-width:1"/></g>
<rect x="149.844" y="-3.13638e-15" width="1" height="300" style="opacity:0.8;fill:none;stroke:rgb(212,0,0);stroke-width:4;stroke-dasharray:1,7;stroke-linecap:round"/>
</svg>
