<?xml version="1.0" standalone="no"?>
<!DOCTYPE svg PUBLIC "-//W3C//DTD SVG 1.1//EN"
"http://www.w3.org/Graphics/SVG/1.1/DTD/svg11.dtd">
<svg width="100%" height="100%" version="1.1"
xmlns="http://www.w3.org/2000/svg"
xmlns:xlink="http://www.w3.org/1999/xlink">
<g fill-rule="evenodd"><path d="M 28.7671,438.356 L 80.137,500 L 158.904,493.151 L 241.096,482.877 L 223.973,452.055 L 145.205,318.493 L 28.7671,438.356 z " style="fill-opacity:0.5;fill:rgb(169,169,169);stroke:rgb(169,169,169);stroke-width:1"/></g>
<g fill-rule="evenodd"><path d="M 145.205,318.493 L 223.973,452.055 L 234.247,386.986 L 371.233,318.493 L 145.205,318.493 z " style="fill-opacity:0.5;fill:rgb(169,169,169);stroke:rgb(169,169,169);stroke-width:1"/></g>
<g fill-rule="evenodd"><path d="M 354.11,489.726 L 367.808,404.11 L 306.164,397.26 L 234.247,390.411 L 241.096,414.384 L 271.918,500 L 354.11,489.726 z " style="fill-opacity:0.5;fill:rgb(169,169,169);stroke:rgb(169,169,169);stroke-width:1"/></g>
<g fill-rule="evenodd"><path d="M 138.356,260.274 L 28.7671,260.274 L 28.7671,400.685 L 90.411,373.288 L 138.356,260.274 z " style="fill-opacity:0.5;fill:rgb(169,169,169);stroke:rgb(169,169,169);stroke-width:1"/></g>
<g fill-rule="evenodd"><path d="M 169.178,318.493 L 251.37,181.507 L 100.685,181.507 L 169.178,318.493 z " style="fill-opacity:0.5;fill:rgb(169,169,169);stroke:rgb(169,169,169);stroke-width:1"/></g>
<g fill-rule="evenodd"><path d="M 360.959,318.493 L 237.671,226.027 L 169.178,318.493 L 360.959,318.493 z " style="fill-opacity:0.5;fill:rgb(169,169,169);stroke:rgb(169,169,169);stroke-width:1"/></g>
<g fill-rule="evenodd"><path d="M 289.041,174.658 L 237.671,226.027 L 350.685,273.973 L 354.11,253.425 L 367.808,167.808 L 289.041,174.658 z " style="fill-opacity:0.5;fill:rgb(169,169,169);stroke:rgb(169,169,169);stroke-width:1"/></g>
<g fill-rule="evenodd"><path d="M 124.658,123.288 L 59.589,113.014 L 28.7671,130.137 L 32.1918,181.507 L 42.4658,260.274 L 124.658,123.288 z " style="fill-opacity:0.5;fill:rgb(169,169,169);stroke:rgb(169,169,169);stroke-width:1"/></g>
<g fill-rule="evenodd"><path d="M 251.37,92.4658 L 251.37,212.329 L 367.808,92.4658 L 251.37,92.4658 z " style="fill-opacity:0.5;fill:rgb(169,169,169);stroke:rgb(169,169,169);stroke-width:1"/></g>
<g fill-rule="evenodd"><path d="M 193.151,102.74 L 104.11,82.1918 L 80.137,89.0411 L 203.425,181.507 L 193.151,102.74 z " style="fill-opacity:0.5;fill:rgb(169,169,169);stroke:rgb(169,169,169);stroke-width:1"/></g>
<g fill-rule="evenodd"><path d="M 176.027,71.9178 L 244.521,181.507 L 244.521,54.7945 L 176.027,71.9178 z " style="fill-opacity:0.5;fill:rgb(169,169,169);stroke:rgb(169,169,169);stroke-width:1"/></g>
<g fill-rule="evenodd"><path d="M 210.274,41.0959 L 97.2603,41.0959 L 148.63,92.4658 L 210.274,41.0959 z " style="fill-opacity:0.5;fill:rgb(169,169,169);stroke:rgb(169,169,169);stroke-width:1"/></g>
<g fill-rule="evenodd"><path d="M 364.384,339.041 L 343.836,335.616 L 282.192,363.014 L 357.534,400.685 L 364.384,339.041 z " style="fill-opacity:0.5;fill:rgb(169,169,169);stroke:rgb(169,169,169);stroke-width:1"/></g>
<g fill-rule="evenodd"><path d="M 282.192,20.5479 L 244.521,95.8904 L 354.11,27.3973 L 282.192,20.5479 z " style="fill-opacity:0.5;fill:rgb(169,169,169);stroke:rgb(169,169,169);stroke-width:1"/></g>
<g fill-rule="evenodd"><path d="M 97.2603,37.6712 L 28.7671,54.7945 L 28.7671,130.137 L 97.2603,37.6712 z " style="fill-opacity:0.5;fill:rgb(169,169,169);stroke:rgb(169,169,169);stroke-width:1"/></g>
<g fill-rule="evenodd"><path d="M 32.1918,51.3699 L 117.808,20.5479 L 28.7671,5.77316e-15 L 32.1918,51.3699 z " style="fill-opacity:0.5;fill:rgb(169,169,169);stroke:rgb(169,169,169);stroke-width:1"/></g>
<rect x="28.7671" y="5.77316e-15" width="342.466" height="500" style="opacity:0.8;fill:none;stroke:rgb(0,0,0);stroke-width:1;stroke-linecap:round"/>
</svg>
