<?xml version="1.0" standalone="no"?>
<!DOCTYPE svg PUBLIC "-//W3C//DTD SVG 1.1//EN"
"http://www.w3.org/Graphics/SVG/1.1/DTD/svg11.dtd">
<svg width="100%" height="100%" version="1.1"
xmlns="http://www.w3.org/2000/svg"
xmlns:xlink="http://www.w3.org/1999/xlink">
<g fill-rule="evenodd"><path d="M 9.74125,431.507 L 66.8189,500 L 154.338,492.39 L 245.662,480.974 L 226.636,446.728 L 139.117,298.326 L 9.74125,431.507 z " style="fill-opacity:0.5;fill:rgb(169,169,169);stroke:rgb(169,169,169);stroke-width:1"/></g>
<g fill-rule="evenodd"><path d="M 139.117,298.326 L 226.636,446.728 L 238.052,374.429 L 390.259,298.326 L 139.117,298.326 z " style="fill-opacity:0.5;fill:rgb(169,169,169);stroke:rgb(169,169,169);stroke-width:1"/></g>
<g fill-rule="evenodd"><path d="M 371.233,488.584 L 386.454,393.455 L 317.96,385.845 L 238.052,378.234 L 245.662,404.871 L 279.909,500 L 371.233,488.584 z " style="fill-opacity:0.5;fill:rgb(169,169,169);stroke:rgb(169,169,169);stroke-width:1"/></g>
<g fill-rule="evenodd"><path d="M 131.95,234.658 L 10.1841,234.658 L 10.1841,390.67 L 78.6773,360.229 L 131.95,234.658 z " style="fill-opacity:0.5;fill:rgb(169,169,169);stroke:rgb(169,169,169);stroke-width:1"/></g>
<g fill-rule="evenodd"><path d="M 169.142,298.473 L 260.467,146.266 L 93.0388,146.266 L 169.142,298.473 z " style="fill-opacity:0.5;fill:rgb(169,169,169);stroke:rgb(169,169,169);stroke-width:1"/></g>
<g fill-rule="evenodd"><path d="M 382.813,298.303 L 245.827,195.564 L 169.723,298.303 L 382.813,298.303 z " style="fill-opacity:0.5;fill:rgb(169,169,169);stroke:rgb(169,169,169);stroke-width:1"/></g>
<g fill-rule="evenodd"><path d="M 309.812,247.369 L 387.405,269.619 L 373.12,133.965 L 351.307,141.706 L 260.726,174.513 L 309.812,247.369 z " style="fill-opacity:0.5;fill:rgb(169,169,169);stroke:rgb(169,169,169);stroke-width:1"/></g>
<g fill-rule="evenodd"><path d="M 160.954,116.423 L 100.977,74.4696 L 61.8559,76.5572 L 40.2548,129.526 L 12.1492,213.192 L 160.954,116.423 z " style="fill-opacity:0.5;fill:rgb(169,169,169);stroke:rgb(169,169,169);stroke-width:1"/></g>
<g fill-rule="evenodd"><path d="M 259.462,3.98256 L 259.462,137.164 L 388.838,3.98256 L 259.462,3.98256 z " style="fill-opacity:0.5;fill:rgb(169,169,169);stroke:rgb(169,169,169);stroke-width:1"/></g>
<g fill-rule="evenodd"><path d="M 190.942,61.2352 L 92.0073,38.4042 L 65.3711,46.0145 L 202.357,148.754 L 190.942,61.2352 z " style="fill-opacity:0.5;fill:rgb(169,169,169);stroke:rgb(169,169,169);stroke-width:1"/></g>
<g fill-rule="evenodd"><path d="M 178.375,22.8965 L 254.478,144.662 L 254.478,3.87067 L 178.375,22.8965 z " style="fill-opacity:0.5;fill:rgb(169,169,169);stroke:rgb(169,169,169);stroke-width:1"/></g>
<g fill-rule="evenodd"><path d="M 11.601,232.866 L 137.172,232.866 L 80.0941,175.788 L 11.601,232.866 z " style="fill-opacity:0.5;fill:rgb(169,169,169);stroke:rgb(169,169,169);stroke-width:1"/></g>
<g fill-rule="evenodd"><path d="M 382.648,321.157 L 359.817,317.352 L 291.324,347.793 L 375.038,389.65 L 382.648,321.157 z " style="fill-opacity:0.5;fill:rgb(169,169,169);stroke:rgb(169,169,169);stroke-width:1"/></g>
<g fill-rule="evenodd"><path d="M 389.239,118.023 L 380.374,24.8486 L 317.44,153.914 L 389.239,118.023 z " style="fill-opacity:0.5;fill:rgb(169,169,169);stroke:rgb(169,169,169);stroke-width:1"/></g>
<g fill-rule="evenodd"><path d="M 85.8447,-1.15186e-14 L 9.74125,19.0259 L 9.74125,102.74 L 85.8447,-1.15186e-14 z " style="fill-opacity:0.5;fill:rgb(169,169,169);stroke:rgb(169,169,169);stroke-width:1"/></g>
<g fill-rule="evenodd"><path d="M 173.068,0.41675 L 77.9389,34.6633 L 176.873,57.4944 L 173.068,0.41675 z " style="fill-opacity:0.5;fill:rgb(169,169,169);stroke:rgb(169,169,169);stroke-width:1"/></g>
<rect x="9.74125" y="-1.15186e-14" width="380.518" height="500" style="opacity:0.8;fill:none;stroke:rgb(0,0,0);stroke-width:1;stroke-linecap:round"/>
</svg>
