<?xml version="1.0" standalone="no"?>
<!DOCTYPE svg PUBLIC "-//W3C//DTD SVG 1.1//EN"
"http://www.w3.org/Graphics/SVG/1.1/DTD/svg11.dtd">
<svg width="100%" height="100%" version="1.1"
xmlns="http://www.w3.org/2000/svg"
xmlns:xlink="http://www.w3.org/1999/xlink">
<g fill-rule="evenodd"><path d="M 9.74125,431.507 L 66.8189,500 L 154.338,492.39 L 245.662,480.974 L 226.636,446.728 L 139.117,298.326 L 9.74125,431.507 z " style="fill-opacity:0.5;fill:rgb(169,169,169);stroke:rgb(169,169,169);stroke-width:1"/></g>
<g fill-rule="evenodd"><path d="M 139.117,298.326 L 226.636,446.728 L 238.052,374.429 L 390.259,298.326 L 139.117,298.326 z " style="fill-opacity:0.5;fill:rgb(169,169,169);stroke:rgb(169,169,169);stroke-width:1"/></g>
<g fill-rule="evenodd"><path d="M 371.233,488.584 L 386.454,393.455 L 317.96,385.845 L 238.052,378.234 L 245.662,404.871 L 279.909,500 L 371.233,488.584 z " style="fill-opacity:0.5;fill:rgb(169,169,169);stroke:rgb(169,169,169);stroke-width:1"/></g>
<g fill-rule="evenodd"><path d="M 133.284,236.938 L 11.5188,236.938 L 11.5188,392.95 L 80.012,362.508 L 133.284,236.938 z " style="fill-opacity:0.5;fill:rgb(169,169,169);stroke:rgb(169,169,169);stroke-width:1"/></g>
<g fill-rule="evenodd"><path d="M 165.753,298.326 L 257.078,146.119 L 89.6499,146.119 L 165.753,298.326 z " style="fill-opacity:0.5;fill:rgb(169,169,169);stroke:rgb(169,169,169);stroke-width:1"/></g>
<g fill-rule="evenodd"><path d="M 378.843,298.326 L 241.857,195.586 L 165.753,298.326 L 378.843,298.326 z " style="fill-opacity:0.5;fill:rgb(169,169,169);stroke:rgb(169,169,169);stroke-width:1"/></g>
<g fill-rule="evenodd"><path d="M 308.045,246.989 L 385.638,269.238 L 371.353,133.585 L 349.54,141.325 L 258.959,174.132 L 308.045,246.989 z " style="fill-opacity:0.5;fill:rgb(169,169,169);stroke:rgb(169,169,169);stroke-width:1"/></g>
<g fill-rule="evenodd"><path d="M 116.286,81.4307 L 43.9878,70.0152 L 9.74125,89.0411 L 13.5464,146.119 L 24.9619,233.638 L 116.286,81.4307 z " style="fill-opacity:0.5;fill:rgb(169,169,169);stroke:rgb(169,169,169);stroke-width:1"/></g>
<g fill-rule="evenodd"><path d="M 259.462,3.98256 L 259.462,137.164 L 388.838,3.98256 L 259.462,3.98256 z " style="fill-opacity:0.5;fill:rgb(169,169,169);stroke:rgb(169,169,169);stroke-width:1"/></g>
<g fill-rule="evenodd"><path d="M 190.942,61.2352 L 92.0073,38.4042 L 65.3711,46.0145 L 202.357,148.754 L 190.942,61.2352 z " style="fill-opacity:0.5;fill:rgb(169,169,169);stroke:rgb(169,169,169);stroke-width:1"/></g>
<g fill-rule="evenodd"><path d="M 173.364,24.3531 L 249.467,146.119 L 249.467,5.32725 L 173.364,24.3531 z " style="fill-opacity:0.5;fill:rgb(169,169,169);stroke:rgb(169,169,169);stroke-width:1"/></g>
<g fill-rule="evenodd"><path d="M 12.4483,234.13 L 138.019,234.13 L 80.9414,177.053 L 12.4483,234.13 z " style="fill-opacity:0.5;fill:rgb(169,169,169);stroke:rgb(169,169,169);stroke-width:1"/></g>
<g fill-rule="evenodd"><path d="M 382.648,321.157 L 359.817,317.352 L 291.324,347.793 L 375.038,389.65 L 382.648,321.157 z " style="fill-opacity:0.5;fill:rgb(169,169,169);stroke:rgb(169,169,169);stroke-width:1"/></g>
<g fill-rule="evenodd"><path d="M 389.239,118.023 L 380.374,24.8486 L 317.44,153.914 L 389.239,118.023 z " style="fill-opacity:0.5;fill:rgb(169,169,169);stroke:rgb(169,169,169);stroke-width:1"/></g>
<g fill-rule="evenodd"><path d="M 85.8447,-1.15186e-14 L 9.74125,19.0259 L 9.74125,102.74 L 85.8447,-1.15186e-14 z " style="fill-opacity:0.5;fill:rgb(169,169,169);stroke:rgb(169,169,169);stroke-width:1"/></g>
<g fill-rule="evenodd"><path d="M 173.068,0.41675 L 77.9389,34.6633 L 176.873,57.4944 L 173.068,0.41675 z " style="fill-opacity:0.5;fill:rgb(169,169,169);stroke:rgb(169,169,169);stroke-width:1"/></g>
<rect x="9.74125" y="-1.15186e-14" width="380.518" height="500" style="opacity:0.8;fill:none;stroke:rgb(0,0,0);stroke-width:1;stroke-linecap:round"/>
</svg>
