<?xml version="1.0" standalone="no"?>
<!DOCTYPE svg PUBLIC "-//W3C//DTD SVG 1.1//EN"
"http://www.w3.org/Graphics/SVG/1.1/DTD/svg11.dtd">
<svg width="200mm" height="200mm" viewBox="-250 -250 800 800" version="1.1"
xmlns="http://www.w3.org/2000/svg"
xmlns:xlink="http://www.w3.org/1999/xlink">
<g fill-rule="evenodd"><path d="M 48.867,211.003 L 95.3882,289.887 L 101.456,251.456 L 182.363,211.003 L 48.867,211.003 z " style="fill-opacity:0.5;fill:rgb(169,169,169);stroke:rgb(169,169,169);stroke-width:2"/></g>
<g fill-rule="evenodd"><path d="M 101.456,251.456 L 182.363,300 L 182.363,211.003 L 101.456,251.456 z " style="fill-opacity:0.5;fill:rgb(169,169,169);stroke:rgb(169,169,169);stroke-width:2"/></g>
<g fill-rule="evenodd"><path d="M 214.725,242.441 L 251.133,212.101 L 247.088,165.58 L 241.02,117.036 L 222.816,127.149 L 143.932,173.67 L 214.725,242.441 z " style="fill-opacity:0.5;fill:rgb(169,169,169);stroke:rgb(169,169,169);stroke-width:2"/></g>
<g fill-rule="evenodd"><path d="M 119.66,204.935 L 127.751,154.368 L 91.3428,150.323 L 48.867,146.278 L 52.9123,160.436 L 71.1162,211.003 L 119.66,204.935 z " style="fill-opacity:0.5;fill:rgb(169,169,169);stroke:rgb(169,169,169);stroke-width:2"/></g>
<g fill-rule="evenodd"><path d="M 131.796,156.085 L 131.796,91.3595 L 48.867,91.3595 L 65.0483,127.767 L 131.796,156.085 z " style="fill-opacity:0.5;fill:rgb(169,169,169);stroke:rgb(169,169,169);stroke-width:2"/></g>
<g fill-rule="evenodd"><path d="M 125.76,86.8326 L 198.576,141.444 L 239.029,86.8326 L 125.76,86.8326 z " style="fill-opacity:0.5;fill:rgb(169,169,169);stroke:rgb(169,169,169);stroke-width:2"/></g>
<g fill-rule="evenodd"><path d="M 95.3882,87.3142 L 125.728,56.9743 L 58.9803,28.657 L 56.9576,40.793 L 48.867,91.3595 L 95.3882,87.3142 z " style="fill-opacity:0.5;fill:rgb(169,169,169);stroke:rgb(169,169,169);stroke-width:2"/></g>
<g fill-rule="evenodd"><path d="M 245.065,90.4541 L 251.133,52.0236 L 241.02,33.8196 L 210.68,35.8423 L 164.159,41.9103 L 245.065,90.4541 z " style="fill-opacity:0.5;fill:rgb(169,169,169);stroke:rgb(169,169,169);stroke-width:2"/></g>
<g fill-rule="evenodd"><path d="M 251.133,300 L 251.133,229.207 L 182.363,300 L 251.133,300 z " style="fill-opacity:0.5;fill:rgb(169,169,169);stroke:rgb(169,169,169);stroke-width:2"/></g>
<g fill-rule="evenodd"><path d="M 159.471,40.3114 L 106.882,28.1755 L 92.7234,32.2208 L 165.539,86.8326 L 159.471,40.3114 z " style="fill-opacity:0.5;fill:rgb(169,169,169);stroke:rgb(169,169,169);stroke-width:2"/></g>
<g fill-rule="evenodd"><path d="M 89.3202,289.887 L 48.867,225.162 L 48.867,300 L 89.3202,289.887 z " style="fill-opacity:0.5;fill:rgb(169,169,169);stroke:rgb(169,169,169);stroke-width:2"/></g>
<g fill-rule="evenodd"><path d="M 182.363,232.36 L 182.363,299.108 L 212.702,268.768 L 182.363,232.36 z " style="fill-opacity:0.5;fill:rgb(169,169,169);stroke:rgb(169,169,169);stroke-width:2"/></g>
<g fill-rule="evenodd"><path d="M 168.204,156.59 L 170.227,144.454 L 154.045,108.046 L 131.796,152.545 L 168.204,156.59 z " style="fill-opacity:0.5;fill:rgb(169,169,169);stroke:rgb(169,169,169);stroke-width:2"/></g>
<g fill-rule="evenodd"><path d="M 182.267,-1.51545e-14 L 160.017,44.4985 L 224.743,4.04532 L 182.267,-1.51545e-14 z " style="fill-opacity:0.5;fill:rgb(169,169,169);stroke:rgb(169,169,169);stroke-width:2"/></g>
<g fill-rule="evenodd"><path d="M 161.398,41.7383 L 151.284,1.28507 L 106.786,1.28507 L 161.398,41.7383 z " style="fill-opacity:0.5;fill:rgb(169,169,169);stroke:rgb(169,169,169);stroke-width:2"/></g>
<g fill-rule="evenodd"><path d="M 148.6,208.98 L 130.396,158.414 L 118.26,211.003 L 148.6,208.98 z " style="fill-opacity:0.5;fill:rgb(169,169,169);stroke:rgb(169,169,169);stroke-width:2"/></g>
<rect x="48.867" y="-1.51545e-14" width="202.266" height="300" style="opacity:0.8;fill:none;stroke:rgb(0,0,0);stroke-width:2;stroke-linecap:round"/>
</svg>
