<?xml version="1.0" standalone="no"?>
<!DOCTYPE svg PUBLIC "-//W3C//DTD SVG 1.1//EN"
"http://www.w3.org/Graphics/SVG/1.1/DTD/svg11.dtd">
<svg width="200mm" height="200mm" viewBox="-250 -250 800 800" version="1.1"
xmlns="http://www.w3.org/2000/svg"
xmlns:xlink="http://www.w3.org/1999/xlink">
<g fill-rule="evenodd"><path d="M 173.878,230.357 L 144.031,194.541 L 98.2653,198.52 L 50.5103,204.49 L 60.4593,222.398 L 106.225,300 L 173.878,230.357 z " style="fill-opacity:0.5;fill:rgb(169,169,169);stroke:rgb(169,169,169);stroke-width:2"/></g>
<g fill-rule="evenodd"><path d="M 237.551,300 L 191.786,222.398 L 185.816,260.204 L 106.225,300 L 237.551,300 z " style="fill-opacity:0.5;fill:rgb(169,169,169);stroke:rgb(169,169,169);stroke-width:2"/></g>
<g fill-rule="evenodd"><path d="M 179.847,170.442 L 171.888,220.187 L 207.704,224.167 L 249.49,228.146 L 245.51,214.218 L 227.602,164.473 L 179.847,170.442 z " style="fill-opacity:0.5;fill:rgb(169,169,169);stroke:rgb(169,169,169);stroke-width:2"/></g>
<g fill-rule="evenodd"><path d="M 132.092,195.579 L 132.092,131.906 L 50.5103,131.906 L 66.4286,167.722 L 132.092,195.579 z " style="fill-opacity:0.5;fill:rgb(169,169,169);stroke:rgb(169,169,169);stroke-width:2"/></g>
<g fill-rule="evenodd"><path d="M 164.309,196.339 L 212.064,116.748 L 124.513,116.748 L 164.309,196.339 z " style="fill-opacity:0.5;fill:rgb(169,169,169);stroke:rgb(169,169,169);stroke-width:2"/></g>
<g fill-rule="evenodd"><path d="M 50.5103,66.2225 L 122.143,119.947 L 161.939,66.2225 L 50.5103,66.2225 z " style="fill-opacity:0.5;fill:rgb(169,169,169);stroke:rgb(169,169,169);stroke-width:2"/></g>
<g fill-rule="evenodd"><path d="M 203.724,70.7004 L 173.878,100.547 L 239.541,128.404 L 241.531,116.466 L 249.49,66.7208 L 203.724,70.7004 z " style="fill-opacity:0.5;fill:rgb(169,169,169);stroke:rgb(169,169,169);stroke-width:2"/></g>
<g fill-rule="evenodd"><path d="M 190.854,83.5714 L 196.823,45.7653 L 186.874,27.8571 L 157.027,29.8469 L 111.262,35.8163 L 190.854,83.5714 z " style="fill-opacity:0.5;fill:rgb(169,169,169);stroke:rgb(169,169,169);stroke-width:2"/></g>
<g fill-rule="evenodd"><path d="M 228.738,0.872308 L 159.095,0.872308 L 228.738,68.5253 L 228.738,0.872308 z " style="fill-opacity:0.5;fill:rgb(169,169,169);stroke:rgb(169,169,169);stroke-width:2"/></g>
<g fill-rule="evenodd"><path d="M 64.4388,119.967 L 116.173,131.906 L 130.102,127.926 L 58.4695,74.2016 L 64.4388,119.967 z " style="fill-opacity:0.5;fill:rgb(169,169,169);stroke:rgb(169,169,169);stroke-width:2"/></g>
<g fill-rule="evenodd"><path d="M 60.4593,66.2225 L 124.133,26.4266 L 50.5103,26.4266 L 60.4593,66.2225 z " style="fill-opacity:0.5;fill:rgb(169,169,169);stroke:rgb(169,169,169);stroke-width:2"/></g>
<g fill-rule="evenodd"><path d="M 246.275,300 L 246.275,234.337 L 216.429,264.184 L 246.275,300 z " style="fill-opacity:0.5;fill:rgb(169,169,169);stroke:rgb(169,169,169);stroke-width:2"/></g>
<g fill-rule="evenodd"><path d="M 86.3266,300 L 88.3164,288.061 L 72.398,252.245 L 50.5103,296.02 L 86.3266,300 z " style="fill-opacity:0.5;fill:rgb(169,169,169);stroke:rgb(169,169,169);stroke-width:2"/></g>
<g fill-rule="evenodd"><path d="M 249.49,151.34 L 205.714,129.453 L 245.51,193.126 L 249.49,151.34 z " style="fill-opacity:0.5;fill:rgb(169,169,169);stroke:rgb(169,169,169);stroke-width:2"/></g>
<g fill-rule="evenodd"><path d="M 50.5103,158.206 L 60.4593,198.001 L 104.235,198.001 L 50.5103,158.206 z " style="fill-opacity:0.5;fill:rgb(169,169,169);stroke:rgb(169,169,169);stroke-width:2"/></g>
<g fill-rule="evenodd"><path d="M 155.037,4.2466e-15 L 105.292,17.9081 L 157.027,29.8469 L 155.037,4.2466e-15 z " style="fill-opacity:0.5;fill:rgb(169,169,169);stroke:rgb(169,169,169);stroke-width:2"/></g>
<rect x="50.5103" y="4.2466e-15" width="198.979" height="300" style="opacity:0.8;fill:none;stroke:rgb(0,0,0);stroke-width:2;stroke-linecap:round"/>
</svg>
