<?xml version="1.0" standalone="no"?>
<!DOCTYPE svg PUBLIC "-//W3C//DTD SVG 1.1//EN"
"http://www.w3.org/Graphics/SVG/1.1/DTD/svg11.dtd">
<svg width="200mm" height="200mm" viewBox="-250 -250 800 800" version="1.1"
xmlns="http://www.w3.org/2000/svg"
xmlns:xlink="http://www.w3.org/1999/xlink">
<g fill-rule="evenodd"><path d="M 174.019,229.945 L 143.995,193.916 L 97.959,197.919 L 49.9211,203.924 L 59.929,221.938 L 105.965,300 L 174.019,229.945 z " style="fill-opacity:0.5;fill:rgb(169,169,169);stroke:rgb(169,169,169);stroke-width:2"/></g>
<g fill-rule="evenodd"><path d="M 250.079,300 L 204.043,221.938 L 198.038,259.968 L 117.975,300 L 250.079,300 z " style="fill-opacity:0.5;fill:rgb(169,169,169);stroke:rgb(169,169,169);stroke-width:2"/></g>
<g fill-rule="evenodd"><path d="M 176.021,167.896 L 168.014,217.935 L 204.043,221.938 L 246.076,225.942 L 242.073,211.931 L 224.058,161.891 L 176.021,167.896 z " style="fill-opacity:0.5;fill:rgb(169,169,169);stroke:rgb(169,169,169);stroke-width:2"/></g>
<g fill-rule="evenodd"><path d="M 170.086,204.985 L 170.086,140.935 L 88.0215,140.935 L 104.034,176.963 L 170.086,204.985 z " style="fill-opacity:0.5;fill:rgb(169,169,169);stroke:rgb(169,169,169);stroke-width:2"/></g>
<g fill-rule="evenodd"><path d="M 202.041,164.643 L 250.079,84.5801 L 162.009,84.5801 L 202.041,164.643 z " style="fill-opacity:0.5;fill:rgb(169,169,169);stroke:rgb(169,169,169);stroke-width:2"/></g>
<g fill-rule="evenodd"><path d="M 162.009,140.935 L 89.9526,86.8921 L 49.9211,140.935 L 162.009,140.935 z " style="fill-opacity:0.5;fill:rgb(169,169,169);stroke:rgb(169,169,169);stroke-width:2"/></g>
<g fill-rule="evenodd"><path d="M 120.933,57.5857 L 90.9091,87.6094 L 156.961,115.632 L 158.963,103.622 L 166.969,53.5826 L 120.933,57.5857 z " style="fill-opacity:0.5;fill:rgb(169,169,169);stroke:rgb(169,169,169);stroke-width:2"/></g>
<g fill-rule="evenodd"><path d="M 244.074,84.5801 L 250.079,46.5501 L 240.071,28.5359 L 210.047,30.5375 L 164.011,36.5422 L 244.074,84.5801 z " style="fill-opacity:0.5;fill:rgb(169,169,169);stroke:rgb(169,169,169);stroke-width:2"/></g>
<g fill-rule="evenodd"><path d="M 49.9211,58.0458 L 49.9211,128.101 L 117.975,58.0458 L 49.9211,58.0458 z " style="fill-opacity:0.5;fill:rgb(169,169,169);stroke:rgb(169,169,169);stroke-width:2"/></g>
<g fill-rule="evenodd"><path d="M 55.9258,46.0363 L 107.967,58.0458 L 121.978,54.0426 L 49.9211,1.00475e-14 L 55.9258,46.0363 z " style="fill-opacity:0.5;fill:rgb(169,169,169);stroke:rgb(169,169,169);stroke-width:2"/></g>
<g fill-rule="evenodd"><path d="M 121.978,54.0426 L 186.028,14.0111 L 111.97,14.0111 L 121.978,54.0426 z " style="fill-opacity:0.5;fill:rgb(169,169,169);stroke:rgb(169,169,169);stroke-width:2"/></g>
<g fill-rule="evenodd"><path d="M 250.079,193.116 L 250.079,127.064 L 220.055,157.087 L 250.079,193.116 z " style="fill-opacity:0.5;fill:rgb(169,169,169);stroke:rgb(169,169,169);stroke-width:2"/></g>
<g fill-rule="evenodd"><path d="M 85.9495,300 L 87.9511,287.991 L 71.9384,251.962 L 49.9211,295.997 L 85.9495,300 z " style="fill-opacity:0.5;fill:rgb(169,169,169);stroke:rgb(169,169,169);stroke-width:2"/></g>
<g fill-rule="evenodd"><path d="M 248.077,243.956 L 204.043,221.938 L 244.074,285.989 L 248.077,243.956 z " style="fill-opacity:0.5;fill:rgb(169,169,169);stroke:rgb(169,169,169);stroke-width:2"/></g>
<g fill-rule="evenodd"><path d="M 103.964,197.397 L 93.9558,157.366 L 49.9211,157.366 L 103.964,197.397 z " style="fill-opacity:0.5;fill:rgb(169,169,169);stroke:rgb(169,169,169);stroke-width:2"/></g>
<g fill-rule="evenodd"><path d="M 248.077,0.821711 L 198.038,18.8359 L 250.079,30.8454 L 248.077,0.821711 z " style="fill-opacity:0.5;fill:rgb(169,169,169);stroke:rgb(169,169,169);stroke-width:2"/></g>
<rect x="49.9211" y="1.00475e-14" width="200.158" height="300" style="opacity:0.8;fill:none;stroke:rgb(0,0,0);stroke-width:2;stroke-linecap:round"/>
</svg>
