<?xml version="1.0" standalone="no"?>
<!DOCTYPE svg PUBLIC "-//W3C//DTD SVG 1.1//EN"
"http://www.w3.org/Graphics/SVG/1.1/DTD/svg11.dtd">
<svg width="200mm" height="200mm" viewBox="-250 -250 800 800" version="1.1"
xmlns="http://www.w3.org/2000/svg"
xmlns:xlink="http://www.w3.org/1999/xlink">
<g fill-rule="evenodd"><path d="M 138.663,175.297 L 64.9752,218.754 L 100.875,224.422 L 138.663,300 L 138.663,175.297 z " style="fill-opacity:0.5;fill:rgb(204,153,0);stroke:rgb(204,153,0);stroke-width:1"/></g>
<g fill-rule="evenodd"><path d="M 100.875,224.422 L 55.528,300 L 138.663,300 L 100.875,224.422 z " style="fill-opacity:0.5;fill:rgb(204,153,0);stroke:rgb(204,153,0);stroke-width:1"/></g>
<g fill-rule="evenodd"><path d="M 204.794,300 L 238.804,271.658 L 235.025,228.201 L 229.356,182.855 L 212.352,192.302 L 138.663,235.759 L 204.794,300 z " style="fill-opacity:0.5;fill:rgb(204,153,0);stroke:rgb(204,153,0);stroke-width:1"/></g>
<g fill-rule="evenodd"><path d="M 61.1963,185.568 L 108.432,193.126 L 112.211,159.116 L 115.99,119.437 L 102.764,123.216 L 55.528,140.221 L 61.1963,185.568 z " style="fill-opacity:0.5;fill:rgb(204,153,0);stroke:rgb(204,153,0);stroke-width:1"/></g>
<g fill-rule="evenodd"><path d="M 138.663,200.102 L 199.125,200.102 L 199.125,122.635 L 165.116,137.75 L 138.663,200.102 z " style="fill-opacity:0.5;fill:rgb(204,153,0);stroke:rgb(204,153,0);stroke-width:1"/></g>
<g fill-rule="evenodd"><path d="M 88.2714,98.6483 L 156.291,149.663 L 194.08,98.6483 L 88.2714,98.6483 z " style="fill-opacity:0.5;fill:rgb(204,153,0);stroke:rgb(204,153,0);stroke-width:1"/></g>
<g fill-rule="evenodd"><path d="M 189.678,94.2465 L 218.02,122.588 L 244.472,60.2366 L 233.135,58.3472 L 185.899,50.7894 L 189.678,94.2465 z " style="fill-opacity:0.5;fill:rgb(204,153,0);stroke:rgb(204,153,0);stroke-width:1"/></g>
<g fill-rule="evenodd"><path d="M 135.76,92.98 L 171.66,98.6483 L 188.664,89.2011 L 186.775,60.8595 L 181.107,17.4024 L 135.76,92.98 z " style="fill-opacity:0.5;fill:rgb(204,153,0);stroke:rgb(204,153,0);stroke-width:1"/></g>
<g fill-rule="evenodd"><path d="M 138.663,300 L 204.794,300 L 138.663,235.759 L 138.663,300 z " style="fill-opacity:0.5;fill:rgb(204,153,0);stroke:rgb(204,153,0);stroke-width:1"/></g>
<g fill-rule="evenodd"><path d="M 61.1963,87.3117 L 110.322,98.6483 L 123.548,94.8694 L 55.528,43.8546 L 61.1963,87.3117 z " style="fill-opacity:0.5;fill:rgb(204,153,0);stroke:rgb(204,153,0);stroke-width:1"/></g>
<g fill-rule="evenodd"><path d="M 206.683,146.577 L 244.472,207.04 L 244.472,137.13 L 206.683,146.577 z " style="fill-opacity:0.5;fill:rgb(204,153,0);stroke:rgb(204,153,0);stroke-width:1"/></g>
<g fill-rule="evenodd"><path d="M 55.528,43.8546 L 117.88,43.8546 L 89.5379,15.513 L 55.528,43.8546 z " style="fill-opacity:0.5;fill:rgb(204,153,0);stroke:rgb(204,153,0);stroke-width:1"/></g>
<g fill-rule="evenodd"><path d="M 114.055,164.445 L 125.392,166.334 L 159.402,151.218 L 117.834,130.435 L 114.055,164.445 z " style="fill-opacity:0.5;fill:rgb(204,153,0);stroke:rgb(204,153,0);stroke-width:1"/></g>
<g fill-rule="evenodd"><path d="M 113.703,39.6782 L 155.271,60.4621 L 117.482,-1.67921e-14 L 113.703,39.6782 z " style="fill-opacity:0.5;fill:rgb(204,153,0);stroke:rgb(204,153,0);stroke-width:1"/></g>
<g fill-rule="evenodd"><path d="M 199.125,148.467 L 236.914,139.02 L 236.914,97.452 L 199.125,148.467 z " style="fill-opacity:0.5;fill:rgb(204,153,0);stroke:rgb(204,153,0);stroke-width:1"/></g>
<g fill-rule="evenodd"><path d="M 57.4174,139.541 L 104.653,122.536 L 55.528,111.199 L 57.4174,139.541 z " style="fill-opacity:0.5;fill:rgb(204,153,0);stroke:rgb(204,153,0);stroke-width:1"/></g>
<rect x="55.528" y="-1.67921e-14" width="188.944" height="300" style="opacity:0.8;fill:none;stroke:rgb(212,0,0);stroke-width:4;stroke-dasharray:1,7;stroke-linecap:round"/>
</svg>
