<?xml version="1.0" standalone="no"?>
<!DOCTYPE svg PUBLIC "-//W3C//DTD SVG 1.1//EN"
"http://www.w3.org/Graphics/SVG/1.1/DTD/svg11.dtd">
<svg width="200mm" height="200mm" viewBox="-250 -250 800 800" version="1.1"
xmlns="http://www.w3.org/2000/svg"
xmlns:xlink="http://www.w3.org/1999/xlink">
<g fill-rule="evenodd"><path d="M 115.432,300 L 125.309,280.247 L 115.432,260.494 L 85.8025,260.494 L 75.9259,280.247 L 85.8025,300 L 115.432,300 z " style="fill-opacity:0.5;fill:rgb(169,169,169);stroke:rgb(169,169,169);stroke-width:2"/></g>
<g fill-rule="evenodd"><path d="M 164.815,300 L 174.691,280.247 L 164.815,260.494 L 135.185,260.494 L 125.309,280.247 L 135.185,300 L 164.815,300 z " style="fill-opacity:0.5;fill:rgb(169,169,169);stroke:rgb(169,169,169);stroke-width:2"/></g>
<g fill-rule="evenodd"><path d="M 214.198,300 L 224.074,280.247 L 214.198,260.494 L 184.568,260.494 L 174.691,280.247 L 184.568,300 L 214.198,300 z " style="fill-opacity:0.5;fill:rgb(169,169,169);stroke:rgb(169,169,169);stroke-width:2"/></g>
<g fill-rule="evenodd"><path d="M 115.432,260.494 L 125.309,240.741 L 115.432,220.988 L 85.8025,220.988 L 75.9259,240.741 L 85.8025,260.494 L 115.432,260.494 z " style="fill-opacity:0.5;fill:rgb(169,169,169);stroke:rgb(169,169,169);stroke-width:2"/></g>
<g fill-rule="evenodd"><path d="M 164.815,260.494 L 174.691,250.617 L 174.691,220.988 L 154.938,230.864 L 135.185,220.988 L 125.309,220.988 L 125.309,240.741 L 145.062,260.494 L 164.815,260.494 z " style="fill-opacity:0.5;fill:rgb(169,169,169);stroke:rgb(169,169,169);stroke-width:2"/></g>
<g fill-rule="evenodd"><path d="M 214.198,260.494 L 224.074,250.617 L 224.074,220.988 L 204.321,230.864 L 184.568,220.988 L 174.691,220.988 L 174.691,240.741 L 194.444,260.494 L 214.198,260.494 z " style="fill-opacity:0.5;fill:rgb(169,169,169);stroke:rgb(169,169,169);stroke-width:2"/></g>
<g fill-rule="evenodd"><path d="M 214.198,225.926 L 224.074,216.049 L 224.074,186.42 L 204.321,196.296 L 184.568,186.42 L 174.691,186.42 L 174.691,206.173 L 194.444,225.926 L 214.198,225.926 z " style="fill-opacity:0.5;fill:rgb(169,169,169);stroke:rgb(169,169,169);stroke-width:2"/></g>
<g fill-rule="evenodd"><path d="M 115.432,220.988 L 125.309,211.111 L 125.309,181.481 L 105.556,191.358 L 85.8025,181.481 L 75.9259,181.481 L 75.9259,201.235 L 95.679,220.988 L 115.432,220.988 z " style="fill-opacity:0.5;fill:rgb(169,169,169);stroke:rgb(169,169,169);stroke-width:2"/></g>
<g fill-rule="evenodd"><path d="M 174.691,220.988 L 174.691,171.605 L 125.309,171.605 L 125.309,181.481 L 145.062,191.358 L 154.938,201.235 L 164.815,220.988 L 174.691,220.988 z " style="fill-opacity:0.5;fill:rgb(169,169,169);stroke:rgb(169,169,169);stroke-width:2"/></g>
<g fill-rule="evenodd"><path d="M 191.975,186.42 L 191.975,137.037 L 142.593,137.037 L 142.593,146.914 L 162.346,156.79 L 172.222,166.667 L 182.099,186.42 L 191.975,186.42 z " style="fill-opacity:0.5;fill:rgb(169,169,169);stroke:rgb(169,169,169);stroke-width:2"/></g>
<g fill-rule="evenodd"><path d="M 125.309,181.481 L 125.309,132.099 L 75.9259,132.099 L 75.9259,141.975 L 95.679,151.852 L 105.556,161.728 L 115.432,181.481 L 125.309,181.481 z " style="fill-opacity:0.5;fill:rgb(169,169,169);stroke:rgb(169,169,169);stroke-width:2"/></g>
<g fill-rule="evenodd"><path d="M 224.074,167.901 L 224.074,118.519 L 174.691,118.519 L 174.691,128.395 L 194.444,138.272 L 204.321,148.148 L 214.198,167.901 L 224.074,167.901 z " style="fill-opacity:0.5;fill:rgb(169,169,169);stroke:rgb(169,169,169);stroke-width:2"/></g>
<g fill-rule="evenodd"><path d="M 159.877,127.16 L 159.877,107.407 L 150,97.5309 L 130.247,97.5309 L 120.37,107.407 L 120.37,127.16 L 130.247,137.037 L 150,137.037 L 159.877,127.16 z " style="fill-opacity:0.5;fill:rgb(169,169,169);stroke:rgb(169,169,169);stroke-width:2"/></g>
<g fill-rule="evenodd"><path d="M 115.432,122.222 L 115.432,102.469 L 105.556,92.5926 L 85.8025,92.5926 L 75.9259,102.469 L 75.9259,122.222 L 85.8025,132.099 L 105.556,132.099 L 115.432,122.222 z " style="fill-opacity:0.5;fill:rgb(169,169,169);stroke:rgb(169,169,169);stroke-width:2"/></g>
<g fill-rule="evenodd"><path d="M 199.383,108.642 L 199.383,88.8889 L 189.506,79.0123 L 169.753,79.0123 L 159.877,88.8889 L 159.877,108.642 L 169.753,118.519 L 189.506,118.519 L 199.383,108.642 z " style="fill-opacity:0.5;fill:rgb(169,169,169);stroke:rgb(169,169,169);stroke-width:2"/></g>
<g fill-rule="evenodd"><path d="M 159.877,87.6543 L 159.877,67.9012 L 150,58.0247 L 130.247,58.0247 L 120.37,67.9012 L 120.37,87.6543 L 130.247,97.5309 L 150,97.5309 L 159.877,87.6543 z " style="fill-opacity:0.5;fill:rgb(169,169,169);stroke:rgb(169,169,169);stroke-width:2"/></g>
<g fill-rule="evenodd"><path d="M 125.309,97.5309 L 115.432,77.7778 L 125.309,58.0247 L 105.556,67.9012 L 75.9259,58.0247 L 85.8025,77.7778 L 75.9259,97.5309 L 95.679,87.6543 L 125.309,97.5309 z " style="fill-opacity:0.5;fill:rgb(169,169,169);stroke:rgb(169,169,169);stroke-width:2"/></g>
<g fill-rule="evenodd"><path d="M 209.259,83.9506 L 199.383,64.1975 L 209.259,44.4444 L 189.506,54.321 L 159.877,44.4444 L 169.753,64.1975 L 159.877,83.9506 L 179.63,74.0741 L 209.259,83.9506 z " style="fill-opacity:0.5;fill:rgb(169,169,169);stroke:rgb(169,169,169);stroke-width:2"/></g>
<g fill-rule="evenodd"><path d="M 129.012,59.2593 L 119.136,39.5062 L 129.012,19.7531 L 109.259,29.6296 L 79.6296,19.7531 L 89.5062,39.5062 L 79.6296,59.2593 L 99.3827,49.3827 L 129.012,59.2593 z " style="fill-opacity:0.5;fill:rgb(169,169,169);stroke:rgb(169,169,169);stroke-width:2"/></g>
<g fill-rule="evenodd"><path d="M 189.506,54.321 L 179.63,34.5679 L 189.506,14.8148 L 169.753,24.6914 L 140.123,14.8148 L 150,34.5679 L 140.123,54.321 L 159.877,44.4444 L 189.506,54.321 z " style="fill-opacity:0.5;fill:rgb(169,169,169);stroke:rgb(169,169,169);stroke-width:2"/></g>
<g fill-rule="evenodd"><path d="M 154.938,201.235 L 125.309,181.481 L 125.309,220.988 L 154.938,201.235 z " style="fill-opacity:0.5;fill:rgb(169,169,169);stroke:rgb(169,169,169);stroke-width:2"/></g>
<g fill-rule="evenodd"><path d="M 105.556,161.728 L 75.9259,141.975 L 75.9259,181.481 L 105.556,161.728 z " style="fill-opacity:0.5;fill:rgb(169,169,169);stroke:rgb(169,169,169);stroke-width:2"/></g>
<g fill-rule="evenodd"><path d="M 219.136,34.5679 L 189.506,14.8148 L 189.506,54.321 L 219.136,34.5679 z " style="fill-opacity:0.5;fill:rgb(169,169,169);stroke:rgb(169,169,169);stroke-width:2"/></g>
<g fill-rule="evenodd"><path d="M 109.259,29.6296 L 129.012,8.32667e-15 L 89.5062,8.32667e-15 L 109.259,29.6296 z " style="fill-opacity:0.5;fill:rgb(169,169,169);stroke:rgb(169,169,169);stroke-width:2"/></g>
<g fill-rule="evenodd"><path d="M 214.198,191.358 L 214.198,171.605 L 194.444,171.605 L 194.444,191.358 L 214.198,191.358 z " style="fill-opacity:0.5;fill:rgb(169,169,169);stroke:rgb(169,169,169);stroke-width:2"/></g>
<g fill-rule="evenodd"><path d="M 145.062,171.605 L 145.062,151.852 L 125.309,151.852 L 125.309,171.605 L 145.062,171.605 z " style="fill-opacity:0.5;fill:rgb(169,169,169);stroke:rgb(169,169,169);stroke-width:2"/></g>
<g fill-rule="evenodd"><path d="M 219.136,118.519 L 219.136,98.7654 L 199.383,98.7654 L 199.383,118.519 L 219.136,118.519 z " style="fill-opacity:0.5;fill:rgb(169,169,169);stroke:rgb(169,169,169);stroke-width:2"/></g>
<g fill-rule="evenodd"><path d="M 224.074,74.0741 L 224.074,54.321 L 204.321,54.321 L 204.321,74.0741 L 224.074,74.0741 z " style="fill-opacity:0.5;fill:rgb(169,169,169);stroke:rgb(169,169,169);stroke-width:2"/></g>
<rect x="75.9259" y="8.32667e-15" width="148.148" height="300" style="opacity:0.8;fill:none;stroke:rgb(0,0,0);stroke-width:2;stroke-linecap:round"/>
</svg>
