<?xml version="1.0" standalone="no"?>
<!DOCTYPE svg PUBLIC "-//W3C//DTD SVG 1.1//EN"
"http://www.w3.org/Graphics/SVG/1.1/DTD/svg11.dtd">
<svg width="200mm" height="200mm" viewBox="-250 -250 800 800" version="1.1"
xmlns="http://www.w3.org/2000/svg"
xmlns:xlink="http://www.w3.org/1999/xlink">
<g fill-rule="evenodd"><path d="M 141.429,293.143 L 141.429,241.714 L 90,241.714 L 90,252 L 110.571,262.286 L 120.857,272.571 L 131.143,293.143 L 141.429,293.143 z " style="fill-opacity:0.5;fill:rgb(169,169,169);stroke:rgb(169,169,169);stroke-width:2"/></g>
<g fill-rule="evenodd"><path d="M 83.1429,258.857 L 72.8571,269.143 L 72.8571,300 L 93.4286,289.714 L 114,300 L 124.286,300 L 124.286,279.429 L 103.714,258.857 L 83.1429,258.857 z " style="fill-opacity:0.5;fill:rgb(169,169,169);stroke:rgb(169,169,169);stroke-width:2"/></g>
<g fill-rule="evenodd"><path d="M 227.143,293.143 L 227.143,241.714 L 175.714,241.714 L 175.714,252 L 196.286,262.286 L 206.571,272.571 L 216.857,293.143 L 227.143,293.143 z " style="fill-opacity:0.5;fill:rgb(169,169,169);stroke:rgb(169,169,169);stroke-width:2"/></g>
<g fill-rule="evenodd"><path d="M 168.857,258.857 L 158.571,269.143 L 158.571,300 L 179.143,289.714 L 199.714,300 L 210,300 L 210,279.429 L 189.429,258.857 L 168.857,258.857 z " style="fill-opacity:0.5;fill:rgb(169,169,169);stroke:rgb(169,169,169);stroke-width:2"/></g>
<g fill-rule="evenodd"><path d="M 150,200.571 L 139.714,190.286 L 108.857,190.286 L 119.143,210.857 L 108.857,231.429 L 108.857,241.714 L 129.429,241.714 L 150,221.143 L 150,200.571 z " style="fill-opacity:0.5;fill:rgb(169,169,169);stroke:rgb(169,169,169);stroke-width:2"/></g>
<g fill-rule="evenodd"><path d="M 83.1429,231.429 L 103.714,231.429 L 114,221.143 L 114,200.571 L 103.714,190.286 L 83.1429,190.286 L 72.8571,200.571 L 72.8571,221.143 L 83.1429,231.429 z " style="fill-opacity:0.5;fill:rgb(169,169,169);stroke:rgb(169,169,169);stroke-width:2"/></g>
<g fill-rule="evenodd"><path d="M 160.286,226.286 L 180.857,226.286 L 191.143,216 L 191.143,195.429 L 180.857,185.143 L 160.286,185.143 L 150,195.429 L 150,216 L 160.286,226.286 z " style="fill-opacity:0.5;fill:rgb(169,169,169);stroke:rgb(169,169,169);stroke-width:2"/></g>
<g fill-rule="evenodd"><path d="M 227.143,195.429 L 216.857,185.143 L 186,185.143 L 196.286,205.714 L 186,226.286 L 186,236.571 L 206.571,236.571 L 227.143,216 L 227.143,195.429 z " style="fill-opacity:0.5;fill:rgb(169,169,169);stroke:rgb(169,169,169);stroke-width:2"/></g>
<g fill-rule="evenodd"><path d="M 114,180 L 114,159.429 L 103.714,149.143 L 83.1429,149.143 L 72.8571,159.429 L 72.8571,180 L 83.1429,190.286 L 103.714,190.286 L 114,180 z " style="fill-opacity:0.5;fill:rgb(169,169,169);stroke:rgb(169,169,169);stroke-width:2"/></g>
<g fill-rule="evenodd"><path d="M 134.571,180 L 134.571,128.571 L 83.1429,128.571 L 83.1429,138.857 L 103.714,149.143 L 114,159.429 L 124.286,180 L 134.571,180 z " style="fill-opacity:0.5;fill:rgb(169,169,169);stroke:rgb(169,169,169);stroke-width:2"/></g>
<g fill-rule="evenodd"><path d="M 175.714,174.857 L 175.714,154.286 L 165.429,144 L 144.857,144 L 134.571,154.286 L 134.571,174.857 L 144.857,185.143 L 165.429,185.143 L 175.714,174.857 z " style="fill-opacity:0.5;fill:rgb(169,169,169);stroke:rgb(169,169,169);stroke-width:2"/></g>
<g fill-rule="evenodd"><path d="M 196.286,174.857 L 196.286,123.429 L 144.857,123.429 L 144.857,133.714 L 165.429,144 L 175.714,154.286 L 186,174.857 L 196.286,174.857 z " style="fill-opacity:0.5;fill:rgb(169,169,169);stroke:rgb(169,169,169);stroke-width:2"/></g>
<g fill-rule="evenodd"><path d="M 155.143,123.429 L 165.429,102.857 L 155.143,82.2857 L 124.286,82.2857 L 114,102.857 L 124.286,123.429 L 155.143,123.429 z " style="fill-opacity:0.5;fill:rgb(169,169,169);stroke:rgb(169,169,169);stroke-width:2"/></g>
<g fill-rule="evenodd"><path d="M 124.286,123.429 L 114,102.857 L 124.286,82.2857 L 103.714,92.5714 L 72.8571,82.2857 L 83.1429,102.857 L 72.8571,123.429 L 93.4286,113.143 L 124.286,123.429 z " style="fill-opacity:0.5;fill:rgb(169,169,169);stroke:rgb(169,169,169);stroke-width:2"/></g>
<g fill-rule="evenodd"><path d="M 155.143,82.2857 L 165.429,61.7143 L 155.143,41.1429 L 124.286,41.1429 L 114,61.7143 L 124.286,82.2857 L 155.143,82.2857 z " style="fill-opacity:0.5;fill:rgb(169,169,169);stroke:rgb(169,169,169);stroke-width:2"/></g>
<g fill-rule="evenodd"><path d="M 124.286,82.2857 L 114,61.7143 L 124.286,41.1429 L 103.714,51.4286 L 72.8571,41.1429 L 83.1429,61.7143 L 72.8571,82.2857 L 93.4286,72 L 124.286,82.2857 z " style="fill-opacity:0.5;fill:rgb(169,169,169);stroke:rgb(169,169,169);stroke-width:2"/></g>
<g fill-rule="evenodd"><path d="M 186,118.286 L 206.571,128.571 L 227.143,118.286 L 227.143,87.4286 L 206.571,77.1429 L 186,87.4286 L 186,118.286 z " style="fill-opacity:0.5;fill:rgb(169,169,169);stroke:rgb(169,169,169);stroke-width:2"/></g>
<g fill-rule="evenodd"><path d="M 186,87.4286 L 206.571,77.1429 L 227.143,87.4286 L 216.857,66.8571 L 227.143,36 L 206.571,46.2857 L 186,36 L 196.286,56.5714 L 186,87.4286 z " style="fill-opacity:0.5;fill:rgb(169,169,169);stroke:rgb(169,169,169);stroke-width:2"/></g>
<g fill-rule="evenodd"><path d="M 155.143,41.1429 L 165.429,20.5714 L 155.143,-1.05194e-14 L 124.286,-1.05194e-14 L 114,20.5714 L 124.286,41.1429 L 155.143,41.1429 z " style="fill-opacity:0.5;fill:rgb(169,169,169);stroke:rgb(169,169,169);stroke-width:2"/></g>
<g fill-rule="evenodd"><path d="M 124.286,41.1429 L 114,20.5714 L 124.286,-1.05194e-14 L 103.714,10.2857 L 72.8571,-1.05194e-14 L 83.1429,20.5714 L 72.8571,41.1429 L 93.4286,30.8571 L 124.286,41.1429 z " style="fill-opacity:0.5;fill:rgb(169,169,169);stroke:rgb(169,169,169);stroke-width:2"/></g>
<g fill-rule="evenodd"><path d="M 172.286,256.571 L 141.429,236 L 141.429,277.143 L 172.286,256.571 z " style="fill-opacity:0.5;fill:rgb(169,169,169);stroke:rgb(169,169,169);stroke-width:2"/></g>
<g fill-rule="evenodd"><path d="M 227.143,164.571 L 196.286,144 L 196.286,185.143 L 227.143,164.571 z " style="fill-opacity:0.5;fill:rgb(169,169,169);stroke:rgb(169,169,169);stroke-width:2"/></g>
<g fill-rule="evenodd"><path d="M 196.286,56.5714 L 165.429,36 L 165.429,77.1429 L 196.286,56.5714 z " style="fill-opacity:0.5;fill:rgb(169,169,169);stroke:rgb(169,169,169);stroke-width:2"/></g>
<g fill-rule="evenodd"><path d="M 206.571,22.2857 L 175.714,1.71429 L 175.714,42.8571 L 206.571,22.2857 z " style="fill-opacity:0.5;fill:rgb(169,169,169);stroke:rgb(169,169,169);stroke-width:2"/></g>
<g fill-rule="evenodd"><path d="M 227.143,150.857 L 227.143,130.286 L 206.571,130.286 L 206.571,150.857 L 227.143,150.857 z " style="fill-opacity:0.5;fill:rgb(169,169,169);stroke:rgb(169,169,169);stroke-width:2"/></g>
<g fill-rule="evenodd"><path d="M 186,123.429 L 186,102.857 L 165.429,102.857 L 165.429,123.429 L 186,123.429 z " style="fill-opacity:0.5;fill:rgb(169,169,169);stroke:rgb(169,169,169);stroke-width:2"/></g>
<g fill-rule="evenodd"><path d="M 186,102.857 L 186,82.2857 L 165.429,82.2857 L 165.429,102.857 L 186,102.857 z " style="fill-opacity:0.5;fill:rgb(169,169,169);stroke:rgb(169,169,169);stroke-width:2"/></g>
<g fill-rule="evenodd"><path d="M 227.143,36 L 227.143,15.4286 L 206.571,15.4286 L 206.571,36 L 227.143,36 z " style="fill-opacity:0.5;fill:rgb(169,169,169);stroke:rgb(169,169,169);stroke-width:2"/></g>
<rect x="72.8571" y="-1.05194e-14" width="154.286" height="300" style="opacity:0.8;fill:none;stroke:rgb(0,0,0);stroke-width:2;stroke-linecap:round"/>
</svg>
