<?xml version="1.0" standalone="no"?>
<!DOCTYPE svg PUBLIC "-//W3C//DTD SVG 1.1//EN"
"http://www.w3.org/Graphics/SVG/1.1/DTD/svg11.dtd">
<svg width="200mm" height="200mm" viewBox="-250 -250 800 800" version="1.1"
xmlns="http://www.w3.org/2000/svg"
xmlns:xlink="http://www.w3.org/1999/xlink">
<g fill-rule="evenodd"><path d="M 116.129,300 L 125.806,280.645 L 116.129,261.29 L 87.0968,261.29 L 77.4194,280.645 L 87.0968,300 L 116.129,300 z " style="fill-opacity:0.5;fill:rgb(169,169,169);stroke:rgb(169,169,169);stroke-width:2"/></g>
<g fill-rule="evenodd"><path d="M 164.516,300 L 174.194,280.645 L 164.516,261.29 L 135.484,261.29 L 125.806,280.645 L 135.484,300 L 164.516,300 z " style="fill-opacity:0.5;fill:rgb(169,169,169);stroke:rgb(169,169,169);stroke-width:2"/></g>
<g fill-rule="evenodd"><path d="M 212.903,300 L 222.581,280.645 L 212.903,261.29 L 183.871,261.29 L 174.194,280.645 L 183.871,300 L 212.903,300 z " style="fill-opacity:0.5;fill:rgb(169,169,169);stroke:rgb(169,169,169);stroke-width:2"/></g>
<g fill-rule="evenodd"><path d="M 116.129,261.29 L 125.806,241.935 L 116.129,222.581 L 87.0968,222.581 L 77.4194,241.935 L 87.0968,261.29 L 116.129,261.29 z " style="fill-opacity:0.5;fill:rgb(169,169,169);stroke:rgb(169,169,169);stroke-width:2"/></g>
<g fill-rule="evenodd"><path d="M 164.516,261.29 L 174.194,251.613 L 174.194,222.581 L 154.839,232.258 L 135.484,222.581 L 125.806,222.581 L 125.806,241.935 L 145.161,261.29 L 164.516,261.29 z " style="fill-opacity:0.5;fill:rgb(169,169,169);stroke:rgb(169,169,169);stroke-width:2"/></g>
<g fill-rule="evenodd"><path d="M 183.871,212.903 L 174.194,222.581 L 174.194,251.613 L 193.548,241.935 L 212.903,251.613 L 222.581,251.613 L 222.581,232.258 L 203.226,212.903 L 183.871,212.903 z " style="fill-opacity:0.5;fill:rgb(169,169,169);stroke:rgb(169,169,169);stroke-width:2"/></g>
<g fill-rule="evenodd"><path d="M 116.129,222.581 L 125.806,212.903 L 125.806,183.871 L 106.452,193.548 L 87.0968,183.871 L 77.4194,183.871 L 77.4194,203.226 L 96.7742,222.581 L 116.129,222.581 z " style="fill-opacity:0.5;fill:rgb(169,169,169);stroke:rgb(169,169,169);stroke-width:2"/></g>
<g fill-rule="evenodd"><path d="M 164.516,222.581 L 174.194,212.903 L 174.194,183.871 L 154.839,193.548 L 135.484,183.871 L 125.806,183.871 L 125.806,203.226 L 145.161,222.581 L 164.516,222.581 z " style="fill-opacity:0.5;fill:rgb(169,169,169);stroke:rgb(169,169,169);stroke-width:2"/></g>
<g fill-rule="evenodd"><path d="M 222.581,222.581 L 222.581,174.194 L 174.194,174.194 L 174.194,183.871 L 193.548,193.548 L 203.226,203.226 L 212.903,222.581 L 222.581,222.581 z " style="fill-opacity:0.5;fill:rgb(169,169,169);stroke:rgb(169,169,169);stroke-width:2"/></g>
<g fill-rule="evenodd"><path d="M 206.452,138.71 L 158.065,138.71 L 158.065,187.097 L 167.742,187.097 L 177.419,167.742 L 187.097,158.065 L 206.452,148.387 L 206.452,138.71 z " style="fill-opacity:0.5;fill:rgb(169,169,169);stroke:rgb(169,169,169);stroke-width:2"/></g>
<g fill-rule="evenodd"><path d="M 125.806,183.871 L 125.806,135.484 L 77.4194,135.484 L 77.4194,145.161 L 96.7742,154.839 L 106.452,164.516 L 116.129,183.871 L 125.806,183.871 z " style="fill-opacity:0.5;fill:rgb(169,169,169);stroke:rgb(169,169,169);stroke-width:2"/></g>
<g fill-rule="evenodd"><path d="M 154.839,164.516 L 154.839,116.129 L 106.452,116.129 L 106.452,125.806 L 125.806,135.484 L 135.484,145.161 L 145.161,164.516 L 154.839,164.516 z " style="fill-opacity:0.5;fill:rgb(169,169,169);stroke:rgb(169,169,169);stroke-width:2"/></g>
<g fill-rule="evenodd"><path d="M 193.548,116.129 L 193.548,96.7742 L 183.871,87.0968 L 164.516,87.0968 L 154.839,96.7742 L 154.839,116.129 L 164.516,125.806 L 183.871,125.806 L 193.548,116.129 z " style="fill-opacity:0.5;fill:rgb(169,169,169);stroke:rgb(169,169,169);stroke-width:2"/></g>
<g fill-rule="evenodd"><path d="M 116.129,106.452 L 116.129,87.0968 L 106.452,77.4194 L 87.0968,77.4194 L 77.4194,87.0968 L 77.4194,106.452 L 87.0968,116.129 L 106.452,116.129 L 116.129,106.452 z " style="fill-opacity:0.5;fill:rgb(169,169,169);stroke:rgb(169,169,169);stroke-width:2"/></g>
<g fill-rule="evenodd"><path d="M 154.839,106.452 L 154.839,87.0968 L 145.161,77.4194 L 125.806,77.4194 L 116.129,87.0968 L 116.129,106.452 L 125.806,116.129 L 145.161,116.129 L 154.839,106.452 z " style="fill-opacity:0.5;fill:rgb(169,169,169);stroke:rgb(169,169,169);stroke-width:2"/></g>
<g fill-rule="evenodd"><path d="M 222.581,87.0968 L 222.581,67.7419 L 212.903,58.0645 L 193.548,58.0645 L 183.871,67.7419 L 183.871,87.0968 L 193.548,96.7742 L 212.903,96.7742 L 222.581,87.0968 z " style="fill-opacity:0.5;fill:rgb(169,169,169);stroke:rgb(169,169,169);stroke-width:2"/></g>
<g fill-rule="evenodd"><path d="M 125.806,77.4194 L 116.129,58.0645 L 125.806,38.7097 L 106.452,48.3871 L 77.4194,38.7097 L 87.0968,58.0645 L 77.4194,77.4194 L 96.7742,67.7419 L 125.806,77.4194 z " style="fill-opacity:0.5;fill:rgb(169,169,169);stroke:rgb(169,169,169);stroke-width:2"/></g>
<g fill-rule="evenodd"><path d="M 174.194,77.4194 L 164.516,58.0645 L 174.194,38.7097 L 154.839,48.3871 L 125.806,38.7097 L 135.484,58.0645 L 125.806,77.4194 L 145.161,67.7419 L 174.194,77.4194 z " style="fill-opacity:0.5;fill:rgb(169,169,169);stroke:rgb(169,169,169);stroke-width:2"/></g>
<g fill-rule="evenodd"><path d="M 212.903,58.0645 L 203.226,38.7097 L 212.903,19.3548 L 193.548,29.0323 L 164.516,19.3548 L 174.194,38.7097 L 164.516,58.0645 L 183.871,48.3871 L 212.903,58.0645 z " style="fill-opacity:0.5;fill:rgb(169,169,169);stroke:rgb(169,169,169);stroke-width:2"/></g>
<g fill-rule="evenodd"><path d="M 125.806,38.7097 L 116.129,19.3548 L 125.806,-4.44089e-15 L 106.452,9.67742 L 77.4194,-4.44089e-15 L 87.0968,19.3548 L 77.4194,38.7097 L 96.7742,29.0323 L 125.806,38.7097 z " style="fill-opacity:0.5;fill:rgb(169,169,169);stroke:rgb(169,169,169);stroke-width:2"/></g>
<g fill-rule="evenodd"><path d="M 106.452,164.516 L 77.4194,145.161 L 77.4194,183.871 L 106.452,164.516 z " style="fill-opacity:0.5;fill:rgb(169,169,169);stroke:rgb(169,169,169);stroke-width:2"/></g>
<g fill-rule="evenodd"><path d="M 222.581,116.129 L 193.548,96.7742 L 193.548,135.484 L 222.581,116.129 z " style="fill-opacity:0.5;fill:rgb(169,169,169);stroke:rgb(169,169,169);stroke-width:2"/></g>
<g fill-rule="evenodd"><path d="M 154.839,19.3548 L 125.806,-4.44089e-15 L 125.806,38.7097 L 154.839,19.3548 z " style="fill-opacity:0.5;fill:rgb(169,169,169);stroke:rgb(169,169,169);stroke-width:2"/></g>
<g fill-rule="evenodd"><path d="M 193.548,29.0323 L 212.903,-4.44089e-15 L 174.194,-4.44089e-15 L 193.548,29.0323 z " style="fill-opacity:0.5;fill:rgb(169,169,169);stroke:rgb(169,169,169);stroke-width:2"/></g>
<g fill-rule="evenodd"><path d="M 154.839,183.871 L 154.839,164.516 L 135.484,164.516 L 135.484,183.871 L 154.839,183.871 z " style="fill-opacity:0.5;fill:rgb(169,169,169);stroke:rgb(169,169,169);stroke-width:2"/></g>
<g fill-rule="evenodd"><path d="M 222.581,169.355 L 222.581,150 L 203.226,150 L 203.226,169.355 L 222.581,169.355 z " style="fill-opacity:0.5;fill:rgb(169,169,169);stroke:rgb(169,169,169);stroke-width:2"/></g>
<g fill-rule="evenodd"><path d="M 96.7742,135.484 L 96.7742,116.129 L 77.4194,116.129 L 77.4194,135.484 L 96.7742,135.484 z " style="fill-opacity:0.5;fill:rgb(169,169,169);stroke:rgb(169,169,169);stroke-width:2"/></g>
<g fill-rule="evenodd"><path d="M 174.194,19.3548 L 174.194,-4.44089e-15 L 154.839,-4.44089e-15 L 154.839,19.3548 L 174.194,19.3548 z " style="fill-opacity:0.5;fill:rgb(169,169,169);stroke:rgb(169,169,169);stroke-width:2"/></g>
<rect x="77.4194" y="-4.44089e-15" width="145.161" height="300" style="opacity:0.8;fill:none;stroke:rgb(0,0,0);stroke-width:2;stroke-linecap:round"/>
</svg>
