<?xml version="1.0" standalone="no"?>
<!DOCTYPE svg PUBLIC "-//W3C//DTD SVG 1.1//EN"
"http://www.w3.org/Graphics/SVG/1.1/DTD/svg11.dtd">
<svg width="100%" height="100%" version="1.1"
xmlns="http://www.w3.org/2000/svg"
xmlns:xlink="http://www.w3.org/1999/xlink">
<g fill-rule="evenodd"><path d="M 30,313.333 L 60,313.333 L 80,293.333 L 80,273.333 L 60,253.333 L 30,253.333 L 2.1684e-18,273.333 L 0,293.333 L 30,313.333 z " style="fill-opacity:0.5;fill:rgb(169,169,169);stroke:rgb(169,169,169);stroke-width:1"/></g>
<g fill-rule="evenodd"><path d="M 140,313.333 L 140,253.333 L 80,253.333 L 80,313.333 L 140,313.333 z " style="fill-opacity:0.5;fill:rgb(169,169,169);stroke:rgb(169,169,169);stroke-width:1"/></g>
<g fill-rule="evenodd"><path d="M 200,313.333 L 200,253.333 L 170,253.333 L 170,273.333 L 140,273.333 L 140,313.333 L 200,313.333 z " style="fill-opacity:0.5;fill:rgb(169,169,169);stroke:rgb(169,169,169);stroke-width:1"/></g>
<g fill-rule="evenodd"><path d="M 400,293.333 L 400,273.333 L 380,253.333 L 360,253.333 L 340,273.333 L 340,293.333 L 360,313.333 L 380,313.333 L 400,293.333 z " style="fill-opacity:0.5;fill:rgb(169,169,169);stroke:rgb(169,169,169);stroke-width:1"/></g>
<g fill-rule="evenodd"><path d="M 340,313.333 L 340,263.333 L 290,263.333 L 290,313.333 L 340,313.333 z " style="fill-opacity:0.5;fill:rgb(169,169,169);stroke:rgb(169,169,169);stroke-width:1"/></g>
<g fill-rule="evenodd"><path d="M 290,253.333 L 230,253.333 L 230,283.333 L 250,283.333 L 250,313.333 L 290,283.333 L 290,253.333 z " style="fill-opacity:0.5;fill:rgb(169,169,169);stroke:rgb(169,169,169);stroke-width:1"/></g>
<g fill-rule="evenodd"><path d="M 340,263.333 L 340,213.333 L 310,213.333 L 310,233.333 L 290,233.333 L 290,263.333 L 340,263.333 z " style="fill-opacity:0.5;fill:rgb(169,169,169);stroke:rgb(169,169,169);stroke-width:1"/></g>
<g fill-rule="evenodd"><path d="M 40.8,217.333 L 40.8,237.333 L 60.8,237.333 L 60.8,257.333 L 80.8,257.333 L 80.8,237.333 L 100.8,237.333 L 100.8,217.333 L 80.8,217.333 L 80.8,197.333 L 60.8,197.333 L 60.8,217.333 L 40.8,217.333 z " style="fill-opacity:0.5;fill:rgb(169,169,169);stroke:rgb(169,169,169);stroke-width:1"/></g>
<g fill-rule="evenodd"><path d="M 142.4,253.333 L 162.4,253.333 L 162.4,233.333 L 182.4,233.333 L 182.4,213.333 L 162.4,213.333 L 162.4,193.333 L 142.4,193.333 L 142.4,213.333 L 122.4,213.333 L 122.4,233.333 L 142.4,233.333 L 142.4,253.333 z " style="fill-opacity:0.5;fill:rgb(169,169,169);stroke:rgb(169,169,169);stroke-width:1"/></g>
<g fill-rule="evenodd"><path d="M 3.00993e-18,193.333 L 0,253.333 L 30,253.333 L 30,193.333 L 3.00993e-18,193.333 z " style="fill-opacity:0.5;fill:rgb(169,169,169);stroke:rgb(169,169,169);stroke-width:1"/></g>
<g fill-rule="evenodd"><path d="M 230,253.333 L 230,213.333 L 190,213.333 L 190,253.333 L 230,253.333 z " style="fill-opacity:0.5;fill:rgb(169,169,169);stroke:rgb(169,169,169);stroke-width:1"/></g>
<g fill-rule="evenodd"><path d="M 360,253.333 L 370,233.333 L 370,213.333 L 360,193.333 L 350,193.333 L 340,213.333 L 340,233.333 L 350,253.333 L 360,253.333 z " style="fill-opacity:0.5;fill:rgb(169,169,169);stroke:rgb(169,169,169);stroke-width:1"/></g>
<g fill-rule="evenodd"><path d="M 220,207.619 L 290,247.619 L 290,207.619 L 220,207.619 z " style="fill-opacity:0.5;fill:rgb(169,169,169);stroke:rgb(169,169,169);stroke-width:1"/></g>
<g fill-rule="evenodd"><path d="M 120,236.667 L 120,186.667 L 70,186.667 L 120,236.667 z " style="fill-opacity:0.5;fill:rgb(169,169,169);stroke:rgb(169,169,169);stroke-width:1"/></g>
<g fill-rule="evenodd"><path d="M 310,193.333 L 270,193.333 L 270,203.333 L 290,203.333 L 290,233.333 L 310,233.333 L 310,193.333 z " style="fill-opacity:0.5;fill:rgb(169,169,169);stroke:rgb(169,169,169);stroke-width:1"/></g>
<g fill-rule="evenodd"><path d="M 390,253.333 L 390,203.333 L 370,203.333 L 370,253.333 L 390,253.333 z " style="fill-opacity:0.5;fill:rgb(169,169,169);stroke:rgb(169,169,169);stroke-width:1"/></g>
<g fill-rule="evenodd"><path d="M 230,253.333 L 200,313.333 L 230,313.333 L 230,253.333 z " style="fill-opacity:0.5;fill:rgb(169,169,169);stroke:rgb(169,169,169);stroke-width:1"/></g>
<g fill-rule="evenodd"><path d="M 230.4,252.667 L 270.4,252.667 L 230.4,212.667 L 230.4,252.667 z " style="fill-opacity:0.5;fill:rgb(169,169,169);stroke:rgb(169,169,169);stroke-width:1"/></g>
<g fill-rule="evenodd"><path d="M 91,251.467 L 141,251.467 L 141,231.467 L 121,231.467 L 121,241.467 L 91,241.467 L 91,251.467 z " style="fill-opacity:0.5;fill:rgb(169,169,169);stroke:rgb(169,169,169);stroke-width:1"/></g>
<g fill-rule="evenodd"><path d="M 250,187.619 L 210,187.619 L 210,207.619 L 220,207.619 L 220,197.619 L 250,197.619 L 250,187.619 z " style="fill-opacity:0.5;fill:rgb(169,169,169);stroke:rgb(169,169,169);stroke-width:1"/></g>
<g fill-rule="evenodd"><path d="M 170.2,196.667 L 170.2,206.667 L 180.2,206.667 L 180.2,216.667 L 190.2,216.667 L 190.2,206.667 L 200.2,206.667 L 200.2,196.667 L 190.2,196.667 L 190.2,186.667 L 180.2,186.667 L 180.2,196.667 L 170.2,196.667 z " style="fill-opacity:0.5;fill:rgb(169,169,169);stroke:rgb(169,169,169);stroke-width:1"/></g>
<g fill-rule="evenodd"><path d="M 59.6,208.6 L 59.6,198.6 L 49.6,198.6 L 49.6,188.6 L 39.6,188.6 L 39.6,198.6 L 29.6,198.6 L 29.6,208.6 L 39.6,208.6 L 39.6,218.6 L 49.6,218.6 L 49.6,208.6 L 59.6,208.6 z " style="fill-opacity:0.5;fill:rgb(169,169,169);stroke:rgb(169,169,169);stroke-width:1"/></g>
<g fill-rule="evenodd"><path d="M 290,313.333 L 290,283.333 L 260,313.333 L 290,313.333 z " style="fill-opacity:0.5;fill:rgb(169,169,169);stroke:rgb(169,169,169);stroke-width:1"/></g>
<g fill-rule="evenodd"><path d="M 390,228.4 L 400,228.4 L 400,188.4 L 390,188.4 L 390,228.4 z " style="fill-opacity:0.5;fill:rgb(169,169,169);stroke:rgb(169,169,169);stroke-width:1"/></g>
<g fill-rule="evenodd"><path d="M 80,313.333 L 80,293.333 L 60,313.333 L 80,313.333 z " style="fill-opacity:0.5;fill:rgb(169,169,169);stroke:rgb(169,169,169);stroke-width:1"/></g>
<rect x="0" y="186.667" width="400" height="126.666" style="opacity:0.8;fill:none;stroke:rgb(0,0,0);stroke-width:1;stroke-linecap:round"/>
</svg>
