<?xml version="1.0" standalone="no"?>
<!DOCTYPE svg PUBLIC "-//W3C//DTD SVG 1.1//EN"
"http://www.w3.org/Graphics/SVG/1.1/DTD/svg11.dtd">
<svg width="100%" height="100%" version="1.1"
xmlns="http://www.w3.org/2000/svg"
xmlns:xlink="http://www.w3.org/1999/xlink">
<g fill-rule="evenodd"><path d="M 50,256.666 L 20,256.666 L 0,276.666 L 0,296.666 L 20,316.666 L 50,316.666 L 80,296.666 L 80,276.666 L 50,256.666 z " style="fill-opacity:0.5;fill:rgb(169,169,169);stroke:rgb(169,169,169);stroke-width:1"/></g>
<g fill-rule="evenodd"><path d="M 140,316.666 L 140,256.666 L 80,256.666 L 80,316.666 L 140,316.666 z " style="fill-opacity:0.5;fill:rgb(169,169,169);stroke:rgb(169,169,169);stroke-width:1"/></g>
<g fill-rule="evenodd"><path d="M 200,316.666 L 200,256.666 L 170,256.666 L 170,276.666 L 140,276.666 L 140,316.666 L 200,316.666 z " style="fill-opacity:0.5;fill:rgb(169,169,169);stroke:rgb(169,169,169);stroke-width:1"/></g>
<g fill-rule="evenodd"><path d="M 400,296.666 L 400,276.666 L 380,256.666 L 360,256.666 L 340,276.666 L 340,296.666 L 360,316.666 L 380,316.666 L 400,296.666 z " style="fill-opacity:0.5;fill:rgb(169,169,169);stroke:rgb(169,169,169);stroke-width:1"/></g>
<g fill-rule="evenodd"><path d="M 340,316.666 L 340,266.666 L 290,266.666 L 290,316.666 L 340,316.666 z " style="fill-opacity:0.5;fill:rgb(169,169,169);stroke:rgb(169,169,169);stroke-width:1"/></g>
<g fill-rule="evenodd"><path d="M 290,256.666 L 230,256.666 L 230,286.666 L 250,286.666 L 250,316.666 L 290,286.666 L 290,256.666 z " style="fill-opacity:0.5;fill:rgb(169,169,169);stroke:rgb(169,169,169);stroke-width:1"/></g>
<g fill-rule="evenodd"><path d="M 340,266.666 L 340,216.667 L 310,216.667 L 310,236.667 L 290,236.667 L 290,266.666 L 340,266.666 z " style="fill-opacity:0.5;fill:rgb(169,169,169);stroke:rgb(169,169,169);stroke-width:1"/></g>
<g fill-rule="evenodd"><path d="M 100,243.333 L 100,223.333 L 80,223.333 L 80,203.333 L 60,203.333 L 60,223.333 L 40,223.333 L 40,243.333 L 60,243.333 L 60,263.333 L 80,263.333 L 80,243.333 L 100,243.333 z " style="fill-opacity:0.5;fill:rgb(169,169,169);stroke:rgb(169,169,169);stroke-width:1"/></g>
<g fill-rule="evenodd"><path d="M 180,236.667 L 180,216.667 L 160,216.667 L 160,196.667 L 140,196.667 L 140,216.667 L 120,216.667 L 120,236.667 L 140,236.667 L 140,256.666 L 160,256.666 L 160,236.667 L 180,236.667 z " style="fill-opacity:0.5;fill:rgb(169,169,169);stroke:rgb(169,169,169);stroke-width:1"/></g>
<g fill-rule="evenodd"><path d="M 30,256.666 L 30,196.667 L 1.0842e-17,196.667 L 0,256.666 L 30,256.666 z " style="fill-opacity:0.5;fill:rgb(169,169,169);stroke:rgb(169,169,169);stroke-width:1"/></g>
<g fill-rule="evenodd"><path d="M 230,256.666 L 230,216.667 L 190,216.667 L 190,256.666 L 230,256.666 z " style="fill-opacity:0.5;fill:rgb(169,169,169);stroke:rgb(169,169,169);stroke-width:1"/></g>
<g fill-rule="evenodd"><path d="M 360,256.666 L 370,236.667 L 370,216.667 L 360,196.667 L 350,196.667 L 340,216.667 L 340,236.667 L 350,256.666 L 360,256.666 z " style="fill-opacity:0.5;fill:rgb(169,169,169);stroke:rgb(169,169,169);stroke-width:1"/></g>
<g fill-rule="evenodd"><path d="M 220,210.952 L 290,250.952 L 290,210.952 L 220,210.952 z " style="fill-opacity:0.5;fill:rgb(169,169,169);stroke:rgb(169,169,169);stroke-width:1"/></g>
<g fill-rule="evenodd"><path d="M 120,243.333 L 120,193.333 L 70,193.333 L 120,243.333 z " style="fill-opacity:0.5;fill:rgb(169,169,169);stroke:rgb(169,169,169);stroke-width:1"/></g>
<g fill-rule="evenodd"><path d="M 310,196.667 L 270,196.667 L 270,206.667 L 290,206.667 L 290,236.667 L 310,236.667 L 310,196.667 z " style="fill-opacity:0.5;fill:rgb(169,169,169);stroke:rgb(169,169,169);stroke-width:1"/></g>
<g fill-rule="evenodd"><path d="M 390,256.666 L 390,206.667 L 370,206.667 L 370,256.666 L 390,256.666 z " style="fill-opacity:0.5;fill:rgb(169,169,169);stroke:rgb(169,169,169);stroke-width:1"/></g>
<g fill-rule="evenodd"><path d="M 230,256.666 L 200,316.666 L 230,316.666 L 230,256.666 z " style="fill-opacity:0.5;fill:rgb(169,169,169);stroke:rgb(169,169,169);stroke-width:1"/></g>
<g fill-rule="evenodd"><path d="M 190,186.667 L 150,186.667 L 190,226.667 L 190,186.667 z " style="fill-opacity:0.5;fill:rgb(169,169,169);stroke:rgb(169,169,169);stroke-width:1"/></g>
<g fill-rule="evenodd"><path d="M 400,236.667 L 400,186.667 L 380,186.667 L 380,206.667 L 390,206.667 L 390,236.667 L 400,236.667 z " style="fill-opacity:0.5;fill:rgb(169,169,169);stroke:rgb(169,169,169);stroke-width:1"/></g>
<g fill-rule="evenodd"><path d="M 250,190.952 L 210,190.952 L 210,210.952 L 220,210.952 L 220,200.952 L 250,200.952 L 250,190.952 z " style="fill-opacity:0.5;fill:rgb(169,169,169);stroke:rgb(169,169,169);stroke-width:1"/></g>
<g fill-rule="evenodd"><path d="M 345,206.667 L 345,196.667 L 335,196.667 L 335,186.667 L 325,186.667 L 325,196.667 L 315,196.667 L 315,206.667 L 325,206.667 L 325,216.667 L 335,216.667 L 335,206.667 L 345,206.667 z " style="fill-opacity:0.5;fill:rgb(169,169,169);stroke:rgb(169,169,169);stroke-width:1"/></g>
<g fill-rule="evenodd"><path d="M 70,203.333 L 70,193.333 L 60,193.333 L 60,183.333 L 50,183.333 L 50,193.333 L 40,193.333 L 40,203.333 L 50,203.333 L 50,213.333 L 60,213.333 L 60,203.333 L 70,203.333 z " style="fill-opacity:0.5;fill:rgb(169,169,169);stroke:rgb(169,169,169);stroke-width:1"/></g>
<g fill-rule="evenodd"><path d="M 290,316.666 L 290,286.666 L 260,316.666 L 290,316.666 z " style="fill-opacity:0.5;fill:rgb(169,169,169);stroke:rgb(169,169,169);stroke-width:1"/></g>
<g fill-rule="evenodd"><path d="M 40,196.667 L 40,186.667 L 2.1684e-18,186.667 L 0,196.667 L 40,196.667 z " style="fill-opacity:0.5;fill:rgb(169,169,169);stroke:rgb(169,169,169);stroke-width:1"/></g>
<g fill-rule="evenodd"><path d="M 80,316.666 L 80,296.666 L 60,316.666 L 80,316.666 z " style="fill-opacity:0.5;fill:rgb(169,169,169);stroke:rgb(169,169,169);stroke-width:1"/></g>
<rect x="0" y="183.333" width="400" height="133.333" style="opacity:0.8;fill:none;stroke:rgb(0,0,0);stroke-width:1;stroke-linecap:round"/>
</svg>
