<?xml version="1.0" standalone="no"?>
<!DOCTYPE svg PUBLIC "-//W3C//DTD SVG 1.1//EN"
"http://www.w3.org/Graphics/SVG/1.1/DTD/svg11.dtd">
<svg width="100%" height="100%" version="1.1"
xmlns="http://www.w3.org/2000/svg"
xmlns:xlink="http://www.w3.org/1999/xlink">
<g fill-rule="evenodd"><path d="M 50,253.333 L 20,253.333 L 0,273.333 L 0,293.333 L 20,313.333 L 50,313.333 L 80,293.333 L 80,273.333 L 50,253.333 z " style="fill-opacity:0.5;fill:rgb(169,169,169);stroke:rgb(169,169,169);stroke-width:1"/></g>
<g fill-rule="evenodd"><path d="M 140,313.333 L 140,253.333 L 80,253.333 L 80,313.333 L 140,313.333 z " style="fill-opacity:0.5;fill:rgb(169,169,169);stroke:rgb(169,169,169);stroke-width:1"/></g>
<g fill-rule="evenodd"><path d="M 200,313.333 L 200,253.333 L 170,253.333 L 170,273.333 L 140,273.333 L 140,313.333 L 200,313.333 z " style="fill-opacity:0.5;fill:rgb(169,169,169);stroke:rgb(169,169,169);stroke-width:1"/></g>
<g fill-rule="evenodd"><path d="M 400,293.333 L 400,273.333 L 380,253.333 L 360,253.333 L 340,273.333 L 340,293.333 L 360,313.333 L 380,313.333 L 400,293.333 z " style="fill-opacity:0.5;fill:rgb(169,169,169);stroke:rgb(169,169,169);stroke-width:1"/></g>
<g fill-rule="evenodd"><path d="M 340,313.333 L 340,263.333 L 290,263.333 L 290,313.333 L 340,313.333 z " style="fill-opacity:0.5;fill:rgb(169,169,169);stroke:rgb(169,169,169);stroke-width:1"/></g>
<g fill-rule="evenodd"><path d="M 290,253.333 L 230,253.333 L 230,283.333 L 250,283.333 L 250,313.333 L 290,283.333 L 290,253.333 z " style="fill-opacity:0.5;fill:rgb(169,169,169);stroke:rgb(169,169,169);stroke-width:1"/></g>
<g fill-rule="evenodd"><path d="M 340,263.333 L 340,213.333 L 310,213.333 L 310,233.333 L 290,233.333 L 290,263.333 L 340,263.333 z " style="fill-opacity:0.5;fill:rgb(169,169,169);stroke:rgb(169,169,169);stroke-width:1"/></g>
<g fill-rule="evenodd"><path d="M 100,240 L 100,220 L 80,220 L 80,200 L 60,200 L 60,220 L 40,220 L 40,240 L 60,240 L 60,260 L 80,260 L 80,240 L 100,240 z " style="fill-opacity:0.5;fill:rgb(169,169,169);stroke:rgb(169,169,169);stroke-width:1"/></g>
<g fill-rule="evenodd"><path d="M 180,233.333 L 180,213.333 L 160,213.333 L 160,193.333 L 140,193.333 L 140,213.333 L 120,213.333 L 120,233.333 L 140,233.333 L 140,253.333 L 160,253.333 L 160,233.333 L 180,233.333 z " style="fill-opacity:0.5;fill:rgb(169,169,169);stroke:rgb(169,169,169);stroke-width:1"/></g>
<g fill-rule="evenodd"><path d="M 30,253.333 L 30,193.333 L 1.0842e-17,193.333 L 0,253.333 L 30,253.333 z " style="fill-opacity:0.5;fill:rgb(169,169,169);stroke:rgb(169,169,169);stroke-width:1"/></g>
<g fill-rule="evenodd"><path d="M 230,253.333 L 230,213.333 L 190,213.333 L 190,253.333 L 230,253.333 z " style="fill-opacity:0.5;fill:rgb(169,169,169);stroke:rgb(169,169,169);stroke-width:1"/></g>
<g fill-rule="evenodd"><path d="M 360,253.333 L 370,233.333 L 370,213.333 L 360,193.333 L 350,193.333 L 340,213.333 L 340,233.333 L 350,253.333 L 360,253.333 z " style="fill-opacity:0.5;fill:rgb(169,169,169);stroke:rgb(169,169,169);stroke-width:1"/></g>
<g fill-rule="evenodd"><path d="M 220,207.619 L 290,247.619 L 290,207.619 L 220,207.619 z " style="fill-opacity:0.5;fill:rgb(169,169,169);stroke:rgb(169,169,169);stroke-width:1"/></g>
<g fill-rule="evenodd"><path d="M 120,240 L 120,190 L 70,190 L 120,240 z " style="fill-opacity:0.5;fill:rgb(169,169,169);stroke:rgb(169,169,169);stroke-width:1"/></g>
<g fill-rule="evenodd"><path d="M 310,193.333 L 270,193.333 L 270,203.333 L 290,203.333 L 290,233.333 L 310,233.333 L 310,193.333 z " style="fill-opacity:0.5;fill:rgb(169,169,169);stroke:rgb(169,169,169);stroke-width:1"/></g>
<g fill-rule="evenodd"><path d="M 390,253.333 L 390,203.333 L 370,203.333 L 370,253.333 L 390,253.333 z " style="fill-opacity:0.5;fill:rgb(169,169,169);stroke:rgb(169,169,169);stroke-width:1"/></g>
<g fill-rule="evenodd"><path d="M 230,253.333 L 200,313.333 L 230,313.333 L 230,253.333 z " style="fill-opacity:0.5;fill:rgb(169,169,169);stroke:rgb(169,169,169);stroke-width:1"/></g>
<g fill-rule="evenodd"><path d="M 190,186.667 L 150,186.667 L 190,226.667 L 190,186.667 z " style="fill-opacity:0.5;fill:rgb(169,169,169);stroke:rgb(169,169,169);stroke-width:1"/></g>
<g fill-rule="evenodd"><path d="M 400,236.667 L 400,186.667 L 380,186.667 L 380,206.667 L 390,206.667 L 390,236.667 L 400,236.667 z " style="fill-opacity:0.5;fill:rgb(169,169,169);stroke:rgb(169,169,169);stroke-width:1"/></g>
<g fill-rule="evenodd"><path d="M 250,187.619 L 210,187.619 L 210,207.619 L 220,207.619 L 220,197.619 L 250,197.619 L 250,187.619 z " style="fill-opacity:0.5;fill:rgb(169,169,169);stroke:rgb(169,169,169);stroke-width:1"/></g>
<g fill-rule="evenodd"><path d="M 345,206.667 L 345,196.667 L 335,196.667 L 335,186.667 L 325,186.667 L 325,196.667 L 315,196.667 L 315,206.667 L 325,206.667 L 325,216.667 L 335,216.667 L 335,206.667 L 345,206.667 z " style="fill-opacity:0.5;fill:rgb(169,169,169);stroke:rgb(169,169,169);stroke-width:1"/></g>
<g fill-rule="evenodd"><path d="M 70,206.667 L 70,196.667 L 60,196.667 L 60,186.667 L 50,186.667 L 50,196.667 L 40,196.667 L 40,206.667 L 50,206.667 L 50,216.667 L 60,216.667 L 60,206.667 L 70,206.667 z " style="fill-opacity:0.5;fill:rgb(169,169,169);stroke:rgb(169,169,169);stroke-width:1"/></g>
<g fill-rule="evenodd"><path d="M 290,313.333 L 290,283.333 L 260,313.333 L 290,313.333 z " style="fill-opacity:0.5;fill:rgb(169,169,169);stroke:rgb(169,169,169);stroke-width:1"/></g>
<g fill-rule="evenodd"><path d="M 40,196.667 L 40,186.667 L 2.1684e-18,186.667 L 0,196.667 L 40,196.667 z " style="fill-opacity:0.5;fill:rgb(169,169,169);stroke:rgb(169,169,169);stroke-width:1"/></g>
<g fill-rule="evenodd"><path d="M 80,313.333 L 80,293.333 L 60,313.333 L 80,313.333 z " style="fill-opacity:0.5;fill:rgb(169,169,169);stroke:rgb(169,169,169);stroke-width:1"/></g>
<rect x="0" y="186.667" width="400" height="126.666" style="opacity:0.8;fill:none;stroke:rgb(0,0,0);stroke-width:1;stroke-linecap:round"/>
</svg>
