<?xml version="1.0" standalone="no"?>
<!DOCTYPE svg PUBLIC "-//W3C//DTD SVG 1.1//EN"
"http://www.w3.org/Graphics/SVG/1.1/DTD/svg11.dtd">
<svg width="200mm" height="200mm" viewBox="-250 -250 800 800" version="1.1"
xmlns="http://www.w3.org/2000/svg"
xmlns:xlink="http://www.w3.org/1999/xlink">
<g fill-rule="evenodd"><path d="M 164.521,242.603 L 139.017,244.082 L 112.167,240.333 L 106.834,246.616 L 92.3393,246.062 L 85.3166,260.583 L 90.0952,264.094 L 90.0952,276.239 L 85.3166,279.75 L 92.3393,294.271 L 106.834,293.716 L 112.167,300 L 139.017,296.251 L 164.521,297.729 L 164.521,242.603 z " style="fill-opacity:0.5;fill:rgb(169,169,169);stroke:rgb(169,169,169);stroke-width:2"/></g>
<g fill-rule="evenodd"><path d="M 86.663,241.811 L 112.167,240.333 L 139.017,244.082 L 144.35,237.798 L 158.844,238.353 L 165.867,223.832 L 161.089,220.321 L 161.089,208.176 L 165.867,204.665 L 158.844,190.144 L 144.35,190.698 L 139.017,184.415 L 112.167,188.164 L 86.663,186.685 L 86.663,241.811 z " style="fill-opacity:0.5;fill:rgb(169,169,169);stroke:rgb(169,169,169);stroke-width:2"/></g>
<g fill-rule="evenodd"><path d="M 198.658,298.522 L 196.81,271.856 L 200.585,250.075 L 192.981,242.287 L 194.222,232.069 L 176.137,229.35 L 164.521,231.515 L 164.521,300 L 198.658,298.522 z " style="fill-opacity:0.5;fill:rgb(169,169,169);stroke:rgb(169,169,169);stroke-width:2"/></g>
<g fill-rule="evenodd"><path d="M 180.546,164.227 L 182.395,190.893 L 178.619,212.674 L 186.223,220.462 L 184.982,230.68 L 203.067,233.399 L 214.683,231.234 L 214.683,162.749 L 180.546,164.227 z " style="fill-opacity:0.5;fill:rgb(169,169,169);stroke:rgb(169,169,169);stroke-width:2"/></g>
<g fill-rule="evenodd"><path d="M 122.912,182.833 L 169.405,187.4 L 180.546,170.239 L 180.546,160.735 L 169.405,143.574 L 122.912,148.141 L 122.912,182.833 z " style="fill-opacity:0.5;fill:rgb(169,169,169);stroke:rgb(169,169,169);stroke-width:2"/></g>
<g fill-rule="evenodd"><path d="M 142.951,111.481 L 96.458,106.914 L 85.3166,124.075 L 85.3166,133.579 L 96.458,150.74 L 142.951,146.172 L 142.951,111.481 z " style="fill-opacity:0.5;fill:rgb(169,169,169);stroke:rgb(169,169,169);stroke-width:2"/></g>
<g fill-rule="evenodd"><path d="M 157.049,142.36 L 203.542,146.927 L 214.683,129.766 L 214.683,120.262 L 203.542,103.101 L 157.049,107.668 L 157.049,142.36 z " style="fill-opacity:0.5;fill:rgb(169,169,169);stroke:rgb(169,169,169);stroke-width:2"/></g>
<g fill-rule="evenodd"><path d="M 107.384,107.987 L 153.877,112.554 L 165.018,95.3935 L 165.018,85.889 L 153.877,68.7281 L 107.384,73.2955 L 107.384,107.987 z " style="fill-opacity:0.5;fill:rgb(169,169,169);stroke:rgb(169,169,169);stroke-width:2"/></g>
<g fill-rule="evenodd"><path d="M 214.683,43.4831 L 148.706,43.4831 L 143.268,53.7005 L 145.459,68.142 L 157.973,69.0133 L 163.993,73.8975 L 186.672,71.4422 L 214.683,73.1847 L 214.683,43.4831 z " style="fill-opacity:0.5;fill:rgb(169,169,169);stroke:rgb(169,169,169);stroke-width:2"/></g>
<g fill-rule="evenodd"><path d="M 156.732,13.7815 L 90.7552,13.7815 L 85.3166,23.9989 L 87.5079,38.4404 L 100.022,39.3117 L 106.042,44.196 L 128.72,41.7406 L 156.732,43.4831 L 156.732,13.7815 z " style="fill-opacity:0.5;fill:rgb(169,169,169);stroke:rgb(169,169,169);stroke-width:2"/></g>
<g fill-rule="evenodd"><path d="M 165.418,6.89077 L 85.3166,6.89077 L 85.3166,13.7815 L 165.418,13.7815 L 165.418,6.89077 z " style="fill-opacity:0.5;fill:rgb(169,169,169);stroke:rgb(169,169,169);stroke-width:2"/></g>
<g fill-rule="evenodd"><path d="M 165.418,5.82867e-15 L 85.3166,5.82867e-15 L 85.3166,6.89077 L 165.418,6.89077 L 165.418,5.82867e-15 z " style="fill-opacity:0.5;fill:rgb(169,169,169);stroke:rgb(169,169,169);stroke-width:2"/></g>
<g fill-rule="evenodd"><path d="M 117.271,187.451 L 117.271,162.739 L 99.8726,162.739 L 99.8726,187.451 L 117.271,187.451 z " style="fill-opacity:0.5;fill:rgb(169,169,169);stroke:rgb(169,169,169);stroke-width:2"/></g>
<g fill-rule="evenodd"><path d="M 122.912,148.141 L 122.912,123.429 L 105.514,123.429 L 105.514,148.141 L 122.912,148.141 z " style="fill-opacity:0.5;fill:rgb(169,169,169);stroke:rgb(169,169,169);stroke-width:2"/></g>
<g fill-rule="evenodd"><path d="M 102.715,106.914 L 102.715,82.2019 L 85.3166,82.2019 L 85.3166,106.914 L 102.715,106.914 z " style="fill-opacity:0.5;fill:rgb(169,169,169);stroke:rgb(169,169,169);stroke-width:2"/></g>
<g fill-rule="evenodd"><path d="M 214.683,103.101 L 214.683,78.3892 L 197.285,78.3892 L 197.285,103.101 L 214.683,103.101 z " style="fill-opacity:0.5;fill:rgb(169,169,169);stroke:rgb(169,169,169);stroke-width:2"/></g>
<g fill-rule="evenodd"><path d="M 208.511,300 L 206.795,289.149 L 208.511,278.879 L 206.795,268.609 L 208.511,257.758 L 198.796,260.398 L 200.961,278.879 L 198.796,297.36 L 208.511,300 z " style="fill-opacity:0.5;fill:rgb(169,169,169);stroke:rgb(169,169,169);stroke-width:2"/></g>
<g fill-rule="evenodd"><path d="M 176.137,229.35 L 174.421,218.499 L 176.137,208.229 L 174.421,197.959 L 176.137,187.108 L 166.422,189.748 L 168.587,208.229 L 166.422,226.71 L 176.137,229.35 z " style="fill-opacity:0.5;fill:rgb(169,169,169);stroke:rgb(169,169,169);stroke-width:2"/></g>
<g fill-rule="evenodd"><path d="M 95.0323,82.2019 L 93.3162,71.3509 L 95.0323,61.0808 L 93.3162,50.8106 L 95.0323,39.9596 L 85.3166,42.5998 L 87.4815,61.0808 L 85.3166,79.5617 L 95.0323,82.2019 z " style="fill-opacity:0.5;fill:rgb(169,169,169);stroke:rgb(169,169,169);stroke-width:2"/></g>
<g fill-rule="evenodd"><path d="M 175.134,43.4831 L 173.418,32.6321 L 175.134,22.362 L 173.418,12.0918 L 175.134,1.24087 L 165.418,3.88101 L 167.583,22.362 L 165.418,40.843 L 175.134,43.4831 z " style="fill-opacity:0.5;fill:rgb(169,169,169);stroke:rgb(169,169,169);stroke-width:2"/></g>
<g fill-rule="evenodd"><path d="M 203.092,73.4834 L 182.076,76.6252 L 161.061,73.4834 L 159.107,76.7836 L 182.076,81.5358 L 205.045,76.7836 L 203.092,73.4834 z " style="fill-opacity:0.5;fill:rgb(169,169,169);stroke:rgb(169,169,169);stroke-width:2"/></g>
<g fill-rule="evenodd"><path d="M 137.926,64.3072 L 116.911,67.449 L 95.8954,64.3072 L 93.9417,67.6074 L 116.911,72.3596 L 139.88,67.6074 L 137.926,64.3072 z " style="fill-opacity:0.5;fill:rgb(169,169,169);stroke:rgb(169,169,169);stroke-width:2"/></g>
<g fill-rule="evenodd"><path d="M 138.768,59.2707 L 117.753,62.4125 L 96.737,59.2707 L 94.7833,62.5709 L 117.753,67.3231 L 140.722,62.5709 L 138.768,59.2707 z " style="fill-opacity:0.5;fill:rgb(169,169,169);stroke:rgb(169,169,169);stroke-width:2"/></g>
<g fill-rule="evenodd"><path d="M 138.768,54.3601 L 117.753,57.5018 L 96.737,54.3601 L 94.7833,57.6602 L 117.753,62.4125 L 140.722,57.6602 L 138.768,54.3601 z " style="fill-opacity:0.5;fill:rgb(169,169,169);stroke:rgb(169,169,169);stroke-width:2"/></g>
<rect x="85.3166" y="5.82867e-15" width="129.367" height="300" style="opacity:0.8;fill:none;stroke:rgb(0,0,0);stroke-width:2;stroke-linecap:round"/>
</svg>
