<?xml version="1.0" standalone="no"?>
<!DOCTYPE svg PUBLIC "-//W3C//DTD SVG 1.1//EN"
"http://www.w3.org/Graphics/SVG/1.1/DTD/svg11.dtd">
<svg width="200mm" height="200mm" viewBox="-250 -250 800 800" version="1.1"
xmlns="http://www.w3.org/2000/svg"
xmlns:xlink="http://www.w3.org/1999/xlink">
<g fill-rule="evenodd"><path d="M 92.6761,232.873 L 115.278,231.562 L 139.073,234.885 L 143.8,229.316 L 156.645,229.807 L 162.869,216.939 L 158.634,213.827 L 158.634,203.064 L 162.869,199.952 L 156.645,187.084 L 143.8,187.575 L 139.073,182.006 L 115.278,185.329 L 92.6761,184.019 L 92.6761,232.873 z " style="fill-opacity:0.5;fill:rgb(169,169,169);stroke:rgb(169,169,169);stroke-width:2"/></g>
<g fill-rule="evenodd"><path d="M 143.383,229.807 L 144.693,252.409 L 141.37,276.205 L 146.939,280.931 L 146.448,293.776 L 159.316,300 L 162.428,295.765 L 173.191,295.765 L 176.303,300 L 189.172,293.776 L 188.68,280.931 L 194.249,276.205 L 190.926,252.409 L 192.237,229.807 L 143.383,229.807 z " style="fill-opacity:0.5;fill:rgb(169,169,169);stroke:rgb(169,169,169);stroke-width:2"/></g>
<g fill-rule="evenodd"><path d="M 127.468,300 L 131.516,258.797 L 116.308,248.923 L 107.884,248.923 L 92.6761,258.797 L 96.7239,300 L 127.468,300 z " style="fill-opacity:0.5;fill:rgb(169,169,169);stroke:rgb(169,169,169);stroke-width:2"/></g>
<g fill-rule="evenodd"><path d="M 138.376,278.952 L 136.855,269.336 L 138.376,260.234 L 136.855,251.133 L 138.376,241.516 L 129.766,243.856 L 131.684,260.234 L 129.766,276.613 L 138.376,278.952 z " style="fill-opacity:0.5;fill:rgb(169,169,169);stroke:rgb(169,169,169);stroke-width:2"/></g>
<g fill-rule="evenodd"><path d="M 148.84,186.317 L 190.043,190.365 L 199.917,175.156 L 199.917,166.733 L 190.043,151.525 L 148.84,155.573 L 148.84,186.317 z " style="fill-opacity:0.5;fill:rgb(169,169,169);stroke:rgb(169,169,169);stroke-width:2"/></g>
<g fill-rule="evenodd"><path d="M 169.888,197.225 L 179.504,195.704 L 188.606,197.225 L 197.708,195.704 L 207.324,197.225 L 204.984,188.614 L 188.606,190.533 L 172.228,188.614 L 169.888,197.225 z " style="fill-opacity:0.5;fill:rgb(169,169,169);stroke:rgb(169,169,169);stroke-width:2"/></g>
<g fill-rule="evenodd"><path d="M 105.438,112.03 L 101.39,153.233 L 116.599,163.107 L 125.022,163.107 L 140.23,153.233 L 136.182,112.03 L 105.438,112.03 z " style="fill-opacity:0.5;fill:rgb(169,169,169);stroke:rgb(169,169,169);stroke-width:2"/></g>
<g fill-rule="evenodd"><path d="M 94.5301,133.077 L 96.0509,142.694 L 94.5301,151.795 L 96.0509,160.897 L 94.5301,170.513 L 103.14,168.174 L 101.222,151.795 L 103.14,135.417 L 94.5301,133.077 z " style="fill-opacity:0.5;fill:rgb(169,169,169);stroke:rgb(169,169,169);stroke-width:2"/></g>
<g fill-rule="evenodd"><path d="M 190.703,112.335 L 149.5,108.287 L 139.626,123.496 L 139.626,131.919 L 149.5,147.127 L 190.703,143.08 L 190.703,112.335 z " style="fill-opacity:0.5;fill:rgb(169,169,169);stroke:rgb(169,169,169);stroke-width:2"/></g>
<g fill-rule="evenodd"><path d="M 169.655,101.427 L 160.039,102.948 L 150.937,101.427 L 141.835,102.948 L 132.219,101.427 L 134.559,110.038 L 150.937,108.119 L 167.315,110.038 L 169.655,101.427 z " style="fill-opacity:0.5;fill:rgb(169,169,169);stroke:rgb(169,169,169);stroke-width:2"/></g>
<g fill-rule="evenodd"><path d="M 98.901,101.24 L 122.532,99.6024 L 141.835,102.948 L 148.738,96.2098 L 157.792,97.3094 L 160.202,81.2821 L 158.284,70.9872 L 97.5907,70.9872 L 98.901,101.24 z " style="fill-opacity:0.5;fill:rgb(169,169,169);stroke:rgb(169,169,169);stroke-width:2"/></g>
<g fill-rule="evenodd"><path d="M 177.071,51.985 L 178.709,75.6165 L 175.363,94.9195 L 182.101,101.822 L 181.002,110.877 L 197.029,113.287 L 207.324,111.368 L 207.324,50.6748 L 177.071,51.985 z " style="fill-opacity:0.5;fill:rgb(169,169,169);stroke:rgb(169,169,169);stroke-width:2"/></g>
<g fill-rule="evenodd"><path d="M 155.966,44.0333 L 97.496,44.0333 L 92.6761,53.0881 L 94.6181,65.8866 L 105.709,66.6587 L 111.043,70.9872 L 131.142,68.8113 L 155.966,70.3555 L 155.966,44.0333 z " style="fill-opacity:0.5;fill:rgb(169,169,169);stroke:rgb(169,169,169);stroke-width:2"/></g>
<g fill-rule="evenodd"><path d="M 206.224,21.4079 L 147.754,21.4079 L 142.934,30.4627 L 144.876,43.2612 L 155.966,44.0333 L 161.301,48.3618 L 181.399,46.1859 L 206.224,47.7301 L 206.224,21.4079 z " style="fill-opacity:0.5;fill:rgb(169,169,169);stroke:rgb(169,169,169);stroke-width:2"/></g>
<g fill-rule="evenodd"><path d="M 168.344,214.388 L 186.968,211.604 L 205.592,214.388 L 207.324,211.464 L 186.968,207.252 L 166.612,211.464 L 168.344,214.388 z " style="fill-opacity:0.5;fill:rgb(169,169,169);stroke:rgb(169,169,169);stroke-width:2"/></g>
<g fill-rule="evenodd"><path d="M 197.918,213.241 L 176.018,213.241 L 176.018,228.66 L 197.918,228.66 L 197.918,213.241 z " style="fill-opacity:0.5;fill:rgb(169,169,169);stroke:rgb(169,169,169);stroke-width:2"/></g>
<g fill-rule="evenodd"><path d="M 103.954,28.6143 L 122.578,25.83 L 141.203,28.6143 L 142.934,25.6896 L 122.578,21.4781 L 102.222,25.6896 L 103.954,28.6143 z " style="fill-opacity:0.5;fill:rgb(169,169,169);stroke:rgb(169,169,169);stroke-width:2"/></g>
<g fill-rule="evenodd"><path d="M 133.528,27.467 L 111.628,27.467 L 111.628,42.886 L 133.528,42.886 L 133.528,27.467 z " style="fill-opacity:0.5;fill:rgb(169,169,169);stroke:rgb(169,169,169);stroke-width:2"/></g>
<g fill-rule="evenodd"><path d="M 142.671,14.6456 L 124.046,17.4299 L 105.422,14.6456 L 103.69,17.5703 L 124.046,21.7819 L 144.402,17.5703 L 142.671,14.6456 z " style="fill-opacity:0.5;fill:rgb(169,169,169);stroke:rgb(169,169,169);stroke-width:2"/></g>
<g fill-rule="evenodd"><path d="M 113.096,15.7929 L 134.996,15.7929 L 134.996,0.373957 L 113.096,0.373957 L 113.096,15.7929 z " style="fill-opacity:0.5;fill:rgb(169,169,169);stroke:rgb(169,169,169);stroke-width:2"/></g>
<g fill-rule="evenodd"><path d="M 202.949,14.2717 L 184.324,17.056 L 165.7,14.2717 L 163.968,17.1963 L 184.324,21.4079 L 204.68,17.1963 L 202.949,14.2717 z " style="fill-opacity:0.5;fill:rgb(169,169,169);stroke:rgb(169,169,169);stroke-width:2"/></g>
<g fill-rule="evenodd"><path d="M 173.374,15.419 L 195.274,15.419 L 195.274,1.01308e-14 L 173.374,1.01308e-14 L 173.374,15.419 z " style="fill-opacity:0.5;fill:rgb(169,169,169);stroke:rgb(169,169,169);stroke-width:2"/></g>
<g fill-rule="evenodd"><path d="M 200.356,300 L 200.356,229.012 L 194.249,229.012 L 194.249,300 L 200.356,300 z " style="fill-opacity:0.5;fill:rgb(169,169,169);stroke:rgb(169,169,169);stroke-width:2"/></g>
<g fill-rule="evenodd"><path d="M 206.462,300 L 206.462,229.012 L 200.356,229.012 L 200.356,300 L 206.462,300 z " style="fill-opacity:0.5;fill:rgb(169,169,169);stroke:rgb(169,169,169);stroke-width:2"/></g>
<rect x="92.6761" y="1.01308e-14" width="114.648" height="300" style="opacity:0.8;fill:none;stroke:rgb(0,0,0);stroke-width:2;stroke-linecap:round"/>
</svg>
