<?xml version="1.0" standalone="no"?>
<!DOCTYPE svg PUBLIC "-//W3C//DTD SVG 1.1//EN"
"http://www.w3.org/Graphics/SVG/1.1/DTD/svg11.dtd">
<svg width="200mm" height="200mm" viewBox="-250 -250 800 800" version="1.1"
xmlns="http://www.w3.org/2000/svg"
xmlns:xlink="http://www.w3.org/1999/xlink">
<g fill-rule="evenodd"><path d="M 165.213,239.867 L 138.493,241.416 L 110.363,237.488 L 104.775,244.071 L 89.59,243.49 L 82.2324,258.703 L 87.2389,262.382 L 87.2389,275.106 L 82.2324,278.785 L 89.59,293.998 L 104.775,293.417 L 110.363,300 L 138.493,296.072 L 165.213,297.621 L 165.213,239.867 z " style="fill-opacity:0.5;fill:rgb(169,169,169);stroke:rgb(169,169,169);stroke-width:2"/></g>
<g fill-rule="evenodd"><path d="M 83.6431,239.037 L 110.363,237.488 L 138.493,241.416 L 144.081,234.832 L 159.266,235.413 L 166.624,220.2 L 161.617,216.521 L 161.617,203.798 L 166.624,200.119 L 159.266,184.906 L 144.081,185.487 L 138.493,178.903 L 110.363,182.831 L 83.6431,181.282 L 83.6431,239.037 z " style="fill-opacity:0.5;fill:rgb(169,169,169);stroke:rgb(169,169,169);stroke-width:2"/></g>
<g fill-rule="evenodd"><path d="M 200.978,298.451 L 199.042,270.514 L 202.997,247.694 L 195.031,239.535 L 196.331,228.83 L 177.384,225.981 L 165.213,228.249 L 165.213,300 L 200.978,298.451 z " style="fill-opacity:0.5;fill:rgb(169,169,169);stroke:rgb(169,169,169);stroke-width:2"/></g>
<g fill-rule="evenodd"><path d="M 202.389,224.898 L 200.452,196.961 L 204.408,174.142 L 196.442,165.982 L 197.742,155.277 L 178.794,152.428 L 166.624,154.696 L 166.624,226.447 L 202.389,224.898 z " style="fill-opacity:0.5;fill:rgb(169,169,169);stroke:rgb(169,169,169);stroke-width:2"/></g>
<g fill-rule="evenodd"><path d="M 166.624,139.794 L 117.914,135.009 L 106.241,152.988 L 106.241,162.946 L 117.914,180.925 L 166.624,176.14 L 166.624,139.794 z " style="fill-opacity:0.5;fill:rgb(169,169,169);stroke:rgb(169,169,169);stroke-width:2"/></g>
<g fill-rule="evenodd"><path d="M 157.385,138.887 L 206.095,143.672 L 217.768,125.693 L 217.768,115.735 L 206.095,97.756 L 157.385,102.541 L 157.385,138.887 z " style="fill-opacity:0.5;fill:rgb(169,169,169);stroke:rgb(169,169,169);stroke-width:2"/></g>
<g fill-rule="evenodd"><path d="M 142.615,96.237 L 93.905,91.4517 L 82.2324,109.431 L 82.2324,119.389 L 93.905,137.368 L 142.615,132.583 L 142.615,96.237 z " style="fill-opacity:0.5;fill:rgb(169,169,169);stroke:rgb(169,169,169);stroke-width:2"/></g>
<g fill-rule="evenodd"><path d="M 206.095,61.4104 L 157.385,56.6252 L 145.713,74.6043 L 145.713,84.562 L 157.385,102.541 L 206.095,97.756 L 206.095,61.4104 z " style="fill-opacity:0.5;fill:rgb(169,169,169);stroke:rgb(169,169,169);stroke-width:2"/></g>
<g fill-rule="evenodd"><path d="M 82.2324,65.913 L 151.355,65.913 L 157.053,55.2085 L 154.758,40.0783 L 141.647,39.1655 L 135.34,34.0484 L 111.58,36.6208 L 82.2324,34.7952 L 82.2324,65.913 z " style="fill-opacity:0.5;fill:rgb(169,169,169);stroke:rgb(169,169,169);stroke-width:2"/></g>
<g fill-rule="evenodd"><path d="M 217.768,13.5812 L 148.645,13.5812 L 142.947,24.2857 L 145.242,39.4159 L 158.353,40.3286 L 164.66,45.4458 L 188.42,42.8734 L 217.768,44.699 L 217.768,13.5812 z " style="fill-opacity:0.5;fill:rgb(169,169,169);stroke:rgb(169,169,169);stroke-width:2"/></g>
<g fill-rule="evenodd"><path d="M 217.768,300 L 217.768,216.079 L 210.548,216.079 L 210.548,300 L 217.768,300 z " style="fill-opacity:0.5;fill:rgb(169,169,169);stroke:rgb(169,169,169);stroke-width:2"/></g>
<g fill-rule="evenodd"><path d="M 166.154,6.36186 L 82.2324,6.36186 L 82.2324,13.5812 L 166.154,13.5812 L 166.154,6.36186 z " style="fill-opacity:0.5;fill:rgb(169,169,169);stroke:rgb(169,169,169);stroke-width:2"/></g>
<g fill-rule="evenodd"><path d="M 106.241,181.536 L 106.241,155.646 L 88.0134,155.646 L 88.0134,181.536 L 106.241,181.536 z " style="fill-opacity:0.5;fill:rgb(169,169,169);stroke:rgb(169,169,169);stroke-width:2"/></g>
<g fill-rule="evenodd"><path d="M 145.713,75.7698 L 119.823,75.7698 L 119.823,93.9979 L 145.713,93.9979 L 145.713,75.7698 z " style="fill-opacity:0.5;fill:rgb(169,169,169);stroke:rgb(169,169,169);stroke-width:2"/></g>
<g fill-rule="evenodd"><path d="M 108.122,73.2236 L 82.2324,73.2236 L 82.2324,91.4517 L 108.122,91.4517 L 108.122,73.2236 z " style="fill-opacity:0.5;fill:rgb(169,169,169);stroke:rgb(169,169,169);stroke-width:2"/></g>
<g fill-rule="evenodd"><path d="M 121.027,17.3698 L 95.1373,17.3698 L 95.1373,35.5979 L 121.027,35.5979 L 121.027,17.3698 z " style="fill-opacity:0.5;fill:rgb(169,169,169);stroke:rgb(169,169,169);stroke-width:2"/></g>
<g fill-rule="evenodd"><path d="M 217.768,216.079 L 215.97,204.71 L 217.768,193.951 L 215.97,183.191 L 217.768,171.822 L 207.589,174.588 L 209.857,193.951 L 207.589,213.313 L 217.768,216.079 z " style="fill-opacity:0.5;fill:rgb(169,169,169);stroke:rgb(169,169,169);stroke-width:2"/></g>
<g fill-rule="evenodd"><path d="M 217.768,102.823 L 215.97,91.4543 L 217.768,80.6944 L 215.97,69.9346 L 217.768,58.5662 L 207.589,61.3323 L 209.857,80.6944 L 207.589,100.057 L 217.768,102.823 z " style="fill-opacity:0.5;fill:rgb(169,169,169);stroke:rgb(169,169,169);stroke-width:2"/></g>
<g fill-rule="evenodd"><path d="M 217.768,48.3021 L 206.399,50.1 L 195.639,48.3021 L 184.88,50.1 L 173.511,48.3021 L 176.277,58.4811 L 195.639,56.213 L 215.002,58.4811 L 217.768,48.3021 z " style="fill-opacity:0.5;fill:rgb(169,169,169);stroke:rgb(169,169,169);stroke-width:2"/></g>
<g fill-rule="evenodd"><path d="M 173.511,153.264 L 184.88,151.466 L 195.639,153.264 L 206.399,151.466 L 217.768,153.264 L 215.002,143.085 L 195.639,145.353 L 176.277,143.085 L 173.511,153.264 z " style="fill-opacity:0.5;fill:rgb(169,169,169);stroke:rgb(169,169,169);stroke-width:2"/></g>
<g fill-rule="evenodd"><path d="M 207.854,297.953 L 204.562,275.936 L 207.854,253.918 L 204.396,251.871 L 199.417,275.936 L 204.396,300 L 207.854,297.953 z " style="fill-opacity:0.5;fill:rgb(169,169,169);stroke:rgb(169,169,169);stroke-width:2"/></g>
<g fill-rule="evenodd"><path d="M 145.713,91.9977 L 149.004,114.015 L 145.713,136.033 L 149.17,138.08 L 154.149,114.015 L 149.17,89.9509 L 145.713,91.9977 z " style="fill-opacity:0.5;fill:rgb(169,169,169);stroke:rgb(169,169,169);stroke-width:2"/></g>
<g fill-rule="evenodd"><path d="M 212.236,5.14481 L 190.218,8.43638 L 168.2,5.14481 L 166.154,8.60234 L 190.218,13.5812 L 214.282,8.60234 L 212.236,5.14481 z " style="fill-opacity:0.5;fill:rgb(169,169,169);stroke:rgb(169,169,169);stroke-width:2"/></g>
<g fill-rule="evenodd"><path d="M 212.236,-8.90954e-15 L 190.218,3.29157 L 168.2,-8.90954e-15 L 166.154,3.45753 L 190.218,8.43638 L 214.282,3.45753 L 212.236,-8.90954e-15 z " style="fill-opacity:0.5;fill:rgb(169,169,169);stroke:rgb(169,169,169);stroke-width:2"/></g>
<rect x="82.2324" y="-8.90954e-15" width="135.535" height="300" style="opacity:0.8;fill:none;stroke:rgb(0,0,0);stroke-width:2;stroke-linecap:round"/>
</svg>
