<?xml version="1.0" standalone="no"?>
<!DOCTYPE svg PUBLIC "-//W3C//DTD SVG 1.1//EN"
"http://www.w3.org/Graphics/SVG/1.1/DTD/svg11.dtd">
<svg width="200mm" height="200mm" viewBox="-250 -250 800 800" version="1.1"
xmlns="http://www.w3.org/2000/svg"
xmlns:xlink="http://www.w3.org/1999/xlink">
<g fill-rule="evenodd"><path d="M 19.2621,291.284 L 45.4096,300 L 97.7048,300 L 123.852,291.284 L 123.852,260.779 L 97.7048,252.063 L 45.4096,252.063 L 19.2621,260.779 L 19.2621,291.284 z " style="fill-opacity:0.5;fill:rgb(169,169,169);stroke:rgb(169,169,169);stroke-width:2"/></g>
<g fill-rule="evenodd"><path d="M 123.852,291.284 L 150,300 L 202.295,300 L 228.443,291.284 L 228.443,260.779 L 202.295,252.063 L 150,252.063 L 123.852,260.779 L 123.852,291.284 z " style="fill-opacity:0.5;fill:rgb(169,169,169);stroke:rgb(169,169,169);stroke-width:2"/></g>
<g fill-rule="evenodd"><path d="M 123.852,243.347 L 150,252.063 L 202.295,252.063 L 228.443,243.347 L 228.443,212.841 L 202.295,204.126 L 150,204.126 L 123.852,212.841 L 123.852,243.347 z " style="fill-opacity:0.5;fill:rgb(169,169,169);stroke:rgb(169,169,169);stroke-width:2"/></g>
<g fill-rule="evenodd"><path d="M 158.716,181.028 L 32.3359,185.386 L 19.2621,194.102 L 23.62,207.176 L 67.1993,228.966 L 154.358,202.818 L 163.074,189.744 L 158.716,181.028 z " style="fill-opacity:0.5;fill:rgb(169,169,169);stroke:rgb(169,169,169);stroke-width:2"/></g>
<g fill-rule="evenodd"><path d="M 273.765,295.642 L 269.407,169.262 L 260.691,156.188 L 247.618,160.546 L 225.828,204.126 L 251.976,291.284 L 265.049,300 L 273.765,295.642 z " style="fill-opacity:0.5;fill:rgb(169,169,169);stroke:rgb(169,169,169);stroke-width:2"/></g>
<g fill-rule="evenodd"><path d="M 265.049,134.399 L 138.669,138.757 L 125.596,147.472 L 129.954,160.546 L 173.533,182.336 L 260.691,156.188 L 269.407,143.114 L 265.049,134.399 z " style="fill-opacity:0.5;fill:rgb(169,169,169);stroke:rgb(169,169,169);stroke-width:2"/></g>
<g fill-rule="evenodd"><path d="M 60.2266,147.472 L 125.596,147.472 L 125.596,86.4614 L 60.2266,86.4614 L 60.2266,147.472 z " style="fill-opacity:0.5;fill:rgb(169,169,169);stroke:rgb(169,169,169);stroke-width:2"/></g>
<g fill-rule="evenodd"><path d="M 199.68,134.399 L 265.049,134.399 L 265.049,73.3876 L 199.68,73.3876 L 199.68,134.399 z " style="fill-opacity:0.5;fill:rgb(169,169,169);stroke:rgb(169,169,169);stroke-width:2"/></g>
<g fill-rule="evenodd"><path d="M 134.311,134.399 L 199.68,134.399 L 199.68,73.3876 L 134.311,73.3876 L 134.311,134.399 z " style="fill-opacity:0.5;fill:rgb(169,169,169);stroke:rgb(169,169,169);stroke-width:2"/></g>
<g fill-rule="evenodd"><path d="M 119.494,242.04 L 97.7048,228.966 L 19.2621,228.966 L 62.8414,250.755 L 115.137,250.755 L 119.494,242.04 z " style="fill-opacity:0.5;fill:rgb(169,169,169);stroke:rgb(169,169,169);stroke-width:2"/></g>
<g fill-rule="evenodd"><path d="M 51.5107,82.1034 L 38.437,103.893 L 38.437,182.336 L 60.2266,138.757 L 60.2266,86.4614 L 51.5107,82.1034 z " style="fill-opacity:0.5;fill:rgb(169,169,169);stroke:rgb(169,169,169);stroke-width:2"/></g>
<g fill-rule="evenodd"><path d="M 50.6392,157.931 L 72.4288,171.005 L 150.872,171.005 L 107.292,149.216 L 54.9971,149.216 L 50.6392,157.931 z " style="fill-opacity:0.5;fill:rgb(169,169,169);stroke:rgb(169,169,169);stroke-width:2"/></g>
<g fill-rule="evenodd"><path d="M 71.5572,61.011 L 19.2621,52.2952 L 19.2621,69.7269 L 23.62,69.7269 L 23.62,74.0848 L 19.2621,74.0848 L 19.2621,91.5166 L 27.9779,91.5166 L 71.5572,74.0848 L 71.5572,61.011 z " style="fill-opacity:0.5;fill:rgb(169,169,169);stroke:rgb(169,169,169);stroke-width:2"/></g>
<g fill-rule="evenodd"><path d="M 82.0163,79.1981 L 134.311,87.914 L 134.311,70.4823 L 129.954,70.4823 L 129.954,66.1243 L 134.311,66.1243 L 134.311,48.6926 L 125.596,48.6926 L 82.0163,66.1243 L 82.0163,79.1981 z " style="fill-opacity:0.5;fill:rgb(169,169,169);stroke:rgb(169,169,169);stroke-width:2"/></g>
<g fill-rule="evenodd"><path d="M 186.607,42.882 L 134.311,34.1662 L 134.311,51.5979 L 138.669,51.5979 L 138.669,55.9558 L 134.311,55.9558 L 134.311,73.3876 L 143.027,73.3876 L 186.607,55.9558 L 186.607,42.882 z " style="fill-opacity:0.5;fill:rgb(169,169,169);stroke:rgb(169,169,169);stroke-width:2"/></g>
<g fill-rule="evenodd"><path d="M 251.976,69.0296 L 247.618,64.6717 L 221.47,55.9558 L 199.68,34.1662 L 186.607,47.24 L 208.396,69.0296 L 204.038,73.3876 L 247.618,73.3876 L 251.976,69.0296 z " style="fill-opacity:0.5;fill:rgb(169,169,169);stroke:rgb(169,169,169);stroke-width:2"/></g>
<g fill-rule="evenodd"><path d="M 215.369,41.1389 L 219.727,45.4968 L 245.874,54.2127 L 267.664,76.0023 L 280.738,62.9285 L 258.948,41.1389 L 263.306,36.7809 L 219.727,36.7809 L 215.369,41.1389 z " style="fill-opacity:0.5;fill:rgb(169,169,169);stroke:rgb(169,169,169);stroke-width:2"/></g>
<g fill-rule="evenodd"><path d="M 19.2621,26.1476 L 23.62,30.5055 L 49.7676,39.2214 L 71.5572,61.011 L 84.631,47.9372 L 62.8414,26.1476 L 67.1993,21.7897 L 23.62,21.7897 L 19.2621,26.1476 z " style="fill-opacity:0.5;fill:rgb(169,169,169);stroke:rgb(169,169,169);stroke-width:2"/></g>
<g fill-rule="evenodd"><path d="M 123.852,26.1476 L 62.8414,26.1476 L 102.063,54.0383 L 123.852,26.1476 z " style="fill-opacity:0.5;fill:rgb(169,169,169);stroke:rgb(169,169,169);stroke-width:2"/></g>
<g fill-rule="evenodd"><path d="M 202.295,36.7809 L 263.306,36.7809 L 224.085,8.89018 L 202.295,36.7809 z " style="fill-opacity:0.5;fill:rgb(169,169,169);stroke:rgb(169,169,169);stroke-width:2"/></g>
<g fill-rule="evenodd"><path d="M 138.047,34.7887 L 199.058,34.7887 L 159.836,6.89798 L 138.047,34.7887 z " style="fill-opacity:0.5;fill:rgb(169,169,169);stroke:rgb(169,169,169);stroke-width:2"/></g>
<g fill-rule="evenodd"><path d="M 211.011,182.336 L 171.79,182.336 L 180.506,204.126 L 202.295,204.126 L 211.011,182.336 z " style="fill-opacity:0.5;fill:rgb(169,169,169);stroke:rgb(169,169,169);stroke-width:2"/></g>
<g fill-rule="evenodd"><path d="M 99.448,4.35793 L 60.2266,4.35793 L 68.9425,26.1476 L 90.7321,26.1476 L 99.448,4.35793 z " style="fill-opacity:0.5;fill:rgb(169,169,169);stroke:rgb(169,169,169);stroke-width:2"/></g>
<g fill-rule="evenodd"><path d="M 61.9698,-1.249e-15 L 22.7484,-1.249e-15 L 31.4643,21.7897 L 53.2539,21.7897 L 61.9698,-1.249e-15 z " style="fill-opacity:0.5;fill:rgb(169,169,169);stroke:rgb(169,169,169);stroke-width:2"/></g>
<g fill-rule="evenodd"><path d="M 125.596,17.4317 L 125.596,4.35793 L 99.448,-1.249e-15 L 99.448,4.35793 L 103.806,4.35793 L 108.164,8.71586 L 108.164,13.0738 L 103.806,17.4317 L 99.448,17.4317 L 99.448,21.7897 L 125.596,17.4317 z " style="fill-opacity:0.5;fill:rgb(169,169,169);stroke:rgb(169,169,169);stroke-width:2"/></g>
<g fill-rule="evenodd"><path d="M 244.422,273.852 L 231.348,273.852 L 226.99,300 L 231.348,300 L 231.348,295.642 L 235.706,291.284 L 240.064,291.284 L 244.422,295.642 L 244.422,300 L 248.78,300 L 244.422,273.852 z " style="fill-opacity:0.5;fill:rgb(169,169,169);stroke:rgb(169,169,169);stroke-width:2"/></g>
<g fill-rule="evenodd"><path d="M 214.171,201.293 L 227.244,201.293 L 231.602,175.145 L 227.244,175.145 L 227.244,179.503 L 222.886,183.861 L 218.528,183.861 L 214.171,179.503 L 214.171,175.145 L 209.813,175.145 L 214.171,201.293 z " style="fill-opacity:0.5;fill:rgb(169,169,169);stroke:rgb(169,169,169);stroke-width:2"/></g>
<g fill-rule="evenodd"><path d="M 272.022,158.803 L 280.738,154.445 L 280.738,123.94 L 267.664,132.655 L 272.022,158.803 z " style="fill-opacity:0.5;fill:rgb(169,169,169);stroke:rgb(169,169,169);stroke-width:2"/></g>
<g fill-rule="evenodd"><path d="M 272.022,128.298 L 280.738,123.94 L 280.738,93.434 L 267.664,102.15 L 272.022,128.298 z " style="fill-opacity:0.5;fill:rgb(169,169,169);stroke:rgb(169,169,169);stroke-width:2"/></g>
<g fill-rule="evenodd"><path d="M 23.62,124.637 L 32.3359,120.279 L 32.3359,89.7734 L 19.2621,98.4893 L 23.62,124.637 z " style="fill-opacity:0.5;fill:rgb(169,169,169);stroke:rgb(169,169,169);stroke-width:2"/></g>
<rect x="19.2621" y="-1.249e-15" width="261.476" height="300" style="opacity:0.8;fill:none;stroke:rgb(0,0,0);stroke-width:2;stroke-linecap:round"/>
</svg>
