<?xml version="1.0" standalone="no"?>
<!DOCTYPE svg PUBLIC "-//W3C//DTD SVG 1.1//EN"
"http://www.w3.org/Graphics/SVG/1.1/DTD/svg11.dtd">
<svg width="200mm" height="200mm" viewBox="-250 -250 800 800" version="1.1"
xmlns="http://www.w3.org/2000/svg"
xmlns:xlink="http://www.w3.org/1999/xlink">
<g fill-rule="evenodd"><path d="M 211.046,251.993 L 161.261,243.695 L 161.261,260.29 L 165.41,260.29 L 165.41,264.439 L 161.261,264.439 L 161.261,281.034 L 169.559,281.034 L 211.046,264.439 L 211.046,251.993 z " style="fill-opacity:0.5;fill:rgb(169,169,169);stroke:rgb(169,169,169);stroke-width:2"/></g>
<g fill-rule="evenodd"><path d="M 158.298,254.363 L 37.9828,258.512 L 25.5365,266.81 L 29.6853,279.256 L 71.1731,300 L 154.149,275.107 L 162.446,262.661 L 158.298,254.363 z " style="fill-opacity:0.5;fill:rgb(169,169,169);stroke:rgb(169,169,169);stroke-width:2"/></g>
<g fill-rule="evenodd"><path d="M 25.5365,248.927 L 75.3219,257.225 L 75.3219,240.629 L 71.1731,240.629 L 71.1731,236.481 L 75.3219,236.481 L 75.3219,219.886 L 67.0243,219.886 L 25.5365,236.481 L 25.5365,248.927 z " style="fill-opacity:0.5;fill:rgb(169,169,169);stroke:rgb(169,169,169);stroke-width:2"/></g>
<g fill-rule="evenodd"><path d="M 78.2853,246.556 L 198.6,242.408 L 211.046,234.11 L 206.898,221.664 L 165.41,200.92 L 82.4341,225.812 L 74.1365,238.259 L 78.2853,246.556 z " style="fill-opacity:0.5;fill:rgb(169,169,169);stroke:rgb(169,169,169);stroke-width:2"/></g>
<g fill-rule="evenodd"><path d="M 253.72,165.951 L 203.934,157.654 L 203.934,174.249 L 208.083,174.249 L 208.083,178.398 L 203.934,178.398 L 203.934,194.993 L 212.232,194.993 L 253.72,178.398 L 253.72,165.951 z " style="fill-opacity:0.5;fill:rgb(169,169,169);stroke:rgb(169,169,169);stroke-width:2"/></g>
<g fill-rule="evenodd"><path d="M 200.971,168.322 L 80.656,172.471 L 68.2097,180.768 L 72.3585,193.215 L 113.846,213.959 L 196.822,189.066 L 205.12,176.62 L 200.971,168.322 z " style="fill-opacity:0.5;fill:rgb(169,169,169);stroke:rgb(169,169,169);stroke-width:2"/></g>
<g fill-rule="evenodd"><path d="M 96.0658,116.166 L 100.215,120.315 L 125.107,128.612 L 145.851,149.356 L 158.298,136.91 L 137.554,116.166 L 141.702,112.017 L 100.215,112.017 L 96.0658,116.166 z " style="fill-opacity:0.5;fill:rgb(169,169,169);stroke:rgb(169,169,169);stroke-width:2"/></g>
<g fill-rule="evenodd"><path d="M 25.5365,157.654 L 50.4292,165.951 L 100.215,165.951 L 125.107,157.654 L 125.107,128.612 L 100.215,120.315 L 50.4292,120.315 L 25.5365,128.612 L 25.5365,157.654 z " style="fill-opacity:0.5;fill:rgb(169,169,169);stroke:rgb(169,169,169);stroke-width:2"/></g>
<g fill-rule="evenodd"><path d="M 203.934,128.612 L 199.785,124.464 L 174.893,116.166 L 154.149,95.422 L 141.702,107.868 L 162.446,128.612 L 158.298,132.761 L 199.785,132.761 L 203.934,128.612 z " style="fill-opacity:0.5;fill:rgb(169,169,169);stroke:rgb(169,169,169);stroke-width:2"/></g>
<g fill-rule="evenodd"><path d="M 274.464,87.1245 L 249.571,78.8269 L 199.785,78.8269 L 174.893,87.1245 L 174.893,116.166 L 199.785,124.464 L 249.571,124.464 L 274.464,116.166 L 274.464,87.1245 z " style="fill-opacity:0.5;fill:rgb(169,169,169);stroke:rgb(169,169,169);stroke-width:2"/></g>
<g fill-rule="evenodd"><path d="M 104.363,62.2318 L 108.512,66.3805 L 133.405,74.6781 L 154.149,95.422 L 166.595,82.9757 L 145.851,62.2318 L 150,58.083 L 108.512,58.083 L 104.363,62.2318 z " style="fill-opacity:0.5;fill:rgb(169,169,169);stroke:rgb(169,169,169);stroke-width:2"/></g>
<g fill-rule="evenodd"><path d="M 33.834,103.72 L 58.7268,112.017 L 108.512,112.017 L 133.405,103.72 L 133.405,74.6781 L 108.512,66.3805 L 58.7268,66.3805 L 33.834,74.6781 L 33.834,103.72 z " style="fill-opacity:0.5;fill:rgb(169,169,169);stroke:rgb(169,169,169);stroke-width:2"/></g>
<g fill-rule="evenodd"><path d="M 211.046,300 L 273.278,300 L 273.278,241.917 L 211.046,241.917 L 211.046,300 z " style="fill-opacity:0.5;fill:rgb(169,169,169);stroke:rgb(169,169,169);stroke-width:2"/></g>
<g fill-rule="evenodd"><path d="M 162.446,78.8269 L 224.678,78.8269 L 224.678,20.7439 L 162.446,20.7439 L 162.446,78.8269 z " style="fill-opacity:0.5;fill:rgb(169,169,169);stroke:rgb(169,169,169);stroke-width:2"/></g>
<g fill-rule="evenodd"><path d="M 25.5365,66.3805 L 87.7682,66.3805 L 87.7682,8.29757 L 25.5365,8.29757 L 25.5365,66.3805 z " style="fill-opacity:0.5;fill:rgb(169,169,169);stroke:rgb(169,169,169);stroke-width:2"/></g>
<g fill-rule="evenodd"><path d="M 257.225,241.917 L 269.671,221.173 L 269.671,146.495 L 248.927,187.983 L 248.927,237.768 L 257.225,241.917 z " style="fill-opacity:0.5;fill:rgb(169,169,169);stroke:rgb(169,169,169);stroke-width:2"/></g>
<g fill-rule="evenodd"><path d="M 253.72,149.356 L 232.976,136.91 L 158.298,136.91 L 199.785,157.654 L 249.571,157.654 L 253.72,149.356 z " style="fill-opacity:0.5;fill:rgb(169,169,169);stroke:rgb(169,169,169);stroke-width:2"/></g>
<g fill-rule="evenodd"><path d="M 166.595,12.4464 L 145.851,-1.04916e-14 L 71.1731,-1.04916e-14 L 112.661,20.7439 L 162.446,20.7439 L 166.595,12.4464 z " style="fill-opacity:0.5;fill:rgb(169,169,169);stroke:rgb(169,169,169);stroke-width:2"/></g>
<g fill-rule="evenodd"><path d="M 240.129,241.917 L 240.129,183.834 L 213.577,221.173 L 240.129,241.917 z " style="fill-opacity:0.5;fill:rgb(169,169,169);stroke:rgb(169,169,169);stroke-width:2"/></g>
<g fill-rule="evenodd"><path d="M 52.0887,224.034 L 52.0887,165.951 L 25.5365,203.29 L 52.0887,224.034 z " style="fill-opacity:0.5;fill:rgb(169,169,169);stroke:rgb(169,169,169);stroke-width:2"/></g>
<g fill-rule="evenodd"><path d="M 274.464,87.1245 L 274.464,29.0415 L 247.911,66.3805 L 274.464,87.1245 z " style="fill-opacity:0.5;fill:rgb(169,169,169);stroke:rgb(169,169,169);stroke-width:2"/></g>
<g fill-rule="evenodd"><path d="M 245.422,78.8269 L 245.422,41.4878 L 224.678,49.7854 L 224.678,70.5293 L 245.422,78.8269 z " style="fill-opacity:0.5;fill:rgb(169,169,169);stroke:rgb(169,169,169);stroke-width:2"/></g>
<g fill-rule="evenodd"><path d="M 162.446,63.0615 L 162.446,25.7225 L 141.702,34.02 L 141.702,54.7639 L 162.446,63.0615 z " style="fill-opacity:0.5;fill:rgb(169,169,169);stroke:rgb(169,169,169);stroke-width:2"/></g>
<g fill-rule="evenodd"><path d="M 108.512,58.083 L 108.512,20.7439 L 87.7682,29.0415 L 87.7682,49.7854 L 108.512,58.083 z " style="fill-opacity:0.5;fill:rgb(169,169,169);stroke:rgb(169,169,169);stroke-width:2"/></g>
<g fill-rule="evenodd"><path d="M 165.212,295.851 L 165.212,283.405 L 140.32,279.256 L 140.32,283.405 L 144.468,283.405 L 148.617,287.554 L 148.617,291.702 L 144.468,295.851 L 140.32,295.851 L 140.32,300 L 165.212,295.851 z " style="fill-opacity:0.5;fill:rgb(169,169,169);stroke:rgb(169,169,169);stroke-width:2"/></g>
<g fill-rule="evenodd"><path d="M 211.046,295.851 L 211.046,283.405 L 186.154,279.256 L 186.154,283.405 L 190.302,283.405 L 194.451,287.554 L 194.451,291.702 L 190.302,295.851 L 186.154,295.851 L 186.154,300 L 211.046,295.851 z " style="fill-opacity:0.5;fill:rgb(169,169,169);stroke:rgb(169,169,169);stroke-width:2"/></g>
<g fill-rule="evenodd"><path d="M 100.215,220.478 L 100.215,208.032 L 75.3219,203.883 L 75.3219,208.032 L 79.4707,208.032 L 83.6195,212.181 L 83.6195,216.329 L 79.4707,220.478 L 75.3219,220.478 L 75.3219,224.627 L 100.215,220.478 z " style="fill-opacity:0.5;fill:rgb(169,169,169);stroke:rgb(169,169,169);stroke-width:2"/></g>
<g fill-rule="evenodd"><path d="M 59.9121,213.959 L 68.2097,209.81 L 68.2097,180.768 L 55.7633,189.066 L 59.9121,213.959 z " style="fill-opacity:0.5;fill:rgb(169,169,169);stroke:rgb(169,169,169);stroke-width:2"/></g>
<g fill-rule="evenodd"><path d="M 254.375,153.287 L 262.672,149.138 L 262.672,120.096 L 250.226,128.394 L 254.375,153.287 z " style="fill-opacity:0.5;fill:rgb(169,169,169);stroke:rgb(169,169,169);stroke-width:2"/></g>
<g fill-rule="evenodd"><path d="M 248.24,58.3981 L 256.538,54.2493 L 256.538,25.2078 L 244.092,33.5054 L 248.24,58.3981 z " style="fill-opacity:0.5;fill:rgb(169,169,169);stroke:rgb(169,169,169);stroke-width:2"/></g>
<rect x="25.5365" y="-1.04916e-14" width="248.927" height="300" style="opacity:0.8;fill:none;stroke:rgb(0,0,0);stroke-width:2;stroke-linecap:round"/>
</svg>
