<?xml version="1.0" standalone="no"?>
<!DOCTYPE svg PUBLIC "-//W3C//DTD SVG 1.1//EN"
"http://www.w3.org/Graphics/SVG/1.1/DTD/svg11.dtd">
<svg width="200mm" height="200mm" viewBox="-250 -250 800 800" version="1.1"
xmlns="http://www.w3.org/2000/svg"
xmlns:xlink="http://www.w3.org/1999/xlink">
<g fill-rule="evenodd"><path d="M 8.12643,290.542 L 36.5011,300 L 93.2506,300 L 121.625,290.542 L 121.625,257.438 L 93.2506,247.98 L 36.5011,247.98 L 8.12643,257.438 L 8.12643,290.542 z " style="fill-opacity:0.5;fill:rgb(169,169,169);stroke:rgb(169,169,169);stroke-width:2"/></g>
<g fill-rule="evenodd"><path d="M 121.625,290.542 L 150,300 L 206.749,300 L 235.124,290.542 L 235.124,257.438 L 206.749,247.98 L 150,247.98 L 121.625,257.438 L 121.625,290.542 z " style="fill-opacity:0.5;fill:rgb(169,169,169);stroke:rgb(169,169,169);stroke-width:2"/></g>
<g fill-rule="evenodd"><path d="M 8.12643,238.521 L 36.5011,247.98 L 93.2506,247.98 L 121.625,238.521 L 121.625,205.418 L 93.2506,195.959 L 36.5011,195.959 L 8.12643,205.418 L 8.12643,238.521 z " style="fill-opacity:0.5;fill:rgb(169,169,169);stroke:rgb(169,169,169);stroke-width:2"/></g>
<g fill-rule="evenodd"><path d="M 125.798,248.814 L 262.942,244.085 L 277.13,234.627 L 272.401,220.44 L 225.11,196.794 L 130.527,225.169 L 121.069,239.356 L 125.798,248.814 z " style="fill-opacity:0.5;fill:rgb(169,169,169);stroke:rgb(169,169,169);stroke-width:2"/></g>
<g fill-rule="evenodd"><path d="M 248.964,167.411 L 111.819,172.14 L 97.632,181.598 L 102.361,195.786 L 149.652,219.431 L 244.235,191.056 L 253.693,176.869 L 248.964,167.411 z " style="fill-opacity:0.5;fill:rgb(169,169,169);stroke:rgb(169,169,169);stroke-width:2"/></g>
<g fill-rule="evenodd"><path d="M 159.458,135.621 L 22.3138,140.351 L 8.12643,149.809 L 12.8556,163.996 L 60.1467,187.642 L 154.729,159.267 L 164.187,145.08 L 159.458,135.621 z " style="fill-opacity:0.5;fill:rgb(169,169,169);stroke:rgb(169,169,169);stroke-width:2"/></g>
<g fill-rule="evenodd"><path d="M 178.027,167.411 L 248.964,167.411 L 248.964,101.203 L 178.027,101.203 L 178.027,167.411 z " style="fill-opacity:0.5;fill:rgb(169,169,169);stroke:rgb(169,169,169);stroke-width:2"/></g>
<g fill-rule="evenodd"><path d="M 8.12643,138.394 L 79.0632,138.394 L 79.0632,72.186 L 8.12643,72.186 L 8.12643,138.394 z " style="fill-opacity:0.5;fill:rgb(169,169,169);stroke:rgb(169,169,169);stroke-width:2"/></g>
<g fill-rule="evenodd"><path d="M 88.5215,135.621 L 159.458,135.621 L 159.458,69.4137 L 88.5215,69.4137 L 88.5215,135.621 z " style="fill-opacity:0.5;fill:rgb(169,169,169);stroke:rgb(169,169,169);stroke-width:2"/></g>
<g fill-rule="evenodd"><path d="M 268.228,91.7449 L 244.582,77.5575 L 159.458,77.5575 L 206.749,101.203 L 263.499,101.203 L 268.228,91.7449 z " style="fill-opacity:0.5;fill:rgb(169,169,169);stroke:rgb(169,169,169);stroke-width:2"/></g>
<g fill-rule="evenodd"><path d="M 277.686,223.082 L 291.874,199.437 L 291.874,114.313 L 268.228,161.604 L 268.228,218.353 L 277.686,223.082 z " style="fill-opacity:0.5;fill:rgb(169,169,169);stroke:rgb(169,169,169);stroke-width:2"/></g>
<g fill-rule="evenodd"><path d="M 237.224,68.0993 L 213.579,53.912 L 128.455,53.912 L 175.746,77.5575 L 232.495,77.5575 L 237.224,68.0993 z " style="fill-opacity:0.5;fill:rgb(169,169,169);stroke:rgb(169,169,169);stroke-width:2"/></g>
<g fill-rule="evenodd"><path d="M 235.124,290.542 L 291.874,300 L 291.874,281.084 L 287.144,281.084 L 287.144,276.354 L 291.874,276.354 L 291.874,257.438 L 282.415,257.438 L 235.124,276.354 L 235.124,290.542 z " style="fill-opacity:0.5;fill:rgb(169,169,169);stroke:rgb(169,169,169);stroke-width:2"/></g>
<g fill-rule="evenodd"><path d="M 282.415,91.7449 L 291.874,34.9955 L 272.957,34.9955 L 272.957,39.7246 L 268.228,39.7246 L 268.228,34.9955 L 249.311,34.9955 L 249.311,44.4537 L 268.228,91.7449 L 282.415,91.7449 z " style="fill-opacity:0.5;fill:rgb(169,169,169);stroke:rgb(169,169,169);stroke-width:2"/></g>
<g fill-rule="evenodd"><path d="M 31.772,64.3041 L 88.5215,73.7623 L 88.5215,54.8459 L 83.7923,54.8459 L 83.7923,50.1167 L 88.5215,50.1167 L 88.5215,31.2003 L 79.0632,31.2003 L 31.772,50.1167 L 31.772,64.3041 z " style="fill-opacity:0.5;fill:rgb(169,169,169);stroke:rgb(169,169,169);stroke-width:2"/></g>
<g fill-rule="evenodd"><path d="M 254.041,171.062 L 258.77,166.333 L 268.228,137.958 L 291.874,114.313 L 277.686,100.125 L 254.041,123.771 L 249.311,119.042 L 249.311,166.333 L 254.041,171.062 z " style="fill-opacity:0.5;fill:rgb(169,169,169);stroke:rgb(169,169,169);stroke-width:2"/></g>
<g fill-rule="evenodd"><path d="M 183.28,33.0714 L 188.009,37.8005 L 216.384,47.2587 L 240.029,70.9043 L 254.217,56.717 L 230.571,33.0714 L 235.3,28.3423 L 188.009,28.3423 L 183.28,33.0714 z " style="fill-opacity:0.5;fill:rgb(169,169,169);stroke:rgb(169,169,169);stroke-width:2"/></g>
<g fill-rule="evenodd"><path d="M 66.9329,20.8513 L 71.662,25.5805 L 100.037,35.0387 L 123.682,58.6843 L 137.87,44.4969 L 114.224,20.8513 L 118.953,16.1222 L 71.662,16.1222 L 66.9329,20.8513 z " style="fill-opacity:0.5;fill:rgb(169,169,169);stroke:rgb(169,169,169);stroke-width:2"/></g>
<g fill-rule="evenodd"><path d="M 183.226,23.6456 L 117.018,23.6456 L 159.58,53.912 L 183.226,23.6456 z " style="fill-opacity:0.5;fill:rgb(169,169,169);stroke:rgb(169,169,169);stroke-width:2"/></g>
<g fill-rule="evenodd"><path d="M 271.295,6.85716 L 205.087,6.85716 L 247.649,37.1235 L 271.295,6.85716 z " style="fill-opacity:0.5;fill:rgb(169,169,169);stroke:rgb(169,169,169);stroke-width:2"/></g>
<g fill-rule="evenodd"><path d="M 8.12643,5.97831 L 8.12643,72.186 L 38.3928,29.6239 L 8.12643,5.97831 z " style="fill-opacity:0.5;fill:rgb(169,169,169);stroke:rgb(169,169,169);stroke-width:2"/></g>
<g fill-rule="evenodd"><path d="M 71.4966,5.97831 L 28.9346,5.97831 L 38.3928,29.6239 L 62.0384,29.6239 L 71.4966,5.97831 z " style="fill-opacity:0.5;fill:rgb(169,169,169);stroke:rgb(169,169,169);stroke-width:2"/></g>
<g fill-rule="evenodd"><path d="M 155.066,1.32394e-14 L 112.504,1.32394e-14 L 121.963,23.6456 L 145.608,23.6456 L 155.066,1.32394e-14 z " style="fill-opacity:0.5;fill:rgb(169,169,169);stroke:rgb(169,169,169);stroke-width:2"/></g>
<g fill-rule="evenodd"><path d="M 197.628,1.32394e-14 L 155.066,1.32394e-14 L 164.525,23.6456 L 188.17,23.6456 L 197.628,1.32394e-14 z " style="fill-opacity:0.5;fill:rgb(169,169,169);stroke:rgb(169,169,169);stroke-width:2"/></g>
<g fill-rule="evenodd"><path d="M 263.499,265.005 L 263.499,250.817 L 235.124,246.088 L 235.124,250.817 L 239.853,250.817 L 244.582,255.546 L 244.582,260.275 L 239.853,265.005 L 235.124,265.005 L 235.124,269.734 L 263.499,265.005 z " style="fill-opacity:0.5;fill:rgb(169,169,169);stroke:rgb(169,169,169);stroke-width:2"/></g>
<g fill-rule="evenodd"><path d="M 36.5011,195.959 L 36.5011,181.772 L 8.12643,177.043 L 8.12643,181.772 L 12.8556,181.772 L 17.5847,186.501 L 17.5847,191.23 L 12.8556,195.959 L 8.12643,195.959 L 8.12643,200.689 L 36.5011,195.959 z " style="fill-opacity:0.5;fill:rgb(169,169,169);stroke:rgb(169,169,169);stroke-width:2"/></g>
<g fill-rule="evenodd"><path d="M 111.819,172.14 L 111.819,157.953 L 83.4446,153.223 L 83.4446,157.953 L 88.1737,157.953 L 92.9028,162.682 L 92.9028,167.411 L 88.1737,172.14 L 83.4446,172.14 L 83.4446,176.869 L 111.819,172.14 z " style="fill-opacity:0.5;fill:rgb(169,169,169);stroke:rgb(169,169,169);stroke-width:2"/></g>
<g fill-rule="evenodd"><path d="M 281.024,257.994 L 290.483,253.265 L 290.483,220.161 L 276.295,229.62 L 281.024,257.994 z " style="fill-opacity:0.5;fill:rgb(169,169,169);stroke:rgb(169,169,169);stroke-width:2"/></g>
<g fill-rule="evenodd"><path d="M 254.319,211.399 L 263.777,206.669 L 263.777,173.566 L 249.59,183.024 L 254.319,211.399 z " style="fill-opacity:0.5;fill:rgb(169,169,169);stroke:rgb(169,169,169);stroke-width:2"/></g>
<g fill-rule="evenodd"><path d="M 164.187,145.08 L 173.646,140.351 L 173.646,107.247 L 159.458,116.705 L 164.187,145.08 z " style="fill-opacity:0.5;fill:rgb(169,169,169);stroke:rgb(169,169,169);stroke-width:2"/></g>
<rect x="8.12643" y="1.32394e-14" width="283.747" height="300" style="opacity:0.8;fill:none;stroke:rgb(0,0,0);stroke-width:2;stroke-linecap:round"/>
</svg>
