<?xml version="1.0" standalone="no"?>
<!DOCTYPE svg PUBLIC "-//W3C//DTD SVG 1.1//EN"
"http://www.w3.org/Graphics/SVG/1.1/DTD/svg11.dtd">
<svg width="200mm" height="200mm" viewBox="-250 -250 800 800" version="1.1"
xmlns="http://www.w3.org/2000/svg"
xmlns:xlink="http://www.w3.org/1999/xlink">
<g fill-rule="evenodd"><path d="M 97.5,163.929 L 22.5,171.429 L 0,186.429 L 7.5,201.429 L 60,216.429 L 90,201.429 L 97.5,163.929 z " style="fill-opacity:0.5;fill:rgb(169,169,169);stroke:rgb(169,169,169);stroke-width:2"/></g>
<g fill-rule="evenodd"><path d="M 117,216.429 L 177,216.429 L 177,193.929 L 117,163.929 L 94.5,178.929 L 117,216.429 z " style="fill-opacity:0.5;fill:rgb(169,169,169);stroke:rgb(169,169,169);stroke-width:2"/></g>
<g fill-rule="evenodd"><path d="M 229.5,201.429 L 252,171.429 L 199.5,163.929 L 177,216.429 L 229.5,201.429 z " style="fill-opacity:0.5;fill:rgb(169,169,169);stroke:rgb(169,169,169);stroke-width:2"/></g>
<g fill-rule="evenodd"><path d="M 232.714,216.429 L 277.714,216.429 L 292.714,201.429 L 255.214,163.929 L 232.714,216.429 z " style="fill-opacity:0.5;fill:rgb(169,169,169);stroke:rgb(169,169,169);stroke-width:2"/></g>
<g fill-rule="evenodd"><path d="M 169.5,141.429 L 184.5,171.429 L 177,193.929 L 192,178.929 L 207,148.929 L 222,163.929 L 229.5,126.429 L 169.5,141.429 z " style="fill-opacity:0.5;fill:rgb(169,169,169);stroke:rgb(169,169,169);stroke-width:2"/></g>
<g fill-rule="evenodd"><path d="M 52.5,128.571 L 0,128.571 L 30,151.071 L 7.5,173.571 L 60,166.071 L 52.5,128.571 z " style="fill-opacity:0.5;fill:rgb(169,169,169);stroke:rgb(169,169,169);stroke-width:2"/></g>
<g fill-rule="evenodd"><path d="M 129.286,137.5 L 54.2857,137.5 L 61.7857,167.5 L 99.2857,152.5 L 114.286,160 L 129.286,137.5 z " style="fill-opacity:0.5;fill:rgb(169,169,169);stroke:rgb(169,169,169);stroke-width:2"/></g>
<g fill-rule="evenodd"><path d="M 287.556,118.651 L 235.056,118.651 L 250.056,171.151 L 287.556,118.651 z " style="fill-opacity:0.5;fill:rgb(169,169,169);stroke:rgb(169,169,169);stroke-width:2"/></g>
<g fill-rule="evenodd"><path d="M 129.286,137.5 L 204.286,122.5 L 189.286,100 L 159.286,107.5 L 129.286,137.5 z " style="fill-opacity:0.5;fill:rgb(169,169,169);stroke:rgb(169,169,169);stroke-width:2"/></g>
<g fill-rule="evenodd"><path d="M 285,122.229 L 262.5,159.729 L 277.5,174.729 L 292.5,182.229 L 300,137.229 L 285,122.229 z " style="fill-opacity:0.5;fill:rgb(169,169,169);stroke:rgb(169,169,169);stroke-width:2"/></g>
<g fill-rule="evenodd"><path d="M 159.898,185.378 L 167.398,162.878 L 152.398,132.878 L 129.898,155.378 L 144.898,177.878 L 159.898,185.378 z " style="fill-opacity:0.5;fill:rgb(169,169,169);stroke:rgb(169,169,169);stroke-width:2"/></g>
<g fill-rule="evenodd"><path d="M 52.5,98.5714 L -3.25261e-18,83.5714 L 22.5,128.571 L 52.5,98.5714 z " style="fill-opacity:0.5;fill:rgb(169,169,169);stroke:rgb(169,169,169);stroke-width:2"/></g>
<g fill-rule="evenodd"><path d="M 97.5,121.071 L 45,106.071 L 30,121.071 L 52.5,128.571 L 67.5,136.071 L 97.5,121.071 z " style="fill-opacity:0.5;fill:rgb(169,169,169);stroke:rgb(169,169,169);stroke-width:2"/></g>
<g fill-rule="evenodd"><path d="M 300,131.095 L 277.5,86.0952 L 232.5,86.0952 L 270,101.095 L 300,131.095 z " style="fill-opacity:0.5;fill:rgb(169,169,169);stroke:rgb(169,169,169);stroke-width:2"/></g>
<g fill-rule="evenodd"><path d="M 211.786,122.5 L 226.786,85 L 196.786,92.5 L 204.286,122.5 L 211.786,122.5 z " style="fill-opacity:0.5;fill:rgb(169,169,169);stroke:rgb(169,169,169);stroke-width:2"/></g>
<rect x="-3.25261e-18" y="83.5714" width="300" height="132.857" style="opacity:0.8;fill:none;stroke:rgb(0,0,0);stroke-width:2;stroke-linecap:round"/>
</svg>
