<?xml version="1.0" standalone="no"?>
<!DOCTYPE svg PUBLIC "-//W3C//DTD SVG 1.1//EN"
"http://www.w3.org/Graphics/SVG/1.1/DTD/svg11.dtd">
<svg width="100%" height="100%" version="1.1"
xmlns="http://www.w3.org/2000/svg"
xmlns:xlink="http://www.w3.org/1999/xlink">
<g fill-rule="evenodd"><path d="M 242.138,377.096 L 189.465,313.889 L 108.7,320.912 L 24.4233,331.446 L 41.981,363.05 L 122.746,500 L 242.138,377.096 z " style="fill-opacity:0.5;fill:rgb(169,169,169);stroke:rgb(169,169,169);stroke-width:1"/></g>
<g fill-rule="evenodd"><path d="M 375.577,500 L 294.811,363.05 L 284.277,429.769 L 143.815,500 L 375.577,500 z " style="fill-opacity:0.5;fill:rgb(169,169,169);stroke:rgb(169,169,169);stroke-width:1"/></g>
<g fill-rule="evenodd"><path d="M 245.65,268.239 L 231.604,356.027 L 294.811,363.05 L 368.554,370.073 L 361.531,345.492 L 329.927,257.704 L 245.65,268.239 z " style="fill-opacity:0.5;fill:rgb(169,169,169);stroke:rgb(169,169,169);stroke-width:1"/></g>
<g fill-rule="evenodd"><path d="M 235.239,333.308 L 235.239,220.939 L 91.266,220.939 L 119.358,284.146 L 235.239,333.308 z " style="fill-opacity:0.5;fill:rgb(169,169,169);stroke:rgb(169,169,169);stroke-width:1"/></g>
<g fill-rule="evenodd"><path d="M 291.3,262.532 L 375.577,122.071 L 221.069,122.071 L 291.3,262.532 z " style="fill-opacity:0.5;fill:rgb(169,169,169);stroke:rgb(169,169,169);stroke-width:1"/></g>
<g fill-rule="evenodd"><path d="M 221.069,220.939 L 94.654,126.127 L 24.4233,220.939 L 221.069,220.939 z " style="fill-opacity:0.5;fill:rgb(169,169,169);stroke:rgb(169,169,169);stroke-width:1"/></g>
<g fill-rule="evenodd"><path d="M 149.005,74.7111 L 96.3318,127.384 L 212.212,176.547 L 215.724,155.478 L 229.77,67.688 L 149.005,74.7111 z " style="fill-opacity:0.5;fill:rgb(169,169,169);stroke:rgb(169,169,169);stroke-width:1"/></g>
<g fill-rule="evenodd"><path d="M 365.042,122.071 L 375.577,55.352 L 358.019,23.7482 L 305.346,27.2597 L 224.581,37.7943 L 365.042,122.071 z " style="fill-opacity:0.5;fill:rgb(169,169,169);stroke:rgb(169,169,169);stroke-width:1"/></g>
<g fill-rule="evenodd"><path d="M 24.4233,75.5187 L 24.4233,198.423 L 143.815,75.5187 L 24.4233,75.5187 z " style="fill-opacity:0.5;fill:rgb(169,169,169);stroke:rgb(169,169,169);stroke-width:1"/></g>
<g fill-rule="evenodd"><path d="M 34.9579,80.7653 L 126.258,101.834 L 150.839,94.8114 L 24.4233,5.7454e-15 L 34.9579,80.7653 z " style="fill-opacity:0.5;fill:rgb(169,169,169);stroke:rgb(169,169,169);stroke-width:1"/></g>
<g fill-rule="evenodd"><path d="M 150.839,70.2307 L 263.208,6.91114e-15 L 133.281,6.91114e-15 L 150.839,70.2307 z " style="fill-opacity:0.5;fill:rgb(169,169,169);stroke:rgb(169,169,169);stroke-width:1"/></g>
<g fill-rule="evenodd"><path d="M 375.577,312.484 L 375.577,196.603 L 322.904,249.276 L 375.577,312.484 z " style="fill-opacity:0.5;fill:rgb(169,169,169);stroke:rgb(169,169,169);stroke-width:1"/></g>
<g fill-rule="evenodd"><path d="M 87.6309,500 L 91.1424,478.931 L 63.0502,415.723 L 24.4233,492.977 L 87.6309,500 z " style="fill-opacity:0.5;fill:rgb(169,169,169);stroke:rgb(169,169,169);stroke-width:1"/></g>
<g fill-rule="evenodd"><path d="M 372.065,401.677 L 294.811,363.05 L 365.042,475.419 L 372.065,401.677 z " style="fill-opacity:0.5;fill:rgb(169,169,169);stroke:rgb(169,169,169);stroke-width:1"/></g>
<g fill-rule="evenodd"><path d="M 119.235,319.996 L 101.677,249.765 L 24.4233,249.765 L 119.235,319.996 z " style="fill-opacity:0.5;fill:rgb(169,169,169);stroke:rgb(169,169,169);stroke-width:1"/></g>
<g fill-rule="evenodd"><path d="M 372.065,7.21645e-15 L 284.277,31.6038 L 375.577,52.673 L 372.065,7.21645e-15 z " style="fill-opacity:0.5;fill:rgb(169,169,169);stroke:rgb(169,169,169);stroke-width:1"/></g>
<rect x="24.4233" y="5.7454e-15" width="351.153" height="500" style="opacity:0.8;fill:none;stroke:rgb(0,0,0);stroke-width:1;stroke-linecap:round"/>
</svg>
