<?xml version="1.0" standalone="no"?>
<!DOCTYPE svg PUBLIC "-//W3C//DTD SVG 1.1//EN"
"http://www.w3.org/Graphics/SVG/1.1/DTD/svg11.dtd">
<svg width="100%" height="100%" version="1.1"
xmlns="http://www.w3.org/2000/svg"
xmlns:xlink="http://www.w3.org/1999/xlink">
<g fill-rule="evenodd"><path d="M 240.031,383.241 L 189.992,323.194 L 113.265,329.866 L 33.2021,339.874 L 49.8819,369.898 L 126.609,500 L 240.031,383.241 z " style="fill-opacity:0.5;fill:rgb(169,169,169);stroke:rgb(169,169,169);stroke-width:1"/></g>
<g fill-rule="evenodd"><path d="M 366.798,500 L 290.071,369.898 L 280.063,433.281 L 146.625,500 L 366.798,500 z " style="fill-opacity:0.5;fill:rgb(169,169,169);stroke:rgb(169,169,169);stroke-width:1"/></g>
<g fill-rule="evenodd"><path d="M 243.367,279.827 L 230.024,363.226 L 290.071,369.898 L 360.126,376.57 L 353.454,353.218 L 323.43,269.819 L 243.367,279.827 z " style="fill-opacity:0.5;fill:rgb(169,169,169);stroke:rgb(169,169,169);stroke-width:1"/></g>
<g fill-rule="evenodd"><path d="M 233.477,341.642 L 233.477,234.892 L 96.7027,234.892 L 123.39,294.939 L 233.477,341.642 z " style="fill-opacity:0.5;fill:rgb(169,169,169);stroke:rgb(169,169,169);stroke-width:1"/></g>
<g fill-rule="evenodd"><path d="M 286.735,274.406 L 366.798,140.968 L 220.016,140.968 L 286.735,274.406 z " style="fill-opacity:0.5;fill:rgb(169,169,169);stroke:rgb(169,169,169);stroke-width:1"/></g>
<g fill-rule="evenodd"><path d="M 220.016,234.892 L 99.9213,144.821 L 33.2021,234.892 L 220.016,234.892 z " style="fill-opacity:0.5;fill:rgb(169,169,169);stroke:rgb(169,169,169);stroke-width:1"/></g>
<g fill-rule="evenodd"><path d="M 151.555,95.9755 L 101.515,146.015 L 211.602,192.72 L 214.938,172.704 L 228.282,89.3036 L 151.555,95.9755 z " style="fill-opacity:0.5;fill:rgb(169,169,169);stroke:rgb(169,169,169);stroke-width:1"/></g>
<g fill-rule="evenodd"><path d="M 356.79,140.968 L 366.798,77.5844 L 350.118,47.5607 L 300.079,50.8967 L 223.352,60.9046 L 356.79,140.968 z " style="fill-opacity:0.5;fill:rgb(169,169,169);stroke:rgb(169,169,169);stroke-width:1"/></g>
<g fill-rule="evenodd"><path d="M 33.2021,96.7428 L 33.2021,213.502 L 146.625,96.7428 L 33.2021,96.7428 z " style="fill-opacity:0.5;fill:rgb(169,169,169);stroke:rgb(169,169,169);stroke-width:1"/></g>
<g fill-rule="evenodd"><path d="M 43.21,76.727 L 129.945,96.7428 L 153.297,90.0709 L 33.2021,1.13243e-14 L 43.21,76.727 z " style="fill-opacity:0.5;fill:rgb(169,169,169);stroke:rgb(169,169,169);stroke-width:1"/></g>
<g fill-rule="evenodd"><path d="M 153.297,90.0709 L 260.047,23.3517 L 136.617,23.3517 L 153.297,90.0709 z " style="fill-opacity:0.5;fill:rgb(169,169,169);stroke:rgb(169,169,169);stroke-width:1"/></g>
<g fill-rule="evenodd"><path d="M 366.798,321.86 L 366.798,211.773 L 316.759,261.813 L 366.798,321.86 z " style="fill-opacity:0.5;fill:rgb(169,169,169);stroke:rgb(169,169,169);stroke-width:1"/></g>
<g fill-rule="evenodd"><path d="M 93.2494,500 L 96.5853,479.984 L 69.8977,419.937 L 33.2021,493.328 L 93.2494,500 z " style="fill-opacity:0.5;fill:rgb(169,169,169);stroke:rgb(169,169,169);stroke-width:1"/></g>
<g fill-rule="evenodd"><path d="M 363.462,406.593 L 290.071,369.898 L 356.79,476.648 L 363.462,406.593 z " style="fill-opacity:0.5;fill:rgb(169,169,169);stroke:rgb(169,169,169);stroke-width:1"/></g>
<g fill-rule="evenodd"><path d="M 123.273,328.996 L 106.593,262.277 L 33.2021,262.277 L 123.273,328.996 z " style="fill-opacity:0.5;fill:rgb(169,169,169);stroke:rgb(169,169,169);stroke-width:1"/></g>
<g fill-rule="evenodd"><path d="M 363.462,1.37108 L 280.063,31.3947 L 366.798,51.4104 L 363.462,1.37108 z " style="fill-opacity:0.5;fill:rgb(169,169,169);stroke:rgb(169,169,169);stroke-width:1"/></g>
<rect x="33.2021" y="1.13243e-14" width="333.596" height="500" style="opacity:0.8;fill:none;stroke:rgb(0,0,0);stroke-width:1;stroke-linecap:round"/>
</svg>
