<?xml version="1.0" standalone="no"?>
<!DOCTYPE svg PUBLIC "-//W3C//DTD SVG 1.1//EN"
"http://www.w3.org/Graphics/SVG/1.1/DTD/svg11.dtd">
<svg width="100%" height="100%" version="1.1"
xmlns="http://www.w3.org/2000/svg"
xmlns:xlink="http://www.w3.org/1999/xlink">
<g fill-rule="evenodd"><path d="M 0,425.955 L 60,497.955 L 152,489.955 L 248,477.955 L 228,441.955 L 136,285.955 L 0,425.955 z " style="fill-opacity:0.5;fill:rgb(169,169,169);stroke:rgb(169,169,169);stroke-width:1"/></g>
<g fill-rule="evenodd"><path d="M 136,285.955 L 228,441.955 L 240,365.955 L 400,285.955 L 136,285.955 z " style="fill-opacity:0.5;fill:rgb(169,169,169);stroke:rgb(169,169,169);stroke-width:1"/></g>
<g fill-rule="evenodd"><path d="M 380,485.955 L 396,385.955 L 324,377.955 L 240,369.955 L 248,397.955 L 284,497.955 L 380,485.955 z " style="fill-opacity:0.5;fill:rgb(169,169,169);stroke:rgb(169,169,169);stroke-width:1"/></g>
<g fill-rule="evenodd"><path d="M 129.407,215.123 L 1.4065,215.123 L 1.4065,379.123 L 73.4065,347.123 L 129.407,215.123 z " style="fill-opacity:0.5;fill:rgb(169,169,169);stroke:rgb(169,169,169);stroke-width:1"/></g>
<g fill-rule="evenodd"><path d="M 180.145,280.397 L 243.851,105.019 L 71.0849,138.602 L 180.145,280.397 z " style="fill-opacity:0.5;fill:rgb(169,169,169);stroke:rgb(169,169,169);stroke-width:1"/></g>
<g fill-rule="evenodd"><path d="M 397.097,284.746 L 253.097,176.746 L 173.097,284.746 L 397.097,284.746 z " style="fill-opacity:0.5;fill:rgb(169,169,169);stroke:rgb(169,169,169);stroke-width:1"/></g>
<g fill-rule="evenodd"><path d="M 302.027,210.851 L 386.673,204.931 L 323.79,76.0679 L 305.026,91.5569 L 227.345,156.531 L 302.027,210.851 z " style="fill-opacity:0.5;fill:rgb(169,169,169);stroke:rgb(169,169,169);stroke-width:1"/></g>
<g fill-rule="evenodd"><path d="M 114.884,64.4105 L 40.5543,44.532 L 2.66088,60.6587 L 0.367267,120.748 L 2.68491,213.499 L 114.884,64.4105 z " style="fill-opacity:0.5;fill:rgb(169,169,169);stroke:rgb(169,169,169);stroke-width:1"/></g>
<g fill-rule="evenodd"><path d="M 244.174,4.67987 L 244.174,144.678 L 380.174,4.67987 L 244.174,4.67987 z " style="fill-opacity:0.5;fill:rgb(169,169,169);stroke:rgb(169,169,169);stroke-width:1"/></g>
<g fill-rule="evenodd"><path d="M 144.748,4.52195 L 38.08,8.25561 L 13.1045,23.2293 L 180.151,90.2799 L 144.748,4.52195 z " style="fill-opacity:0.5;fill:rgb(169,169,169);stroke:rgb(169,169,169);stroke-width:1"/></g>
<g fill-rule="evenodd"><path d="M 319.559,63.5537 L 399.559,191.553 L 399.559,43.5537 L 319.559,63.5537 z " style="fill-opacity:0.5;fill:rgb(169,169,169);stroke:rgb(169,169,169);stroke-width:1"/></g>
<g fill-rule="evenodd"><path d="M 0.00271734,213.613 L 132.003,213.613 L 72.0026,153.613 L 0.00271734,213.613 z " style="fill-opacity:0.5;fill:rgb(169,169,169);stroke:rgb(169,169,169);stroke-width:1"/></g>
<g fill-rule="evenodd"><path d="M 389.919,311.117 L 365.919,307.117 L 293.919,339.117 L 381.919,383.117 L 389.919,311.117 z " style="fill-opacity:0.5;fill:rgb(169,169,169);stroke:rgb(169,169,169);stroke-width:1"/></g>
<g fill-rule="evenodd"><path d="M 134.15,73.153 L 60.3889,138.262 L 209.036,112.038 L 134.15,73.153 z " style="fill-opacity:0.5;fill:rgb(169,169,169);stroke:rgb(169,169,169);stroke-width:1"/></g>
<g fill-rule="evenodd"><path d="M 242.844,91.1535 L 229.893,9.71485 L 142.228,2.04515 L 242.844,91.1535 z " style="fill-opacity:0.5;fill:rgb(169,169,169);stroke:rgb(169,169,169);stroke-width:1"/></g>
<g fill-rule="evenodd"><path d="M 131.097,226.422 L 80.8716,320.088 L 174.218,268.334 L 131.097,226.422 z " style="fill-opacity:0.5;fill:rgb(169,169,169);stroke:rgb(169,169,169);stroke-width:1"/></g>
<rect x="0" y="2.04515" width="400" height="495.91" style="opacity:0.8;fill:none;stroke:rgb(0,0,0);stroke-width:1;stroke-linecap:round"/>
</svg>
