<?xml version="1.0" standalone="no"?>
<!DOCTYPE svg PUBLIC "-//W3C//DTD SVG 1.1//EN"
"http://www.w3.org/Graphics/SVG/1.1/DTD/svg11.dtd">
<svg width="100%" height="100%" version="1.1"
xmlns="http://www.w3.org/2000/svg"
xmlns:xlink="http://www.w3.org/1999/xlink">
<g fill-rule="evenodd"><path d="M 0,425.955 L 60,497.955 L 152,489.955 L 248,477.955 L 228,441.955 L 136,285.955 L 0,425.955 z " style="fill-opacity:0.5;fill:rgb(169,169,169);stroke:rgb(169,169,169);stroke-width:1"/></g>
<g fill-rule="evenodd"><path d="M 136,285.955 L 228,441.955 L 240,365.955 L 400,285.955 L 136,285.955 z " style="fill-opacity:0.5;fill:rgb(169,169,169);stroke:rgb(169,169,169);stroke-width:1"/></g>
<g fill-rule="evenodd"><path d="M 380,485.955 L 396,385.955 L 324,377.955 L 240,369.955 L 248,397.955 L 284,497.955 L 380,485.955 z " style="fill-opacity:0.5;fill:rgb(169,169,169);stroke:rgb(169,169,169);stroke-width:1"/></g>
<g fill-rule="evenodd"><path d="M 128.466,219.028 L 0.465568,219.028 L 0.465568,383.028 L 72.4656,351.028 L 128.466,219.028 z " style="fill-opacity:0.5;fill:rgb(169,169,169);stroke:rgb(169,169,169);stroke-width:1"/></g>
<g fill-rule="evenodd"><path d="M 179.829,280.99 L 243.536,105.612 L 70.7692,139.194 L 179.829,280.99 z " style="fill-opacity:0.5;fill:rgb(169,169,169);stroke:rgb(169,169,169);stroke-width:1"/></g>
<g fill-rule="evenodd"><path d="M 390.655,285.979 L 246.655,177.979 L 166.655,285.979 L 390.655,285.979 z " style="fill-opacity:0.5;fill:rgb(169,169,169);stroke:rgb(169,169,169);stroke-width:1"/></g>
<g fill-rule="evenodd"><path d="M 301.697,217.536 L 386.343,211.617 L 323.461,82.7535 L 304.697,98.2425 L 227.016,163.216 L 301.697,217.536 z " style="fill-opacity:0.5;fill:rgb(169,169,169);stroke:rgb(169,169,169);stroke-width:1"/></g>
<g fill-rule="evenodd"><path d="M 114.884,64.4105 L 40.5543,44.532 L 2.66088,60.6587 L 0.367267,120.748 L 2.68491,213.499 L 114.884,64.4105 z " style="fill-opacity:0.5;fill:rgb(169,169,169);stroke:rgb(169,169,169);stroke-width:1"/></g>
<g fill-rule="evenodd"><path d="M 244.499,6.70645 L 244.499,146.705 L 380.499,6.70645 L 244.499,6.70645 z " style="fill-opacity:0.5;fill:rgb(169,169,169);stroke:rgb(169,169,169);stroke-width:1"/></g>
<g fill-rule="evenodd"><path d="M 144.748,4.52195 L 38.08,8.25561 L 13.1045,23.2293 L 180.151,90.2799 L 144.748,4.52195 z " style="fill-opacity:0.5;fill:rgb(169,169,169);stroke:rgb(169,169,169);stroke-width:1"/></g>
<g fill-rule="evenodd"><path d="M 318.877,73.2392 L 398.877,201.238 L 398.877,53.2392 L 318.877,73.2392 z " style="fill-opacity:0.5;fill:rgb(169,169,169);stroke:rgb(169,169,169);stroke-width:1"/></g>
<g fill-rule="evenodd"><path d="M 0.00271734,213.613 L 132.003,213.613 L 72.0026,153.613 L 0.00271734,213.613 z " style="fill-opacity:0.5;fill:rgb(169,169,169);stroke:rgb(169,169,169);stroke-width:1"/></g>
<g fill-rule="evenodd"><path d="M 389.919,311.117 L 365.919,307.117 L 293.919,339.117 L 381.919,383.117 L 389.919,311.117 z " style="fill-opacity:0.5;fill:rgb(169,169,169);stroke:rgb(169,169,169);stroke-width:1"/></g>
<g fill-rule="evenodd"><path d="M 134.15,73.153 L 60.3889,138.262 L 209.036,112.038 L 134.15,73.153 z " style="fill-opacity:0.5;fill:rgb(169,169,169);stroke:rgb(169,169,169);stroke-width:1"/></g>
<g fill-rule="evenodd"><path d="M 242.844,91.1535 L 229.893,9.71485 L 142.228,2.04515 L 242.844,91.1535 z " style="fill-opacity:0.5;fill:rgb(169,169,169);stroke:rgb(169,169,169);stroke-width:1"/></g>
<g fill-rule="evenodd"><path d="M 131.097,226.422 L 80.8716,320.088 L 174.218,268.334 L 131.097,226.422 z " style="fill-opacity:0.5;fill:rgb(169,169,169);stroke:rgb(169,169,169);stroke-width:1"/></g>
<rect x="0" y="2.04515" width="400" height="495.91" style="opacity:0.8;fill:none;stroke:rgb(0,0,0);stroke-width:1;stroke-linecap:round"/>
</svg>
