<?xml version="1.0" standalone="no"?>
<!DOCTYPE svg PUBLIC "-//W3C//DTD SVG 1.1//EN"
"http://www.w3.org/Graphics/SVG/1.1/DTD/svg11.dtd">
<svg width="100%" height="100%" version="1.1"
xmlns="http://www.w3.org/2000/svg"
xmlns:xlink="http://www.w3.org/1999/xlink">
<g fill-rule="evenodd"><path d="M 0,414.52 L 60,486.52 L 152,478.52 L 248,466.52 L 228,430.52 L 136,274.52 L 0,414.52 z " style="fill-opacity:0.5;fill:rgb(169,169,169);stroke:rgb(169,169,169);stroke-width:1"/></g>
<g fill-rule="evenodd"><path d="M 136,274.52 L 228,430.52 L 240,354.52 L 400,274.52 L 136,274.52 z " style="fill-opacity:0.5;fill:rgb(169,169,169);stroke:rgb(169,169,169);stroke-width:1"/></g>
<g fill-rule="evenodd"><path d="M 380,474.52 L 396,374.52 L 324,366.52 L 240,358.52 L 248,386.52 L 284,486.52 L 380,474.52 z " style="fill-opacity:0.5;fill:rgb(169,169,169);stroke:rgb(169,169,169);stroke-width:1"/></g>
<g fill-rule="evenodd"><path d="M 128.466,207.593 L 0.465568,207.593 L 0.465568,371.593 L 72.4656,339.593 L 128.466,207.593 z " style="fill-opacity:0.5;fill:rgb(169,169,169);stroke:rgb(169,169,169);stroke-width:1"/></g>
<g fill-rule="evenodd"><path d="M 157.956,274.832 L 253.956,114.832 L 77.9559,114.832 L 157.956,274.832 z " style="fill-opacity:0.5;fill:rgb(169,169,169);stroke:rgb(169,169,169);stroke-width:1"/></g>
<g fill-rule="evenodd"><path d="M 392.173,274.496 L 248.173,166.496 L 168.173,274.496 L 392.173,274.496 z " style="fill-opacity:0.5;fill:rgb(169,169,169);stroke:rgb(169,169,169);stroke-width:1"/></g>
<g fill-rule="evenodd"><path d="M 316.382,224.864 L 396.612,252.489 L 389.079,109.3 L 365.755,116.226 L 268.862,145.682 L 316.382,224.864 z " style="fill-opacity:0.5;fill:rgb(169,169,169);stroke:rgb(169,169,169);stroke-width:1"/></g>
<g fill-rule="evenodd"><path d="M 141.243,70.5832 L 72.0721,36.8872 L 31.7978,45.4872 L 18.0807,104.035 L 2.65813,195.524 L 141.243,70.5832 z " style="fill-opacity:0.5;fill:rgb(169,169,169);stroke:rgb(169,169,169);stroke-width:1"/></g>
<g fill-rule="evenodd"><path d="M 262.507,13.48 L 262.507,153.478 L 398.507,13.48 L 262.507,13.48 z " style="fill-opacity:0.5;fill:rgb(169,169,169);stroke:rgb(169,169,169);stroke-width:1"/></g>
<g fill-rule="evenodd"><path d="M 203.292,25.5699 L 97.142,14.4219 L 70.3256,25.7739 L 226.414,115.42 L 203.292,25.5699 z " style="fill-opacity:0.5;fill:rgb(169,169,169);stroke:rgb(169,169,169);stroke-width:1"/></g>
<g fill-rule="evenodd"><path d="M 180.854,33.48 L 260.854,161.479 L 260.854,13.48 L 180.854,33.48 z " style="fill-opacity:0.5;fill:rgb(169,169,169);stroke:rgb(169,169,169);stroke-width:1"/></g>
<g fill-rule="evenodd"><path d="M 1.95492,205.708 L 133.955,205.708 L 73.9548,145.708 L 1.95492,205.708 z " style="fill-opacity:0.5;fill:rgb(169,169,169);stroke:rgb(169,169,169);stroke-width:1"/></g>
<g fill-rule="evenodd"><path d="M 392,298.52 L 368,294.52 L 296,326.52 L 384,370.52 L 392,298.52 z " style="fill-opacity:0.5;fill:rgb(169,169,169);stroke:rgb(169,169,169);stroke-width:1"/></g>
<g fill-rule="evenodd"><path d="M 323.49,78.7963 L 332.809,176.74 L 398.966,41.0683 L 323.49,78.7963 z " style="fill-opacity:0.5;fill:rgb(169,169,169);stroke:rgb(169,169,169);stroke-width:1"/></g>
<g fill-rule="evenodd"><path d="M 106.96,35.7529 L 126.96,115.753 L 214.96,115.753 L 106.96,35.7529 z " style="fill-opacity:0.5;fill:rgb(169,169,169);stroke:rgb(169,169,169);stroke-width:1"/></g>
<g fill-rule="evenodd"><path d="M 281.858,481.583 L 245.858,381.583 L 221.858,485.583 L 281.858,481.583 z " style="fill-opacity:0.5;fill:rgb(169,169,169);stroke:rgb(169,169,169);stroke-width:1"/></g>
<rect x="0" y="13.48" width="400" height="473.04" style="opacity:0.8;fill:none;stroke:rgb(0,0,0);stroke-width:1;stroke-linecap:round"/>
</svg>
