<?xml version="1.0" standalone="no"?>
<!DOCTYPE svg PUBLIC "-//W3C//DTD SVG 1.1//EN"
"http://www.w3.org/Graphics/SVG/1.1/DTD/svg11.dtd">
<svg width="100%" height="100%" version="1.1"
xmlns="http://www.w3.org/2000/svg"
xmlns:xlink="http://www.w3.org/1999/xlink">
<g fill-rule="evenodd"><path d="M 0,414.52 L 60,486.52 L 152,478.52 L 248,466.52 L 228,430.52 L 136,274.52 L 0,414.52 z " style="fill-opacity:0.5;fill:rgb(169,169,169);stroke:rgb(169,169,169);stroke-width:1"/></g>
<g fill-rule="evenodd"><path d="M 136,274.52 L 228,430.52 L 240,354.52 L 400,274.52 L 136,274.52 z " style="fill-opacity:0.5;fill:rgb(169,169,169);stroke:rgb(169,169,169);stroke-width:1"/></g>
<g fill-rule="evenodd"><path d="M 380,474.52 L 396,374.52 L 324,366.52 L 240,358.52 L 248,386.52 L 284,486.52 L 380,474.52 z " style="fill-opacity:0.5;fill:rgb(169,169,169);stroke:rgb(169,169,169);stroke-width:1"/></g>
<g fill-rule="evenodd"><path d="M 128.466,207.593 L 0.465568,207.593 L 0.465568,371.593 L 72.4656,339.593 L 128.466,207.593 z " style="fill-opacity:0.5;fill:rgb(169,169,169);stroke:rgb(169,169,169);stroke-width:1"/></g>
<g fill-rule="evenodd"><path d="M 170.767,271.254 L 266.767,111.254 L 90.7669,111.254 L 170.767,271.254 z " style="fill-opacity:0.5;fill:rgb(169,169,169);stroke:rgb(169,169,169);stroke-width:1"/></g>
<g fill-rule="evenodd"><path d="M 388.08,275.909 L 244.08,167.909 L 164.08,275.909 L 388.08,275.909 z " style="fill-opacity:0.5;fill:rgb(169,169,169);stroke:rgb(169,169,169);stroke-width:1"/></g>
<g fill-rule="evenodd"><path d="M 314.902,223.539 L 399.548,217.62 L 336.666,88.7564 L 317.902,104.245 L 240.22,169.219 L 314.902,223.539 z " style="fill-opacity:0.5;fill:rgb(169,169,169);stroke:rgb(169,169,169);stroke-width:1"/></g>
<g fill-rule="evenodd"><path d="M 117.641,56.4314 L 44.0506,33.9709 L 5.61744,48.7653 L 1.22813,108.738 L 0.30742,201.513 L 117.641,56.4314 z " style="fill-opacity:0.5;fill:rgb(169,169,169);stroke:rgb(169,169,169);stroke-width:1"/></g>
<g fill-rule="evenodd"><path d="M 262.507,13.48 L 262.507,153.478 L 398.507,13.48 L 262.507,13.48 z " style="fill-opacity:0.5;fill:rgb(169,169,169);stroke:rgb(169,169,169);stroke-width:1"/></g>
<g fill-rule="evenodd"><path d="M 190.025,26.815 L 83.8752,15.667 L 57.0588,27.019 L 213.148,116.665 L 190.025,26.815 z " style="fill-opacity:0.5;fill:rgb(169,169,169);stroke:rgb(169,169,169);stroke-width:1"/></g>
<g fill-rule="evenodd"><path d="M 319.84,74.578 L 399.84,202.577 L 399.84,54.578 L 319.84,74.578 z " style="fill-opacity:0.5;fill:rgb(169,169,169);stroke:rgb(169,169,169);stroke-width:1"/></g>
<g fill-rule="evenodd"><path d="M 1.95492,205.708 L 133.955,205.708 L 73.9548,145.708 L 1.95492,205.708 z " style="fill-opacity:0.5;fill:rgb(169,169,169);stroke:rgb(169,169,169);stroke-width:1"/></g>
<g fill-rule="evenodd"><path d="M 389.919,299.683 L 365.919,295.683 L 293.919,327.683 L 381.919,371.683 L 389.919,299.683 z " style="fill-opacity:0.5;fill:rgb(169,169,169);stroke:rgb(169,169,169);stroke-width:1"/></g>
<g fill-rule="evenodd"><path d="M 105.769,72.6029 L 43.1015,148.449 L 185.816,99.2945 L 105.769,72.6029 z " style="fill-opacity:0.5;fill:rgb(169,169,169);stroke:rgb(169,169,169);stroke-width:1"/></g>
<g fill-rule="evenodd"><path d="M 265.605,104.536 L 252.653,23.0976 L 164.988,15.4279 L 265.605,104.536 z " style="fill-opacity:0.5;fill:rgb(169,169,169);stroke:rgb(169,169,169);stroke-width:1"/></g>
<g fill-rule="evenodd"><path d="M 164.136,276.121 L 128.136,176.121 L 104.136,280.121 L 164.136,276.121 z " style="fill-opacity:0.5;fill:rgb(169,169,169);stroke:rgb(169,169,169);stroke-width:1"/></g>
<rect x="0" y="13.48" width="400" height="473.04" style="opacity:0.8;fill:none;stroke:rgb(0,0,0);stroke-width:1;stroke-linecap:round"/>
</svg>
