<?xml version="1.0" standalone="no"?>
<!DOCTYPE svg PUBLIC "-//W3C//DTD SVG 1.1//EN"
"http://www.w3.org/Graphics/SVG/1.1/DTD/svg11.dtd">
<svg width="100%" height="100%" version="1.1"
xmlns="http://www.w3.org/2000/svg"
xmlns:xlink="http://www.w3.org/1999/xlink">
<g fill-rule="evenodd"><path d="M 84.6698,582.311 L 137.736,600 L 243.868,600 L 296.934,582.311 L 296.934,520.401 L 243.868,502.712 L 137.736,502.712 L 84.6698,520.401 L 84.6698,582.311 z " style="fill-opacity:0.5;fill:rgb(169,169,169);stroke:rgb(169,169,169);stroke-width:1"/></g>
<g fill-rule="evenodd"><path d="M 296.934,582.311 L 350,600 L 456.132,600 L 509.198,582.311 L 509.198,520.401 L 456.132,502.712 L 350,502.712 L 296.934,520.401 L 296.934,582.311 z " style="fill-opacity:0.5;fill:rgb(169,169,169);stroke:rgb(169,169,169);stroke-width:1"/></g>
<g fill-rule="evenodd"><path d="M 296.934,485.024 L 350,502.712 L 456.132,502.712 L 509.198,485.024 L 509.198,423.113 L 456.132,405.425 L 350,405.425 L 296.934,423.113 L 296.934,485.024 z " style="fill-opacity:0.5;fill:rgb(169,169,169);stroke:rgb(169,169,169);stroke-width:1"/></g>
<g fill-rule="evenodd"><path d="M 367.689,358.55 L 111.203,367.394 L 84.6698,385.083 L 93.5142,411.616 L 181.958,455.837 L 358.844,402.771 L 376.533,376.238 L 367.689,358.55 z " style="fill-opacity:0.5;fill:rgb(169,169,169);stroke:rgb(169,169,169);stroke-width:1"/></g>
<g fill-rule="evenodd"><path d="M 601.179,591.156 L 592.335,334.67 L 574.646,308.137 L 548.113,316.981 L 503.892,405.425 L 556.958,582.311 L 583.491,600 L 601.179,591.156 z " style="fill-opacity:0.5;fill:rgb(169,169,169);stroke:rgb(169,169,169);stroke-width:1"/></g>
<g fill-rule="evenodd"><path d="M 583.491,263.915 L 327.005,272.759 L 300.472,290.448 L 309.316,316.981 L 397.759,361.203 L 574.646,308.137 L 592.335,281.604 L 583.491,263.915 z " style="fill-opacity:0.5;fill:rgb(169,169,169);stroke:rgb(169,169,169);stroke-width:1"/></g>
<g fill-rule="evenodd"><path d="M 167.807,290.448 L 300.472,290.448 L 300.472,166.627 L 167.807,166.627 L 167.807,290.448 z " style="fill-opacity:0.5;fill:rgb(169,169,169);stroke:rgb(169,169,169);stroke-width:1"/></g>
<g fill-rule="evenodd"><path d="M 450.825,263.915 L 583.491,263.915 L 583.491,140.094 L 450.825,140.094 L 450.825,263.915 z " style="fill-opacity:0.5;fill:rgb(169,169,169);stroke:rgb(169,169,169);stroke-width:1"/></g>
<g fill-rule="evenodd"><path d="M 318.16,263.915 L 450.825,263.915 L 450.825,140.094 L 318.16,140.094 L 318.16,263.915 z " style="fill-opacity:0.5;fill:rgb(169,169,169);stroke:rgb(169,169,169);stroke-width:1"/></g>
<g fill-rule="evenodd"><path d="M 288.09,482.37 L 243.868,455.837 L 84.6698,455.837 L 173.113,500.059 L 279.245,500.059 L 288.09,482.37 z " style="fill-opacity:0.5;fill:rgb(169,169,169);stroke:rgb(169,169,169);stroke-width:1"/></g>
<g fill-rule="evenodd"><path d="M 150.118,157.783 L 123.585,202.005 L 123.585,361.203 L 167.807,272.759 L 167.807,166.627 L 150.118,157.783 z " style="fill-opacity:0.5;fill:rgb(169,169,169);stroke:rgb(169,169,169);stroke-width:1"/></g>
<g fill-rule="evenodd"><path d="M 148.349,311.675 L 192.571,338.208 L 351.769,338.208 L 263.325,293.986 L 157.193,293.986 L 148.349,311.675 z " style="fill-opacity:0.5;fill:rgb(169,169,169);stroke:rgb(169,169,169);stroke-width:1"/></g>
<g fill-rule="evenodd"><path d="M 190.802,114.976 L 84.6698,97.2877 L 84.6698,132.665 L 93.5142,132.665 L 93.5142,141.509 L 84.6698,141.509 L 84.6698,176.887 L 102.358,176.887 L 190.802,141.509 L 190.802,114.976 z " style="fill-opacity:0.5;fill:rgb(169,169,169);stroke:rgb(169,169,169);stroke-width:1"/></g>
<g fill-rule="evenodd"><path d="M 212.028,151.887 L 318.16,169.575 L 318.16,134.198 L 309.316,134.198 L 309.316,125.354 L 318.16,125.354 L 318.16,89.9764 L 300.472,89.9764 L 212.028,125.354 L 212.028,151.887 z " style="fill-opacity:0.5;fill:rgb(169,169,169);stroke:rgb(169,169,169);stroke-width:1"/></g>
<g fill-rule="evenodd"><path d="M 424.292,78.184 L 318.16,60.4953 L 318.16,95.8726 L 327.005,95.8726 L 327.005,104.717 L 318.16,104.717 L 318.16,140.094 L 335.849,140.094 L 424.292,104.717 L 424.292,78.184 z " style="fill-opacity:0.5;fill:rgb(169,169,169);stroke:rgb(169,169,169);stroke-width:1"/></g>
<g fill-rule="evenodd"><path d="M 556.958,131.25 L 548.113,122.406 L 495.047,104.717 L 450.825,60.4953 L 424.292,87.0283 L 468.514,131.25 L 459.67,140.094 L 548.113,140.094 L 556.958,131.25 z " style="fill-opacity:0.5;fill:rgb(169,169,169);stroke:rgb(169,169,169);stroke-width:1"/></g>
<g fill-rule="evenodd"><path d="M 482.665,74.6462 L 491.509,83.4906 L 544.575,101.179 L 588.797,145.401 L 615.33,118.868 L 571.108,74.6462 L 579.953,65.8019 L 491.509,65.8019 L 482.665,74.6462 z " style="fill-opacity:0.5;fill:rgb(169,169,169);stroke:rgb(169,169,169);stroke-width:1"/></g>
<g fill-rule="evenodd"><path d="M 84.6698,44.2217 L 93.5142,53.066 L 146.58,70.7547 L 190.802,114.976 L 217.335,88.4434 L 173.113,44.2217 L 181.958,35.3774 L 93.5142,35.3774 L 84.6698,44.2217 z " style="fill-opacity:0.5;fill:rgb(169,169,169);stroke:rgb(169,169,169);stroke-width:1"/></g>
<g fill-rule="evenodd"><path d="M 296.934,44.2217 L 173.113,44.2217 L 252.712,100.825 L 296.934,44.2217 z " style="fill-opacity:0.5;fill:rgb(169,169,169);stroke:rgb(169,169,169);stroke-width:1"/></g>
<g fill-rule="evenodd"><path d="M 456.132,65.8019 L 579.953,65.8019 L 500.354,9.19811 L 456.132,65.8019 z " style="fill-opacity:0.5;fill:rgb(169,169,169);stroke:rgb(169,169,169);stroke-width:1"/></g>
<g fill-rule="evenodd"><path d="M 325.741,61.7588 L 449.562,61.7588 L 369.963,5.15499 L 325.741,61.7588 z " style="fill-opacity:0.5;fill:rgb(169,169,169);stroke:rgb(169,169,169);stroke-width:1"/></g>
<g fill-rule="evenodd"><path d="M 503.892,421.344 L 503.892,341.745 L 459.67,359.434 L 459.67,403.656 L 503.892,421.344 z " style="fill-opacity:0.5;fill:rgb(169,169,169);stroke:rgb(169,169,169);stroke-width:1"/></g>
<g fill-rule="evenodd"><path d="M 459.67,361.203 L 380.071,361.203 L 397.759,405.425 L 441.981,405.425 L 459.67,361.203 z " style="fill-opacity:0.5;fill:rgb(169,169,169);stroke:rgb(169,169,169);stroke-width:1"/></g>
<g fill-rule="evenodd"><path d="M 247.406,1.249e-14 L 167.807,1.249e-14 L 185.495,44.2217 L 229.717,44.2217 L 247.406,1.249e-14 z " style="fill-opacity:0.5;fill:rgb(169,169,169);stroke:rgb(169,169,169);stroke-width:1"/></g>
<g fill-rule="evenodd"><path d="M 541.627,546.934 L 515.094,546.934 L 506.25,600 L 515.094,600 L 515.094,591.156 L 523.939,582.311 L 532.783,582.311 L 541.627,591.156 L 541.627,600 L 550.472,600 L 541.627,546.934 z " style="fill-opacity:0.5;fill:rgb(169,169,169);stroke:rgb(169,169,169);stroke-width:1"/></g>
<g fill-rule="evenodd"><path d="M 579.953,65.8019 L 606.486,65.8019 L 615.33,12.7358 L 606.486,12.7358 L 606.486,21.5802 L 597.642,30.4245 L 588.797,30.4245 L 579.953,21.5802 L 579.953,12.7358 L 571.108,12.7358 L 579.953,65.8019 z " style="fill-opacity:0.5;fill:rgb(169,169,169);stroke:rgb(169,169,169);stroke-width:1"/></g>
<g fill-rule="evenodd"><path d="M 299.646,60.4953 L 326.179,60.4953 L 335.024,7.42925 L 326.179,7.42925 L 326.179,16.2736 L 317.335,25.1179 L 308.491,25.1179 L 299.646,16.2736 L 299.646,7.42925 L 290.802,7.42925 L 299.646,60.4953 z " style="fill-opacity:0.5;fill:rgb(169,169,169);stroke:rgb(169,169,169);stroke-width:1"/></g>
<g fill-rule="evenodd"><path d="M 597.642,339.976 L 615.33,331.132 L 615.33,269.222 L 588.797,286.91 L 597.642,339.976 z " style="fill-opacity:0.5;fill:rgb(169,169,169);stroke:rgb(169,169,169);stroke-width:1"/></g>
<g fill-rule="evenodd"><path d="M 597.642,278.066 L 615.33,269.222 L 615.33,207.311 L 588.797,225 L 597.642,278.066 z " style="fill-opacity:0.5;fill:rgb(169,169,169);stroke:rgb(169,169,169);stroke-width:1"/></g>
<g fill-rule="evenodd"><path d="M 93.5142,244.104 L 111.203,235.259 L 111.203,173.349 L 84.6698,191.038 L 93.5142,244.104 z " style="fill-opacity:0.5;fill:rgb(169,169,169);stroke:rgb(169,169,169);stroke-width:1"/></g>
<rect x="84.6698" y="1.249e-14" width="530.66" height="600" style="opacity:0.8;fill:none;stroke:rgb(0,0,0);stroke-width:1;stroke-linecap:round"/>
</svg>
