<?xml version="1.0" standalone="no"?>
<!DOCTYPE svg PUBLIC "-//W3C//DTD SVG 1.1//EN"
"http://www.w3.org/Graphics/SVG/1.1/DTD/svg11.dtd">
<svg width="100%" height="100%" version="1.1"
xmlns="http://www.w3.org/2000/svg"
xmlns:xlink="http://www.w3.org/1999/xlink">
<g fill-rule="evenodd"><path d="M 204.082,359.184 L 187.755,351.02 L 187.755,326.531 L 204.082,318.367 L 220.408,326.531 L 236.735,318.367 L 253.061,326.531 L 253.061,351.02 L 236.735,359.184 L 220.408,351.02 L 204.082,359.184 z " style="fill-opacity:0.5;fill:rgb(204,153,0);stroke:rgb(204,153,0);stroke-width:1"/></g>
<g fill-rule="evenodd"><path d="M 204.082,359.184 L 220.408,367.347 L 236.735,359.184 L 253.061,367.347 L 253.061,391.837 L 236.735,400 L 220.408,391.837 L 204.082,400 L 187.755,391.837 L 187.755,367.347 L 204.082,359.184 z " style="fill-opacity:0.5;fill:rgb(204,153,0);stroke:rgb(204,153,0);stroke-width:1"/></g>
<g fill-rule="evenodd"><path d="M 146.939,293.878 L 146.939,277.551 L 163.265,261.224 L 179.592,261.224 L 179.592,269.388 L 171.429,285.714 L 179.592,302.041 L 155.102,302.041 L 146.939,293.878 z " style="fill-opacity:0.5;fill:rgb(204,153,0);stroke:rgb(204,153,0);stroke-width:1"/></g>
<g fill-rule="evenodd"><path d="M 146.939,342.857 L 146.939,326.531 L 163.265,310.204 L 179.592,310.204 L 179.592,318.367 L 171.429,334.694 L 179.592,351.02 L 155.102,351.02 L 146.939,342.857 z " style="fill-opacity:0.5;fill:rgb(204,153,0);stroke:rgb(204,153,0);stroke-width:1"/></g>
<g fill-rule="evenodd"><path d="M 146.939,391.837 L 146.939,375.51 L 163.265,359.184 L 179.592,359.184 L 179.592,367.347 L 171.429,383.673 L 179.592,400 L 155.102,400 L 146.939,391.837 z " style="fill-opacity:0.5;fill:rgb(204,153,0);stroke:rgb(204,153,0);stroke-width:1"/></g>
<g fill-rule="evenodd"><path d="M 187.755,228.571 L 187.755,202.757 L 174.848,189.85 L 192.918,192.431 L 205.825,179.524 L 205.825,205.338 L 218.733,218.246 L 200.662,215.664 L 187.755,228.571 z " style="fill-opacity:0.5;fill:rgb(204,153,0);stroke:rgb(204,153,0);stroke-width:1"/></g>
<g fill-rule="evenodd"><path d="M 220.408,285.714 L 228.571,277.551 L 220.408,269.388 L 220.408,253.061 L 228.571,244.898 L 220.408,236.735 L 220.408,220.408 L 228.571,212.245 L 220.408,204.082 L 220.408,187.755 L 236.735,171.429 L 253.061,171.429 L 253.061,179.592 L 244.898,195.918 L 253.061,212.245 L 244.898,212.245 L 253.061,220.408 L 253.061,236.735 L 244.898,244.898 L 253.061,253.061 L 253.061,269.388 L 244.898,277.551 L 253.061,285.714 L 253.061,302.041 L 244.898,310.204 L 228.571,310.204 L 220.408,302.041 L 220.408,285.714 z " style="fill-opacity:0.5;fill:rgb(204,153,0);stroke:rgb(204,153,0);stroke-width:1"/></g>
<g fill-rule="evenodd"><path d="M 220.408,285.714 L 212.245,293.878 L 195.918,293.878 L 187.755,285.714 L 187.755,269.388 L 187.755,243.573 L 174.848,230.666 L 192.918,233.247 L 205.825,220.34 L 205.825,246.155 L 218.733,259.062 L 200.662,256.48 L 195.918,261.224 L 212.245,261.224 L 220.408,269.388 L 220.408,285.714 z " style="fill-opacity:0.5;fill:rgb(204,153,0);stroke:rgb(204,153,0);stroke-width:1"/></g>
<g fill-rule="evenodd"><path d="M 244.898,32.6531 L 220.408,24.4898 L 204.082,32.6531 L 212.245,16.3265 L 204.082,0 L 228.571,8.16327 L 244.898,0 L 236.735,16.3265 L 244.898,32.6531 z " style="fill-opacity:0.5;fill:rgb(204,153,0);stroke:rgb(204,153,0);stroke-width:1"/></g>
<g fill-rule="evenodd"><path d="M 163.265,32.6531 L 171.429,16.3265 L 163.265,0 L 187.755,8.16327 L 204.082,0 L 195.918,16.3265 L 204.082,32.6531 L 179.592,24.4898 L 163.265,32.6531 z " style="fill-opacity:0.5;fill:rgb(204,153,0);stroke:rgb(204,153,0);stroke-width:1"/></g>
<g fill-rule="evenodd"><path d="M 204.082,81.6327 L 220.282,109.983 L 190.919,107.958 L 204.082,81.6327 z " style="fill-opacity:0.5;fill:rgb(204,153,0);stroke:rgb(204,153,0);stroke-width:1"/></g>
<g fill-rule="evenodd"><path d="M 244.898,73.4694 L 244.898,114.286 L 236.735,114.286 L 228.571,97.9592 L 220.408,89.7959 L 204.082,81.6327 L 187.755,89.7959 L 179.592,97.9592 L 171.429,114.286 L 163.265,114.286 L 163.265,73.4694 L 163.265,32.6531 L 171.429,32.6531 L 179.592,48.9796 L 187.755,57.1429 L 204.082,65.3061 L 220.408,57.1429 L 228.571,48.9796 L 236.735,32.6531 L 244.898,32.6531 L 244.898,73.4694 z " style="fill-opacity:0.5;fill:rgb(204,153,0);stroke:rgb(204,153,0);stroke-width:1"/></g>
<g fill-rule="evenodd"><path d="M 220.408,138.776 L 244.898,122.449 L 244.898,155.102 L 235.842,168.687 L 222.257,159.63 L 231.313,146.046 L 220.408,138.776 z " style="fill-opacity:0.5;fill:rgb(204,153,0);stroke:rgb(204,153,0);stroke-width:1"/></g>
<g fill-rule="evenodd"><path d="M 195.918,155.102 L 195.918,171.429 L 179.592,171.429 L 179.592,155.102 L 179.592,138.776 L 179.592,122.449 L 195.918,122.449 L 220.408,138.776 L 220.408,171.429 L 195.918,155.102 z " style="fill-opacity:0.5;fill:rgb(204,153,0);stroke:rgb(204,153,0);stroke-width:1"/></g>
</svg>
