<?xml version="1.0" standalone="no"?>
<!DOCTYPE svg PUBLIC "-//W3C//DTD SVG 1.1//EN"
"http://www.w3.org/Graphics/SVG/1.1/DTD/svg11.dtd">
<svg width="100%" height="100%" version="1.1"
xmlns="http://www.w3.org/2000/svg"
xmlns:xlink="http://www.w3.org/1999/xlink">
<g fill-rule="evenodd"><path d="M 282.979,600 L 302.128,561.702 L 282.979,523.404 L 225.532,523.404 L 206.383,561.702 L 225.532,600 L 282.979,600 z " style="fill-opacity:0.5;fill:rgb(169,169,169);stroke:rgb(169,169,169);stroke-width:1"/></g>
<g fill-rule="evenodd"><path d="M 378.723,600 L 397.872,561.702 L 378.723,523.404 L 321.277,523.404 L 302.128,561.702 L 321.277,600 L 378.723,600 z " style="fill-opacity:0.5;fill:rgb(169,169,169);stroke:rgb(169,169,169);stroke-width:1"/></g>
<g fill-rule="evenodd"><path d="M 474.468,600 L 493.617,561.702 L 474.468,523.404 L 417.021,523.404 L 397.872,561.702 L 417.021,600 L 474.468,600 z " style="fill-opacity:0.5;fill:rgb(169,169,169);stroke:rgb(169,169,169);stroke-width:1"/></g>
<g fill-rule="evenodd"><path d="M 282.979,523.404 L 302.128,485.106 L 282.979,446.809 L 225.532,446.809 L 206.383,485.106 L 225.532,523.404 L 282.979,523.404 z " style="fill-opacity:0.5;fill:rgb(169,169,169);stroke:rgb(169,169,169);stroke-width:1"/></g>
<g fill-rule="evenodd"><path d="M 378.723,523.404 L 397.872,504.255 L 397.872,446.809 L 359.574,465.957 L 321.277,446.809 L 302.128,446.809 L 302.128,485.106 L 340.426,523.404 L 378.723,523.404 z " style="fill-opacity:0.5;fill:rgb(169,169,169);stroke:rgb(169,169,169);stroke-width:1"/></g>
<g fill-rule="evenodd"><path d="M 417.021,427.66 L 397.872,446.809 L 397.872,504.255 L 436.17,485.106 L 474.468,504.255 L 493.617,504.255 L 493.617,465.957 L 455.319,427.66 L 417.021,427.66 z " style="fill-opacity:0.5;fill:rgb(169,169,169);stroke:rgb(169,169,169);stroke-width:1"/></g>
<g fill-rule="evenodd"><path d="M 378.723,456.383 L 397.872,437.234 L 397.872,379.787 L 359.574,398.936 L 321.277,379.787 L 302.128,379.787 L 302.128,418.085 L 340.426,456.383 L 378.723,456.383 z " style="fill-opacity:0.5;fill:rgb(169,169,169);stroke:rgb(169,169,169);stroke-width:1"/></g>
<g fill-rule="evenodd"><path d="M 282.979,446.809 L 302.128,427.66 L 302.128,370.213 L 263.83,389.362 L 225.532,370.213 L 206.383,370.213 L 206.383,408.511 L 244.681,446.809 L 282.979,446.809 z " style="fill-opacity:0.5;fill:rgb(169,169,169);stroke:rgb(169,169,169);stroke-width:1"/></g>
<g fill-rule="evenodd"><path d="M 493.617,446.809 L 493.617,351.064 L 397.872,351.064 L 397.872,370.213 L 436.17,389.362 L 455.319,408.511 L 474.468,446.809 L 493.617,446.809 z " style="fill-opacity:0.5;fill:rgb(169,169,169);stroke:rgb(169,169,169);stroke-width:1"/></g>
<g fill-rule="evenodd"><path d="M 340.426,379.787 L 340.426,284.043 L 244.681,284.043 L 244.681,303.191 L 282.979,322.34 L 302.128,341.489 L 321.277,379.787 L 340.426,379.787 z " style="fill-opacity:0.5;fill:rgb(169,169,169);stroke:rgb(169,169,169);stroke-width:1"/></g>
<g fill-rule="evenodd"><path d="M 206.383,264.894 L 206.383,360.638 L 302.128,360.638 L 302.128,341.489 L 263.83,322.34 L 244.681,303.191 L 225.532,264.894 L 206.383,264.894 z " style="fill-opacity:0.5;fill:rgb(169,169,169);stroke:rgb(169,169,169);stroke-width:1"/></g>
<g fill-rule="evenodd"><path d="M 397.872,341.489 L 397.872,245.745 L 302.128,245.745 L 302.128,264.894 L 340.426,284.043 L 359.574,303.191 L 378.723,341.489 L 397.872,341.489 z " style="fill-opacity:0.5;fill:rgb(169,169,169);stroke:rgb(169,169,169);stroke-width:1"/></g>
<g fill-rule="evenodd"><path d="M 302.128,264.894 L 302.128,226.596 L 282.979,207.447 L 244.681,207.447 L 225.532,226.596 L 225.532,264.894 L 244.681,284.043 L 282.979,284.043 L 302.128,264.894 z " style="fill-opacity:0.5;fill:rgb(169,169,169);stroke:rgb(169,169,169);stroke-width:1"/></g>
<g fill-rule="evenodd"><path d="M 474.468,245.745 L 474.468,207.447 L 455.319,188.298 L 417.021,188.298 L 397.872,207.447 L 397.872,245.745 L 417.021,264.894 L 455.319,264.894 L 474.468,245.745 z " style="fill-opacity:0.5;fill:rgb(169,169,169);stroke:rgb(169,169,169);stroke-width:1"/></g>
<g fill-rule="evenodd"><path d="M 493.617,322.34 L 493.617,284.043 L 474.468,264.894 L 436.17,264.894 L 417.021,284.043 L 417.021,322.34 L 436.17,341.489 L 474.468,341.489 L 493.617,322.34 z " style="fill-opacity:0.5;fill:rgb(169,169,169);stroke:rgb(169,169,169);stroke-width:1"/></g>
<g fill-rule="evenodd"><path d="M 378.723,226.596 L 378.723,188.298 L 359.574,169.149 L 321.277,169.149 L 302.128,188.298 L 302.128,226.596 L 321.277,245.745 L 359.574,245.745 L 378.723,226.596 z " style="fill-opacity:0.5;fill:rgb(169,169,169);stroke:rgb(169,169,169);stroke-width:1"/></g>
<g fill-rule="evenodd"><path d="M 493.617,197.872 L 474.468,159.574 L 493.617,121.277 L 455.319,140.426 L 397.872,121.277 L 417.021,159.574 L 397.872,197.872 L 436.17,178.723 L 493.617,197.872 z " style="fill-opacity:0.5;fill:rgb(169,169,169);stroke:rgb(169,169,169);stroke-width:1"/></g>
<g fill-rule="evenodd"><path d="M 302.128,188.298 L 282.979,150 L 302.128,111.702 L 263.83,130.851 L 206.383,111.702 L 225.532,150 L 206.383,188.298 L 244.681,169.149 L 302.128,188.298 z " style="fill-opacity:0.5;fill:rgb(169,169,169);stroke:rgb(169,169,169);stroke-width:1"/></g>
<g fill-rule="evenodd"><path d="M 372.34,79.7872 L 334.043,98.9362 L 295.745,79.7872 L 314.894,118.085 L 295.745,175.532 L 334.043,156.383 L 372.34,175.532 L 353.191,137.234 L 372.34,79.7872 z " style="fill-opacity:0.5;fill:rgb(169,169,169);stroke:rgb(169,169,169);stroke-width:1"/></g>
<g fill-rule="evenodd"><path d="M 459.149,138.511 L 440,100.213 L 459.149,61.9149 L 420.851,81.0638 L 363.404,61.9149 L 382.553,100.213 L 363.404,138.511 L 401.702,119.362 L 459.149,138.511 z " style="fill-opacity:0.5;fill:rgb(169,169,169);stroke:rgb(169,169,169);stroke-width:1"/></g>
<g fill-rule="evenodd"><path d="M 244.681,124.468 L 282.979,67.0213 L 206.383,67.0213 L 244.681,124.468 z " style="fill-opacity:0.5;fill:rgb(169,169,169);stroke:rgb(169,169,169);stroke-width:1"/></g>
<g fill-rule="evenodd"><path d="M 244.681,9.57447 L 206.383,67.0213 L 282.979,67.0213 L 244.681,9.57447 z " style="fill-opacity:0.5;fill:rgb(169,169,169);stroke:rgb(169,169,169);stroke-width:1"/></g>
<g fill-rule="evenodd"><path d="M 321.277,9.57447 L 282.979,67.0213 L 359.574,67.0213 L 321.277,9.57447 z " style="fill-opacity:0.5;fill:rgb(169,169,169);stroke:rgb(169,169,169);stroke-width:1"/></g>
<g fill-rule="evenodd"><path d="M 359.787,67.3404 L 398.085,9.89362 L 321.489,9.89362 L 359.787,67.3404 z " style="fill-opacity:0.5;fill:rgb(169,169,169);stroke:rgb(169,169,169);stroke-width:1"/></g>
<g fill-rule="evenodd"><path d="M 378.723,379.787 L 378.723,341.489 L 340.426,341.489 L 340.426,379.787 L 378.723,379.787 z " style="fill-opacity:0.5;fill:rgb(169,169,169);stroke:rgb(169,169,169);stroke-width:1"/></g>
<g fill-rule="evenodd"><path d="M 493.617,121.277 L 493.617,82.9787 L 455.319,82.9787 L 455.319,121.277 L 493.617,121.277 z " style="fill-opacity:0.5;fill:rgb(169,169,169);stroke:rgb(169,169,169);stroke-width:1"/></g>
<g fill-rule="evenodd"><path d="M 459.149,61.9149 L 459.149,23.617 L 420.851,23.617 L 420.851,61.9149 L 459.149,61.9149 z " style="fill-opacity:0.5;fill:rgb(169,169,169);stroke:rgb(169,169,169);stroke-width:1"/></g>
<g fill-rule="evenodd"><path d="M 302.128,38.2979 L 302.128,1.64313e-14 L 263.83,1.64313e-14 L 263.83,38.2979 L 302.128,38.2979 z " style="fill-opacity:0.5;fill:rgb(169,169,169);stroke:rgb(169,169,169);stroke-width:1"/></g>
<rect x="206.383" y="1.64313e-14" width="287.234" height="600" style="opacity:0.8;fill:none;stroke:rgb(0,0,0);stroke-width:1;stroke-linecap:round"/>
</svg>
