<?xml version="1.0" standalone="no"?>
<!DOCTYPE svg PUBLIC "-//W3C//DTD SVG 1.1//EN"
"http://www.w3.org/Graphics/SVG/1.1/DTD/svg11.dtd">
<svg width="100%" height="100%" version="1.1"
xmlns="http://www.w3.org/2000/svg"
xmlns:xlink="http://www.w3.org/1999/xlink">
<g fill-rule="evenodd"><path d="M 52.5,405 L 0,370 L 0,335 L 52.5,300 L 105,300 L 140,335 L 140,370 L 105,405 L 52.5,405 z " style="fill-opacity:0.5;fill:rgb(169,169,169);stroke:rgb(169,169,169);stroke-width:1"/></g>
<g fill-rule="evenodd"><path d="M 140,405 L 140,300 L 245,300 L 245,405 L 140,405 z " style="fill-opacity:0.5;fill:rgb(169,169,169);stroke:rgb(169,169,169);stroke-width:1"/></g>
<g fill-rule="evenodd"><path d="M 245,405 L 245,300 L 315,300 L 315,352.5 L 350,352.5 L 350,405 L 245,405 z " style="fill-opacity:0.5;fill:rgb(169,169,169);stroke:rgb(169,169,169);stroke-width:1"/></g>
<g fill-rule="evenodd"><path d="M 385,405 L 350,370 L 350,335 L 385,300 L 420,300 L 455,335 L 455,370 L 420,405 L 385,405 z " style="fill-opacity:0.5;fill:rgb(169,169,169);stroke:rgb(169,169,169);stroke-width:1"/></g>
<g fill-rule="evenodd"><path d="M 455,405 L 455,317.5 L 542.5,317.5 L 542.5,405 L 455,405 z " style="fill-opacity:0.5;fill:rgb(169,169,169);stroke:rgb(169,169,169);stroke-width:1"/></g>
<g fill-rule="evenodd"><path d="M 542.5,405 L 542.5,352.5 L 612.5,300 L 612.5,352.5 L 647.5,352.5 L 647.5,405 L 542.5,405 z " style="fill-opacity:0.5;fill:rgb(169,169,169);stroke:rgb(169,169,169);stroke-width:1"/></g>
<g fill-rule="evenodd"><path d="M 700,300 L 700,387.5 L 647.5,387.5 L 647.5,352.5 L 612.5,352.5 L 612.5,300 L 700,300 z " style="fill-opacity:0.5;fill:rgb(169,169,169);stroke:rgb(169,169,169);stroke-width:1"/></g>
<g fill-rule="evenodd"><path d="M 315,335 L 315,300 L 280,300 L 280,265 L 315,265 L 315,230 L 350,230 L 350,265 L 385,265 L 385,300 L 350,300 L 350,335 L 315,335 z " style="fill-opacity:0.5;fill:rgb(169,169,169);stroke:rgb(169,169,169);stroke-width:1"/></g>
<g fill-rule="evenodd"><path d="M 437.5,317.5 L 437.5,282.5 L 402.5,282.5 L 402.5,247.5 L 437.5,247.5 L 437.5,212.5 L 472.5,212.5 L 472.5,247.5 L 507.5,247.5 L 507.5,282.5 L 472.5,282.5 L 472.5,317.5 L 437.5,317.5 z " style="fill-opacity:0.5;fill:rgb(169,169,169);stroke:rgb(169,169,169);stroke-width:1"/></g>
<g fill-rule="evenodd"><path d="M 0,300 L 0,247.5 L 105,247.5 L 105,300 L 0,300 z " style="fill-opacity:0.5;fill:rgb(169,169,169);stroke:rgb(169,169,169);stroke-width:1"/></g>
<g fill-rule="evenodd"><path d="M 507.5,317.5 L 507.5,247.5 L 577.5,247.5 L 577.5,317.5 L 507.5,317.5 z " style="fill-opacity:0.5;fill:rgb(169,169,169);stroke:rgb(169,169,169);stroke-width:1"/></g>
<g fill-rule="evenodd"><path d="M 105,282.5 L 105,265 L 140,247.5 L 175,247.5 L 210,265 L 210,282.5 L 175,300 L 140,300 L 105,282.5 z " style="fill-opacity:0.5;fill:rgb(169,169,169);stroke:rgb(169,169,169);stroke-width:1"/></g>
<g fill-rule="evenodd"><path d="M 157.5,230 L 280,230 L 280,300 L 157.5,230 z " style="fill-opacity:0.5;fill:rgb(169,169,169);stroke:rgb(169,169,169);stroke-width:1"/></g>
<g fill-rule="evenodd"><path d="M 665,230 L 577.5,317.5 L 577.5,230 L 665,230 z " style="fill-opacity:0.5;fill:rgb(169,169,169);stroke:rgb(169,169,169);stroke-width:1"/></g>
<g fill-rule="evenodd"><path d="M 700,300 L 630,300 L 630,265 L 682.5,265 L 682.5,230 L 700,230 L 700,300 z " style="fill-opacity:0.5;fill:rgb(169,169,169);stroke:rgb(169,169,169);stroke-width:1"/></g>
<g fill-rule="evenodd"><path d="M 0,247.5 L 0,212.5 L 87.5,212.5 L 87.5,247.5 L 0,247.5 z " style="fill-opacity:0.5;fill:rgb(169,169,169);stroke:rgb(169,169,169);stroke-width:1"/></g>
<g fill-rule="evenodd"><path d="M 52.5,195 L 157.5,195 L 157.5,247.5 L 52.5,195 z " style="fill-opacity:0.5;fill:rgb(169,169,169);stroke:rgb(169,169,169);stroke-width:1"/></g>
<g fill-rule="evenodd"><path d="M 402.5,212.5 L 402.5,282.5 L 332.5,212.5 L 402.5,212.5 z " style="fill-opacity:0.5;fill:rgb(169,169,169);stroke:rgb(169,169,169);stroke-width:1"/></g>
<g fill-rule="evenodd"><path d="M 472.5,247.5 L 472.5,230 L 525,230 L 525,212.5 L 560,212.5 L 560,247.5 L 472.5,247.5 z " style="fill-opacity:0.5;fill:rgb(169,169,169);stroke:rgb(169,169,169);stroke-width:1"/></g>
<g fill-rule="evenodd"><path d="M 630,212.5 L 630,230 L 577.5,230 L 577.5,247.5 L 560,247.5 L 560,212.5 L 630,212.5 z " style="fill-opacity:0.5;fill:rgb(169,169,169);stroke:rgb(169,169,169);stroke-width:1"/></g>
<g fill-rule="evenodd"><path d="M 280,247.5 L 280,230 L 262.5,230 L 262.5,212.5 L 280,212.5 L 280,195 L 297.5,195 L 297.5,212.5 L 315,212.5 L 315,230 L 297.5,230 L 297.5,247.5 L 280,247.5 z " style="fill-opacity:0.5;fill:rgb(169,169,169);stroke:rgb(169,169,169);stroke-width:1"/></g>
<g fill-rule="evenodd"><path d="M 665,247.5 L 665,230 L 647.5,230 L 647.5,212.5 L 665,212.5 L 665,195 L 682.5,195 L 682.5,212.5 L 700,212.5 L 700,230 L 682.5,230 L 682.5,247.5 L 665,247.5 z " style="fill-opacity:0.5;fill:rgb(169,169,169);stroke:rgb(169,169,169);stroke-width:1"/></g>
<g fill-rule="evenodd"><path d="M 437.5,195 L 437.5,247.5 L 385,195 L 437.5,195 z " style="fill-opacity:0.5;fill:rgb(169,169,169);stroke:rgb(169,169,169);stroke-width:1"/></g>
<g fill-rule="evenodd"><path d="M 157.5,212.5 L 227.5,212.5 L 227.5,230 L 157.5,230 L 157.5,212.5 z " style="fill-opacity:0.5;fill:rgb(169,169,169);stroke:rgb(169,169,169);stroke-width:1"/></g>
<g fill-rule="evenodd"><path d="M 0,405 L 0,370 L 35,405 L 0,405 z " style="fill-opacity:0.5;fill:rgb(169,169,169);stroke:rgb(169,169,169);stroke-width:1"/></g>
<rect x="0" y="195" width="700" height="210" style="opacity:0.8;fill:none;stroke:rgb(0,0,0);stroke-width:1;stroke-linecap:round"/>
</svg>
