<?xml version="1.0" standalone="no"?>
<!DOCTYPE svg PUBLIC "-//W3C//DTD SVG 1.1//EN"
"http://www.w3.org/Graphics/SVG/1.1/DTD/svg11.dtd">
<svg width="100%" height="100%" version="1.1"
xmlns="http://www.w3.org/2000/svg"
xmlns:xlink="http://www.w3.org/1999/xlink">
<g fill-rule="evenodd"><path d="M 220.979,595.377 L 220.979,483.129 L 272.91,486.139 L 327.583,478.506 L 338.442,491.3 L 367.955,490.171 L 382.255,519.738 L 372.525,526.888 L 372.525,551.617 L 382.255,558.767 L 367.955,588.334 L 338.442,587.205 L 327.583,600 L 272.91,592.366 L 220.979,595.377 z " style="fill-opacity:0.5;fill:rgb(169,169,169);stroke:rgb(169,169,169);stroke-width:1"/></g>
<g fill-rule="evenodd"><path d="M 479.021,375.612 L 479.021,487.86 L 427.09,484.849 L 372.417,492.483 L 361.558,479.688 L 332.045,480.817 L 317.745,451.25 L 327.475,444.1 L 327.475,419.371 L 317.745,412.221 L 332.045,382.654 L 361.558,383.783 L 372.417,370.988 L 427.09,378.622 L 479.021,375.612 z " style="fill-opacity:0.5;fill:rgb(169,169,169);stroke:rgb(169,169,169);stroke-width:1"/></g>
<g fill-rule="evenodd"><path d="M 224.904,340.883 L 294.414,337.873 L 294.414,477.323 L 270.76,481.731 L 233.935,476.194 L 236.462,455.389 L 220.979,439.531 L 228.667,395.18 L 224.904,340.883 z " style="fill-opacity:0.5;fill:rgb(169,169,169);stroke:rgb(169,169,169);stroke-width:1"/></g>
<g fill-rule="evenodd"><path d="M 299.252,370.289 L 296.241,300.78 L 435.691,300.78 L 440.099,324.433 L 434.562,361.258 L 413.758,358.731 L 397.899,374.214 L 353.548,366.526 L 299.252,370.289 z " style="fill-opacity:0.5;fill:rgb(169,169,169);stroke:rgb(169,169,169);stroke-width:1"/></g>
<g fill-rule="evenodd"><path d="M 338.334,224.388 L 338.334,295.027 L 243.665,304.328 L 220.979,269.384 L 220.979,250.031 L 243.665,215.088 L 338.334,224.388 z " style="fill-opacity:0.5;fill:rgb(169,169,169);stroke:rgb(169,169,169);stroke-width:1"/></g>
<g fill-rule="evenodd"><path d="M 339.248,289.651 L 339.248,219.013 L 433.917,209.712 L 456.603,244.655 L 456.603,264.009 L 433.917,298.952 L 339.248,289.651 z " style="fill-opacity:0.5;fill:rgb(169,169,169);stroke:rgb(169,169,169);stroke-width:1"/></g>
<g fill-rule="evenodd"><path d="M 237.107,214.389 L 237.107,143.751 L 331.776,134.45 L 354.462,169.393 L 354.462,188.747 L 331.776,223.69 L 237.107,214.389 z " style="fill-opacity:0.5;fill:rgb(169,169,169);stroke:rgb(169,169,169);stroke-width:1"/></g>
<g fill-rule="evenodd"><path d="M 472.731,132.999 L 472.731,203.638 L 378.062,212.938 L 355.376,177.995 L 355.376,158.642 L 378.062,123.699 L 472.731,132.999 z " style="fill-opacity:0.5;fill:rgb(169,169,169);stroke:rgb(169,169,169);stroke-width:1"/></g>
<g fill-rule="evenodd"><path d="M 366.396,75.7459 L 366.396,136.224 L 309.358,132.676 L 263.18,137.676 L 250.923,127.73 L 225.441,125.956 L 220.979,96.5505 L 232.054,75.7459 L 366.396,75.7459 z " style="fill-opacity:0.5;fill:rgb(169,169,169);stroke:rgb(169,169,169);stroke-width:1"/></g>
<g fill-rule="evenodd"><path d="M 473.914,16.6114 L 473.914,77.0899 L 416.876,73.5418 L 370.697,78.5413 L 358.44,68.596 L 332.959,66.822 L 328.497,37.416 L 339.571,16.6114 L 473.914,16.6114 z " style="fill-opacity:0.5;fill:rgb(169,169,169);stroke:rgb(169,169,169);stroke-width:1"/></g>
<g fill-rule="evenodd"><path d="M 457.517,211.11 L 471.548,211.11 L 471.548,374.214 L 457.517,374.214 L 457.517,211.11 z " style="fill-opacity:0.5;fill:rgb(169,169,169);stroke:rgb(169,169,169);stroke-width:1"/></g>
<g fill-rule="evenodd"><path d="M 220.979,14.031 L 220.979,0 L 384.083,0 L 384.083,14.031 L 220.979,14.031 z " style="fill-opacity:0.5;fill:rgb(169,169,169);stroke:rgb(169,169,169);stroke-width:1"/></g>
<g fill-rule="evenodd"><path d="M 382.255,600 L 382.255,564.573 L 432.573,564.573 L 432.573,600 L 382.255,600 z " style="fill-opacity:0.5;fill:rgb(169,169,169);stroke:rgb(169,169,169);stroke-width:1"/></g>
<g fill-rule="evenodd"><path d="M 436.014,549.682 L 471.441,549.682 L 471.441,600 L 436.014,600 L 436.014,549.682 z " style="fill-opacity:0.5;fill:rgb(169,169,169);stroke:rgb(169,169,169);stroke-width:1"/></g>
<g fill-rule="evenodd"><path d="M 382.255,562.369 L 382.255,526.942 L 432.573,526.942 L 432.573,562.369 L 382.255,562.369 z " style="fill-opacity:0.5;fill:rgb(169,169,169);stroke:rgb(169,169,169);stroke-width:1"/></g>
<g fill-rule="evenodd"><path d="M 436.014,495.923 L 471.441,495.923 L 471.441,546.241 L 436.014,546.241 L 436.014,495.923 z " style="fill-opacity:0.5;fill:rgb(169,169,169);stroke:rgb(169,169,169);stroke-width:1"/></g>
<g fill-rule="evenodd"><path d="M 296.241,395.717 L 316.025,401.093 L 311.616,438.724 L 316.025,476.355 L 296.241,481.731 L 299.736,459.636 L 296.241,438.724 L 299.736,417.812 L 296.241,395.717 z " style="fill-opacity:0.5;fill:rgb(169,169,169);stroke:rgb(169,169,169);stroke-width:1"/></g>
<g fill-rule="evenodd"><path d="M 371.503,121.548 L 376.879,101.765 L 414.51,106.173 L 452.141,101.765 L 457.517,121.548 L 435.422,118.054 L 414.51,121.548 L 393.598,118.054 L 371.503,121.548 z " style="fill-opacity:0.5;fill:rgb(169,169,169);stroke:rgb(169,169,169);stroke-width:1"/></g>
<g fill-rule="evenodd"><path d="M 371.503,100.045 L 376.879,80.2616 L 414.51,84.6698 L 452.141,80.2616 L 457.517,100.045 L 435.422,96.5505 L 414.51,100.045 L 393.598,96.5505 L 371.503,100.045 z " style="fill-opacity:0.5;fill:rgb(169,169,169);stroke:rgb(169,169,169);stroke-width:1"/></g>
<g fill-rule="evenodd"><path d="M 220.979,73.1655 L 226.355,53.3823 L 263.986,57.7905 L 301.617,53.3823 L 306.993,73.1655 L 284.898,69.6712 L 263.986,73.1655 L 243.074,69.6712 L 220.979,73.1655 z " style="fill-opacity:0.5;fill:rgb(169,169,169);stroke:rgb(169,169,169);stroke-width:1"/></g>
<g fill-rule="evenodd"><path d="M 237.376,219.711 L 230.656,223.69 L 220.979,176.92 L 230.656,130.15 L 237.376,134.128 L 230.978,176.92 L 237.376,219.711 z " style="fill-opacity:0.5;fill:rgb(169,169,169);stroke:rgb(169,169,169);stroke-width:1"/></g>
<g fill-rule="evenodd"><path d="M 310.541,40.6415 L 314.519,47.3613 L 267.749,57.0379 L 220.979,47.3613 L 224.957,40.6415 L 267.749,47.0388 L 310.541,40.6415 z " style="fill-opacity:0.5;fill:rgb(169,169,169);stroke:rgb(169,169,169);stroke-width:1"/></g>
<g fill-rule="evenodd"><path d="M 310.541,29.8898 L 314.519,36.6096 L 267.749,46.2862 L 220.979,36.6096 L 224.957,29.8898 L 267.749,36.2871 L 310.541,29.8898 z " style="fill-opacity:0.5;fill:rgb(169,169,169);stroke:rgb(169,169,169);stroke-width:1"/></g>
<g fill-rule="evenodd"><path d="M 310.541,19.1381 L 314.519,25.8579 L 267.749,35.5345 L 220.979,25.8579 L 224.957,19.1381 L 267.749,25.5353 L 310.541,19.1381 z " style="fill-opacity:0.5;fill:rgb(169,169,169);stroke:rgb(169,169,169);stroke-width:1"/></g>
<rect x="220.979" y="0" width="258.041" height="600" style="opacity:0.8;fill:none;stroke:rgb(0,0,0);stroke-width:1;stroke-linecap:round"/>
</svg>
