<?xml version="1.0" standalone="no"?>
<!DOCTYPE svg PUBLIC "-//W3C//DTD SVG 1.1//EN"
"http://www.w3.org/Graphics/SVG/1.1/DTD/svg11.dtd">
<svg width="100%" height="100%" version="1.1"
xmlns="http://www.w3.org/2000/svg"
xmlns:xlink="http://www.w3.org/1999/xlink">
<g fill-rule="evenodd"><path d="M 156.452,590.323 L 156.452,522.581 L 224.194,522.581 L 262.903,512.903 L 272.581,551.613 L 262.903,600 L 233.871,590.323 L 204.839,590.323 L 185.484,600 L 185.484,590.323 L 156.452,590.323 z " style="fill-opacity:0.5;fill:rgb(169,169,169);stroke:rgb(169,169,169);stroke-width:1"/></g>
<g fill-rule="evenodd"><path d="M 272.581,590.323 L 272.581,522.581 L 340.323,522.581 L 379.032,512.903 L 388.71,551.613 L 379.032,600 L 350,590.323 L 320.968,590.323 L 301.613,600 L 301.613,590.323 L 272.581,590.323 z " style="fill-opacity:0.5;fill:rgb(169,169,169);stroke:rgb(169,169,169);stroke-width:1"/></g>
<g fill-rule="evenodd"><path d="M 388.71,590.323 L 388.71,522.581 L 456.452,522.581 L 495.161,512.903 L 504.839,551.613 L 495.161,600 L 466.129,590.323 L 437.097,590.323 L 417.742,600 L 417.742,590.323 L 388.71,590.323 z " style="fill-opacity:0.5;fill:rgb(169,169,169);stroke:rgb(169,169,169);stroke-width:1"/></g>
<g fill-rule="evenodd"><path d="M 272.581,445.161 L 272.581,512.903 L 204.839,512.903 L 166.129,522.581 L 156.452,483.871 L 166.129,435.484 L 195.161,445.161 L 224.194,445.161 L 243.548,435.484 L 243.548,445.161 L 272.581,445.161 z " style="fill-opacity:0.5;fill:rgb(169,169,169);stroke:rgb(169,169,169);stroke-width:1"/></g>
<g fill-rule="evenodd"><path d="M 388.71,445.161 L 388.71,512.903 L 320.968,512.903 L 282.258,522.581 L 272.581,483.871 L 282.258,435.484 L 311.29,445.161 L 340.323,445.161 L 359.677,435.484 L 359.677,445.161 L 388.71,445.161 z " style="fill-opacity:0.5;fill:rgb(169,169,169);stroke:rgb(169,169,169);stroke-width:1"/></g>
<g fill-rule="evenodd"><path d="M 504.839,445.161 L 504.839,512.903 L 437.097,512.903 L 398.387,522.581 L 388.71,483.871 L 398.387,435.484 L 427.419,445.161 L 456.452,445.161 L 475.806,435.484 L 475.806,445.161 L 504.839,445.161 z " style="fill-opacity:0.5;fill:rgb(169,169,169);stroke:rgb(169,169,169);stroke-width:1"/></g>
<g fill-rule="evenodd"><path d="M 166.129,435.484 L 166.129,367.742 L 233.871,367.742 L 272.581,358.065 L 282.258,396.774 L 272.581,445.161 L 243.548,435.484 L 214.516,435.484 L 195.161,445.161 L 195.161,435.484 L 166.129,435.484 z " style="fill-opacity:0.5;fill:rgb(169,169,169);stroke:rgb(169,169,169);stroke-width:1"/></g>
<g fill-rule="evenodd"><path d="M 282.258,435.484 L 282.258,367.742 L 350,367.742 L 388.71,358.065 L 398.387,396.774 L 388.71,445.161 L 359.677,435.484 L 330.645,435.484 L 311.29,445.161 L 311.29,435.484 L 282.258,435.484 z " style="fill-opacity:0.5;fill:rgb(169,169,169);stroke:rgb(169,169,169);stroke-width:1"/></g>
<g fill-rule="evenodd"><path d="M 533.871,387.097 L 543.548,416.129 L 533.871,435.484 L 504.839,445.161 L 475.806,435.484 L 437.097,445.161 L 427.419,435.484 L 427.419,416.129 L 417.742,406.452 L 427.419,387.097 L 533.871,387.097 z " style="fill-opacity:0.5;fill:rgb(169,169,169);stroke:rgb(169,169,169);stroke-width:1"/></g>
<g fill-rule="evenodd"><path d="M 398.387,387.097 L 388.71,358.065 L 398.387,338.71 L 427.419,329.032 L 456.452,338.71 L 495.161,329.032 L 504.839,338.71 L 504.839,358.065 L 514.516,367.742 L 504.839,387.097 L 398.387,387.097 z " style="fill-opacity:0.5;fill:rgb(169,169,169);stroke:rgb(169,169,169);stroke-width:1"/></g>
<g fill-rule="evenodd"><path d="M 330.645,309.677 L 340.323,338.71 L 330.645,358.065 L 301.613,367.742 L 272.581,358.065 L 233.871,367.742 L 224.194,358.065 L 224.194,338.71 L 214.516,329.032 L 224.194,309.677 L 330.645,309.677 z " style="fill-opacity:0.5;fill:rgb(169,169,169);stroke:rgb(169,169,169);stroke-width:1"/></g>
<g fill-rule="evenodd"><path d="M 485.484,280.645 L 495.161,309.677 L 485.484,329.032 L 456.452,338.71 L 427.419,329.032 L 388.71,338.71 L 379.032,329.032 L 379.032,309.677 L 369.355,300 L 379.032,280.645 L 485.484,280.645 z " style="fill-opacity:0.5;fill:rgb(169,169,169);stroke:rgb(169,169,169);stroke-width:1"/></g>
<g fill-rule="evenodd"><path d="M 166.129,309.677 L 156.452,280.645 L 166.129,261.29 L 195.161,251.613 L 224.194,261.29 L 262.903,251.613 L 272.581,261.29 L 272.581,280.645 L 282.258,290.323 L 272.581,309.677 L 166.129,309.677 z " style="fill-opacity:0.5;fill:rgb(169,169,169);stroke:rgb(169,169,169);stroke-width:1"/></g>
<g fill-rule="evenodd"><path d="M 379.032,232.258 L 388.71,261.29 L 379.032,280.645 L 350,290.323 L 320.968,280.645 L 282.258,290.323 L 272.581,280.645 L 272.581,261.29 L 262.903,251.613 L 272.581,232.258 L 379.032,232.258 z " style="fill-opacity:0.5;fill:rgb(169,169,169);stroke:rgb(169,169,169);stroke-width:1"/></g>
<g fill-rule="evenodd"><path d="M 398.387,280.645 L 388.71,251.613 L 398.387,232.258 L 427.419,222.581 L 456.452,232.258 L 495.161,222.581 L 504.839,232.258 L 504.839,251.613 L 514.516,261.29 L 504.839,280.645 L 398.387,280.645 z " style="fill-opacity:0.5;fill:rgb(169,169,169);stroke:rgb(169,169,169);stroke-width:1"/></g>
<g fill-rule="evenodd"><path d="M 272.581,183.871 L 282.258,212.903 L 272.581,232.258 L 243.548,241.935 L 214.516,232.258 L 175.806,241.935 L 166.129,232.258 L 166.129,212.903 L 156.452,203.226 L 166.129,183.871 L 272.581,183.871 z " style="fill-opacity:0.5;fill:rgb(169,169,169);stroke:rgb(169,169,169);stroke-width:1"/></g>
<g fill-rule="evenodd"><path d="M 301.613,232.258 L 291.935,212.903 L 282.258,203.226 L 291.935,193.548 L 291.935,183.871 L 301.613,164.516 L 369.355,183.871 L 369.355,222.581 L 301.613,232.258 z " style="fill-opacity:0.5;fill:rgb(169,169,169);stroke:rgb(169,169,169);stroke-width:1"/></g>
<g fill-rule="evenodd"><path d="M 388.71,222.581 L 379.032,203.226 L 369.355,193.548 L 379.032,183.871 L 379.032,174.194 L 388.71,154.839 L 456.452,174.194 L 456.452,212.903 L 388.71,222.581 z " style="fill-opacity:0.5;fill:rgb(169,169,169);stroke:rgb(169,169,169);stroke-width:1"/></g>
<g fill-rule="evenodd"><path d="M 475.806,222.581 L 466.129,203.226 L 456.452,193.548 L 466.129,183.871 L 466.129,174.194 L 475.806,154.839 L 543.548,174.194 L 543.548,212.903 L 475.806,222.581 z " style="fill-opacity:0.5;fill:rgb(169,169,169);stroke:rgb(169,169,169);stroke-width:1"/></g>
<g fill-rule="evenodd"><path d="M 175.806,183.871 L 166.129,164.516 L 156.452,154.839 L 166.129,145.161 L 166.129,135.484 L 175.806,116.129 L 243.548,135.484 L 243.548,174.194 L 175.806,183.871 z " style="fill-opacity:0.5;fill:rgb(169,169,169);stroke:rgb(169,169,169);stroke-width:1"/></g>
<g fill-rule="evenodd"><path d="M 369.355,116.129 L 379.032,135.484 L 388.71,145.161 L 379.032,154.839 L 379.032,164.516 L 369.355,183.871 L 301.613,164.516 L 301.613,125.806 L 369.355,116.129 z " style="fill-opacity:0.5;fill:rgb(169,169,169);stroke:rgb(169,169,169);stroke-width:1"/></g>
<g fill-rule="evenodd"><path d="M 456.452,106.452 L 466.129,125.806 L 475.806,135.484 L 466.129,145.161 L 466.129,154.839 L 456.452,174.194 L 388.71,154.839 L 388.71,116.129 L 456.452,106.452 z " style="fill-opacity:0.5;fill:rgb(169,169,169);stroke:rgb(169,169,169);stroke-width:1"/></g>
<g fill-rule="evenodd"><path d="M 282.258,77.4194 L 291.935,96.7742 L 301.613,106.452 L 291.935,116.129 L 291.935,125.806 L 282.258,145.161 L 214.516,125.806 L 214.516,87.0968 L 282.258,77.4194 z " style="fill-opacity:0.5;fill:rgb(169,169,169);stroke:rgb(169,169,169);stroke-width:1"/></g>
<g fill-rule="evenodd"><path d="M 543.548,145.161 L 524.194,154.839 L 514.516,164.516 L 504.839,154.839 L 495.161,154.839 L 475.806,145.161 L 495.161,77.4194 L 533.871,77.4194 L 543.548,145.161 z " style="fill-opacity:0.5;fill:rgb(169,169,169);stroke:rgb(169,169,169);stroke-width:1"/></g>
<g fill-rule="evenodd"><path d="M 504.839,522.581 L 524.194,512.903 L 524.194,541.935 L 514.516,551.613 L 514.516,561.29 L 524.194,580.645 L 524.194,600 L 504.839,600 L 504.839,522.581 z " style="fill-opacity:0.5;fill:rgb(169,169,169);stroke:rgb(169,169,169);stroke-width:1"/></g>
<g fill-rule="evenodd"><path d="M 524.194,522.581 L 543.548,512.903 L 543.548,541.935 L 533.871,551.613 L 533.871,561.29 L 543.548,580.645 L 543.548,600 L 524.194,600 L 524.194,522.581 z " style="fill-opacity:0.5;fill:rgb(169,169,169);stroke:rgb(169,169,169);stroke-width:1"/></g>
<g fill-rule="evenodd"><path d="M 514.516,309.677 L 533.871,300 L 533.871,329.032 L 524.194,338.71 L 524.194,348.387 L 533.871,367.742 L 533.871,387.097 L 514.516,387.097 L 514.516,309.677 z " style="fill-opacity:0.5;fill:rgb(169,169,169);stroke:rgb(169,169,169);stroke-width:1"/></g>
<g fill-rule="evenodd"><path d="M 291.935,309.677 L 282.258,290.323 L 311.29,290.323 L 320.968,300 L 330.645,300 L 350,290.323 L 369.355,290.323 L 369.355,309.677 L 291.935,309.677 z " style="fill-opacity:0.5;fill:rgb(169,169,169);stroke:rgb(169,169,169);stroke-width:1"/></g>
<g fill-rule="evenodd"><path d="M 524.194,300 L 504.839,309.677 L 504.839,280.645 L 514.516,270.968 L 514.516,261.29 L 504.839,241.935 L 504.839,222.581 L 524.194,222.581 L 524.194,300 z " style="fill-opacity:0.5;fill:rgb(169,169,169);stroke:rgb(169,169,169);stroke-width:1"/></g>
<g fill-rule="evenodd"><path d="M 524.194,222.581 L 543.548,212.903 L 543.548,241.935 L 533.871,251.613 L 533.871,261.29 L 543.548,280.645 L 543.548,300 L 524.194,300 L 524.194,222.581 z " style="fill-opacity:0.5;fill:rgb(169,169,169);stroke:rgb(169,169,169);stroke-width:1"/></g>
<g fill-rule="evenodd"><path d="M 311.29,116.129 L 301.613,96.7742 L 330.645,96.7742 L 340.323,106.452 L 350,106.452 L 369.355,96.7742 L 388.71,96.7742 L 388.71,116.129 L 311.29,116.129 z " style="fill-opacity:0.5;fill:rgb(169,169,169);stroke:rgb(169,169,169);stroke-width:1"/></g>
<g fill-rule="evenodd"><path d="M 398.387,106.452 L 388.71,87.0968 L 417.742,87.0968 L 427.419,96.7742 L 437.097,96.7742 L 456.452,87.0968 L 475.806,87.0968 L 475.806,106.452 L 398.387,106.452 z " style="fill-opacity:0.5;fill:rgb(169,169,169);stroke:rgb(169,169,169);stroke-width:1"/></g>
<g fill-rule="evenodd"><path d="M 291.935,96.7742 L 282.258,77.4194 L 311.29,77.4194 L 320.968,87.0968 L 330.645,87.0968 L 350,77.4194 L 369.355,77.4194 L 369.355,96.7742 L 291.935,96.7742 z " style="fill-opacity:0.5;fill:rgb(169,169,169);stroke:rgb(169,169,169);stroke-width:1"/></g>
<g fill-rule="evenodd"><path d="M 379.032,87.0968 L 369.355,67.7419 L 398.387,67.7419 L 408.065,77.4194 L 417.742,77.4194 L 437.097,67.7419 L 456.452,67.7419 L 456.452,87.0968 L 379.032,87.0968 z " style="fill-opacity:0.5;fill:rgb(169,169,169);stroke:rgb(169,169,169);stroke-width:1"/></g>
<g fill-rule="evenodd"><path d="M 166.129,77.4194 L 156.452,58.0645 L 185.484,58.0645 L 195.161,67.7419 L 204.839,67.7419 L 224.194,58.0645 L 243.548,58.0645 L 243.548,77.4194 L 166.129,77.4194 z " style="fill-opacity:0.5;fill:rgb(169,169,169);stroke:rgb(169,169,169);stroke-width:1"/></g>
<g fill-rule="evenodd"><path d="M 253.226,77.4194 L 243.548,58.0645 L 272.581,58.0645 L 282.258,67.7419 L 291.935,67.7419 L 311.29,58.0645 L 330.645,58.0645 L 330.645,77.4194 L 253.226,77.4194 z " style="fill-opacity:0.5;fill:rgb(169,169,169);stroke:rgb(169,169,169);stroke-width:1"/></g>
<g fill-rule="evenodd"><path d="M 466.129,77.4194 L 456.452,58.0645 L 485.484,58.0645 L 495.161,67.7419 L 504.839,67.7419 L 524.194,58.0645 L 543.548,58.0645 L 543.548,77.4194 L 466.129,77.4194 z " style="fill-opacity:0.5;fill:rgb(169,169,169);stroke:rgb(169,169,169);stroke-width:1"/></g>
<g fill-rule="evenodd"><path d="M 340.323,67.7419 L 330.645,48.3871 L 359.677,48.3871 L 369.355,58.0645 L 379.032,58.0645 L 398.387,48.3871 L 417.742,48.3871 L 417.742,67.7419 L 340.323,67.7419 z " style="fill-opacity:0.5;fill:rgb(169,169,169);stroke:rgb(169,169,169);stroke-width:1"/></g>
<g fill-rule="evenodd"><path d="M 166.129,58.0645 L 156.452,38.7097 L 185.484,38.7097 L 195.161,48.3871 L 204.839,48.3871 L 224.194,38.7097 L 243.548,38.7097 L 243.548,58.0645 L 166.129,58.0645 z " style="fill-opacity:0.5;fill:rgb(169,169,169);stroke:rgb(169,169,169);stroke-width:1"/></g>
<g fill-rule="evenodd"><path d="M 504.839,512.903 L 504.839,483.871 L 533.871,483.871 L 543.548,493.548 L 543.548,512.903 L 504.839,512.903 z " style="fill-opacity:0.5;fill:rgb(169,169,169);stroke:rgb(169,169,169);stroke-width:1"/></g>
<g fill-rule="evenodd"><path d="M 504.839,483.871 L 504.839,454.839 L 533.871,454.839 L 543.548,464.516 L 543.548,483.871 L 504.839,483.871 z " style="fill-opacity:0.5;fill:rgb(169,169,169);stroke:rgb(169,169,169);stroke-width:1"/></g>
<g fill-rule="evenodd"><path d="M 156.452,367.742 L 156.452,338.71 L 185.484,338.71 L 195.161,348.387 L 195.161,367.742 L 156.452,367.742 z " style="fill-opacity:0.5;fill:rgb(169,169,169);stroke:rgb(169,169,169);stroke-width:1"/></g>
<g fill-rule="evenodd"><path d="M 340.323,358.065 L 340.323,329.032 L 369.355,329.032 L 379.032,338.71 L 379.032,358.065 L 340.323,358.065 z " style="fill-opacity:0.5;fill:rgb(169,169,169);stroke:rgb(169,169,169);stroke-width:1"/></g>
<g fill-rule="evenodd"><path d="M 156.452,338.71 L 156.452,309.677 L 185.484,309.677 L 195.161,319.355 L 195.161,338.71 L 156.452,338.71 z " style="fill-opacity:0.5;fill:rgb(169,169,169);stroke:rgb(169,169,169);stroke-width:1"/></g>
<g fill-rule="evenodd"><path d="M 243.548,183.871 L 243.548,154.839 L 272.581,154.839 L 282.258,164.516 L 282.258,183.871 L 243.548,183.871 z " style="fill-opacity:0.5;fill:rgb(169,169,169);stroke:rgb(169,169,169);stroke-width:1"/></g>
<g fill-rule="evenodd"><path d="M 156.452,116.129 L 156.452,87.0968 L 185.484,87.0968 L 195.161,96.7742 L 195.161,116.129 L 156.452,116.129 z " style="fill-opacity:0.5;fill:rgb(169,169,169);stroke:rgb(169,169,169);stroke-width:1"/></g>
<g fill-rule="evenodd"><path d="M 417.742,67.7419 L 417.742,38.7097 L 446.774,38.7097 L 456.452,48.3871 L 456.452,67.7419 L 417.742,67.7419 z " style="fill-opacity:0.5;fill:rgb(169,169,169);stroke:rgb(169,169,169);stroke-width:1"/></g>
<g fill-rule="evenodd"><path d="M 243.548,58.0645 L 243.548,29.0323 L 272.581,29.0323 L 282.258,38.7097 L 282.258,58.0645 L 243.548,58.0645 z " style="fill-opacity:0.5;fill:rgb(169,169,169);stroke:rgb(169,169,169);stroke-width:1"/></g>
<g fill-rule="evenodd"><path d="M 282.258,58.0645 L 282.258,29.0323 L 311.29,29.0323 L 320.968,38.7097 L 320.968,58.0645 L 282.258,58.0645 z " style="fill-opacity:0.5;fill:rgb(169,169,169);stroke:rgb(169,169,169);stroke-width:1"/></g>
<g fill-rule="evenodd"><path d="M 456.452,58.0645 L 456.452,29.0323 L 485.484,29.0323 L 495.161,38.7097 L 495.161,58.0645 L 456.452,58.0645 z " style="fill-opacity:0.5;fill:rgb(169,169,169);stroke:rgb(169,169,169);stroke-width:1"/></g>
<g fill-rule="evenodd"><path d="M 495.161,58.0645 L 495.161,29.0323 L 524.194,29.0323 L 533.871,38.7097 L 533.871,58.0645 L 495.161,58.0645 z " style="fill-opacity:0.5;fill:rgb(169,169,169);stroke:rgb(169,169,169);stroke-width:1"/></g>
<g fill-rule="evenodd"><path d="M 320.968,48.3871 L 320.968,19.3548 L 350,19.3548 L 359.677,29.0323 L 359.677,48.3871 L 320.968,48.3871 z " style="fill-opacity:0.5;fill:rgb(169,169,169);stroke:rgb(169,169,169);stroke-width:1"/></g>
<g fill-rule="evenodd"><path d="M 359.677,48.3871 L 359.677,19.3548 L 388.71,19.3548 L 398.387,29.0323 L 398.387,48.3871 L 359.677,48.3871 z " style="fill-opacity:0.5;fill:rgb(169,169,169);stroke:rgb(169,169,169);stroke-width:1"/></g>
<g fill-rule="evenodd"><path d="M 156.452,38.7097 L 156.452,9.67742 L 185.484,9.67742 L 195.161,19.3548 L 195.161,38.7097 L 156.452,38.7097 z " style="fill-opacity:0.5;fill:rgb(169,169,169);stroke:rgb(169,169,169);stroke-width:1"/></g>
<g fill-rule="evenodd"><path d="M 156.452,367.742 L 166.129,377.419 L 166.129,435.484 L 156.452,445.161 L 156.452,367.742 z " style="fill-opacity:0.5;fill:rgb(169,169,169);stroke:rgb(169,169,169);stroke-width:1"/></g>
<g fill-rule="evenodd"><path d="M 543.548,396.774 L 533.871,387.097 L 533.871,329.032 L 543.548,319.355 L 543.548,396.774 z " style="fill-opacity:0.5;fill:rgb(169,169,169);stroke:rgb(169,169,169);stroke-width:1"/></g>
<g fill-rule="evenodd"><path d="M 156.452,251.613 L 166.129,241.935 L 224.194,241.935 L 233.871,251.613 L 156.452,251.613 z " style="fill-opacity:0.5;fill:rgb(169,169,169);stroke:rgb(169,169,169);stroke-width:1"/></g>
<g fill-rule="evenodd"><path d="M 195.161,29.0323 L 204.839,19.3548 L 262.903,19.3548 L 272.581,29.0323 L 195.161,29.0323 z " style="fill-opacity:0.5;fill:rgb(169,169,169);stroke:rgb(169,169,169);stroke-width:1"/></g>
<g fill-rule="evenodd"><path d="M 466.129,19.3548 L 456.452,29.0323 L 398.387,29.0323 L 388.71,19.3548 L 466.129,19.3548 z " style="fill-opacity:0.5;fill:rgb(169,169,169);stroke:rgb(169,169,169);stroke-width:1"/></g>
<g fill-rule="evenodd"><path d="M 456.452,29.0323 L 466.129,19.3548 L 524.194,19.3548 L 533.871,29.0323 L 456.452,29.0323 z " style="fill-opacity:0.5;fill:rgb(169,169,169);stroke:rgb(169,169,169);stroke-width:1"/></g>
<g fill-rule="evenodd"><path d="M 262.903,9.67742 L 253.226,19.3548 L 195.161,19.3548 L 185.484,9.67742 L 262.903,9.67742 z " style="fill-opacity:0.5;fill:rgb(169,169,169);stroke:rgb(169,169,169);stroke-width:1"/></g>
<g fill-rule="evenodd"><path d="M 253.226,19.3548 L 262.903,9.67742 L 320.968,9.67742 L 330.645,19.3548 L 253.226,19.3548 z " style="fill-opacity:0.5;fill:rgb(169,169,169);stroke:rgb(169,169,169);stroke-width:1"/></g>
<g fill-rule="evenodd"><path d="M 398.387,9.67742 L 388.71,19.3548 L 330.645,19.3548 L 320.968,9.67742 L 398.387,9.67742 z " style="fill-opacity:0.5;fill:rgb(169,169,169);stroke:rgb(169,169,169);stroke-width:1"/></g>
<g fill-rule="evenodd"><path d="M 388.71,19.3548 L 398.387,9.67742 L 456.452,9.67742 L 466.129,19.3548 L 388.71,19.3548 z " style="fill-opacity:0.5;fill:rgb(169,169,169);stroke:rgb(169,169,169);stroke-width:1"/></g>
<g fill-rule="evenodd"><path d="M 533.871,9.67742 L 524.194,19.3548 L 466.129,19.3548 L 456.452,9.67742 L 533.871,9.67742 z " style="fill-opacity:0.5;fill:rgb(169,169,169);stroke:rgb(169,169,169);stroke-width:1"/></g>
<g fill-rule="evenodd"><path d="M 156.452,9.67742 L 166.129,0 L 224.194,0 L 233.871,9.67742 L 156.452,9.67742 z " style="fill-opacity:0.5;fill:rgb(169,169,169);stroke:rgb(169,169,169);stroke-width:1"/></g>
<g fill-rule="evenodd"><path d="M 301.613,0 L 291.935,9.67742 L 233.871,9.67742 L 224.194,0 L 301.613,0 z " style="fill-opacity:0.5;fill:rgb(169,169,169);stroke:rgb(169,169,169);stroke-width:1"/></g>
<g fill-rule="evenodd"><path d="M 291.935,9.67742 L 301.613,0 L 359.677,0 L 369.355,9.67742 L 291.935,9.67742 z " style="fill-opacity:0.5;fill:rgb(169,169,169);stroke:rgb(169,169,169);stroke-width:1"/></g>
<g fill-rule="evenodd"><path d="M 437.097,0 L 427.419,9.67742 L 369.355,9.67742 L 359.677,0 L 437.097,0 z " style="fill-opacity:0.5;fill:rgb(169,169,169);stroke:rgb(169,169,169);stroke-width:1"/></g>
<g fill-rule="evenodd"><path d="M 504.839,454.839 L 504.839,445.161 L 543.548,445.161 L 543.548,454.839 L 504.839,454.839 z " style="fill-opacity:0.5;fill:rgb(169,169,169);stroke:rgb(169,169,169);stroke-width:1"/></g>
<g fill-rule="evenodd"><path d="M 398.387,396.774 L 408.065,396.774 L 408.065,435.484 L 398.387,435.484 L 398.387,396.774 z " style="fill-opacity:0.5;fill:rgb(169,169,169);stroke:rgb(169,169,169);stroke-width:1"/></g>
<g fill-rule="evenodd"><path d="M 408.065,396.774 L 417.742,396.774 L 417.742,435.484 L 408.065,435.484 L 408.065,396.774 z " style="fill-opacity:0.5;fill:rgb(169,169,169);stroke:rgb(169,169,169);stroke-width:1"/></g>
<g fill-rule="evenodd"><path d="M 195.161,329.032 L 204.839,329.032 L 204.839,367.742 L 195.161,367.742 L 195.161,329.032 z " style="fill-opacity:0.5;fill:rgb(169,169,169);stroke:rgb(169,169,169);stroke-width:1"/></g>
<g fill-rule="evenodd"><path d="M 204.839,329.032 L 214.516,329.032 L 214.516,367.742 L 204.839,367.742 L 204.839,329.032 z " style="fill-opacity:0.5;fill:rgb(169,169,169);stroke:rgb(169,169,169);stroke-width:1"/></g>
<g fill-rule="evenodd"><path d="M 340.323,329.032 L 340.323,319.355 L 379.032,319.355 L 379.032,329.032 L 340.323,329.032 z " style="fill-opacity:0.5;fill:rgb(169,169,169);stroke:rgb(169,169,169);stroke-width:1"/></g>
<g fill-rule="evenodd"><path d="M 504.839,319.355 L 514.516,319.355 L 514.516,358.065 L 504.839,358.065 L 504.839,319.355 z " style="fill-opacity:0.5;fill:rgb(169,169,169);stroke:rgb(169,169,169);stroke-width:1"/></g>
<g fill-rule="evenodd"><path d="M 340.323,319.355 L 340.323,309.677 L 379.032,309.677 L 379.032,319.355 L 340.323,319.355 z " style="fill-opacity:0.5;fill:rgb(169,169,169);stroke:rgb(169,169,169);stroke-width:1"/></g>
<g fill-rule="evenodd"><path d="M 495.161,290.323 L 504.839,290.323 L 504.839,329.032 L 495.161,329.032 L 495.161,290.323 z " style="fill-opacity:0.5;fill:rgb(169,169,169);stroke:rgb(169,169,169);stroke-width:1"/></g>
<g fill-rule="evenodd"><path d="M 282.258,154.839 L 291.935,154.839 L 291.935,193.548 L 282.258,193.548 L 282.258,154.839 z " style="fill-opacity:0.5;fill:rgb(169,169,169);stroke:rgb(169,169,169);stroke-width:1"/></g>
<g fill-rule="evenodd"><path d="M 243.548,154.839 L 243.548,145.161 L 282.258,145.161 L 282.258,154.839 L 243.548,154.839 z " style="fill-opacity:0.5;fill:rgb(169,169,169);stroke:rgb(169,169,169);stroke-width:1"/></g>
<g fill-rule="evenodd"><path d="M 291.935,125.806 L 301.613,125.806 L 301.613,164.516 L 291.935,164.516 L 291.935,125.806 z " style="fill-opacity:0.5;fill:rgb(169,169,169);stroke:rgb(169,169,169);stroke-width:1"/></g>
<g fill-rule="evenodd"><path d="M 156.452,87.0968 L 156.452,77.4194 L 195.161,77.4194 L 195.161,87.0968 L 156.452,87.0968 z " style="fill-opacity:0.5;fill:rgb(169,169,169);stroke:rgb(169,169,169);stroke-width:1"/></g>
<g fill-rule="evenodd"><path d="M 195.161,77.4194 L 204.839,77.4194 L 204.839,116.129 L 195.161,116.129 L 195.161,77.4194 z " style="fill-opacity:0.5;fill:rgb(169,169,169);stroke:rgb(169,169,169);stroke-width:1"/></g>
<g fill-rule="evenodd"><path d="M 204.839,77.4194 L 214.516,77.4194 L 214.516,116.129 L 204.839,116.129 L 204.839,77.4194 z " style="fill-opacity:0.5;fill:rgb(169,169,169);stroke:rgb(169,169,169);stroke-width:1"/></g>
<g fill-rule="evenodd"><path d="M 156.452,600 L 156.452,590.323 L 185.484,590.323 L 185.484,600 L 156.452,600 z " style="fill-opacity:0.5;fill:rgb(169,169,169);stroke:rgb(169,169,169);stroke-width:1"/></g>
<g fill-rule="evenodd"><path d="M 204.839,600 L 204.839,590.323 L 233.871,590.323 L 233.871,600 L 204.839,600 z " style="fill-opacity:0.5;fill:rgb(169,169,169);stroke:rgb(169,169,169);stroke-width:1"/></g>
<g fill-rule="evenodd"><path d="M 272.581,600 L 272.581,590.323 L 301.613,590.323 L 301.613,600 L 272.581,600 z " style="fill-opacity:0.5;fill:rgb(169,169,169);stroke:rgb(169,169,169);stroke-width:1"/></g>
<g fill-rule="evenodd"><path d="M 320.968,600 L 320.968,590.323 L 350,590.323 L 350,600 L 320.968,600 z " style="fill-opacity:0.5;fill:rgb(169,169,169);stroke:rgb(169,169,169);stroke-width:1"/></g>
<g fill-rule="evenodd"><path d="M 388.71,600 L 388.71,590.323 L 417.742,590.323 L 417.742,600 L 388.71,600 z " style="fill-opacity:0.5;fill:rgb(169,169,169);stroke:rgb(169,169,169);stroke-width:1"/></g>
<g fill-rule="evenodd"><path d="M 437.097,600 L 437.097,590.323 L 466.129,590.323 L 466.129,600 L 437.097,600 z " style="fill-opacity:0.5;fill:rgb(169,169,169);stroke:rgb(169,169,169);stroke-width:1"/></g>
<g fill-rule="evenodd"><path d="M 214.516,338.71 L 224.194,338.71 L 224.194,367.742 L 214.516,367.742 L 214.516,338.71 z " style="fill-opacity:0.5;fill:rgb(169,169,169);stroke:rgb(169,169,169);stroke-width:1"/></g>
<g fill-rule="evenodd"><path d="M 233.871,251.613 L 233.871,241.935 L 262.903,241.935 L 262.903,251.613 L 233.871,251.613 z " style="fill-opacity:0.5;fill:rgb(169,169,169);stroke:rgb(169,169,169);stroke-width:1"/></g>
<g fill-rule="evenodd"><path d="M 369.355,232.258 L 369.355,222.581 L 398.387,222.581 L 398.387,232.258 L 369.355,232.258 z " style="fill-opacity:0.5;fill:rgb(169,169,169);stroke:rgb(169,169,169);stroke-width:1"/></g>
<g fill-rule="evenodd"><path d="M 156.452,212.903 L 166.129,212.903 L 166.129,241.935 L 156.452,241.935 L 156.452,212.903 z " style="fill-opacity:0.5;fill:rgb(169,169,169);stroke:rgb(169,169,169);stroke-width:1"/></g>
<g fill-rule="evenodd"><path d="M 156.452,116.129 L 166.129,116.129 L 166.129,145.161 L 156.452,145.161 L 156.452,116.129 z " style="fill-opacity:0.5;fill:rgb(169,169,169);stroke:rgb(169,169,169);stroke-width:1"/></g>
<g fill-rule="evenodd"><path d="M 456.452,87.0968 L 456.452,77.4194 L 485.484,77.4194 L 485.484,87.0968 L 456.452,87.0968 z " style="fill-opacity:0.5;fill:rgb(169,169,169);stroke:rgb(169,169,169);stroke-width:1"/></g>
<g fill-rule="evenodd"><path d="M 330.645,77.4194 L 330.645,67.7419 L 359.677,67.7419 L 359.677,77.4194 L 330.645,77.4194 z " style="fill-opacity:0.5;fill:rgb(169,169,169);stroke:rgb(169,169,169);stroke-width:1"/></g>
<g fill-rule="evenodd"><path d="M 195.161,38.7097 L 195.161,29.0323 L 224.194,29.0323 L 224.194,38.7097 L 195.161,38.7097 z " style="fill-opacity:0.5;fill:rgb(169,169,169);stroke:rgb(169,169,169);stroke-width:1"/></g>
<g fill-rule="evenodd"><path d="M 398.387,38.7097 L 398.387,29.0323 L 427.419,29.0323 L 427.419,38.7097 L 398.387,38.7097 z " style="fill-opacity:0.5;fill:rgb(169,169,169);stroke:rgb(169,169,169);stroke-width:1"/></g>
<rect x="156.452" y="0" width="387.097" height="600" style="opacity:0.8;fill:none;stroke:rgb(0,0,0);stroke-width:1;stroke-linecap:round"/>
</svg>
