<?xml version="1.0" standalone="no"?>
<!DOCTYPE svg PUBLIC "-//W3C//DTD SVG 1.1//EN"
"http://www.w3.org/Graphics/SVG/1.1/DTD/svg11.dtd">
<svg width="100%" height="100%" version="1.1"
xmlns="http://www.w3.org/2000/svg"
xmlns:xlink="http://www.w3.org/1999/xlink">
<g fill-rule="evenodd"><path d="M 0,340 L 0,280 L 60,280 L 60,340 L 0,340 z " style="fill-opacity:0.5;fill:rgb(169,169,169);stroke:rgb(169,169,169);stroke-width:1"/></g>
<g fill-rule="evenodd"><path d="M 90,340 L 60,320 L 60,300 L 80,290 L 110,290 L 140,300 L 140,320 L 120,340 L 90,340 z " style="fill-opacity:0.5;fill:rgb(169,169,169);stroke:rgb(169,169,169);stroke-width:1"/></g>
<g fill-rule="evenodd"><path d="M 140,340 L 140,280 L 180,280 L 180,310 L 200,310 L 200,340 L 140,340 z " style="fill-opacity:0.5;fill:rgb(169,169,169);stroke:rgb(169,169,169);stroke-width:1"/></g>
<g fill-rule="evenodd"><path d="M 200,340 L 200,280 L 240,280 L 240,310 L 260,310 L 260,340 L 200,340 z " style="fill-opacity:0.5;fill:rgb(169,169,169);stroke:rgb(169,169,169);stroke-width:1"/></g>
<g fill-rule="evenodd"><path d="M 280,340 L 260,320 L 260,300 L 280,280 L 300,280 L 320,300 L 320,320 L 300,340 L 280,340 z " style="fill-opacity:0.5;fill:rgb(169,169,169);stroke:rgb(169,169,169);stroke-width:1"/></g>
<g fill-rule="evenodd"><path d="M 320,340 L 320,290 L 370,290 L 370,340 L 320,340 z " style="fill-opacity:0.5;fill:rgb(169,169,169);stroke:rgb(169,169,169);stroke-width:1"/></g>
<g fill-rule="evenodd"><path d="M 370,340 L 370,290 L 400,290 L 400,310 L 420,310 L 420,340 L 370,340 z " style="fill-opacity:0.5;fill:rgb(169,169,169);stroke:rgb(169,169,169);stroke-width:1"/></g>
<g fill-rule="evenodd"><path d="M 440,340 L 440,320 L 420,320 L 420,300 L 440,300 L 440,280 L 460,280 L 460,300 L 480,300 L 480,320 L 460,320 L 460,340 L 440,340 z " style="fill-opacity:0.5;fill:rgb(169,169,169);stroke:rgb(169,169,169);stroke-width:1"/></g>
<g fill-rule="evenodd"><path d="M 500,340 L 500,320 L 480,320 L 480,300 L 500,300 L 500,280 L 520,280 L 520,300 L 540,300 L 540,320 L 520,320 L 520,340 L 500,340 z " style="fill-opacity:0.5;fill:rgb(169,169,169);stroke:rgb(169,169,169);stroke-width:1"/></g>
<g fill-rule="evenodd"><path d="M 540,340 L 540,310 L 600,310 L 600,340 L 540,340 z " style="fill-opacity:0.5;fill:rgb(169,169,169);stroke:rgb(169,169,169);stroke-width:1"/></g>
<g fill-rule="evenodd"><path d="M 600,340 L 600,300 L 640,300 L 640,340 L 600,340 z " style="fill-opacity:0.5;fill:rgb(169,169,169);stroke:rgb(169,169,169);stroke-width:1"/></g>
<g fill-rule="evenodd"><path d="M 640,330 L 640,320 L 660,310 L 680,310 L 700,320 L 700,330 L 680,340 L 660,340 L 640,330 z " style="fill-opacity:0.5;fill:rgb(169,169,169);stroke:rgb(169,169,169);stroke-width:1"/></g>
<g fill-rule="evenodd"><path d="M 630,280 L 700,280 L 700,320 L 630,280 z " style="fill-opacity:0.5;fill:rgb(169,169,169);stroke:rgb(169,169,169);stroke-width:1"/></g>
<g fill-rule="evenodd"><path d="M 420,310 L 370,260 L 420,260 L 420,310 z " style="fill-opacity:0.5;fill:rgb(169,169,169);stroke:rgb(169,169,169);stroke-width:1"/></g>
<g fill-rule="evenodd"><path d="M 200,270 L 200,310 L 180,310 L 180,280 L 160,280 L 160,270 L 200,270 z " style="fill-opacity:0.5;fill:rgb(169,169,169);stroke:rgb(169,169,169);stroke-width:1"/></g>
<g fill-rule="evenodd"><path d="M 540,310 L 540,290 L 590,290 L 590,310 L 540,310 z " style="fill-opacity:0.5;fill:rgb(169,169,169);stroke:rgb(169,169,169);stroke-width:1"/></g>
<g fill-rule="evenodd"><path d="M 80,270 L 140,270 L 140,300 L 80,270 z " style="fill-opacity:0.5;fill:rgb(169,169,169);stroke:rgb(169,169,169);stroke-width:1"/></g>
<g fill-rule="evenodd"><path d="M 240,270 L 280,270 L 240,310 L 240,270 z " style="fill-opacity:0.5;fill:rgb(169,169,169);stroke:rgb(169,169,169);stroke-width:1"/></g>
<g fill-rule="evenodd"><path d="M 570,280 L 570,290 L 540,290 L 540,300 L 520,300 L 520,280 L 570,280 z " style="fill-opacity:0.5;fill:rgb(169,169,169);stroke:rgb(169,169,169);stroke-width:1"/></g>
<g fill-rule="evenodd"><path d="M 460,340 L 460,330 L 490,330 L 490,320 L 500,320 L 500,340 L 460,340 z " style="fill-opacity:0.5;fill:rgb(169,169,169);stroke:rgb(169,169,169);stroke-width:1"/></g>
<g fill-rule="evenodd"><path d="M 470,300 L 470,290 L 460,290 L 460,280 L 470,280 L 470,270 L 480,270 L 480,280 L 490,280 L 490,290 L 480,290 L 480,300 L 470,300 z " style="fill-opacity:0.5;fill:rgb(169,169,169);stroke:rgb(169,169,169);stroke-width:1"/></g>
<g fill-rule="evenodd"><path d="M 590,300 L 590,290 L 580,290 L 580,280 L 590,280 L 590,270 L 600,270 L 600,280 L 610,280 L 610,290 L 600,290 L 600,300 L 590,300 z " style="fill-opacity:0.5;fill:rgb(169,169,169);stroke:rgb(169,169,169);stroke-width:1"/></g>
<g fill-rule="evenodd"><path d="M 320,270 L 320,300 L 290,270 L 320,270 z " style="fill-opacity:0.5;fill:rgb(169,169,169);stroke:rgb(169,169,169);stroke-width:1"/></g>
<g fill-rule="evenodd"><path d="M 600,290 L 640,290 L 640,300 L 600,300 L 600,290 z " style="fill-opacity:0.5;fill:rgb(169,169,169);stroke:rgb(169,169,169);stroke-width:1"/></g>
<g fill-rule="evenodd"><path d="M 60,340 L 60,320 L 80,340 L 60,340 z " style="fill-opacity:0.5;fill:rgb(169,169,169);stroke:rgb(169,169,169);stroke-width:1"/></g>
<rect x="0" y="260" width="700" height="80" style="opacity:0.8;fill:none;stroke:rgb(0,0,0);stroke-width:1;stroke-linecap:round"/>
</svg>
