<?xml version="1.0" standalone="no"?>
<!DOCTYPE svg PUBLIC "-//W3C//DTD SVG 1.1//EN"
"http://www.w3.org/Graphics/SVG/1.1/DTD/svg11.dtd">
<svg width="100%" height="100%" version="1.1"
xmlns="http://www.w3.org/2000/svg"
xmlns:xlink="http://www.w3.org/1999/xlink">
<g fill-rule="evenodd"><path d="M 398.038,459.889 L 337.991,387.833 L 245.918,395.839 L 149.842,407.848 L 169.858,443.877 L 261.931,600 L 398.038,459.889 z " style="fill-opacity:0.5;fill:rgb(169,169,169);stroke:rgb(169,169,169);stroke-width:1"/></g>
<g fill-rule="evenodd"><path d="M 550.158,600 L 458.085,443.877 L 446.076,519.937 L 285.949,600 L 550.158,600 z " style="fill-opacity:0.5;fill:rgb(169,169,169);stroke:rgb(169,169,169);stroke-width:1"/></g>
<g fill-rule="evenodd"><path d="M 402.041,335.792 L 386.028,435.871 L 458.085,443.877 L 542.152,451.883 L 534.145,423.861 L 498.117,323.782 L 402.041,335.792 z " style="fill-opacity:0.5;fill:rgb(169,169,169);stroke:rgb(169,169,169);stroke-width:1"/></g>
<g fill-rule="evenodd"><path d="M 390.172,409.97 L 390.172,281.869 L 226.043,281.869 L 258.068,353.926 L 390.172,409.97 z " style="fill-opacity:0.5;fill:rgb(169,169,169);stroke:rgb(169,169,169);stroke-width:1"/></g>
<g fill-rule="evenodd"><path d="M 454.082,329.286 L 550.158,169.16 L 374.019,169.16 L 454.082,329.286 z " style="fill-opacity:0.5;fill:rgb(169,169,169);stroke:rgb(169,169,169);stroke-width:1"/></g>
<g fill-rule="evenodd"><path d="M 374.019,281.869 L 229.905,173.784 L 149.842,281.869 L 374.019,281.869 z " style="fill-opacity:0.5;fill:rgb(169,169,169);stroke:rgb(169,169,169);stroke-width:1"/></g>
<g fill-rule="evenodd"><path d="M 291.866,115.171 L 231.818,175.219 L 363.922,231.263 L 367.926,207.244 L 383.938,107.165 L 291.866,115.171 z " style="fill-opacity:0.5;fill:rgb(169,169,169);stroke:rgb(169,169,169);stroke-width:1"/></g>
<g fill-rule="evenodd"><path d="M 538.148,169.16 L 550.158,93.1002 L 530.142,57.0718 L 470.095,61.0749 L 378.022,73.0844 L 538.148,169.16 z " style="fill-opacity:0.5;fill:rgb(169,169,169);stroke:rgb(169,169,169);stroke-width:1"/></g>
<g fill-rule="evenodd"><path d="M 149.842,116.092 L 149.842,256.202 L 285.949,116.092 L 149.842,116.092 z " style="fill-opacity:0.5;fill:rgb(169,169,169);stroke:rgb(169,169,169);stroke-width:1"/></g>
<g fill-rule="evenodd"><path d="M 161.852,92.0726 L 265.934,116.092 L 293.956,108.085 L 149.842,2.0095e-14 L 161.852,92.0726 z " style="fill-opacity:0.5;fill:rgb(169,169,169);stroke:rgb(169,169,169);stroke-width:1"/></g>
<g fill-rule="evenodd"><path d="M 293.956,108.085 L 422.057,28.0221 L 273.94,28.0221 L 293.956,108.085 z " style="fill-opacity:0.5;fill:rgb(169,169,169);stroke:rgb(169,169,169);stroke-width:1"/></g>
<g fill-rule="evenodd"><path d="M 550.158,386.231 L 550.158,254.127 L 490.111,314.175 L 550.158,386.231 z " style="fill-opacity:0.5;fill:rgb(169,169,169);stroke:rgb(169,169,169);stroke-width:1"/></g>
<g fill-rule="evenodd"><path d="M 221.899,600 L 225.902,575.981 L 193.877,503.924 L 149.842,591.994 L 221.899,600 z " style="fill-opacity:0.5;fill:rgb(169,169,169);stroke:rgb(169,169,169);stroke-width:1"/></g>
<g fill-rule="evenodd"><path d="M 546.155,487.912 L 458.085,443.877 L 538.148,571.978 L 546.155,487.912 z " style="fill-opacity:0.5;fill:rgb(169,169,169);stroke:rgb(169,169,169);stroke-width:1"/></g>
<g fill-rule="evenodd"><path d="M 257.927,394.795 L 237.912,314.732 L 149.842,314.732 L 257.927,394.795 z " style="fill-opacity:0.5;fill:rgb(169,169,169);stroke:rgb(169,169,169);stroke-width:1"/></g>
<g fill-rule="evenodd"><path d="M 546.155,1.64342 L 446.076,37.6718 L 550.158,61.6908 L 546.155,1.64342 z " style="fill-opacity:0.5;fill:rgb(169,169,169);stroke:rgb(169,169,169);stroke-width:1"/></g>
<rect x="149.842" y="2.0095e-14" width="400.316" height="600" style="opacity:0.8;fill:none;stroke:rgb(0,0,0);stroke-width:1;stroke-linecap:round"/>
</svg>
