<?xml version="1.0" standalone="no"?>
<!DOCTYPE svg PUBLIC "-//W3C//DTD SVG 1.1//EN"
"http://www.w3.org/Graphics/SVG/1.1/DTD/svg11.dtd">
<svg width="100%" height="100%" version="1.1"
xmlns="http://www.w3.org/2000/svg"
xmlns:xlink="http://www.w3.org/1999/xlink">
<g fill-rule="evenodd"><path d="M 215.517,517.241 L 277.586,517.241 L 298.276,558.621 L 277.586,600 L 215.517,600 L 194.828,558.621 L 215.517,517.241 z " style="fill-opacity:0.5;fill:rgb(169,169,169);stroke:rgb(169,169,169);stroke-width:1"/></g>
<g fill-rule="evenodd"><path d="M 318.966,517.241 L 381.034,517.241 L 401.724,558.621 L 381.034,600 L 318.966,600 L 298.276,558.621 L 318.966,517.241 z " style="fill-opacity:0.5;fill:rgb(169,169,169);stroke:rgb(169,169,169);stroke-width:1"/></g>
<g fill-rule="evenodd"><path d="M 422.414,517.241 L 484.483,517.241 L 505.172,558.621 L 484.483,600 L 422.414,600 L 401.724,558.621 L 422.414,517.241 z " style="fill-opacity:0.5;fill:rgb(169,169,169);stroke:rgb(169,169,169);stroke-width:1"/></g>
<g fill-rule="evenodd"><path d="M 215.517,434.483 L 277.586,434.483 L 298.276,475.862 L 277.586,517.241 L 215.517,517.241 L 194.828,475.862 L 215.517,434.483 z " style="fill-opacity:0.5;fill:rgb(169,169,169);stroke:rgb(169,169,169);stroke-width:1"/></g>
<g fill-rule="evenodd"><path d="M 318.966,434.483 L 360.345,434.483 L 401.724,475.862 L 401.724,517.241 L 381.034,517.241 L 339.655,496.552 L 298.276,517.241 L 298.276,455.172 L 318.966,434.483 z " style="fill-opacity:0.5;fill:rgb(169,169,169);stroke:rgb(169,169,169);stroke-width:1"/></g>
<g fill-rule="evenodd"><path d="M 422.414,434.483 L 463.793,434.483 L 505.172,475.862 L 505.172,517.241 L 484.483,517.241 L 443.103,496.552 L 401.724,517.241 L 401.724,455.172 L 422.414,434.483 z " style="fill-opacity:0.5;fill:rgb(169,169,169);stroke:rgb(169,169,169);stroke-width:1"/></g>
<g fill-rule="evenodd"><path d="M 215.517,351.724 L 256.897,351.724 L 298.276,393.103 L 298.276,434.483 L 277.586,434.483 L 236.207,413.793 L 194.828,434.483 L 194.828,372.414 L 215.517,351.724 z " style="fill-opacity:0.5;fill:rgb(169,169,169);stroke:rgb(169,169,169);stroke-width:1"/></g>
<g fill-rule="evenodd"><path d="M 318.966,351.724 L 360.345,351.724 L 401.724,393.103 L 401.724,434.483 L 381.034,434.483 L 339.655,413.793 L 298.276,434.483 L 298.276,372.414 L 318.966,351.724 z " style="fill-opacity:0.5;fill:rgb(169,169,169);stroke:rgb(169,169,169);stroke-width:1"/></g>
<g fill-rule="evenodd"><path d="M 505.172,455.172 L 484.483,455.172 L 463.793,413.793 L 443.103,393.103 L 401.724,372.414 L 401.724,351.724 L 505.172,351.724 L 505.172,455.172 z " style="fill-opacity:0.5;fill:rgb(169,169,169);stroke:rgb(169,169,169);stroke-width:1"/></g>
<g fill-rule="evenodd"><path d="M 298.276,372.414 L 277.586,372.414 L 256.897,331.034 L 236.207,310.345 L 194.828,289.655 L 194.828,268.966 L 298.276,268.966 L 298.276,372.414 z " style="fill-opacity:0.5;fill:rgb(169,169,169);stroke:rgb(169,169,169);stroke-width:1"/></g>
<g fill-rule="evenodd"><path d="M 401.724,372.414 L 381.034,372.414 L 360.345,331.034 L 339.655,310.345 L 298.276,289.655 L 298.276,268.966 L 401.724,268.966 L 401.724,372.414 z " style="fill-opacity:0.5;fill:rgb(169,169,169);stroke:rgb(169,169,169);stroke-width:1"/></g>
<g fill-rule="evenodd"><path d="M 401.724,351.724 L 401.724,331.034 L 443.103,310.345 L 463.793,289.655 L 484.483,248.276 L 505.172,248.276 L 505.172,351.724 L 401.724,351.724 z " style="fill-opacity:0.5;fill:rgb(169,169,169);stroke:rgb(169,169,169);stroke-width:1"/></g>
<g fill-rule="evenodd"><path d="M 215.517,268.966 L 194.828,248.276 L 194.828,206.897 L 215.517,186.207 L 256.897,186.207 L 277.586,206.897 L 277.586,248.276 L 256.897,268.966 L 215.517,268.966 z " style="fill-opacity:0.5;fill:rgb(169,169,169);stroke:rgb(169,169,169);stroke-width:1"/></g>
<g fill-rule="evenodd"><path d="M 298.276,268.966 L 277.586,248.276 L 277.586,206.897 L 298.276,186.207 L 339.655,186.207 L 360.345,206.897 L 360.345,248.276 L 339.655,268.966 L 298.276,268.966 z " style="fill-opacity:0.5;fill:rgb(169,169,169);stroke:rgb(169,169,169);stroke-width:1"/></g>
<g fill-rule="evenodd"><path d="M 381.034,268.966 L 360.345,248.276 L 360.345,206.897 L 381.034,186.207 L 422.414,186.207 L 443.103,206.897 L 443.103,248.276 L 422.414,268.966 L 381.034,268.966 z " style="fill-opacity:0.5;fill:rgb(169,169,169);stroke:rgb(169,169,169);stroke-width:1"/></g>
<g fill-rule="evenodd"><path d="M 443.103,206.897 L 422.414,186.207 L 422.414,144.828 L 443.103,124.138 L 484.483,124.138 L 505.172,144.828 L 505.172,186.207 L 484.483,206.897 L 443.103,206.897 z " style="fill-opacity:0.5;fill:rgb(169,169,169);stroke:rgb(169,169,169);stroke-width:1"/></g>
<g fill-rule="evenodd"><path d="M 194.828,103.448 L 256.897,124.138 L 298.276,103.448 L 277.586,144.828 L 298.276,186.207 L 236.207,165.517 L 194.828,186.207 L 215.517,144.828 L 194.828,103.448 z " style="fill-opacity:0.5;fill:rgb(169,169,169);stroke:rgb(169,169,169);stroke-width:1"/></g>
<g fill-rule="evenodd"><path d="M 298.276,103.448 L 360.345,124.138 L 401.724,103.448 L 381.034,144.828 L 401.724,186.207 L 339.655,165.517 L 298.276,186.207 L 318.966,144.828 L 298.276,103.448 z " style="fill-opacity:0.5;fill:rgb(169,169,169);stroke:rgb(169,169,169);stroke-width:1"/></g>
<g fill-rule="evenodd"><path d="M 256.897,41.3793 L 318.966,62.069 L 360.345,41.3793 L 339.655,82.7586 L 360.345,124.138 L 298.276,103.448 L 256.897,124.138 L 277.586,82.7586 L 256.897,41.3793 z " style="fill-opacity:0.5;fill:rgb(169,169,169);stroke:rgb(169,169,169);stroke-width:1"/></g>
<g fill-rule="evenodd"><path d="M 360.345,41.3793 L 422.414,62.069 L 463.793,41.3793 L 443.103,82.7586 L 463.793,124.138 L 401.724,103.448 L 360.345,124.138 L 381.034,82.7586 L 360.345,41.3793 z " style="fill-opacity:0.5;fill:rgb(169,169,169);stroke:rgb(169,169,169);stroke-width:1"/></g>
<g fill-rule="evenodd"><path d="M 194.828,82.7586 L 256.897,41.3793 L 256.897,124.138 L 194.828,82.7586 z " style="fill-opacity:0.5;fill:rgb(169,169,169);stroke:rgb(169,169,169);stroke-width:1"/></g>
<g fill-rule="evenodd"><path d="M 443.103,82.7586 L 505.172,41.3793 L 505.172,124.138 L 443.103,82.7586 z " style="fill-opacity:0.5;fill:rgb(169,169,169);stroke:rgb(169,169,169);stroke-width:1"/></g>
<g fill-rule="evenodd"><path d="M 256.897,41.3793 L 194.828,82.7586 L 194.828,0 L 256.897,41.3793 z " style="fill-opacity:0.5;fill:rgb(169,169,169);stroke:rgb(169,169,169);stroke-width:1"/></g>
<g fill-rule="evenodd"><path d="M 318.966,62.069 L 277.586,0 L 360.345,0 L 318.966,62.069 z " style="fill-opacity:0.5;fill:rgb(169,169,169);stroke:rgb(169,169,169);stroke-width:1"/></g>
<g fill-rule="evenodd"><path d="M 401.724,434.483 L 401.724,393.103 L 443.103,393.103 L 443.103,434.483 L 401.724,434.483 z " style="fill-opacity:0.5;fill:rgb(169,169,169);stroke:rgb(169,169,169);stroke-width:1"/></g>
<g fill-rule="evenodd"><path d="M 194.828,351.724 L 194.828,310.345 L 236.207,310.345 L 236.207,351.724 L 194.828,351.724 z " style="fill-opacity:0.5;fill:rgb(169,169,169);stroke:rgb(169,169,169);stroke-width:1"/></g>
<g fill-rule="evenodd"><path d="M 298.276,351.724 L 298.276,310.345 L 339.655,310.345 L 339.655,351.724 L 298.276,351.724 z " style="fill-opacity:0.5;fill:rgb(169,169,169);stroke:rgb(169,169,169);stroke-width:1"/></g>
<g fill-rule="evenodd"><path d="M 401.724,310.345 L 401.724,268.966 L 443.103,268.966 L 443.103,310.345 L 401.724,310.345 z " style="fill-opacity:0.5;fill:rgb(169,169,169);stroke:rgb(169,169,169);stroke-width:1"/></g>
<rect x="194.828" y="0" width="310.345" height="600" style="opacity:0.8;fill:none;stroke:rgb(0,0,0);stroke-width:1;stroke-linecap:round"/>
</svg>
