<?xml version="1.0" standalone="no"?>
<!DOCTYPE svg PUBLIC "-//W3C//DTD SVG 1.1//EN"
"http://www.w3.org/Graphics/SVG/1.1/DTD/svg11.dtd">
<svg width="100%" height="100%" version="1.1"
xmlns="http://www.w3.org/2000/svg"
xmlns:xlink="http://www.w3.org/1999/xlink">
<g fill-rule="evenodd"><path d="M 0,387.5 L 80.7692,400.962 L 148.077,387.5 L 175,414.423 L 228.846,414.423 L 249.038,468.269 L 235.577,481.731 L 235.577,495.192 L 249.038,508.654 L 222.115,555.769 L 175,555.769 L 148.077,582.692 L 80.7692,569.231 L 1.19521e-14,582.692 L 0,387.5 z " style="fill-opacity:0.5;fill:rgb(169,169,169);stroke:rgb(169,169,169);stroke-width:1"/></g>
<g fill-rule="evenodd"><path d="M 249.038,387.5 L 329.808,400.962 L 397.115,387.5 L 424.038,414.423 L 477.885,414.423 L 498.077,468.269 L 484.615,481.731 L 484.615,495.192 L 498.077,508.654 L 471.154,555.769 L 424.038,555.769 L 397.115,582.692 L 329.808,569.231 L 249.038,582.692 L 249.038,387.5 z " style="fill-opacity:0.5;fill:rgb(169,169,169);stroke:rgb(169,169,169);stroke-width:1"/></g>
<g fill-rule="evenodd"><path d="M 498.077,441.346 L 646.154,441.346 L 686.538,488.462 L 686.538,535.577 L 646.154,582.692 L 498.077,582.692 L 498.077,441.346 z " style="fill-opacity:0.5;fill:rgb(169,169,169);stroke:rgb(169,169,169);stroke-width:1"/></g>
<g fill-rule="evenodd"><path d="M 652.885,441.346 L 504.808,441.346 L 464.423,394.231 L 464.423,347.115 L 504.808,300 L 652.885,300 L 652.885,441.346 z " style="fill-opacity:0.5;fill:rgb(169,169,169);stroke:rgb(169,169,169);stroke-width:1"/></g>
<g fill-rule="evenodd"><path d="M 0,246.154 L 148.077,246.154 L 188.462,293.269 L 188.462,340.385 L 148.077,387.5 L 8.65496e-15,387.5 L 0,246.154 z " style="fill-opacity:0.5;fill:rgb(169,169,169);stroke:rgb(169,169,169);stroke-width:1"/></g>
<g fill-rule="evenodd"><path d="M 188.462,246.154 L 336.538,246.154 L 376.923,293.269 L 376.923,340.385 L 336.538,387.5 L 188.462,387.5 L 188.462,246.154 z " style="fill-opacity:0.5;fill:rgb(169,169,169);stroke:rgb(169,169,169);stroke-width:1"/></g>
<g fill-rule="evenodd"><path d="M 592.308,185.577 L 592.308,300 L 504.808,286.538 L 417.308,300 L 390.385,279.808 L 370.192,279.808 L 370.192,185.577 L 592.308,185.577 z " style="fill-opacity:0.5;fill:rgb(169,169,169);stroke:rgb(169,169,169);stroke-width:1"/></g>
<g fill-rule="evenodd"><path d="M 0,246.154 L 0,131.731 L 87.5,145.192 L 175,131.731 L 201.923,151.923 L 222.115,151.923 L 222.115,246.154 L 0,246.154 z " style="fill-opacity:0.5;fill:rgb(169,169,169);stroke:rgb(169,169,169);stroke-width:1"/></g>
<g fill-rule="evenodd"><path d="M 222.115,185.577 L 222.115,84.6154 L 316.346,98.0769 L 390.385,84.6154 L 410.577,98.0769 L 457.692,98.0769 L 450.962,145.192 L 444.231,185.577 L 222.115,185.577 z " style="fill-opacity:0.5;fill:rgb(169,169,169);stroke:rgb(169,169,169);stroke-width:1"/></g>
<g fill-rule="evenodd"><path d="M 686.538,84.6154 L 686.538,185.577 L 592.308,172.115 L 518.269,185.577 L 498.077,172.115 L 450.962,172.115 L 457.692,125 L 464.423,84.6154 L 686.538,84.6154 z " style="fill-opacity:0.5;fill:rgb(169,169,169);stroke:rgb(169,169,169);stroke-width:1"/></g>
<g fill-rule="evenodd"><path d="M 673.077,468.269 L 673.077,205.769 L 700,205.769 L 700,468.269 L 673.077,468.269 z " style="fill-opacity:0.5;fill:rgb(169,169,169);stroke:rgb(169,169,169);stroke-width:1"/></g>
<g fill-rule="evenodd"><path d="M 0,57.6923 L 262.5,57.6923 L 262.5,84.6154 L 1.64856e-15,84.6154 L 0,57.6923 z " style="fill-opacity:0.5;fill:rgb(169,169,169);stroke:rgb(169,169,169);stroke-width:1"/></g>
<g fill-rule="evenodd"><path d="M 376.923,320.192 L 450.962,320.192 L 450.962,387.5 L 376.923,387.5 L 376.923,320.192 z " style="fill-opacity:0.5;fill:rgb(169,169,169);stroke:rgb(169,169,169);stroke-width:1"/></g>
<g fill-rule="evenodd"><path d="M 592.308,232.692 L 666.346,232.692 L 666.346,300 L 592.308,300 L 592.308,232.692 z " style="fill-opacity:0.5;fill:rgb(169,169,169);stroke:rgb(169,169,169);stroke-width:1"/></g>
<g fill-rule="evenodd"><path d="M 269.231,24.0385 L 343.269,24.0385 L 343.269,91.3462 L 269.231,91.3462 L 269.231,24.0385 z " style="fill-opacity:0.5;fill:rgb(169,169,169);stroke:rgb(169,169,169);stroke-width:1"/></g>
<g fill-rule="evenodd"><path d="M 343.269,17.3077 L 417.308,17.3077 L 417.308,84.6154 L 343.269,84.6154 L 343.269,17.3077 z " style="fill-opacity:0.5;fill:rgb(169,169,169);stroke:rgb(169,169,169);stroke-width:1"/></g>
<g fill-rule="evenodd"><path d="M 222.115,212.5 L 222.115,212.5 L 249.038,219.231 L 296.154,205.769 L 336.538,219.231 L 363.462,212.5 L 350,246.154 L 296.154,232.692 L 235.577,246.154 L 222.115,212.5 z " style="fill-opacity:0.5;fill:rgb(169,169,169);stroke:rgb(169,169,169);stroke-width:1"/></g>
<g fill-rule="evenodd"><path d="M 141.346,131.731 L 141.346,131.731 L 114.423,125 L 67.3077,138.462 L 26.9231,125 L 0,131.731 L 13.4615,98.0769 L 67.3077,111.538 L 127.885,98.0769 L 141.346,131.731 z " style="fill-opacity:0.5;fill:rgb(169,169,169);stroke:rgb(169,169,169);stroke-width:1"/></g>
<g fill-rule="evenodd"><path d="M 417.308,50.9615 L 417.308,50.9615 L 444.231,57.6923 L 491.346,44.2308 L 531.731,57.6923 L 558.654,50.9615 L 545.192,84.6154 L 491.346,71.1538 L 430.769,84.6154 L 417.308,50.9615 z " style="fill-opacity:0.5;fill:rgb(169,169,169);stroke:rgb(169,169,169);stroke-width:1"/></g>
<g fill-rule="evenodd"><path d="M 693.269,77.8846 L 693.269,77.8846 L 666.346,71.1538 L 619.231,84.6154 L 578.846,71.1538 L 551.923,77.8846 L 565.385,44.2308 L 619.231,57.6923 L 679.808,44.2308 L 693.269,77.8846 z " style="fill-opacity:0.5;fill:rgb(169,169,169);stroke:rgb(169,169,169);stroke-width:1"/></g>
<g fill-rule="evenodd"><path d="M 222.115,199.038 L 222.115,199.038 L 289.423,185.577 L 356.731,199.038 L 343.269,212.5 L 289.423,199.038 L 235.577,212.5 L 222.115,199.038 z " style="fill-opacity:0.5;fill:rgb(169,169,169);stroke:rgb(169,169,169);stroke-width:1"/></g>
<g fill-rule="evenodd"><path d="M 134.615,44.2308 L 134.615,44.2308 L 67.3077,57.6923 L 0,44.2308 L 13.4615,30.7692 L 67.3077,44.2308 L 121.154,30.7692 L 134.615,44.2308 z " style="fill-opacity:0.5;fill:rgb(169,169,169);stroke:rgb(169,169,169);stroke-width:1"/></g>
<g fill-rule="evenodd"><path d="M 269.231,44.2308 L 269.231,44.2308 L 201.923,57.6923 L 134.615,44.2308 L 148.077,30.7692 L 201.923,44.2308 L 255.769,30.7692 L 269.231,44.2308 z " style="fill-opacity:0.5;fill:rgb(169,169,169);stroke:rgb(169,169,169);stroke-width:1"/></g>
<g fill-rule="evenodd"><path d="M 417.308,37.5 L 417.308,37.5 L 484.615,24.0385 L 551.923,37.5 L 538.462,50.9615 L 484.615,37.5 L 430.769,50.9615 L 417.308,37.5 z " style="fill-opacity:0.5;fill:rgb(169,169,169);stroke:rgb(169,169,169);stroke-width:1"/></g>
<rect x="0" y="17.3077" width="700" height="565.385" style="opacity:0.8;fill:none;stroke:rgb(0,0,0);stroke-width:1;stroke-linecap:round"/>
</svg>
