<?xml version="1.0" standalone="no"?>
<!DOCTYPE svg PUBLIC "-//W3C//DTD SVG 1.1//EN"
"http://www.w3.org/Graphics/SVG/1.1/DTD/svg11.dtd">
<svg width="100%" height="100%" version="1.1"
xmlns="http://www.w3.org/2000/svg"
xmlns:xlink="http://www.w3.org/1999/xlink">
<g fill-rule="evenodd"><path d="M 144.521,526.027 L 284.247,382.192 L 378.767,542.466 L 399.315,579.452 L 300.685,591.781 L 206.164,600 L 144.521,526.027 z " style="fill-opacity:0.5;fill:rgb(169,169,169);stroke:rgb(169,169,169);stroke-width:1"/></g>
<g fill-rule="evenodd"><path d="M 284.247,382.192 L 555.479,382.192 L 391.096,464.384 L 378.767,542.466 L 284.247,382.192 z " style="fill-opacity:0.5;fill:rgb(169,169,169);stroke:rgb(169,169,169);stroke-width:1"/></g>
<g fill-rule="evenodd"><path d="M 534.932,587.671 L 436.301,600 L 399.315,497.26 L 391.096,468.493 L 477.397,476.712 L 551.37,484.932 L 534.932,587.671 z " style="fill-opacity:0.5;fill:rgb(169,169,169);stroke:rgb(169,169,169);stroke-width:1"/></g>
<g fill-rule="evenodd"><path d="M 276.027,312.329 L 218.493,447.945 L 144.521,480.822 L 144.521,312.329 L 276.027,312.329 z " style="fill-opacity:0.5;fill:rgb(169,169,169);stroke:rgb(169,169,169);stroke-width:1"/></g>
<g fill-rule="evenodd"><path d="M 313.014,382.192 L 230.822,217.808 L 411.644,217.808 L 313.014,382.192 z " style="fill-opacity:0.5;fill:rgb(169,169,169);stroke:rgb(169,169,169);stroke-width:1"/></g>
<g fill-rule="evenodd"><path d="M 543.151,382.192 L 313.014,382.192 L 395.205,271.233 L 543.151,382.192 z " style="fill-opacity:0.5;fill:rgb(169,169,169);stroke:rgb(169,169,169);stroke-width:1"/></g>
<g fill-rule="evenodd"><path d="M 456.849,209.589 L 551.37,201.37 L 534.932,304.11 L 530.822,328.767 L 395.205,271.233 L 456.849,209.589 z " style="fill-opacity:0.5;fill:rgb(169,169,169);stroke:rgb(169,169,169);stroke-width:1"/></g>
<g fill-rule="evenodd"><path d="M 259.589,147.945 L 160.959,312.329 L 148.63,217.808 L 144.521,156.164 L 181.507,135.616 L 259.589,147.945 z " style="fill-opacity:0.5;fill:rgb(169,169,169);stroke:rgb(169,169,169);stroke-width:1"/></g>
<g fill-rule="evenodd"><path d="M 411.644,110.959 L 551.37,110.959 L 411.644,254.795 L 411.644,110.959 z " style="fill-opacity:0.5;fill:rgb(169,169,169);stroke:rgb(169,169,169);stroke-width:1"/></g>
<g fill-rule="evenodd"><path d="M 341.781,123.288 L 354.11,217.808 L 206.164,106.849 L 234.932,98.6301 L 341.781,123.288 z " style="fill-opacity:0.5;fill:rgb(169,169,169);stroke:rgb(169,169,169);stroke-width:1"/></g>
<g fill-rule="evenodd"><path d="M 321.233,86.3014 L 403.425,65.7534 L 403.425,217.808 L 321.233,86.3014 z " style="fill-opacity:0.5;fill:rgb(169,169,169);stroke:rgb(169,169,169);stroke-width:1"/></g>
<g fill-rule="evenodd"><path d="M 362.329,49.3151 L 288.356,110.959 L 226.712,49.3151 L 362.329,49.3151 z " style="fill-opacity:0.5;fill:rgb(169,169,169);stroke:rgb(169,169,169);stroke-width:1"/></g>
<g fill-rule="evenodd"><path d="M 547.26,406.849 L 539.041,480.822 L 448.63,435.616 L 522.603,402.74 L 547.26,406.849 z " style="fill-opacity:0.5;fill:rgb(169,169,169);stroke:rgb(169,169,169);stroke-width:1"/></g>
<g fill-rule="evenodd"><path d="M 448.63,24.6575 L 534.932,32.8767 L 403.425,115.068 L 448.63,24.6575 z " style="fill-opacity:0.5;fill:rgb(169,169,169);stroke:rgb(169,169,169);stroke-width:1"/></g>
<g fill-rule="evenodd"><path d="M 226.712,45.2055 L 144.521,156.164 L 144.521,65.7534 L 226.712,45.2055 z " style="fill-opacity:0.5;fill:rgb(169,169,169);stroke:rgb(169,169,169);stroke-width:1"/></g>
<g fill-rule="evenodd"><path d="M 148.63,61.6438 L 144.521,-1.13687e-13 L 251.37,24.6575 L 148.63,61.6438 z " style="fill-opacity:0.5;fill:rgb(169,169,169);stroke:rgb(169,169,169);stroke-width:1"/></g>
<rect x="144.521" y="-1.13687e-13" width="410.959" height="600" style="opacity:0.8;fill:none;stroke:rgb(0,0,0);stroke-width:1;stroke-linecap:round"/>
</svg>
