<?xml version="1.0" standalone="no"?>
<!DOCTYPE svg PUBLIC "-//W3C//DTD SVG 1.1//EN"
"http://www.w3.org/Graphics/SVG/1.1/DTD/svg11.dtd">
<svg width="100%" height="100%" version="1.1"
xmlns="http://www.w3.org/2000/svg"
xmlns:xlink="http://www.w3.org/1999/xlink">
<g fill-rule="evenodd"><path d="M 387.5,600 L 387.5,568.182 L 326.136,561.364 L 303.409,554.545 L 294.318,550 L 280.682,556.818 L 260.227,563.636 L 260.227,600 L 387.5,600 z " style="fill-opacity:0.5;fill:rgb(169,169,169);stroke:rgb(169,169,169);stroke-width:1"/></g>
<g fill-rule="evenodd"><path d="M 303.409,522.727 L 303.409,554.545 L 364.773,561.364 L 387.5,568.182 L 396.591,572.727 L 410.227,565.909 L 430.682,559.091 L 430.682,522.727 L 303.409,522.727 z " style="fill-opacity:0.5;fill:rgb(169,169,169);stroke:rgb(169,169,169);stroke-width:1"/></g>
<g fill-rule="evenodd"><path d="M 387.5,522.727 L 387.5,490.909 L 326.136,484.091 L 303.409,477.273 L 294.318,472.727 L 280.682,479.545 L 260.227,486.364 L 260.227,522.727 L 387.5,522.727 z " style="fill-opacity:0.5;fill:rgb(169,169,169);stroke:rgb(169,169,169);stroke-width:1"/></g>
<g fill-rule="evenodd"><path d="M 312.5,448.182 L 312.5,480 L 373.864,486.818 L 396.591,493.636 L 405.682,498.182 L 419.318,491.364 L 439.773,484.545 L 439.773,448.182 L 312.5,448.182 z " style="fill-opacity:0.5;fill:rgb(169,169,169);stroke:rgb(169,169,169);stroke-width:1"/></g>
<g fill-rule="evenodd"><path d="M 262.5,472.727 L 294.318,472.727 L 301.136,411.364 L 307.955,388.636 L 312.5,379.545 L 305.682,365.909 L 298.864,345.455 L 262.5,345.455 L 262.5,472.727 z " style="fill-opacity:0.5;fill:rgb(169,169,169);stroke:rgb(169,169,169);stroke-width:1"/></g>
<g fill-rule="evenodd"><path d="M 387.5,345.455 L 387.5,313.636 L 326.136,306.818 L 303.409,300 L 294.318,295.455 L 280.682,302.273 L 260.227,309.091 L 260.227,345.455 L 387.5,345.455 z " style="fill-opacity:0.5;fill:rgb(169,169,169);stroke:rgb(169,169,169);stroke-width:1"/></g>
<g fill-rule="evenodd"><path d="M 387.5,440.909 L 419.318,440.909 L 426.136,379.545 L 432.955,356.818 L 437.5,347.727 L 430.682,334.091 L 423.864,313.636 L 387.5,313.636 L 387.5,440.909 z " style="fill-opacity:0.5;fill:rgb(169,169,169);stroke:rgb(169,169,169);stroke-width:1"/></g>
<g fill-rule="evenodd"><path d="M 294.318,263.636 L 294.318,295.455 L 355.682,302.273 L 378.409,309.091 L 387.5,313.636 L 401.136,306.818 L 421.591,300 L 421.591,263.636 L 294.318,263.636 z " style="fill-opacity:0.5;fill:rgb(169,169,169);stroke:rgb(169,169,169);stroke-width:1"/></g>
<g fill-rule="evenodd"><path d="M 394.318,234.091 L 367.045,231.818 L 362.5,227.273 L 339.773,234.091 L 319.318,236.364 L 260.227,238.636 L 260.227,263.636 L 385.227,263.636 L 385.227,252.273 L 389.773,245.455 L 394.318,245.455 L 394.318,234.091 z " style="fill-opacity:0.5;fill:rgb(169,169,169);stroke:rgb(169,169,169);stroke-width:1"/></g>
<g fill-rule="evenodd"><path d="M 260.227,230.594 L 287.5,232.867 L 292.045,237.413 L 314.773,230.594 L 335.227,228.322 L 394.318,226.049 L 394.318,201.049 L 269.318,201.049 L 269.318,212.413 L 264.773,219.231 L 260.227,219.231 L 260.227,230.594 z " style="fill-opacity:0.5;fill:rgb(169,169,169);stroke:rgb(169,169,169);stroke-width:1"/></g>
<g fill-rule="evenodd"><path d="M 432.955,268.182 L 435.227,240.909 L 439.773,236.364 L 432.955,213.636 L 430.682,193.182 L 428.409,134.091 L 403.409,134.091 L 403.409,259.091 L 414.773,259.091 L 421.591,263.636 L 421.591,268.182 L 432.955,268.182 z " style="fill-opacity:0.5;fill:rgb(169,169,169);stroke:rgb(169,169,169);stroke-width:1"/></g>
<g fill-rule="evenodd"><path d="M 269.318,163.636 L 296.591,165.909 L 301.136,170.455 L 323.864,163.636 L 344.318,161.364 L 403.409,159.091 L 403.409,134.091 L 278.409,134.091 L 278.409,145.455 L 273.864,152.273 L 269.318,152.273 L 269.318,163.636 z " style="fill-opacity:0.5;fill:rgb(169,169,169);stroke:rgb(169,169,169);stroke-width:1"/></g>
<g fill-rule="evenodd"><path d="M 403.409,167.133 L 376.136,164.86 L 371.591,160.315 L 348.864,167.133 L 328.409,169.406 L 269.318,171.678 L 269.318,196.678 L 394.318,196.678 L 394.318,185.315 L 398.864,178.497 L 403.409,178.497 L 403.409,167.133 z " style="fill-opacity:0.5;fill:rgb(169,169,169);stroke:rgb(169,169,169);stroke-width:1"/></g>
<g fill-rule="evenodd"><path d="M 394.318,104.545 L 367.045,102.273 L 362.5,97.7273 L 339.773,104.545 L 319.318,106.818 L 260.227,109.091 L 260.227,134.091 L 385.227,134.091 L 385.227,122.727 L 389.773,115.909 L 394.318,115.909 L 394.318,104.545 z " style="fill-opacity:0.5;fill:rgb(169,169,169);stroke:rgb(169,169,169);stroke-width:1"/></g>
<g fill-rule="evenodd"><path d="M 260.227,101.049 L 287.5,103.322 L 292.045,107.867 L 314.773,101.049 L 335.227,98.7762 L 394.318,96.5035 L 394.318,71.5035 L 269.318,71.5035 L 269.318,82.8671 L 264.773,89.6853 L 260.227,89.6853 L 260.227,101.049 z " style="fill-opacity:0.5;fill:rgb(169,169,169);stroke:rgb(169,169,169);stroke-width:1"/></g>
<g fill-rule="evenodd"><path d="M 423.864,134.091 L 426.136,106.818 L 430.682,102.273 L 423.864,79.5455 L 421.591,59.0909 L 419.318,-2.66454e-14 L 394.318,-2.66454e-14 L 394.318,125 L 405.682,125 L 412.5,129.545 L 412.5,134.091 L 423.864,134.091 z " style="fill-opacity:0.5;fill:rgb(169,169,169);stroke:rgb(169,169,169);stroke-width:1"/></g>
<g fill-rule="evenodd"><path d="M 394.318,-2.66454e-14 L 264.773,-2.66454e-14 L 264.773,11.3636 L 394.318,11.3636 L 394.318,-2.66454e-14 z " style="fill-opacity:0.5;fill:rgb(169,169,169);stroke:rgb(169,169,169);stroke-width:1"/></g>
<g fill-rule="evenodd"><path d="M 378.409,11.3636 L 260.227,11.3636 L 260.227,22.7273 L 378.409,22.7273 L 378.409,11.3636 z " style="fill-opacity:0.5;fill:rgb(169,169,169);stroke:rgb(169,169,169);stroke-width:1"/></g>
<g fill-rule="evenodd"><path d="M 360.227,22.7273 L 260.227,22.7273 L 260.227,34.0909 L 360.227,34.0909 L 360.227,22.7273 z " style="fill-opacity:0.5;fill:rgb(169,169,169);stroke:rgb(169,169,169);stroke-width:1"/></g>
<g fill-rule="evenodd"><path d="M 387.5,440.909 L 387.5,345.455 L 376.136,345.455 L 376.136,440.909 L 387.5,440.909 z " style="fill-opacity:0.5;fill:rgb(169,169,169);stroke:rgb(169,169,169);stroke-width:1"/></g>
<g fill-rule="evenodd"><path d="M 412.5,586.364 L 407.955,577.273 L 389.773,572.727 L 387.5,577.273 L 387.5,595.455 L 389.773,600 L 407.955,595.455 L 412.5,586.364 z " style="fill-opacity:0.5;fill:rgb(169,169,169);stroke:rgb(169,169,169);stroke-width:1"/></g>
<g fill-rule="evenodd"><path d="M 437.5,586.364 L 432.955,577.273 L 414.773,572.727 L 412.5,577.273 L 412.5,595.455 L 414.773,600 L 432.955,595.455 L 437.5,586.364 z " style="fill-opacity:0.5;fill:rgb(169,169,169);stroke:rgb(169,169,169);stroke-width:1"/></g>
<g fill-rule="evenodd"><path d="M 285.227,547.727 L 280.682,538.636 L 262.5,534.091 L 260.227,538.636 L 260.227,556.818 L 262.5,561.364 L 280.682,556.818 L 285.227,547.727 z " style="fill-opacity:0.5;fill:rgb(169,169,169);stroke:rgb(169,169,169);stroke-width:1"/></g>
<g fill-rule="evenodd"><path d="M 412.5,509.091 L 407.955,500 L 389.773,495.455 L 387.5,500 L 387.5,518.182 L 389.773,522.727 L 407.955,518.182 L 412.5,509.091 z " style="fill-opacity:0.5;fill:rgb(169,169,169);stroke:rgb(169,169,169);stroke-width:1"/></g>
<g fill-rule="evenodd"><path d="M 437.5,509.091 L 432.955,500 L 414.773,495.455 L 412.5,500 L 412.5,518.182 L 414.773,522.727 L 432.955,518.182 L 437.5,509.091 z " style="fill-opacity:0.5;fill:rgb(169,169,169);stroke:rgb(169,169,169);stroke-width:1"/></g>
<g fill-rule="evenodd"><path d="M 376.136,359.091 L 371.591,350 L 353.409,345.455 L 351.136,350 L 351.136,368.182 L 353.409,372.727 L 371.591,368.182 L 376.136,359.091 z " style="fill-opacity:0.5;fill:rgb(169,169,169);stroke:rgb(169,169,169);stroke-width:1"/></g>
<g fill-rule="evenodd"><path d="M 376.136,386.364 L 371.591,377.273 L 353.409,372.727 L 351.136,377.273 L 351.136,395.455 L 353.409,400 L 371.591,395.455 L 376.136,386.364 z " style="fill-opacity:0.5;fill:rgb(169,169,169);stroke:rgb(169,169,169);stroke-width:1"/></g>
<g fill-rule="evenodd"><path d="M 376.136,413.636 L 371.591,404.545 L 353.409,400 L 351.136,404.545 L 351.136,422.727 L 353.409,427.273 L 371.591,422.727 L 376.136,413.636 z " style="fill-opacity:0.5;fill:rgb(169,169,169);stroke:rgb(169,169,169);stroke-width:1"/></g>
<g fill-rule="evenodd"><path d="M 312.5,448.182 L 312.5,416.364 L 301.136,416.364 L 301.136,448.182 L 312.5,448.182 z " style="fill-opacity:0.5;fill:rgb(169,169,169);stroke:rgb(169,169,169);stroke-width:1"/></g>
<g fill-rule="evenodd"><path d="M 328.409,445.909 L 319.318,411.818 L 312.5,416.364 L 314.773,445.909 L 328.409,445.909 z " style="fill-opacity:0.5;fill:rgb(169,169,169);stroke:rgb(169,169,169);stroke-width:1"/></g>
<g fill-rule="evenodd"><path d="M 342.045,445.909 L 332.955,411.818 L 326.136,416.364 L 328.409,445.909 L 342.045,445.909 z " style="fill-opacity:0.5;fill:rgb(169,169,169);stroke:rgb(169,169,169);stroke-width:1"/></g>
<g fill-rule="evenodd"><path d="M 355.682,445.909 L 346.591,411.818 L 339.773,416.364 L 342.045,445.909 L 355.682,445.909 z " style="fill-opacity:0.5;fill:rgb(169,169,169);stroke:rgb(169,169,169);stroke-width:1"/></g>
<g fill-rule="evenodd"><path d="M 332.955,411.818 L 323.864,377.727 L 317.045,382.273 L 319.318,411.818 L 332.955,411.818 z " style="fill-opacity:0.5;fill:rgb(169,169,169);stroke:rgb(169,169,169);stroke-width:1"/></g>
<g fill-rule="evenodd"><path d="M 346.591,411.818 L 337.5,377.727 L 330.682,382.273 L 332.955,411.818 L 346.591,411.818 z " style="fill-opacity:0.5;fill:rgb(169,169,169);stroke:rgb(169,169,169);stroke-width:1"/></g>
<g fill-rule="evenodd"><path d="M 437.5,313.636 L 428.409,279.545 L 421.591,284.091 L 423.864,313.636 L 437.5,313.636 z " style="fill-opacity:0.5;fill:rgb(169,169,169);stroke:rgb(169,169,169);stroke-width:1"/></g>
<g fill-rule="evenodd"><path d="M 280.682,302.273 L 271.591,268.182 L 264.773,272.727 L 267.045,302.273 L 280.682,302.273 z " style="fill-opacity:0.5;fill:rgb(169,169,169);stroke:rgb(169,169,169);stroke-width:1"/></g>
<g fill-rule="evenodd"><path d="M 437.5,79.5455 L 428.409,45.4545 L 421.591,50 L 423.864,79.5455 L 437.5,79.5455 z " style="fill-opacity:0.5;fill:rgb(169,169,169);stroke:rgb(169,169,169);stroke-width:1"/></g>
<g fill-rule="evenodd"><path d="M 437.5,409.091 L 437.5,379.545 L 426.136,379.545 L 426.136,409.091 L 437.5,409.091 z " style="fill-opacity:0.5;fill:rgb(169,169,169);stroke:rgb(169,169,169);stroke-width:1"/></g>
<g fill-rule="evenodd"><path d="M 298.864,543.182 L 303.409,536.364 L 298.864,525 L 280.682,525 L 280.682,538.636 L 298.864,543.182 z " style="fill-opacity:0.5;fill:rgb(169,169,169);stroke:rgb(169,169,169);stroke-width:1"/></g>
<g fill-rule="evenodd"><path d="M 348.611,380.051 L 353.157,373.232 L 348.611,361.869 L 330.429,361.869 L 330.429,375.505 L 348.611,380.051 z " style="fill-opacity:0.5;fill:rgb(169,169,169);stroke:rgb(169,169,169);stroke-width:1"/></g>
<g fill-rule="evenodd"><path d="M 325.884,368.687 L 330.429,361.869 L 325.884,350.505 L 307.702,350.505 L 307.702,364.141 L 325.884,368.687 z " style="fill-opacity:0.5;fill:rgb(169,169,169);stroke:rgb(169,169,169);stroke-width:1"/></g>
<g fill-rule="evenodd"><path d="M 278.409,52.2727 L 282.955,45.4545 L 278.409,34.0909 L 260.227,34.0909 L 260.227,47.7273 L 278.409,52.2727 z " style="fill-opacity:0.5;fill:rgb(169,169,169);stroke:rgb(169,169,169);stroke-width:1"/></g>
<g fill-rule="evenodd"><path d="M 278.409,70.4545 L 282.955,63.6364 L 278.409,52.2727 L 260.227,52.2727 L 260.227,65.9091 L 278.409,70.4545 z " style="fill-opacity:0.5;fill:rgb(169,169,169);stroke:rgb(169,169,169);stroke-width:1"/></g>
<g fill-rule="evenodd"><path d="M 301.136,68.1818 L 305.682,61.3636 L 301.136,50 L 282.955,50 L 282.955,63.6364 L 301.136,68.1818 z " style="fill-opacity:0.5;fill:rgb(169,169,169);stroke:rgb(169,169,169);stroke-width:1"/></g>
<g fill-rule="evenodd"><path d="M 323.864,65.9091 L 328.409,59.0909 L 323.864,47.7273 L 305.682,47.7273 L 305.682,61.3636 L 323.864,65.9091 z " style="fill-opacity:0.5;fill:rgb(169,169,169);stroke:rgb(169,169,169);stroke-width:1"/></g>
<g fill-rule="evenodd"><path d="M 346.591,63.6364 L 351.136,56.8182 L 346.591,45.4545 L 328.409,45.4545 L 328.409,59.0909 L 346.591,63.6364 z " style="fill-opacity:0.5;fill:rgb(169,169,169);stroke:rgb(169,169,169);stroke-width:1"/></g>
<g fill-rule="evenodd"><path d="M 311.136,475.455 L 311.136,448.182 L 299.773,448.182 L 299.773,475.455 L 311.136,475.455 z " style="fill-opacity:0.5;fill:rgb(169,169,169);stroke:rgb(169,169,169);stroke-width:1"/></g>
<g fill-rule="evenodd"><path d="M 437.5,436.364 L 437.5,409.091 L 426.136,409.091 L 426.136,436.364 L 437.5,436.364 z " style="fill-opacity:0.5;fill:rgb(169,169,169);stroke:rgb(169,169,169);stroke-width:1"/></g>
<g fill-rule="evenodd"><path d="M 439.773,576.705 L 437.5,542.614 L 430.682,542.614 L 430.682,576.705 L 439.773,576.705 z " style="fill-opacity:0.5;fill:rgb(169,169,169);stroke:rgb(169,169,169);stroke-width:1"/></g>
<g fill-rule="evenodd"><path d="M 288.703,298.262 L 286.43,266.444 L 279.612,266.444 L 279.612,298.262 L 288.703,298.262 z " style="fill-opacity:0.5;fill:rgb(169,169,169);stroke:rgb(169,169,169);stroke-width:1"/></g>
<g fill-rule="evenodd"><path d="M 403.409,263.636 L 401.136,234.091 L 394.318,234.091 L 394.318,263.636 L 403.409,263.636 z " style="fill-opacity:0.5;fill:rgb(169,169,169);stroke:rgb(169,169,169);stroke-width:1"/></g>
<g fill-rule="evenodd"><path d="M 403.409,234.091 L 401.136,204.545 L 394.318,204.545 L 394.318,234.091 L 403.409,234.091 z " style="fill-opacity:0.5;fill:rgb(169,169,169);stroke:rgb(169,169,169);stroke-width:1"/></g>
<g fill-rule="evenodd"><path d="M 439.773,305.114 L 439.773,257.386 L 435.227,257.386 L 435.227,305.114 L 439.773,305.114 z " style="fill-opacity:0.5;fill:rgb(169,169,169);stroke:rgb(169,169,169);stroke-width:1"/></g>
<g fill-rule="evenodd"><path d="M 264.773,219.231 L 264.773,171.503 L 260.227,171.503 L 260.227,219.231 L 264.773,219.231 z " style="fill-opacity:0.5;fill:rgb(169,169,169);stroke:rgb(169,169,169);stroke-width:1"/></g>
<g fill-rule="evenodd"><path d="M 437.5,213.636 L 437.5,165.909 L 432.955,165.909 L 432.955,213.636 L 437.5,213.636 z " style="fill-opacity:0.5;fill:rgb(169,169,169);stroke:rgb(169,169,169);stroke-width:1"/></g>
<g fill-rule="evenodd"><path d="M 437.5,165.909 L 437.5,118.182 L 432.955,118.182 L 432.955,165.909 L 437.5,165.909 z " style="fill-opacity:0.5;fill:rgb(169,169,169);stroke:rgb(169,169,169);stroke-width:1"/></g>
<g fill-rule="evenodd"><path d="M 364.773,70.4545 L 364.773,22.7273 L 360.227,22.7273 L 360.227,70.4545 L 364.773,70.4545 z " style="fill-opacity:0.5;fill:rgb(169,169,169);stroke:rgb(169,169,169);stroke-width:1"/></g>
<g fill-rule="evenodd"><path d="M 369.318,70.4545 L 369.318,22.7273 L 364.773,22.7273 L 364.773,70.4545 L 369.318,70.4545 z " style="fill-opacity:0.5;fill:rgb(169,169,169);stroke:rgb(169,169,169);stroke-width:1"/></g>
<g fill-rule="evenodd"><path d="M 373.864,70.4545 L 373.864,22.7273 L 369.318,22.7273 L 369.318,70.4545 L 373.864,70.4545 z " style="fill-opacity:0.5;fill:rgb(169,169,169);stroke:rgb(169,169,169);stroke-width:1"/></g>
<g fill-rule="evenodd"><path d="M 382.955,70.4545 L 382.955,22.7273 L 378.409,22.7273 L 378.409,70.4545 L 382.955,70.4545 z " style="fill-opacity:0.5;fill:rgb(169,169,169);stroke:rgb(169,169,169);stroke-width:1"/></g>
<g fill-rule="evenodd"><path d="M 376.136,440.909 L 373.864,436.364 L 362.5,434.091 L 360.227,436.364 L 360.227,445.455 L 362.5,447.727 L 373.864,445.455 L 376.136,440.909 z " style="fill-opacity:0.5;fill:rgb(169,169,169);stroke:rgb(169,169,169);stroke-width:1"/></g>
<g fill-rule="evenodd"><path d="M 351.136,352.273 L 348.864,347.727 L 337.5,345.455 L 335.227,347.727 L 335.227,356.818 L 337.5,359.091 L 348.864,356.818 L 351.136,352.273 z " style="fill-opacity:0.5;fill:rgb(169,169,169);stroke:rgb(169,169,169);stroke-width:1"/></g>
<g fill-rule="evenodd"><path d="M 276.136,146.818 L 273.864,142.273 L 262.5,140 L 260.227,142.273 L 260.227,151.364 L 262.5,153.636 L 273.864,151.364 L 276.136,146.818 z " style="fill-opacity:0.5;fill:rgb(169,169,169);stroke:rgb(169,169,169);stroke-width:1"/></g>
<g fill-rule="evenodd"><path d="M 307.955,43.1818 L 305.682,38.6364 L 294.318,36.3636 L 292.045,38.6364 L 292.045,47.7273 L 294.318,50 L 305.682,47.7273 L 307.955,43.1818 z " style="fill-opacity:0.5;fill:rgb(169,169,169);stroke:rgb(169,169,169);stroke-width:1"/></g>
<rect x="260.227" y="-2.66454e-14" width="179.545" height="600" style="opacity:0.8;fill:none;stroke:rgb(0,0,0);stroke-width:1;stroke-linecap:round"/>
</svg>
