<?xml version="1.0" standalone="no"?>
<!DOCTYPE svg PUBLIC "-//W3C//DTD SVG 1.1//EN"
"http://www.w3.org/Graphics/SVG/1.1/DTD/svg11.dtd">
<svg width="100%" height="100%" version="1.1"
xmlns="http://www.w3.org/2000/svg"
xmlns:xlink="http://www.w3.org/1999/xlink">
<g fill-rule="evenodd"><path d="M 265.054,552.688 L 385.484,552.688 L 385.484,587.097 L 366.129,593.548 L 353.226,600 L 344.624,595.699 L 323.118,589.247 L 265.054,582.796 L 265.054,552.688 z " style="fill-opacity:0.5;fill:rgb(169,169,169);stroke:rgb(169,169,169);stroke-width:1"/></g>
<g fill-rule="evenodd"><path d="M 314.516,511.828 L 434.946,511.828 L 434.946,546.237 L 415.591,552.688 L 402.688,559.14 L 394.086,554.839 L 372.581,548.387 L 314.516,541.935 L 314.516,511.828 z " style="fill-opacity:0.5;fill:rgb(169,169,169);stroke:rgb(169,169,169);stroke-width:1"/></g>
<g fill-rule="evenodd"><path d="M 265.054,464.516 L 385.484,464.516 L 385.484,498.925 L 366.129,505.376 L 353.226,511.828 L 344.624,507.527 L 323.118,501.075 L 265.054,494.624 L 265.054,464.516 z " style="fill-opacity:0.5;fill:rgb(169,169,169);stroke:rgb(169,169,169);stroke-width:1"/></g>
<g fill-rule="evenodd"><path d="M 314.516,423.656 L 434.946,423.656 L 434.946,458.065 L 415.591,464.516 L 402.688,470.968 L 394.086,466.667 L 372.581,460.215 L 314.516,453.763 L 314.516,423.656 z " style="fill-opacity:0.5;fill:rgb(169,169,169);stroke:rgb(169,169,169);stroke-width:1"/></g>
<g fill-rule="evenodd"><path d="M 265.054,376.344 L 385.484,376.344 L 385.484,410.753 L 366.129,417.204 L 353.226,423.656 L 344.624,419.355 L 323.118,412.903 L 265.054,406.452 L 265.054,376.344 z " style="fill-opacity:0.5;fill:rgb(169,169,169);stroke:rgb(169,169,169);stroke-width:1"/></g>
<g fill-rule="evenodd"><path d="M 314.516,335.484 L 434.946,335.484 L 434.946,369.892 L 415.591,376.344 L 402.688,382.796 L 394.086,378.495 L 372.581,372.043 L 314.516,365.591 L 314.516,335.484 z " style="fill-opacity:0.5;fill:rgb(169,169,169);stroke:rgb(169,169,169);stroke-width:1"/></g>
<g fill-rule="evenodd"><path d="M 265.054,288.172 L 385.484,288.172 L 385.484,322.581 L 366.129,329.032 L 353.226,335.484 L 344.624,331.183 L 323.118,324.731 L 265.054,318.28 L 265.054,288.172 z " style="fill-opacity:0.5;fill:rgb(169,169,169);stroke:rgb(169,169,169);stroke-width:1"/></g>
<g fill-rule="evenodd"><path d="M 314.516,247.312 L 434.946,247.312 L 434.946,281.72 L 415.591,288.172 L 402.688,294.624 L 394.086,290.323 L 372.581,283.871 L 314.516,277.419 L 314.516,247.312 z " style="fill-opacity:0.5;fill:rgb(169,169,169);stroke:rgb(169,169,169);stroke-width:1"/></g>
<g fill-rule="evenodd"><path d="M 265.054,245.161 L 265.054,234.409 L 269.355,234.409 L 273.656,227.957 L 273.656,217.204 L 391.935,217.204 L 391.935,240.86 L 336.022,243.011 L 316.667,245.161 L 295.161,251.613 L 290.86,247.312 L 265.054,245.161 z " style="fill-opacity:0.5;fill:rgb(169,169,169);stroke:rgb(169,169,169);stroke-width:1"/></g>
<g fill-rule="evenodd"><path d="M 265.054,210.753 L 265.054,200 L 269.355,200 L 273.656,193.548 L 273.656,182.796 L 391.935,182.796 L 391.935,206.452 L 336.022,208.602 L 316.667,210.753 L 295.161,217.204 L 290.86,212.903 L 265.054,210.753 z " style="fill-opacity:0.5;fill:rgb(169,169,169);stroke:rgb(169,169,169);stroke-width:1"/></g>
<g fill-rule="evenodd"><path d="M 265.054,176.344 L 265.054,165.591 L 269.355,165.591 L 273.656,159.14 L 273.656,148.387 L 391.935,148.387 L 391.935,172.043 L 336.022,174.194 L 316.667,176.344 L 295.161,182.796 L 290.86,178.495 L 265.054,176.344 z " style="fill-opacity:0.5;fill:rgb(169,169,169);stroke:rgb(169,169,169);stroke-width:1"/></g>
<g fill-rule="evenodd"><path d="M 398.387,120.43 L 409.14,120.43 L 409.14,124.731 L 415.591,129.032 L 426.344,129.032 L 426.344,247.312 L 402.688,247.312 L 400.538,191.398 L 398.387,172.043 L 391.935,150.538 L 396.237,146.237 L 398.387,120.43 z " style="fill-opacity:0.5;fill:rgb(169,169,169);stroke:rgb(169,169,169);stroke-width:1"/></g>
<g fill-rule="evenodd"><path d="M 265.054,141.935 L 265.054,131.183 L 269.355,131.183 L 273.656,124.731 L 273.656,113.978 L 391.935,113.978 L 391.935,137.634 L 336.022,139.785 L 316.667,141.935 L 295.161,148.387 L 290.86,144.086 L 265.054,141.935 z " style="fill-opacity:0.5;fill:rgb(169,169,169);stroke:rgb(169,169,169);stroke-width:1"/></g>
<g fill-rule="evenodd"><path d="M 265.054,107.527 L 265.054,96.7742 L 269.355,96.7742 L 273.656,90.3226 L 273.656,79.5699 L 391.935,79.5699 L 391.935,103.226 L 336.022,105.376 L 316.667,107.527 L 295.161,113.978 L 290.86,109.677 L 265.054,107.527 z " style="fill-opacity:0.5;fill:rgb(169,169,169);stroke:rgb(169,169,169);stroke-width:1"/></g>
<g fill-rule="evenodd"><path d="M 265.054,73.1183 L 265.054,62.3656 L 269.355,62.3656 L 273.656,55.914 L 273.656,45.1613 L 391.935,45.1613 L 391.935,68.8172 L 336.022,70.9677 L 316.667,73.1183 L 295.161,79.5699 L 290.86,75.2688 L 265.054,73.1183 z " style="fill-opacity:0.5;fill:rgb(169,169,169);stroke:rgb(169,169,169);stroke-width:1"/></g>
<g fill-rule="evenodd"><path d="M 265.054,38.7097 L 265.054,27.957 L 269.355,27.957 L 273.656,21.5054 L 273.656,10.7527 L 391.935,10.7527 L 391.935,34.4086 L 336.022,36.5591 L 316.667,38.7097 L 295.161,45.1613 L 290.86,40.8602 L 265.054,38.7097 z " style="fill-opacity:0.5;fill:rgb(169,169,169);stroke:rgb(169,169,169);stroke-width:1"/></g>
<g fill-rule="evenodd"><path d="M 415.591,6.45161 L 426.344,6.45161 L 426.344,129.032 L 415.591,129.032 L 415.591,6.45161 z " style="fill-opacity:0.5;fill:rgb(169,169,169);stroke:rgb(169,169,169);stroke-width:1"/></g>
<g fill-rule="evenodd"><path d="M 391.935,8.60215 L 402.688,8.60215 L 402.688,120.43 L 391.935,120.43 L 391.935,8.60215 z " style="fill-opacity:0.5;fill:rgb(169,169,169);stroke:rgb(169,169,169);stroke-width:1"/></g>
<g fill-rule="evenodd"><path d="M 402.688,25.8065 L 413.441,25.8065 L 413.441,120.43 L 402.688,120.43 L 402.688,25.8065 z " style="fill-opacity:0.5;fill:rgb(169,169,169);stroke:rgb(169,169,169);stroke-width:1"/></g>
<g fill-rule="evenodd"><path d="M 265.054,10.7527 L 265.054,0 L 355.376,0 L 355.376,10.7527 L 265.054,10.7527 z " style="fill-opacity:0.5;fill:rgb(169,169,169);stroke:rgb(169,169,169);stroke-width:1"/></g>
<g fill-rule="evenodd"><path d="M 398.387,600 L 389.785,595.699 L 385.484,578.495 L 389.785,576.344 L 406.989,576.344 L 411.29,578.495 L 406.989,595.699 L 398.387,600 z " style="fill-opacity:0.5;fill:rgb(169,169,169);stroke:rgb(169,169,169);stroke-width:1"/></g>
<g fill-rule="evenodd"><path d="M 419.892,576.344 L 428.495,580.645 L 432.796,597.849 L 428.495,600 L 411.29,600 L 406.989,597.849 L 411.29,580.645 L 419.892,576.344 z " style="fill-opacity:0.5;fill:rgb(169,169,169);stroke:rgb(169,169,169);stroke-width:1"/></g>
<g fill-rule="evenodd"><path d="M 415.591,552.688 L 424.194,556.989 L 428.495,574.194 L 424.194,576.344 L 406.989,576.344 L 402.688,574.194 L 406.989,556.989 L 415.591,552.688 z " style="fill-opacity:0.5;fill:rgb(169,169,169);stroke:rgb(169,169,169);stroke-width:1"/></g>
<g fill-rule="evenodd"><path d="M 277.957,552.688 L 269.355,548.387 L 265.054,531.183 L 269.355,529.032 L 286.559,529.032 L 290.86,531.183 L 286.559,548.387 L 277.957,552.688 z " style="fill-opacity:0.5;fill:rgb(169,169,169);stroke:rgb(169,169,169);stroke-width:1"/></g>
<g fill-rule="evenodd"><path d="M 299.462,529.032 L 308.065,533.333 L 312.366,550.538 L 308.065,552.688 L 290.86,552.688 L 286.559,550.538 L 290.86,533.333 L 299.462,529.032 z " style="fill-opacity:0.5;fill:rgb(169,169,169);stroke:rgb(169,169,169);stroke-width:1"/></g>
<g fill-rule="evenodd"><path d="M 290.86,531.183 L 282.258,526.882 L 277.957,509.677 L 282.258,507.527 L 299.462,507.527 L 303.763,509.677 L 299.462,526.882 L 290.86,531.183 z " style="fill-opacity:0.5;fill:rgb(169,169,169);stroke:rgb(169,169,169);stroke-width:1"/></g>
<g fill-rule="evenodd"><path d="M 396.237,488.172 L 404.839,492.473 L 409.14,509.677 L 404.839,511.828 L 387.634,511.828 L 383.333,509.677 L 387.634,492.473 L 396.237,488.172 z " style="fill-opacity:0.5;fill:rgb(169,169,169);stroke:rgb(169,169,169);stroke-width:1"/></g>
<g fill-rule="evenodd"><path d="M 417.742,511.828 L 409.14,507.527 L 404.839,490.323 L 409.14,488.172 L 426.344,488.172 L 430.645,490.323 L 426.344,507.527 L 417.742,511.828 z " style="fill-opacity:0.5;fill:rgb(169,169,169);stroke:rgb(169,169,169);stroke-width:1"/></g>
<g fill-rule="evenodd"><path d="M 265.054,600 L 265.054,589.247 L 295.161,589.247 L 295.161,600 L 265.054,600 z " style="fill-opacity:0.5;fill:rgb(169,169,169);stroke:rgb(169,169,169);stroke-width:1"/></g>
<g fill-rule="evenodd"><path d="M 280.108,529.032 L 267.204,529.032 L 265.054,501.075 L 271.505,496.774 L 280.108,529.032 z " style="fill-opacity:0.5;fill:rgb(169,169,169);stroke:rgb(169,169,169);stroke-width:1"/></g>
<g fill-rule="evenodd"><path d="M 385.484,490.323 L 385.484,477.419 L 413.441,475.269 L 417.742,481.72 L 385.484,490.323 z " style="fill-opacity:0.5;fill:rgb(169,169,169);stroke:rgb(169,169,169);stroke-width:1"/></g>
<g fill-rule="evenodd"><path d="M 265.054,464.516 L 265.054,451.613 L 293.011,449.462 L 297.312,455.914 L 265.054,464.516 z " style="fill-opacity:0.5;fill:rgb(169,169,169);stroke:rgb(169,169,169);stroke-width:1"/></g>
<g fill-rule="evenodd"><path d="M 265.054,451.613 L 265.054,438.71 L 293.011,436.559 L 297.312,443.011 L 265.054,451.613 z " style="fill-opacity:0.5;fill:rgb(169,169,169);stroke:rgb(169,169,169);stroke-width:1"/></g>
<g fill-rule="evenodd"><path d="M 295.161,432.258 L 308.065,432.258 L 310.215,460.215 L 303.763,464.516 L 295.161,432.258 z " style="fill-opacity:0.5;fill:rgb(169,169,169);stroke:rgb(169,169,169);stroke-width:1"/></g>
<g fill-rule="evenodd"><path d="M 265.054,438.71 L 265.054,425.806 L 293.011,423.656 L 297.312,430.108 L 265.054,438.71 z " style="fill-opacity:0.5;fill:rgb(169,169,169);stroke:rgb(169,169,169);stroke-width:1"/></g>
<g fill-rule="evenodd"><path d="M 265.054,425.806 L 265.054,412.903 L 293.011,410.753 L 297.312,417.204 L 265.054,425.806 z " style="fill-opacity:0.5;fill:rgb(169,169,169);stroke:rgb(169,169,169);stroke-width:1"/></g>
<g fill-rule="evenodd"><path d="M 398.387,408.602 L 398.387,421.505 L 370.43,423.656 L 366.129,417.204 L 398.387,408.602 z " style="fill-opacity:0.5;fill:rgb(169,169,169);stroke:rgb(169,169,169);stroke-width:1"/></g>
<g fill-rule="evenodd"><path d="M 295.161,600 L 295.161,589.247 L 323.118,589.247 L 323.118,600 L 295.161,600 z " style="fill-opacity:0.5;fill:rgb(169,169,169);stroke:rgb(169,169,169);stroke-width:1"/></g>
<g fill-rule="evenodd"><path d="M 417.742,483.871 L 422.043,466.667 L 434.946,466.667 L 434.946,483.871 L 424.194,488.172 L 417.742,483.871 z " style="fill-opacity:0.5;fill:rgb(169,169,169);stroke:rgb(169,169,169);stroke-width:1"/></g>
<g fill-rule="evenodd"><path d="M 402.688,406.452 L 419.892,410.753 L 419.892,423.656 L 402.688,423.656 L 398.387,412.903 L 402.688,406.452 z " style="fill-opacity:0.5;fill:rgb(169,169,169);stroke:rgb(169,169,169);stroke-width:1"/></g>
<g fill-rule="evenodd"><path d="M 428.495,412.903 L 411.29,408.602 L 411.29,395.699 L 428.495,395.699 L 432.796,406.452 L 428.495,412.903 z " style="fill-opacity:0.5;fill:rgb(169,169,169);stroke:rgb(169,169,169);stroke-width:1"/></g>
<g fill-rule="evenodd"><path d="M 389.785,389.247 L 406.989,393.548 L 406.989,406.452 L 389.785,406.452 L 385.484,395.699 L 389.785,389.247 z " style="fill-opacity:0.5;fill:rgb(169,169,169);stroke:rgb(169,169,169);stroke-width:1"/></g>
<g fill-rule="evenodd"><path d="M 411.29,378.495 L 428.495,382.796 L 428.495,395.699 L 411.29,395.699 L 406.989,384.946 L 411.29,378.495 z " style="fill-opacity:0.5;fill:rgb(169,169,169);stroke:rgb(169,169,169);stroke-width:1"/></g>
<g fill-rule="evenodd"><path d="M 269.355,359.14 L 286.559,363.441 L 286.559,376.344 L 269.355,376.344 L 265.054,365.591 L 269.355,359.14 z " style="fill-opacity:0.5;fill:rgb(169,169,169);stroke:rgb(169,169,169);stroke-width:1"/></g>
<g fill-rule="evenodd"><path d="M 290.86,359.14 L 308.065,363.441 L 308.065,376.344 L 290.86,376.344 L 286.559,365.591 L 290.86,359.14 z " style="fill-opacity:0.5;fill:rgb(169,169,169);stroke:rgb(169,169,169);stroke-width:1"/></g>
<g fill-rule="evenodd"><path d="M 286.559,363.441 L 269.355,359.14 L 269.355,346.237 L 286.559,346.237 L 290.86,356.989 L 286.559,363.441 z " style="fill-opacity:0.5;fill:rgb(169,169,169);stroke:rgb(169,169,169);stroke-width:1"/></g>
<g fill-rule="evenodd"><path d="M 303.763,505.376 L 314.516,505.376 L 314.516,531.183 L 303.763,531.183 L 303.763,505.376 z " style="fill-opacity:0.5;fill:rgb(169,169,169);stroke:rgb(169,169,169);stroke-width:1"/></g>
<g fill-rule="evenodd"><path d="M 297.312,423.656 L 297.312,412.903 L 323.118,412.903 L 323.118,423.656 L 297.312,423.656 z " style="fill-opacity:0.5;fill:rgb(169,169,169);stroke:rgb(169,169,169);stroke-width:1"/></g>
<g fill-rule="evenodd"><path d="M 265.054,346.237 L 265.054,337.634 L 297.312,337.634 L 297.312,344.086 L 265.054,346.237 z " style="fill-opacity:0.5;fill:rgb(169,169,169);stroke:rgb(169,169,169);stroke-width:1"/></g>
<g fill-rule="evenodd"><path d="M 305.914,333.333 L 314.516,333.333 L 314.516,363.441 L 308.065,363.441 L 305.914,333.333 z " style="fill-opacity:0.5;fill:rgb(169,169,169);stroke:rgb(169,169,169);stroke-width:1"/></g>
<g fill-rule="evenodd"><path d="M 275.806,507.527 L 275.806,498.925 L 303.763,498.925 L 303.763,505.376 L 275.806,507.527 z " style="fill-opacity:0.5;fill:rgb(169,169,169);stroke:rgb(169,169,169);stroke-width:1"/></g>
<g fill-rule="evenodd"><path d="M 297.312,333.333 L 305.914,333.333 L 305.914,361.29 L 299.462,361.29 L 297.312,333.333 z " style="fill-opacity:0.5;fill:rgb(169,169,169);stroke:rgb(169,169,169);stroke-width:1"/></g>
<g fill-rule="evenodd"><path d="M 312.366,552.688 L 312.366,548.387 L 357.527,548.387 L 357.527,552.688 L 312.366,552.688 z " style="fill-opacity:0.5;fill:rgb(169,169,169);stroke:rgb(169,169,169);stroke-width:1"/></g>
<g fill-rule="evenodd"><path d="M 310.215,464.516 L 310.215,460.215 L 355.376,460.215 L 355.376,464.516 L 310.215,464.516 z " style="fill-opacity:0.5;fill:rgb(169,169,169);stroke:rgb(169,169,169);stroke-width:1"/></g>
<g fill-rule="evenodd"><path d="M 308.065,376.344 L 308.065,372.043 L 353.226,372.043 L 353.226,376.344 L 308.065,376.344 z " style="fill-opacity:0.5;fill:rgb(169,169,169);stroke:rgb(169,169,169);stroke-width:1"/></g>
<g fill-rule="evenodd"><path d="M 361.828,335.484 L 361.828,331.183 L 406.989,331.183 L 406.989,335.484 L 361.828,335.484 z " style="fill-opacity:0.5;fill:rgb(169,169,169);stroke:rgb(169,169,169);stroke-width:1"/></g>
<g fill-rule="evenodd"><path d="M 265.054,333.333 L 265.054,329.032 L 310.215,329.032 L 310.215,333.333 L 265.054,333.333 z " style="fill-opacity:0.5;fill:rgb(169,169,169);stroke:rgb(169,169,169);stroke-width:1"/></g>
<g fill-rule="evenodd"><path d="M 372.581,331.183 L 372.581,326.882 L 417.742,326.882 L 417.742,331.183 L 372.581,331.183 z " style="fill-opacity:0.5;fill:rgb(169,169,169);stroke:rgb(169,169,169);stroke-width:1"/></g>
<g fill-rule="evenodd"><path d="M 265.054,329.032 L 265.054,324.731 L 310.215,324.731 L 310.215,329.032 L 265.054,329.032 z " style="fill-opacity:0.5;fill:rgb(169,169,169);stroke:rgb(169,169,169);stroke-width:1"/></g>
<g fill-rule="evenodd"><path d="M 385.484,326.882 L 385.484,322.581 L 430.645,322.581 L 430.645,326.882 L 385.484,326.882 z " style="fill-opacity:0.5;fill:rgb(169,169,169);stroke:rgb(169,169,169);stroke-width:1"/></g>
<g fill-rule="evenodd"><path d="M 385.484,569.892 L 387.634,565.591 L 398.387,563.441 L 400.538,565.591 L 400.538,574.194 L 398.387,576.344 L 387.634,574.194 L 385.484,569.892 z " style="fill-opacity:0.5;fill:rgb(169,169,169);stroke:rgb(169,169,169);stroke-width:1"/></g>
<g fill-rule="evenodd"><path d="M 385.484,316.129 L 387.634,311.828 L 398.387,309.677 L 400.538,311.828 L 400.538,320.43 L 398.387,322.581 L 387.634,320.43 L 385.484,316.129 z " style="fill-opacity:0.5;fill:rgb(169,169,169);stroke:rgb(169,169,169);stroke-width:1"/></g>
<g fill-rule="evenodd"><path d="M 400.538,316.129 L 402.688,311.828 L 413.441,309.677 L 415.591,311.828 L 415.591,320.43 L 413.441,322.581 L 402.688,320.43 L 400.538,316.129 z " style="fill-opacity:0.5;fill:rgb(169,169,169);stroke:rgb(169,169,169);stroke-width:1"/></g>
<g fill-rule="evenodd"><path d="M 415.591,316.129 L 417.742,311.828 L 428.495,309.677 L 430.645,311.828 L 430.645,320.43 L 428.495,322.581 L 417.742,320.43 L 415.591,316.129 z " style="fill-opacity:0.5;fill:rgb(169,169,169);stroke:rgb(169,169,169);stroke-width:1"/></g>
<rect x="265.054" y="0" width="169.892" height="600" style="opacity:0.8;fill:none;stroke:rgb(0,0,0);stroke-width:1;stroke-linecap:round"/>
</svg>
