<?xml version="1.0" standalone="no"?>
<!DOCTYPE svg PUBLIC "-//W3C//DTD SVG 1.1//EN"
"http://www.w3.org/Graphics/SVG/1.1/DTD/svg11.dtd">
<svg width="100%" height="100%" version="1.1"
xmlns="http://www.w3.org/2000/svg"
xmlns:xlink="http://www.w3.org/1999/xlink">
<g fill-rule="evenodd"><path d="M 89.1006,137.036 L 89.1006,134.482 L 117.791,136.145 L 147.996,131.927 L 153.995,138.996 L 170.301,138.372 L 178.201,154.707 L 172.825,158.658 L 172.825,172.32 L 178.201,176.27 L 170.301,192.605 L 153.995,191.981 L 147.996,199.05 L 117.791,194.832 L 89.1006,196.496 L 89.1006,199.05 L 60.4102,197.387 L 30.2051,201.604 L 24.2057,194.535 L 7.90025,195.159 L 1.35061e-14,178.824 L 5.37573,174.874 L 5.37573,161.212 L 0,157.262 L 7.90025,140.927 L 24.2057,141.55 L 30.2051,134.482 L 60.4102,138.699 L 89.1006,137.036 z " style="fill-opacity:0.5;fill:rgb(204,153,0);stroke:rgb(204,153,0);stroke-width:1"/></g>
<g fill-rule="evenodd"><path d="M 175.051,261.754 L 175.051,269.506 L 84.9404,269.506 L 84.9404,261.754 L 122.497,261.754 L 111.911,241.316 L 112.956,230.675 L 127.317,212.688 L 178.866,222.915 L 175.051,261.754 z " style="fill-opacity:0.5;fill:rgb(204,153,0);stroke:rgb(204,153,0);stroke-width:1"/></g>
<g fill-rule="evenodd"><path d="M 79.8269,269.003 L 40.9878,265.188 L 40.9878,212.634 L 61.4259,202.048 L 72.0667,203.094 L 90.0539,217.454 L 79.8269,269.003 z " style="fill-opacity:0.5;fill:rgb(204,153,0);stroke:rgb(204,153,0);stroke-width:1"/></g>
<g fill-rule="evenodd"><path d="M 179.211,182.834 L 179.211,143.808 L 231.513,138.669 L 244.046,157.975 L 244.046,168.667 L 231.513,187.972 L 179.211,182.834 z " style="fill-opacity:0.5;fill:rgb(204,153,0);stroke:rgb(204,153,0);stroke-width:1"/></g>
<g fill-rule="evenodd"><path d="M 184.29,140.877 L 181.908,137.28 L 207.445,130.637 L 233.521,134.673 L 231.513,138.491 L 207.723,136.154 L 184.29,140.877 z " style="fill-opacity:0.5;fill:rgb(204,153,0);stroke:rgb(204,153,0);stroke-width:1"/></g>
<g fill-rule="evenodd"><path d="M 229.435,240.366 L 231.614,244.09 L 205.747,249.303 L 179.936,243.824 L 182.153,240.123 L 205.776,243.779 L 229.435,240.366 z " style="fill-opacity:0.5;fill:rgb(204,153,0);stroke:rgb(204,153,0);stroke-width:1"/></g>
<g fill-rule="evenodd"><path d="M 231.602,246.288 L 233.985,249.885 L 208.448,256.527 L 182.372,252.492 L 184.38,248.673 L 208.169,251.01 L 231.602,246.288 z " style="fill-opacity:0.5;fill:rgb(204,153,0);stroke:rgb(204,153,0);stroke-width:1"/></g>
<g fill-rule="evenodd"><path d="M 233.973,252.082 L 236.552,255.541 L 211.424,263.593 L 185.164,261.014 L 186.956,257.089 L 210.839,258.1 L 233.973,252.082 z " style="fill-opacity:0.5;fill:rgb(204,153,0);stroke:rgb(204,153,0);stroke-width:1"/></g>
<g fill-rule="evenodd"><path d="M 179.211,204.247 L 179.211,196.11 L 231.513,190.971 L 244.046,210.277 L 244.046,220.969 L 231.513,240.274 L 179.211,235.136 L 179.211,211.999 L 89.1006,211.999 L 89.1006,204.247 L 179.211,204.247 z " style="fill-opacity:0.5;fill:rgb(204,153,0);stroke:rgb(204,153,0);stroke-width:1"/></g>
<g fill-rule="evenodd"><path d="M 284.661,188.462 L 323.081,187.275 L 356.491,187.688 L 354.141,219.174 L 356.587,244.718 L 351.009,251.421 L 349.855,265.486 L 333.579,267.75 L 322.162,261.49 L 322.127,264.311 L 309.03,266.585 L 288.725,263.274 L 290.263,251.798 L 281.818,242.931 L 286.368,218.483 L 284.661,188.462 z " style="fill-opacity:0.5;fill:rgb(204,153,0);stroke:rgb(204,153,0);stroke-width:1"/></g>
<g fill-rule="evenodd"><path d="M 284.661,188.462 L 283.628,155.066 L 315.186,156.051 L 340.601,152.502 L 347.539,157.785 L 361.64,158.33 L 364.606,174.492 L 358.846,186.169 L 284.661,188.462 z " style="fill-opacity:0.5;fill:rgb(204,153,0);stroke:rgb(204,153,0);stroke-width:1"/></g>
<g fill-rule="evenodd"><path d="M 360.994,187.859 L 399.414,186.671 L 398.46,263.708 L 385.363,265.981 L 365.057,262.671 L 366.595,251.195 L 358.151,242.328 L 362.701,217.88 L 360.994,187.859 z " style="fill-opacity:0.5;fill:rgb(204,153,0);stroke:rgb(204,153,0);stroke-width:1"/></g>
<g fill-rule="evenodd"><path d="M 399.758,158.874 L 399.515,178.445 L 371.718,178.101 L 371.96,158.53 L 372.203,138.959 L 400,139.303 L 399.758,158.874 z " style="fill-opacity:0.5;fill:rgb(204,153,0);stroke:rgb(204,153,0);stroke-width:1"/></g>
<g fill-rule="evenodd"><path d="M 259.644,141.808 L 270.377,145.426 L 266.704,166.034 L 267.892,186.932 L 256.805,189.244 L 259.461,177.174 L 258.225,165.526 L 260.842,154.109 L 259.644,141.808 z " style="fill-opacity:0.5;fill:rgb(204,153,0);stroke:rgb(204,153,0);stroke-width:1"/></g>
<g fill-rule="evenodd"><path d="M 278.112,217.028 L 279.691,244.782 L 260.15,245.893 L 258.571,218.139 L 256.993,190.384 L 276.533,189.273 L 278.112,217.028 z " style="fill-opacity:0.5;fill:rgb(204,153,0);stroke:rgb(204,153,0);stroke-width:1"/></g>
<g fill-rule="evenodd"><path d="M 246.456,222.215 L 248.518,210.029 L 246.713,198.456 L 248.769,186.924 L 246.971,174.697 L 249.631,153.935 L 247.421,133.119 L 258.383,130.268 L 256.32,142.453 L 258.125,154.027 L 256.069,165.558 L 257.868,177.785 L 255.207,198.548 L 257.417,219.363 L 246.456,222.215 z " style="fill-opacity:0.5;fill:rgb(204,153,0);stroke:rgb(204,153,0);stroke-width:1"/></g>
<g fill-rule="evenodd"><path d="M 246.456,222.215 L 257.352,225.303 L 254.692,246.065 L 256.902,266.881 L 245.94,269.732 L 248.003,257.547 L 246.198,245.973 L 248.254,234.442 L 246.456,222.215 z " style="fill-opacity:0.5;fill:rgb(204,153,0);stroke:rgb(204,153,0);stroke-width:1"/></g>
</svg>
