<?xml version="1.0" standalone="no"?>
<!DOCTYPE svg PUBLIC "-//W3C//DTD SVG 1.1//EN"
"http://www.w3.org/Graphics/SVG/1.1/DTD/svg11.dtd">
<svg width="100%" height="100%" version="1.1"
xmlns="http://www.w3.org/2000/svg"
xmlns:xlink="http://www.w3.org/1999/xlink">
<g fill-rule="evenodd"><path d="M 60,340 L 60,280 L 1.30104e-17,280 L 0,340 L 60,340 z " style="fill-opacity:0.5;fill:rgb(169,169,169);stroke:rgb(169,169,169);stroke-width:1"/></g>
<g fill-rule="evenodd"><path d="M 670,290 L 640,290 L 620,310 L 620,330 L 650,340 L 680,340 L 700,330 L 700,310 L 670,290 z " style="fill-opacity:0.5;fill:rgb(169,169,169);stroke:rgb(169,169,169);stroke-width:1"/></g>
<g fill-rule="evenodd"><path d="M 120,340 L 120,280 L 90,280 L 90,300 L 60,300 L 60,340 L 120,340 z " style="fill-opacity:0.5;fill:rgb(169,169,169);stroke:rgb(169,169,169);stroke-width:1"/></g>
<g fill-rule="evenodd"><path d="M 180,340 L 180,280 L 150,280 L 150,300 L 120,300 L 120,340 L 180,340 z " style="fill-opacity:0.5;fill:rgb(169,169,169);stroke:rgb(169,169,169);stroke-width:1"/></g>
<g fill-rule="evenodd"><path d="M 620,320 L 620,300 L 600,280 L 580,280 L 560,300 L 560,320 L 580,340 L 600,340 L 620,320 z " style="fill-opacity:0.5;fill:rgb(169,169,169);stroke:rgb(169,169,169);stroke-width:1"/></g>
<g fill-rule="evenodd"><path d="M 560,340 L 560,290 L 510,290 L 510,340 L 560,340 z " style="fill-opacity:0.5;fill:rgb(169,169,169);stroke:rgb(169,169,169);stroke-width:1"/></g>
<g fill-rule="evenodd"><path d="M 510,340 L 510,290 L 480,290 L 480,310 L 460,310 L 460,340 L 510,340 z " style="fill-opacity:0.5;fill:rgb(169,169,169);stroke:rgb(169,169,169);stroke-width:1"/></g>
<g fill-rule="evenodd"><path d="M 460,320 L 460,300 L 440,300 L 440,280 L 420,280 L 420,300 L 400,300 L 400,320 L 420,320 L 420,340 L 440,340 L 440,320 L 460,320 z " style="fill-opacity:0.5;fill:rgb(169,169,169);stroke:rgb(169,169,169);stroke-width:1"/></g>
<g fill-rule="evenodd"><path d="M 400,320 L 400,300 L 380,300 L 380,280 L 360,280 L 360,300 L 340,300 L 340,320 L 360,320 L 360,340 L 380,340 L 380,320 L 400,320 z " style="fill-opacity:0.5;fill:rgb(169,169,169);stroke:rgb(169,169,169);stroke-width:1"/></g>
<g fill-rule="evenodd"><path d="M 210,340 L 210,280 L 180,280 L 180,340 L 210,340 z " style="fill-opacity:0.5;fill:rgb(169,169,169);stroke:rgb(169,169,169);stroke-width:1"/></g>
<g fill-rule="evenodd"><path d="M 340,340 L 340,300 L 300,300 L 300,340 L 340,340 z " style="fill-opacity:0.5;fill:rgb(169,169,169);stroke:rgb(169,169,169);stroke-width:1"/></g>
<g fill-rule="evenodd"><path d="M 290,340 L 300,320 L 300,300 L 290,280 L 280,280 L 270,300 L 270,320 L 280,340 L 290,340 z " style="fill-opacity:0.5;fill:rgb(169,169,169);stroke:rgb(169,169,169);stroke-width:1"/></g>
<g fill-rule="evenodd"><path d="M 245.714,340 L 285.714,270 L 245.714,270 L 245.714,340 z " style="fill-opacity:0.5;fill:rgb(169,169,169);stroke:rgb(169,169,169);stroke-width:1"/></g>
<g fill-rule="evenodd"><path d="M 510,260 L 460,260 L 460,310 L 510,260 z " style="fill-opacity:0.5;fill:rgb(169,169,169);stroke:rgb(169,169,169);stroke-width:1"/></g>
<g fill-rule="evenodd"><path d="M 340,300 L 340,260 L 330,260 L 330,280 L 300,280 L 300,300 L 340,300 z " style="fill-opacity:0.5;fill:rgb(169,169,169);stroke:rgb(169,169,169);stroke-width:1"/></g>
<g fill-rule="evenodd"><path d="M 660,270 L 610,270 L 610,290 L 660,290 L 660,270 z " style="fill-opacity:0.5;fill:rgb(169,169,169);stroke:rgb(169,169,169);stroke-width:1"/></g>
<g fill-rule="evenodd"><path d="M 210,340 L 240,280 L 210,280 L 210,340 z " style="fill-opacity:0.5;fill:rgb(169,169,169);stroke:rgb(169,169,169);stroke-width:1"/></g>
<g fill-rule="evenodd"><path d="M 700,270 L 660,270 L 700,310 L 700,270 z " style="fill-opacity:0.5;fill:rgb(169,169,169);stroke:rgb(169,169,169);stroke-width:1"/></g>
<g fill-rule="evenodd"><path d="M 110,260 L 60,260 L 60,280 L 80,280 L 80,270 L 110,270 L 110,260 z " style="fill-opacity:0.5;fill:rgb(169,169,169);stroke:rgb(169,169,169);stroke-width:1"/></g>
<g fill-rule="evenodd"><path d="M 450,300 L 450,260 L 430,260 L 430,270 L 440,270 L 440,300 L 450,300 z " style="fill-opacity:0.5;fill:rgb(169,169,169);stroke:rgb(169,169,169);stroke-width:1"/></g>
<g fill-rule="evenodd"><path d="M 410,290 L 410,280 L 400,280 L 400,270 L 390,270 L 390,280 L 380,280 L 380,290 L 390,290 L 390,300 L 400,300 L 400,290 L 410,290 z " style="fill-opacity:0.5;fill:rgb(169,169,169);stroke:rgb(169,169,169);stroke-width:1"/></g>
<g fill-rule="evenodd"><path d="M 150,280 L 150,270 L 140,270 L 140,260 L 130,260 L 130,270 L 120,270 L 120,280 L 130,280 L 130,290 L 140,290 L 140,280 L 150,280 z " style="fill-opacity:0.5;fill:rgb(169,169,169);stroke:rgb(169,169,169);stroke-width:1"/></g>
<g fill-rule="evenodd"><path d="M 510,290 L 510,260 L 480,290 L 510,290 z " style="fill-opacity:0.5;fill:rgb(169,169,169);stroke:rgb(169,169,169);stroke-width:1"/></g>
<g fill-rule="evenodd"><path d="M 420,340 L 420,330 L 380,330 L 380,340 L 420,340 z " style="fill-opacity:0.5;fill:rgb(169,169,169);stroke:rgb(169,169,169);stroke-width:1"/></g>
<g fill-rule="evenodd"><path d="M 265.714,340 L 265.714,320 L 245.714,340 L 265.714,340 z " style="fill-opacity:0.5;fill:rgb(169,169,169);stroke:rgb(169,169,169);stroke-width:1"/></g>
<rect x="0" y="260" width="700" height="80" style="opacity:0.8;fill:none;stroke:rgb(0,0,0);stroke-width:1;stroke-linecap:round"/>
</svg>
