<?xml version="1.0" standalone="no"?>
<!DOCTYPE svg PUBLIC "-//W3C//DTD SVG 1.1//EN"
"http://www.w3.org/Graphics/SVG/1.1/DTD/svg11.dtd">
<svg width="100%" height="100%" version="1.1"
xmlns="http://www.w3.org/2000/svg"
xmlns:xlink="http://www.w3.org/1999/xlink">
<g fill-rule="evenodd"><path d="M 249.038,591.753 L 249.038,396.561 L 168.269,410.022 L 100.962,396.561 L 74.0385,423.484 L 26.9231,423.484 L -3.58047e-15,470.599 L 13.4615,484.061 L 13.4615,497.522 L -3.58047e-15,510.984 L 20.1923,564.83 L 74.0385,564.83 L 100.962,591.753 L 168.269,578.291 L 249.038,591.753 z " style="fill-opacity:0.5;fill:rgb(169,169,169);stroke:rgb(169,169,169);stroke-width:1"/></g>
<g fill-rule="evenodd"><path d="M 498.077,591.753 L 498.077,396.561 L 417.308,410.022 L 350,396.561 L 323.077,423.484 L 275.962,423.484 L 249.038,470.599 L 262.5,484.061 L 262.5,497.522 L 249.038,510.984 L 269.231,564.83 L 323.077,564.83 L 350,591.753 L 417.308,578.291 L 498.077,591.753 z " style="fill-opacity:0.5;fill:rgb(169,169,169);stroke:rgb(169,169,169);stroke-width:1"/></g>
<g fill-rule="evenodd"><path d="M 700,591.753 L 700,450.407 L 551.923,450.407 L 511.538,497.522 L 511.538,544.638 L 551.923,591.753 L 700,591.753 z " style="fill-opacity:0.5;fill:rgb(169,169,169);stroke:rgb(169,169,169);stroke-width:1"/></g>
<g fill-rule="evenodd"><path d="M 700,450.407 L 700,309.061 L 551.923,309.061 L 511.538,356.176 L 511.538,403.291 L 551.923,450.407 L 700,450.407 z " style="fill-opacity:0.5;fill:rgb(169,169,169);stroke:rgb(169,169,169);stroke-width:1"/></g>
<g fill-rule="evenodd"><path d="M 249.038,396.561 L 249.038,255.214 L 100.962,255.214 L 60.5769,302.33 L 60.5769,349.445 L 100.962,396.561 L 249.038,396.561 z " style="fill-opacity:0.5;fill:rgb(169,169,169);stroke:rgb(169,169,169);stroke-width:1"/></g>
<g fill-rule="evenodd"><path d="M 498.077,396.561 L 498.077,255.214 L 350,255.214 L 309.615,302.33 L 309.615,349.445 L 350,396.561 L 498.077,396.561 z " style="fill-opacity:0.5;fill:rgb(169,169,169);stroke:rgb(169,169,169);stroke-width:1"/></g>
<g fill-rule="evenodd"><path d="M 262.5,142.862 L 40.3846,142.862 L 40.3846,237.093 L 60.5769,237.093 L 87.5,257.286 L 175,243.824 L 262.5,257.286 L 262.5,142.862 z " style="fill-opacity:0.5;fill:rgb(169,169,169);stroke:rgb(169,169,169);stroke-width:1"/></g>
<g fill-rule="evenodd"><path d="M 511.538,142.862 L 289.423,142.862 L 289.423,237.093 L 309.615,237.093 L 336.538,257.286 L 424.038,243.824 L 511.538,257.286 L 511.538,142.862 z " style="fill-opacity:0.5;fill:rgb(169,169,169);stroke:rgb(169,169,169);stroke-width:1"/></g>
<g fill-rule="evenodd"><path d="M 700,309.061 L 700,86.9453 L 659.615,80.2145 L 612.5,73.4837 L 612.5,120.599 L 599.038,140.791 L 612.5,214.83 L 599.038,309.061 L 700,309.061 z " style="fill-opacity:0.5;fill:rgb(169,169,169);stroke:rgb(169,169,169);stroke-width:1"/></g>
<g fill-rule="evenodd"><path d="M 511.538,46.5607 L 511.538,268.676 L 551.923,275.407 L 599.038,282.138 L 599.038,235.022 L 612.5,214.83 L 599.038,140.791 L 612.5,46.5607 L 511.538,46.5607 z " style="fill-opacity:0.5;fill:rgb(169,169,169);stroke:rgb(169,169,169);stroke-width:1"/></g>
<g fill-rule="evenodd"><path d="M 262.5,142.862 L 262.5,115.939 L -3.58047e-15,115.939 L -3.58047e-15,142.862 L 262.5,142.862 z " style="fill-opacity:0.5;fill:rgb(169,169,169);stroke:rgb(169,169,169);stroke-width:1"/></g>
<g fill-rule="evenodd"><path d="M 262.5,115.939 L 262.5,89.0163 L -3.58047e-15,89.0163 L -3.58047e-15,115.939 L 262.5,115.939 z " style="fill-opacity:0.5;fill:rgb(169,169,169);stroke:rgb(169,169,169);stroke-width:1"/></g>
<g fill-rule="evenodd"><path d="M 336.538,142.862 L 336.538,75.5547 L 262.5,75.5547 L 262.5,142.862 L 336.538,142.862 z " style="fill-opacity:0.5;fill:rgb(169,169,169);stroke:rgb(169,169,169);stroke-width:1"/></g>
<g fill-rule="evenodd"><path d="M 410.577,142.862 L 410.577,75.5547 L 336.538,75.5547 L 336.538,142.862 L 410.577,142.862 z " style="fill-opacity:0.5;fill:rgb(169,169,169);stroke:rgb(169,169,169);stroke-width:1"/></g>
<g fill-rule="evenodd"><path d="M 484.615,142.862 L 484.615,75.5547 L 410.577,75.5547 L 410.577,142.862 L 484.615,142.862 z " style="fill-opacity:0.5;fill:rgb(169,169,169);stroke:rgb(169,169,169);stroke-width:1"/></g>
<g fill-rule="evenodd"><path d="M 262.5,75.5547 L 262.5,8.24704 L 188.462,8.24704 L 188.462,75.5547 L 262.5,75.5547 z " style="fill-opacity:0.5;fill:rgb(169,169,169);stroke:rgb(169,169,169);stroke-width:1"/></g>
<g fill-rule="evenodd"><path d="M 262.5,398.632 L 296.154,385.17 L 282.692,324.593 L 296.154,270.747 L 262.5,257.286 L 269.231,284.209 L 255.769,324.593 L 269.231,371.709 L 262.5,398.632 z " style="fill-opacity:0.5;fill:rgb(169,169,169);stroke:rgb(169,169,169);stroke-width:1"/></g>
<g fill-rule="evenodd"><path d="M 188.462,75.5547 L 175,41.9009 L 114.423,55.3624 L 60.5769,41.9009 L 47.1154,75.5547 L 74.0385,68.824 L 114.423,82.2855 L 161.538,68.824 L 188.462,75.5547 z " style="fill-opacity:0.5;fill:rgb(169,169,169);stroke:rgb(169,169,169);stroke-width:1"/></g>
<g fill-rule="evenodd"><path d="M 410.577,68.824 L 397.115,35.1701 L 336.538,48.6317 L 282.692,35.1701 L 269.231,68.824 L 296.154,62.0932 L 336.538,75.5547 L 383.654,62.0932 L 410.577,68.824 z " style="fill-opacity:0.5;fill:rgb(169,169,169);stroke:rgb(169,169,169);stroke-width:1"/></g>
<g fill-rule="evenodd"><path d="M 562.019,46.5607 L 548.558,12.9068 L 487.981,26.3683 L 434.135,12.9068 L 420.673,46.5607 L 447.596,39.8299 L 487.981,53.2914 L 535.096,39.8299 L 562.019,46.5607 z " style="fill-opacity:0.5;fill:rgb(169,169,169);stroke:rgb(169,169,169);stroke-width:1"/></g>
<g fill-rule="evenodd"><path d="M -3.58047e-15,40.2182 L 13.4615,53.6797 L 67.3077,40.2182 L 121.154,53.6797 L 134.615,40.2182 L 67.3077,26.7567 L -3.58047e-15,40.2182 z " style="fill-opacity:0.5;fill:rgb(169,169,169);stroke:rgb(169,169,169);stroke-width:1"/></g>
<g fill-rule="evenodd"><path d="M 565.385,33.0991 L 578.846,46.5607 L 632.692,33.0991 L 686.538,46.5607 L 700,33.0991 L 632.692,19.6376 L 565.385,33.0991 z " style="fill-opacity:0.5;fill:rgb(169,169,169);stroke:rgb(169,169,169);stroke-width:1"/></g>
<g fill-rule="evenodd"><path d="M 272.398,22.5004 L 285.86,35.962 L 339.706,22.5004 L 393.552,35.962 L 407.014,22.5004 L 339.706,9.0389 L 272.398,22.5004 z " style="fill-opacity:0.5;fill:rgb(169,169,169);stroke:rgb(169,169,169);stroke-width:1"/></g>
<g fill-rule="evenodd"><path d="M 40.3846,371.709 L 53.8462,358.247 L 40.3846,304.401 L 53.8462,250.555 L 40.3846,237.093 L 26.9231,304.401 L 40.3846,371.709 z " style="fill-opacity:0.5;fill:rgb(169,169,169);stroke:rgb(169,169,169);stroke-width:1"/></g>
<rect x="-3.58047e-15" y="8.24704" width="700" height="583.506" style="opacity:0.8;fill:none;stroke:rgb(0,0,0);stroke-width:1;stroke-linecap:round"/>
</svg>
