<?xml version="1.0" standalone="no"?>
<!DOCTYPE svg PUBLIC "-//W3C//DTD SVG 1.1//EN"
"http://www.w3.org/Graphics/SVG/1.1/DTD/svg11.dtd">
<svg width="100%" height="100%" version="1.1"
xmlns="http://www.w3.org/2000/svg"
xmlns:xlink="http://www.w3.org/1999/xlink">
<g fill-rule="evenodd"><path d="M 270.569,235.524 L 211.481,218.642 L 228.363,213.015 L 262.128,213.015 L 279.01,218.642 L 279.01,238.338 L 262.128,243.965 L 228.363,243.965 L 211.481,238.338 L 270.569,235.524 z " style="fill-opacity:0.5;fill:rgb(204,153,0);stroke:rgb(204,153,0);stroke-width:1"/></g>
<g fill-rule="evenodd"><path d="M 394.373,229.334 L 394.373,232.711 L 366.235,243.965 L 360.608,243.965 L 360.608,232.711 L 363.422,232.711 L 363.422,229.897 L 360.608,229.897 L 360.608,218.642 L 366.235,219.58 L 366.235,213.015 L 400,218.642 L 400,227.083 L 394.373,229.334 z " style="fill-opacity:0.5;fill:rgb(204,153,0);stroke:rgb(204,153,0);stroke-width:1"/></g>
<g fill-rule="evenodd"><path d="M 163.583,211.862 L 174.799,212.797 L 172.463,240.837 L 169.892,237.799 L 154.704,250.651 L 146.993,241.538 L 154.081,235.54 L 156.106,233.827 L 144.89,232.892 L 147.227,204.852 L 149.797,207.89 L 164.985,195.038 L 172.696,204.151 L 165.609,210.149 L 163.583,211.862 z " style="fill-opacity:0.5;fill:rgb(204,153,0);stroke:rgb(204,153,0);stroke-width:1"/></g>
<g fill-rule="evenodd"><path d="M 209.227,210.019 L 211.719,210.227 L 209.382,238.267 L 206.812,235.229 L 191.623,248.081 L 183.912,238.968 L 199.101,226.116 L 204.163,214.303 L 190.203,226.116 L 184.864,227.895 L 181.305,217.218 L 183.975,216.328 L 183.085,213.659 L 180.416,214.549 L 176.856,203.872 L 210.668,198.533 L 213.337,206.541 L 209.227,210.019 z " style="fill-opacity:0.5;fill:rgb(204,153,0);stroke:rgb(204,153,0);stroke-width:1"/></g>
<g fill-rule="evenodd"><path d="M 343.726,198.946 L 322.515,162.894 L 362.821,175.414 L 351.135,213.033 L 310.829,200.512 L 343.726,198.946 z " style="fill-opacity:0.5;fill:rgb(204,153,0);stroke:rgb(204,153,0);stroke-width:1"/></g>
<g fill-rule="evenodd"><path d="M 228.363,184.877 L 242.432,190.505 L 242.432,198.946 L 242.432,204.573 L 228.363,210.201 L 228.363,184.877 z " style="fill-opacity:0.5;fill:rgb(204,153,0);stroke:rgb(204,153,0);stroke-width:1"/></g>
<g fill-rule="evenodd"><path d="M 301.52,213.015 L 281.824,213.015 L 264.942,207.387 L 264.942,187.691 L 281.824,182.064 L 242.432,182.064 L 242.432,179.25 L 228.363,184.877 L 228.363,159.554 L 228.363,151.113 L 228.363,145.485 L 242.432,139.858 L 253.687,170.809 L 281.824,139.858 L 293.079,170.809 L 321.216,139.858 L 321.216,182.064 L 315.589,182.064 L 332.471,187.691 L 273.383,190.505 L 332.471,207.387 L 315.589,213.015 L 335.285,213.015 L 352.167,218.642 L 293.079,221.456 L 352.167,238.338 L 335.285,243.965 L 301.52,243.965 L 284.638,238.338 L 284.638,218.642 L 301.52,213.015 z " style="fill-opacity:0.5;fill:rgb(204,153,0);stroke:rgb(204,153,0);stroke-width:1"/></g>
<g fill-rule="evenodd"><path d="M 37.9799,187.69 L 114.354,179.615 L 108.379,187.814 L 51.4492,202.334 L 23.9235,187.103 L 21.4645,178.552 L 30.133,173.282 L 111.777,173.875 L 37.9799,187.69 z " style="fill-opacity:0.5;fill:rgb(204,153,0);stroke:rgb(204,153,0);stroke-width:1"/></g>
<g fill-rule="evenodd"><path d="M 92.0569,218.991 L 15.321,222.114 L 21.813,214.319 L 79.5619,203.508 L 106.046,220.485 L 107.947,229.177 L 98.9564,233.876 L 17.5212,228.009 L 92.0569,218.991 z " style="fill-opacity:0.5;fill:rgb(204,153,0);stroke:rgb(204,153,0);stroke-width:1"/></g>
<g fill-rule="evenodd"><path d="M 100.174,249.427 L 23.7999,257.502 L 29.7746,249.303 L 86.7043,234.784 L 114.23,250.014 L 116.689,258.565 L 108.02,263.836 L 26.3764,263.242 L 100.174,249.427 z " style="fill-opacity:0.5;fill:rgb(204,153,0);stroke:rgb(204,153,0);stroke-width:1"/></g>
<g fill-rule="evenodd"><path d="M 16.3036,228.241 L 1.33571,237.866 L 34.053,229.521 L 64.7942,236.2 L 15.7183,248.716 L 0,244.014 L 16.3036,228.241 z " style="fill-opacity:0.5;fill:rgb(204,153,0);stroke:rgb(204,153,0);stroke-width:1"/></g>
<g fill-rule="evenodd"><path d="M 125.187,225.412 L 117.456,255.905 L 106.633,206.428 L 111.873,190.881 L 127.077,207.717 L 117.971,192.427 L 124.585,222.663 L 132.316,192.169 L 143.139,241.646 L 137.9,257.194 L 122.696,240.358 L 131.801,255.648 L 125.187,225.412 z " style="fill-opacity:0.5;fill:rgb(204,153,0);stroke:rgb(204,153,0);stroke-width:1"/></g>
<g fill-rule="evenodd"><path d="M 117.657,177.108 L 125.495,173.973 L 128.107,172.928 L 131.765,189.648 L 123.927,192.783 L 121.315,193.828 L 117.657,177.108M -155.997,200.897 L -154.038,200.113 L -152.47,196.456 L -153.515,193.843 L -155.997,200.897M -155.083,212.653 L -152.601,205.6 L -154.56,206.383 L -156.128,210.041 L -155.083,212.653 z " style="fill-opacity:0.5;fill:rgb(204,153,0);stroke:rgb(204,153,0);stroke-width:1"/></g>
<g fill-rule="evenodd"><path d="M 51.0435,155.437 L 57.5687,160.597 L 18.0459,165.216 L 35.3641,165.996 L 26.6689,136.164 L 66.0099,138.168 L 90.3845,157.441 L 51.0435,155.437 z " style="fill-opacity:0.5;fill:rgb(204,153,0);stroke:rgb(204,153,0);stroke-width:1"/></g>
<g fill-rule="evenodd"><path d="M 152.752,140.896 L 145.573,158.353 L 151.805,166.358 L 132.162,167.804 L 128.943,162.398 L 152.752,140.896 z " style="fill-opacity:0.5;fill:rgb(204,153,0);stroke:rgb(204,153,0);stroke-width:1"/></g>
<g fill-rule="evenodd"><path d="M 113.215,168.018 L 122.504,151.586 L 117.314,142.87 L 136.984,143.872 L 139.508,149.635 L 113.215,168.018 z " style="fill-opacity:0.5;fill:rgb(204,153,0);stroke:rgb(204,153,0);stroke-width:1"/></g>
<g fill-rule="evenodd"><path d="M 90.7664,169.67 L 100.055,153.239 L 94.8647,144.522 L 114.535,145.524 L 117.059,151.287 L 90.7664,169.67 z " style="fill-opacity:0.5;fill:rgb(204,153,0);stroke:rgb(204,153,0);stroke-width:1"/></g>
</svg>
