<?xml version="1.0" standalone="no"?>
<!DOCTYPE svg PUBLIC "-//W3C//DTD SVG 1.1//EN"
"http://www.w3.org/Graphics/SVG/1.1/DTD/svg11.dtd">
<svg width="100%" height="100%" version="1.1"
xmlns="http://www.w3.org/2000/svg"
xmlns:xlink="http://www.w3.org/1999/xlink">
<g fill-rule="evenodd"><path d="M 293.75,515.625 L 293.75,581.25 L 237.5,600 L 125,600 L 68.75,581.25 L 68.75,515.625 L 125,496.875 L 237.5,496.875 L 293.75,515.625 z " style="fill-opacity:0.5;fill:rgb(169,169,169);stroke:rgb(169,169,169);stroke-width:1"/></g>
<g fill-rule="evenodd"><path d="M 518.75,515.625 L 518.75,581.25 L 462.5,600 L 350,600 L 293.75,581.25 L 293.75,515.625 L 350,496.875 L 462.5,496.875 L 518.75,515.625 z " style="fill-opacity:0.5;fill:rgb(169,169,169);stroke:rgb(169,169,169);stroke-width:1"/></g>
<g fill-rule="evenodd"><path d="M 293.75,412.5 L 293.75,478.125 L 237.5,496.875 L 125,496.875 L 68.75,478.125 L 68.75,412.5 L 125,393.75 L 237.5,393.75 L 293.75,412.5 z " style="fill-opacity:0.5;fill:rgb(169,169,169);stroke:rgb(169,169,169);stroke-width:1"/></g>
<g fill-rule="evenodd"><path d="M 593.75,393.75 L 603.125,412.5 L 584.375,440.625 L 396.875,496.875 L 303.125,450 L 293.75,421.875 L 321.875,403.125 L 593.75,393.75 z " style="fill-opacity:0.5;fill:rgb(169,169,169);stroke:rgb(169,169,169);stroke-width:1"/></g>
<g fill-rule="evenodd"><path d="M 462.5,300 L 471.875,318.75 L 453.125,346.875 L 265.625,403.125 L 171.875,356.25 L 162.5,328.125 L 190.625,309.375 L 462.5,300 z " style="fill-opacity:0.5;fill:rgb(169,169,169);stroke:rgb(169,169,169);stroke-width:1"/></g>
<g fill-rule="evenodd"><path d="M 368.75,206.25 L 378.125,225 L 359.375,253.125 L 171.875,309.375 L 78.125,262.5 L 68.75,234.375 L 96.875,215.625 L 368.75,206.25 z " style="fill-opacity:0.5;fill:rgb(169,169,169);stroke:rgb(169,169,169);stroke-width:1"/></g>
<g fill-rule="evenodd"><path d="M 612.5,262.5 L 612.5,393.75 L 471.875,393.75 L 471.875,262.5 L 612.5,262.5 z " style="fill-opacity:0.5;fill:rgb(169,169,169);stroke:rgb(169,169,169);stroke-width:1"/></g>
<g fill-rule="evenodd"><path d="M 518.75,131.25 L 518.75,262.5 L 378.125,262.5 L 378.125,131.25 L 518.75,131.25 z " style="fill-opacity:0.5;fill:rgb(169,169,169);stroke:rgb(169,169,169);stroke-width:1"/></g>
<g fill-rule="evenodd"><path d="M 209.375,75 L 209.375,206.25 L 68.75,206.25 L 68.75,75 L 209.375,75 z " style="fill-opacity:0.5;fill:rgb(169,169,169);stroke:rgb(169,169,169);stroke-width:1"/></g>
<g fill-rule="evenodd"><path d="M 593.75,600 L 575,590.625 L 575,478.125 L 621.875,384.375 L 621.875,553.125 L 593.75,600 z " style="fill-opacity:0.5;fill:rgb(169,169,169);stroke:rgb(169,169,169);stroke-width:1"/></g>
<g fill-rule="evenodd"><path d="M 209.375,103.125 L 218.75,84.375 L 331.25,84.375 L 425,131.25 L 256.25,131.25 L 209.375,103.125 z " style="fill-opacity:0.5;fill:rgb(169,169,169);stroke:rgb(169,169,169);stroke-width:1"/></g>
<g fill-rule="evenodd"><path d="M 546.875,112.5 L 537.5,131.25 L 425,131.25 L 331.25,84.375 L 500,84.375 L 546.875,112.5 z " style="fill-opacity:0.5;fill:rgb(169,169,169);stroke:rgb(169,169,169);stroke-width:1"/></g>
<g fill-rule="evenodd"><path d="M 87.5,281.25 L 115.625,281.25 L 153.125,375 L 153.125,393.75 L 115.625,393.75 L 115.625,384.375 L 106.25,384.375 L 106.25,393.75 L 68.75,393.75 L 87.5,281.25 z " style="fill-opacity:0.5;fill:rgb(169,169,169);stroke:rgb(169,169,169);stroke-width:1"/></g>
<g fill-rule="evenodd"><path d="M 631.25,196.875 L 631.25,225 L 537.5,262.5 L 518.75,262.5 L 518.75,225 L 528.125,225 L 528.125,215.625 L 518.75,215.625 L 518.75,178.125 L 631.25,196.875 z " style="fill-opacity:0.5;fill:rgb(169,169,169);stroke:rgb(169,169,169);stroke-width:1"/></g>
<g fill-rule="evenodd"><path d="M 518.75,178.125 L 518.75,150 L 612.5,112.5 L 631.25,112.5 L 631.25,150 L 621.875,150 L 621.875,159.375 L 631.25,159.375 L 631.25,196.875 L 518.75,178.125 z " style="fill-opacity:0.5;fill:rgb(169,169,169);stroke:rgb(169,169,169);stroke-width:1"/></g>
<g fill-rule="evenodd"><path d="M 350,196.875 L 340.625,206.25 L 246.875,206.25 L 256.25,196.875 L 209.375,150 L 237.5,121.875 L 284.375,168.75 L 340.625,187.5 L 350,196.875 z " style="fill-opacity:0.5;fill:rgb(169,169,169);stroke:rgb(169,169,169);stroke-width:1"/></g>
<g fill-rule="evenodd"><path d="M 453.125,56.25 L 462.5,46.875 L 556.25,46.875 L 546.875,56.25 L 593.75,103.125 L 565.625,131.25 L 518.75,84.375 L 462.5,65.625 L 453.125,56.25 z " style="fill-opacity:0.5;fill:rgb(169,169,169);stroke:rgb(169,169,169);stroke-width:1"/></g>
<g fill-rule="evenodd"><path d="M 490.625,18.75 L 500,9.375 L 593.75,9.375 L 584.375,18.75 L 631.25,65.625 L 603.125,93.75 L 556.25,46.875 L 500,28.125 L 490.625,18.75 z " style="fill-opacity:0.5;fill:rgb(169,169,169);stroke:rgb(169,169,169);stroke-width:1"/></g>
<g fill-rule="evenodd"><path d="M 275,24.375 L 228.125,84.375 L 143.75,24.375 L 275,24.375 z " style="fill-opacity:0.5;fill:rgb(169,169,169);stroke:rgb(169,169,169);stroke-width:1"/></g>
<g fill-rule="evenodd"><path d="M 228.125,84.375 L 275,24.375 L 359.375,84.375 L 228.125,84.375 z " style="fill-opacity:0.5;fill:rgb(169,169,169);stroke:rgb(169,169,169);stroke-width:1"/></g>
<g fill-rule="evenodd"><path d="M 406.25,24.375 L 359.375,84.375 L 275,24.375 L 406.25,24.375 z " style="fill-opacity:0.5;fill:rgb(169,169,169);stroke:rgb(169,169,169);stroke-width:1"/></g>
<g fill-rule="evenodd"><path d="M 518.75,515.625 L 565.625,534.375 L 565.625,581.25 L 518.75,600 L 518.75,515.625 z " style="fill-opacity:0.5;fill:rgb(169,169,169);stroke:rgb(169,169,169);stroke-width:1"/></g>
<g fill-rule="evenodd"><path d="M 565.625,534.375 L 518.75,515.625 L 518.75,468.75 L 565.625,450 L 565.625,534.375 z " style="fill-opacity:0.5;fill:rgb(169,169,169);stroke:rgb(169,169,169);stroke-width:1"/></g>
<g fill-rule="evenodd"><path d="M 378.125,131.25 L 359.375,178.125 L 312.5,178.125 L 293.75,131.25 L 378.125,131.25 z " style="fill-opacity:0.5;fill:rgb(169,169,169);stroke:rgb(169,169,169);stroke-width:1"/></g>
<g fill-rule="evenodd"><path d="M 396.875,46.875 L 453.125,37.5 L 453.125,46.875 L 443.75,46.875 L 434.375,56.25 L 434.375,65.625 L 443.75,75 L 453.125,75 L 453.125,84.375 L 396.875,75 L 396.875,46.875 z " style="fill-opacity:0.5;fill:rgb(169,169,169);stroke:rgb(169,169,169);stroke-width:1"/></g>
<g fill-rule="evenodd"><path d="M 68.75,37.5 L 125,28.125 L 125,37.5 L 115.625,37.5 L 106.25,46.875 L 106.25,56.25 L 115.625,65.625 L 125,65.625 L 125,75 L 68.75,65.625 L 68.75,37.5 z " style="fill-opacity:0.5;fill:rgb(169,169,169);stroke:rgb(169,169,169);stroke-width:1"/></g>
<g fill-rule="evenodd"><path d="M 453.125,37.5 L 396.875,46.875 L 396.875,37.5 L 406.25,37.5 L 415.625,28.125 L 415.625,18.75 L 406.25,9.375 L 396.875,9.375 L 396.875,0 L 453.125,9.375 L 453.125,37.5 z " style="fill-opacity:0.5;fill:rgb(169,169,169);stroke:rgb(169,169,169);stroke-width:1"/></g>
<g fill-rule="evenodd"><path d="M 359.375,375 L 415.625,365.625 L 434.375,393.75 L 368.75,393.75 L 359.375,375 z " style="fill-opacity:0.5;fill:rgb(169,169,169);stroke:rgb(169,169,169);stroke-width:1"/></g>
<g fill-rule="evenodd"><path d="M 265.625,281.25 L 321.875,271.875 L 340.625,300 L 275,300 L 265.625,281.25 z " style="fill-opacity:0.5;fill:rgb(169,169,169);stroke:rgb(169,169,169);stroke-width:1"/></g>
<g fill-rule="evenodd"><path d="M 396.875,290.625 L 340.625,300 L 321.875,271.875 L 387.5,271.875 L 396.875,290.625 z " style="fill-opacity:0.5;fill:rgb(169,169,169);stroke:rgb(169,169,169);stroke-width:1"/></g>
<rect x="68.75" y="0" width="562.5" height="600" style="opacity:0.8;fill:none;stroke:rgb(0,0,0);stroke-width:1;stroke-linecap:round"/>
</svg>
