<?xml version="1.0" standalone="no"?>
<!DOCTYPE svg PUBLIC "-//W3C//DTD SVG 1.1//EN"
"http://www.w3.org/Graphics/SVG/1.1/DTD/svg11.dtd">
<svg width="100%" height="100%" version="1.1"
xmlns="http://www.w3.org/2000/svg"
xmlns:xlink="http://www.w3.org/1999/xlink">
<g fill-rule="evenodd"><path d="M 227.5,332.5 L 52.5,350 L 0,385 L 17.5,420 L 140,455 L 210,420 L 227.5,332.5 z " style="fill-opacity:0.5;fill:rgb(169,169,169);stroke:rgb(169,169,169);stroke-width:1"/></g>
<g fill-rule="evenodd"><path d="M 273,455 L 413,455 L 413,402.5 L 273,332.5 L 220.5,367.5 L 273,455 z " style="fill-opacity:0.5;fill:rgb(169,169,169);stroke:rgb(169,169,169);stroke-width:1"/></g>
<g fill-rule="evenodd"><path d="M 535.5,420 L 588,350 L 465.5,332.5 L 413,455 L 535.5,420 z " style="fill-opacity:0.5;fill:rgb(169,169,169);stroke:rgb(169,169,169);stroke-width:1"/></g>
<g fill-rule="evenodd"><path d="M 543,455 L 648,455 L 683,420 L 595.5,332.5 L 543,455 z " style="fill-opacity:0.5;fill:rgb(169,169,169);stroke:rgb(169,169,169);stroke-width:1"/></g>
<g fill-rule="evenodd"><path d="M 395.5,280 L 430.5,350 L 413,402.5 L 448,367.5 L 483,297.5 L 518,332.5 L 535.5,245 L 395.5,280 z " style="fill-opacity:0.5;fill:rgb(169,169,169);stroke:rgb(169,169,169);stroke-width:1"/></g>
<g fill-rule="evenodd"><path d="M 122.5,250 L 0,250 L 70,302.5 L 17.5,355 L 140,337.5 L 122.5,250 z " style="fill-opacity:0.5;fill:rgb(169,169,169);stroke:rgb(169,169,169);stroke-width:1"/></g>
<g fill-rule="evenodd"><path d="M 301.667,270.833 L 126.667,270.833 L 144.167,340.833 L 231.667,305.833 L 266.667,323.333 L 301.667,270.833 z " style="fill-opacity:0.5;fill:rgb(169,169,169);stroke:rgb(169,169,169);stroke-width:1"/></g>
<g fill-rule="evenodd"><path d="M 670.963,226.852 L 548.463,226.852 L 583.463,349.352 L 670.963,226.852 z " style="fill-opacity:0.5;fill:rgb(169,169,169);stroke:rgb(169,169,169);stroke-width:1"/></g>
<g fill-rule="evenodd"><path d="M 301.667,270.833 L 476.667,235.833 L 441.667,183.333 L 371.667,200.833 L 301.667,270.833 z " style="fill-opacity:0.5;fill:rgb(169,169,169);stroke:rgb(169,169,169);stroke-width:1"/></g>
<g fill-rule="evenodd"><path d="M 665,235.2 L 612.5,322.7 L 647.5,357.7 L 682.5,375.2 L 700,270.2 L 665,235.2 z " style="fill-opacity:0.5;fill:rgb(169,169,169);stroke:rgb(169,169,169);stroke-width:1"/></g>
<g fill-rule="evenodd"><path d="M 373.095,382.548 L 390.595,330.048 L 355.595,260.048 L 303.095,312.548 L 338.095,365.048 L 373.095,382.548 z " style="fill-opacity:0.5;fill:rgb(169,169,169);stroke:rgb(169,169,169);stroke-width:1"/></g>
<g fill-rule="evenodd"><path d="M 122.5,180 L -7.58942e-18,145 L 52.5,250 L 122.5,180 z " style="fill-opacity:0.5;fill:rgb(169,169,169);stroke:rgb(169,169,169);stroke-width:1"/></g>
<g fill-rule="evenodd"><path d="M 227.5,232.5 L 105,197.5 L 70,232.5 L 122.5,250 L 157.5,267.5 L 227.5,232.5 z " style="fill-opacity:0.5;fill:rgb(169,169,169);stroke:rgb(169,169,169);stroke-width:1"/></g>
<g fill-rule="evenodd"><path d="M 700,255.889 L 647.5,150.889 L 542.5,150.889 L 630,185.889 L 700,255.889 z " style="fill-opacity:0.5;fill:rgb(169,169,169);stroke:rgb(169,169,169);stroke-width:1"/></g>
<g fill-rule="evenodd"><path d="M 494.167,235.833 L 529.167,148.333 L 459.167,165.833 L 476.667,235.833 L 494.167,235.833 z " style="fill-opacity:0.5;fill:rgb(169,169,169);stroke:rgb(169,169,169);stroke-width:1"/></g>
<rect x="-7.58942e-18" y="145" width="700" height="310" style="opacity:0.8;fill:none;stroke:rgb(0,0,0);stroke-width:1;stroke-linecap:round"/>
</svg>
