<?xml version="1.0" standalone="no"?>
<!DOCTYPE svg PUBLIC "-//W3C//DTD SVG 1.1//EN"
"http://www.w3.org/Graphics/SVG/1.1/DTD/svg11.dtd">
<svg width="100%" height="100%" version="1.1"
xmlns="http://www.w3.org/2000/svg"
xmlns:xlink="http://www.w3.org/1999/xlink">
<g fill-rule="evenodd"><path d="M 65.5738,160.656 L 78.6885,160.656 L 78.6885,154.098 L 98.3607,154.098 L 98.3607,167.213 L 104.918,167.213 L 104.918,193.443 L 98.3607,193.443 L 91.8033,193.443 L 104.918,206.557 L 104.918,214.24 L 114.192,204.966 L 107.634,204.966 L 104.702,199.101 L 113.499,187.371 L 125.229,181.506 L 139.892,181.506 L 142.825,187.371 L 134.027,199.101 L 122.297,204.966 L 132.739,204.966 L 142.012,214.24 L 142.012,232.787 L 132.739,242.06 L 114.192,242.06 L 104.918,232.787 L 104.918,226.23 L 91.8033,245.902 L 78.6885,245.902 L 65.5738,226.23 L 65.5738,206.557 L 78.6885,193.443 L 65.5738,193.443 L 65.5738,186.885 L 59.0164,186.885 L 59.0164,193.443 L 52.459,193.443 L 52.459,186.885 L 45.9016,186.885 L 45.9016,180.328 L 39.3443,180.328 L 39.3443,193.443 L 39.3443,206.557 L 26.2295,206.557 L 26.2295,213.115 L 59.0164,213.115 L 59.0164,245.902 L 26.2295,245.902 L 1.16482e-14,245.902 L 0,219.672 L 13.1148,219.672 L 13.1148,206.557 L 0,206.557 L 0,193.443 L 13.1148,193.443 L 13.1148,180.328 L 13.1148,167.213 L 26.2295,167.213 L 26.2295,154.098 L 39.3443,154.098 L 39.3443,167.213 L 45.9016,167.213 L 45.9016,160.656 L 52.459,160.656 L 52.459,154.098 L 59.0164,154.098 L 59.0164,160.656 L 65.5738,160.656M -39.3443,167.213 L -45.9016,167.213 L -45.9016,173.77 L -45.9016,180.328 L -39.3443,180.328 L -39.3443,167.213 z " style="fill-opacity:0.5;fill:rgb(204,153,0);stroke:rgb(204,153,0);stroke-width:1"/></g>
<g fill-rule="evenodd"><path d="M 288.525,154.098 L 308.197,154.098 L 327.869,180.328 L 334.426,180.328 L 334.426,193.443 L 308.197,193.443 L 288.525,193.443 L 249.18,193.443 L 249.18,154.098 L 288.525,154.098M 222.951,180.328 L 203.279,180.328 L 203.279,186.885 L 222.951,186.885 L 222.951,180.328 z " style="fill-opacity:0.5;fill:rgb(204,153,0);stroke:rgb(204,153,0);stroke-width:1"/></g>
<g fill-rule="evenodd"><path d="M 347.541,193.443 L 340.984,193.443 L 340.984,173.77 L 334.426,173.77 L 334.426,160.656 L 347.541,160.656 L 347.541,154.098 L 386.885,154.098 L 386.885,180.328 L 393.443,180.328 L 393.443,167.213 L 400,167.213 L 400,193.443 L 373.77,193.443 L 373.77,180.328 L 367.213,180.328 L 367.213,193.443 L 347.541,193.443 z " style="fill-opacity:0.5;fill:rgb(204,153,0);stroke:rgb(204,153,0);stroke-width:1"/></g>
<g fill-rule="evenodd"><path d="M 144.262,180.328 L 104.979,178.145 L 106.07,158.504 L 144.262,180.328 z " style="fill-opacity:0.5;fill:rgb(204,153,0);stroke:rgb(204,153,0);stroke-width:1"/></g>
<g fill-rule="evenodd"><path d="M 234.941,179.203 L 234.941,192.318 L 221.826,179.203 L 234.941,179.203 z " style="fill-opacity:0.5;fill:rgb(204,153,0);stroke:rgb(204,153,0);stroke-width:1"/></g>
<g fill-rule="evenodd"><path d="M 196.721,154.098 L 229.508,154.098 L 248.055,172.645 L 248.055,192.318 L 234.941,179.203 L 228.383,172.645 L 210.961,172.645 L 196.721,186.885 L 196.721,173.77 L 183.607,173.77 L 183.607,186.885 L 163.934,186.885 L 163.934,180.328 L 118.033,154.098 L 163.934,154.098 L 196.721,154.098 z " style="fill-opacity:0.5;fill:rgb(204,153,0);stroke:rgb(204,153,0);stroke-width:1"/></g>
</svg>
