<?xml version="1.0" standalone="no"?>
<!DOCTYPE svg PUBLIC "-//W3C//DTD SVG 1.1//EN"
"http://www.w3.org/Graphics/SVG/1.1/DTD/svg11.dtd">
<svg width="100%" height="100%" version="1.1"
xmlns="http://www.w3.org/2000/svg"
xmlns:xlink="http://www.w3.org/1999/xlink">
<g fill-rule="evenodd"><path d="M 380.426,479.733 L 326.987,482.831 L 270.726,474.976 L 259.551,488.142 L 229.18,486.98 L 214.465,517.406 L 224.478,524.764 L 224.478,550.212 L 214.465,557.569 L 229.18,587.995 L 259.551,586.834 L 270.726,600 L 326.987,592.144 L 380.426,595.242 L 380.426,479.733 z " style="fill-opacity:0.5;fill:rgb(169,169,169);stroke:rgb(169,169,169);stroke-width:1"/></g>
<g fill-rule="evenodd"><path d="M 217.286,478.074 L 270.726,474.976 L 326.987,482.831 L 338.161,469.665 L 368.532,470.827 L 383.248,440.4 L 373.235,433.043 L 373.235,407.595 L 383.248,400.238 L 368.532,369.811 L 338.161,370.973 L 326.987,357.807 L 270.726,365.662 L 217.286,362.564 L 217.286,478.074 z " style="fill-opacity:0.5;fill:rgb(169,169,169);stroke:rgb(169,169,169);stroke-width:1"/></g>
<g fill-rule="evenodd"><path d="M 451.956,596.902 L 448.083,541.028 L 455.994,495.389 L 440.062,479.069 L 442.662,457.66 L 404.767,451.962 L 380.426,456.499 L 380.426,600 L 451.956,596.902 z " style="fill-opacity:0.5;fill:rgb(169,169,169);stroke:rgb(169,169,169);stroke-width:1"/></g>
<g fill-rule="evenodd"><path d="M 454.777,449.796 L 450.905,393.923 L 458.815,348.283 L 442.883,331.964 L 445.483,310.555 L 407.589,304.857 L 383.248,309.393 L 383.248,452.894 L 454.777,449.796 z " style="fill-opacity:0.5;fill:rgb(169,169,169);stroke:rgb(169,169,169);stroke-width:1"/></g>
<g fill-rule="evenodd"><path d="M 383.248,279.589 L 285.828,270.018 L 262.483,305.977 L 262.483,325.892 L 285.828,361.85 L 383.248,352.28 L 383.248,279.589 z " style="fill-opacity:0.5;fill:rgb(169,169,169);stroke:rgb(169,169,169);stroke-width:1"/></g>
<g fill-rule="evenodd"><path d="M 364.771,277.773 L 462.19,287.344 L 485.535,251.386 L 485.535,231.47 L 462.19,195.512 L 364.771,205.082 L 364.771,277.773 z " style="fill-opacity:0.5;fill:rgb(169,169,169);stroke:rgb(169,169,169);stroke-width:1"/></g>
<g fill-rule="evenodd"><path d="M 335.229,192.474 L 237.81,182.903 L 214.465,218.862 L 214.465,238.777 L 237.81,274.736 L 335.229,265.165 L 335.229,192.474 z " style="fill-opacity:0.5;fill:rgb(169,169,169);stroke:rgb(169,169,169);stroke-width:1"/></g>
<g fill-rule="evenodd"><path d="M 462.19,122.821 L 364.771,113.25 L 341.425,149.209 L 341.425,169.124 L 364.771,205.082 L 462.19,195.512 L 462.19,122.821 z " style="fill-opacity:0.5;fill:rgb(169,169,169);stroke:rgb(169,169,169);stroke-width:1"/></g>
<g fill-rule="evenodd"><path d="M 214.465,131.826 L 352.711,131.826 L 364.107,110.417 L 359.515,80.1566 L 333.293,78.331 L 320.68,68.0967 L 273.16,73.2415 L 214.465,69.5904 L 214.465,131.826 z " style="fill-opacity:0.5;fill:rgb(169,169,169);stroke:rgb(169,169,169);stroke-width:1"/></g>
<g fill-rule="evenodd"><path d="M 485.535,27.1624 L 347.289,27.1624 L 335.893,48.5714 L 340.485,78.8317 L 366.707,80.6573 L 379.32,90.8916 L 426.84,85.7468 L 485.535,89.3979 L 485.535,27.1624 z " style="fill-opacity:0.5;fill:rgb(169,169,169);stroke:rgb(169,169,169);stroke-width:1"/></g>
<g fill-rule="evenodd"><path d="M 485.535,600 L 485.535,432.158 L 471.097,432.158 L 471.097,600 L 485.535,600 z " style="fill-opacity:0.5;fill:rgb(169,169,169);stroke:rgb(169,169,169);stroke-width:1"/></g>
<g fill-rule="evenodd"><path d="M 382.307,12.7237 L 214.465,12.7237 L 214.465,27.1624 L 382.307,27.1624 L 382.307,12.7237 z " style="fill-opacity:0.5;fill:rgb(169,169,169);stroke:rgb(169,169,169);stroke-width:1"/></g>
<g fill-rule="evenodd"><path d="M 262.483,363.071 L 262.483,311.291 L 226.027,311.291 L 226.027,363.071 L 262.483,363.071 z " style="fill-opacity:0.5;fill:rgb(169,169,169);stroke:rgb(169,169,169);stroke-width:1"/></g>
<g fill-rule="evenodd"><path d="M 341.425,151.54 L 289.645,151.54 L 289.645,187.996 L 341.425,187.996 L 341.425,151.54 z " style="fill-opacity:0.5;fill:rgb(169,169,169);stroke:rgb(169,169,169);stroke-width:1"/></g>
<g fill-rule="evenodd"><path d="M 266.245,146.447 L 214.465,146.447 L 214.465,182.903 L 266.245,182.903 L 266.245,146.447 z " style="fill-opacity:0.5;fill:rgb(169,169,169);stroke:rgb(169,169,169);stroke-width:1"/></g>
<g fill-rule="evenodd"><path d="M 292.055,34.7397 L 240.275,34.7397 L 240.275,71.1959 L 292.055,71.1959 L 292.055,34.7397 z " style="fill-opacity:0.5;fill:rgb(169,169,169);stroke:rgb(169,169,169);stroke-width:1"/></g>
<g fill-rule="evenodd"><path d="M 485.535,432.158 L 481.939,409.421 L 485.535,387.901 L 481.939,366.382 L 485.535,343.645 L 465.177,349.177 L 469.714,387.901 L 465.177,426.626 L 485.535,432.158 z " style="fill-opacity:0.5;fill:rgb(169,169,169);stroke:rgb(169,169,169);stroke-width:1"/></g>
<g fill-rule="evenodd"><path d="M 485.535,205.645 L 481.939,182.909 L 485.535,161.389 L 481.939,139.869 L 485.535,117.132 L 465.177,122.665 L 469.714,161.389 L 465.177,200.113 L 485.535,205.645 z " style="fill-opacity:0.5;fill:rgb(169,169,169);stroke:rgb(169,169,169);stroke-width:1"/></g>
<g fill-rule="evenodd"><path d="M 485.535,96.6043 L 462.798,100.2 L 441.279,96.6043 L 419.759,100.2 L 397.022,96.6043 L 402.554,116.962 L 441.279,112.426 L 480.003,116.962 L 485.535,96.6043 z " style="fill-opacity:0.5;fill:rgb(169,169,169);stroke:rgb(169,169,169);stroke-width:1"/></g>
<g fill-rule="evenodd"><path d="M 397.022,306.528 L 419.759,302.932 L 441.279,306.528 L 462.798,302.932 L 485.535,306.528 L 480.003,286.17 L 441.279,290.706 L 402.554,286.17 L 397.022,306.528 z " style="fill-opacity:0.5;fill:rgb(169,169,169);stroke:rgb(169,169,169);stroke-width:1"/></g>
<g fill-rule="evenodd"><path d="M 465.707,595.906 L 459.124,551.871 L 465.707,507.836 L 458.792,503.742 L 448.835,551.871 L 458.792,600 L 465.707,595.906 z " style="fill-opacity:0.5;fill:rgb(169,169,169);stroke:rgb(169,169,169);stroke-width:1"/></g>
<g fill-rule="evenodd"><path d="M 341.425,183.995 L 348.008,228.031 L 341.425,272.066 L 348.34,276.159 L 358.298,228.031 L 348.34,179.902 L 341.425,183.995 z " style="fill-opacity:0.5;fill:rgb(169,169,169);stroke:rgb(169,169,169);stroke-width:1"/></g>
<g fill-rule="evenodd"><path d="M 474.471,10.2896 L 430.436,16.8728 L 386.401,10.2896 L 382.307,17.2047 L 430.436,27.1624 L 478.565,17.2047 L 474.471,10.2896 z " style="fill-opacity:0.5;fill:rgb(169,169,169);stroke:rgb(169,169,169);stroke-width:1"/></g>
<g fill-rule="evenodd"><path d="M 474.471,-1.78191e-14 L 430.436,6.58314 L 386.401,-1.78191e-14 L 382.307,6.91506 L 430.436,16.8728 L 478.565,6.91506 L 474.471,-1.78191e-14 z " style="fill-opacity:0.5;fill:rgb(169,169,169);stroke:rgb(169,169,169);stroke-width:1"/></g>
<rect x="214.465" y="-1.78191e-14" width="271.07" height="600" style="opacity:0.8;fill:none;stroke:rgb(0,0,0);stroke-width:1;stroke-linecap:round"/>
</svg>
