<?xml version="1.0" standalone="no"?>
<!DOCTYPE svg PUBLIC "-//W3C//DTD SVG 1.1//EN"
"http://www.w3.org/Graphics/SVG/1.1/DTD/svg11.dtd">
<svg width="100%" height="100%" version="1.1"
xmlns="http://www.w3.org/2000/svg"
xmlns:xlink="http://www.w3.org/1999/xlink">
<g fill-rule="evenodd"><path d="M 241.066,377.655 L 190.256,307.22 L 104.694,308.668 L 15.1762,313.555 L 31.3372,348.127 L 106.298,498.279 L 241.066,377.655 z " style="fill-opacity:0.5;fill:rgb(169,169,169);stroke:rgb(169,169,169);stroke-width:1"/></g>
<g fill-rule="evenodd"><path d="M 385.331,500 L 300.079,355.442 L 288.959,425.868 L 140.694,500 L 385.331,500 z " style="fill-opacity:0.5;fill:rgb(169,169,169);stroke:rgb(169,169,169);stroke-width:1"/></g>
<g fill-rule="evenodd"><path d="M 248.186,255.363 L 233.36,348.029 L 300.079,355.442 L 377.918,362.855 L 370.505,336.909 L 337.145,244.243 L 248.186,255.363 z " style="fill-opacity:0.5;fill:rgb(169,169,169);stroke:rgb(169,169,169);stroke-width:1"/></g>
<g fill-rule="evenodd"><path d="M 231.951,325.268 L 231.951,206.656 L 79.9798,206.656 L 109.633,273.376 L 231.951,325.268 z " style="fill-opacity:0.5;fill:rgb(169,169,169);stroke:rgb(169,169,169);stroke-width:1"/></g>
<g fill-rule="evenodd"><path d="M 384.665,111.197 L 236.4,22.2381 L 236.4,185.329 L 384.665,111.197 z " style="fill-opacity:0.5;fill:rgb(169,169,169);stroke:rgb(169,169,169);stroke-width:1"/></g>
<g fill-rule="evenodd"><path d="M 222.24,205.435 L 88.8014,105.356 L 14.669,205.435 L 222.24,205.435 z " style="fill-opacity:0.5;fill:rgb(169,169,169);stroke:rgb(169,169,169);stroke-width:1"/></g>
<g fill-rule="evenodd"><path d="M 162.396,111.123 L 237.177,135.421 L 227.884,2.8745 L 206.385,9.6685 L 117.087,38.5281 L 162.396,111.123 z " style="fill-opacity:0.5;fill:rgb(169,169,169);stroke:rgb(169,169,169);stroke-width:1"/></g>
<g fill-rule="evenodd"><path d="M 374.211,103.785 L 385.331,33.3596 L 366.798,1.3517e-14 L 311.199,3.70662 L 225.946,14.8265 L 374.211,103.785 z " style="fill-opacity:0.5;fill:rgb(169,169,169);stroke:rgb(169,169,169);stroke-width:1"/></g>
<g fill-rule="evenodd"><path d="M 20.5643,5.12807 L 20.5643,134.861 L 146.589,5.12807 L 20.5643,5.12807 z " style="fill-opacity:0.5;fill:rgb(169,169,169);stroke:rgb(169,169,169);stroke-width:1"/></g>
<g fill-rule="evenodd"><path d="M 226.883,130.468 L 130.511,108.229 L 104.564,115.642 L 238.003,215.721 L 226.883,130.468 z " style="fill-opacity:0.5;fill:rgb(169,169,169);stroke:rgb(169,169,169);stroke-width:1"/></g>
<g fill-rule="evenodd"><path d="M 311.912,240.338 L 381.837,119.198 L 260.746,183.584 L 311.912,240.338 z " style="fill-opacity:0.5;fill:rgb(169,169,169);stroke:rgb(169,169,169);stroke-width:1"/></g>
<g fill-rule="evenodd"><path d="M 385.331,302.067 L 385.331,179.748 L 329.732,235.347 L 385.331,302.067 z " style="fill-opacity:0.5;fill:rgb(169,169,169);stroke:rgb(169,169,169);stroke-width:1"/></g>
<g fill-rule="evenodd"><path d="M 81.3882,500 L 85.0948,477.76 L 55.4418,411.041 L 14.669,492.587 L 81.3882,500 z " style="fill-opacity:0.5;fill:rgb(169,169,169);stroke:rgb(169,169,169);stroke-width:1"/></g>
<g fill-rule="evenodd"><path d="M 381.624,396.215 L 300.079,355.442 L 374.211,474.054 L 381.624,396.215 z " style="fill-opacity:0.5;fill:rgb(169,169,169);stroke:rgb(169,169,169);stroke-width:1"/></g>
<g fill-rule="evenodd"><path d="M 40.5814,230.139 L 59.1145,304.271 L 140.66,304.271 L 40.5814,230.139 z " style="fill-opacity:0.5;fill:rgb(169,169,169);stroke:rgb(169,169,169);stroke-width:1"/></g>
<g fill-rule="evenodd"><path d="M 246.392,373.042 L 207.592,463.564 L 289.582,408.249 L 246.392,373.042 z " style="fill-opacity:0.5;fill:rgb(169,169,169);stroke:rgb(169,169,169);stroke-width:1"/></g>
<rect x="14.669" y="1.3517e-14" width="370.662" height="500" style="opacity:0.8;fill:none;stroke:rgb(0,0,0);stroke-width:1;stroke-linecap:round"/>
</svg>
