<?xml version="1.0" standalone="no"?>
<!DOCTYPE svg PUBLIC "-//W3C//DTD SVG 1.1//EN"
"http://www.w3.org/Graphics/SVG/1.1/DTD/svg11.dtd">
<svg width="100%" height="100%" version="1.1"
xmlns="http://www.w3.org/2000/svg"
xmlns:xlink="http://www.w3.org/1999/xlink">
<g fill-rule="evenodd"><path d="M 245.356,352.684 L 190.525,276.674 L 98.191,278.237 L 1.58779,283.511 L 19.0278,320.818 L 99.9217,482.856 L 245.356,352.684 z " style="fill-opacity:0.5;fill:rgb(169,169,169);stroke:rgb(169,169,169);stroke-width:1"/></g>
<g fill-rule="evenodd"><path d="M 400,492.809 L 308,336.809 L 296,412.809 L 136,492.809 L 400,492.809 z " style="fill-opacity:0.5;fill:rgb(169,169,169);stroke:rgb(169,169,169);stroke-width:1"/></g>
<g fill-rule="evenodd"><path d="M 252,228.809 L 236,328.809 L 308,336.809 L 392,344.809 L 384,316.809 L 348,216.809 L 252,228.809 z " style="fill-opacity:0.5;fill:rgb(169,169,169);stroke:rgb(169,169,169);stroke-width:1"/></g>
<g fill-rule="evenodd"><path d="M 234.583,303.379 L 234.583,175.379 L 70.5827,175.379 L 102.583,247.379 L 234.583,303.379 z " style="fill-opacity:0.5;fill:rgb(169,169,169);stroke:rgb(169,169,169);stroke-width:1"/></g>
<g fill-rule="evenodd"><path d="M 235.386,27.2336 L 235.504,213.824 L 386.365,123.177 L 235.386,27.2336 z " style="fill-opacity:0.5;fill:rgb(169,169,169);stroke:rgb(169,169,169);stroke-width:1"/></g>
<g fill-rule="evenodd"><path d="M 231.609,175.111 L 87.6086,67.1102 L 7.60864,175.111 L 231.609,175.111 z " style="fill-opacity:0.5;fill:rgb(169,169,169);stroke:rgb(169,169,169);stroke-width:1"/></g>
<g fill-rule="evenodd"><path d="M 155.757,126.809 L 236.457,153.03 L 226.428,9.99263 L 203.228,17.3244 L 106.862,48.4682 L 155.757,126.809 z " style="fill-opacity:0.5;fill:rgb(169,169,169);stroke:rgb(169,169,169);stroke-width:1"/></g>
<g fill-rule="evenodd"><path d="M 388,119.191 L 400,43.1912 L 380,7.19116 L 320,11.1912 L 228,23.1912 L 388,119.191 z " style="fill-opacity:0.5;fill:rgb(169,169,169);stroke:rgb(169,169,169);stroke-width:1"/></g>
<g fill-rule="evenodd"><path d="M 6.36187,7.19116 L 6.36187,147.192 L 142.362,7.19116 L 6.36187,7.19116 z " style="fill-opacity:0.5;fill:rgb(169,169,169);stroke:rgb(169,169,169);stroke-width:1"/></g>
<g fill-rule="evenodd"><path d="M 209.32,476.132 L 233.32,372.132 L 225.32,344.132 L 117.32,488.132 L 209.32,476.132 z " style="fill-opacity:0.5;fill:rgb(169,169,169);stroke:rgb(169,169,169);stroke-width:1"/></g>
<g fill-rule="evenodd"><path d="M 322.514,252.831 L 397.973,122.103 L 267.297,191.584 L 322.514,252.831 z " style="fill-opacity:0.5;fill:rgb(169,169,169);stroke:rgb(169,169,169);stroke-width:1"/></g>
<g fill-rule="evenodd"><path d="M 400,279.209 L 400,147.209 L 340,207.209 L 400,279.209 z " style="fill-opacity:0.5;fill:rgb(169,169,169);stroke:rgb(169,169,169);stroke-width:1"/></g>
<g fill-rule="evenodd"><path d="M 72,492.809 L 76,468.809 L 44,396.809 L 0,484.809 L 72,492.809 z " style="fill-opacity:0.5;fill:rgb(169,169,169);stroke:rgb(169,169,169);stroke-width:1"/></g>
<g fill-rule="evenodd"><path d="M 396,380.809 L 308,336.809 L 388,464.809 L 396,380.809 z " style="fill-opacity:0.5;fill:rgb(169,169,169);stroke:rgb(169,169,169);stroke-width:1"/></g>
<g fill-rule="evenodd"><path d="M 27.9634,201.588 L 47.9634,281.588 L 135.963,281.588 L 27.9634,201.588 z " style="fill-opacity:0.5;fill:rgb(169,169,169);stroke:rgb(169,169,169);stroke-width:1"/></g>
<g fill-rule="evenodd"><path d="M 257.674,354.686 L 215.803,452.373 L 304.283,392.68 L 257.674,354.686 z " style="fill-opacity:0.5;fill:rgb(169,169,169);stroke:rgb(169,169,169);stroke-width:1"/></g>
<rect x="0" y="7.19116" width="400" height="485.618" style="opacity:0.8;fill:none;stroke:rgb(0,0,0);stroke-width:1;stroke-linecap:round"/>
</svg>
