<?xml version="1.0" standalone="no"?>
<!DOCTYPE svg PUBLIC "-//W3C//DTD SVG 1.1//EN"
"http://www.w3.org/Graphics/SVG/1.1/DTD/svg11.dtd">
<svg width="100%" height="100%" version="1.1"
xmlns="http://www.w3.org/2000/svg"
xmlns:xlink="http://www.w3.org/1999/xlink">
<g fill-rule="evenodd"><path d="M 74.5444,480.784 L 165.156,456.834 L 196.786,370.072 L 226.482,277.995 L 185.402,280.907 L 5.13741,298.359 L 74.5444,480.784 z " style="fill-opacity:0.5;fill:rgb(169,169,169);stroke:rgb(169,169,169);stroke-width:1"/></g>
<g fill-rule="evenodd"><path d="M 400,492.809 L 308,336.809 L 296,412.809 L 136,492.809 L 400,492.809 z " style="fill-opacity:0.5;fill:rgb(169,169,169);stroke:rgb(169,169,169);stroke-width:1"/></g>
<g fill-rule="evenodd"><path d="M 251.065,234.364 L 235.065,334.364 L 307.065,342.364 L 391.065,350.364 L 383.065,322.364 L 347.065,222.364 L 251.065,234.364 z " style="fill-opacity:0.5;fill:rgb(169,169,169);stroke:rgb(169,169,169);stroke-width:1"/></g>
<g fill-rule="evenodd"><path d="M 234.583,303.379 L 234.583,175.379 L 70.5827,175.379 L 102.583,247.379 L 234.583,303.379 z " style="fill-opacity:0.5;fill:rgb(169,169,169);stroke:rgb(169,169,169);stroke-width:1"/></g>
<g fill-rule="evenodd"><path d="M 235.386,27.2336 L 235.504,213.824 L 386.365,123.177 L 235.386,27.2336 z " style="fill-opacity:0.5;fill:rgb(169,169,169);stroke:rgb(169,169,169);stroke-width:1"/></g>
<g fill-rule="evenodd"><path d="M 231.609,175.111 L 87.6086,67.1102 L 7.60864,175.111 L 231.609,175.111 z " style="fill-opacity:0.5;fill:rgb(169,169,169);stroke:rgb(169,169,169);stroke-width:1"/></g>
<g fill-rule="evenodd"><path d="M 149.158,10.4518 L 86.0996,67.2294 L 214.988,130.063 L 220.238,106.305 L 241.45,7.27764 L 149.158,10.4518 z " style="fill-opacity:0.5;fill:rgb(169,169,169);stroke:rgb(169,169,169);stroke-width:1"/></g>
<g fill-rule="evenodd"><path d="M 388,119.191 L 400,43.1912 L 380,7.19116 L 320,11.1912 L 228,23.1912 L 388,119.191 z " style="fill-opacity:0.5;fill:rgb(169,169,169);stroke:rgb(169,169,169);stroke-width:1"/></g>
<g fill-rule="evenodd"><path d="M 6.36187,7.19116 L 6.36187,147.192 L 142.362,7.19116 L 6.36187,7.19116 z " style="fill-opacity:0.5;fill:rgb(169,169,169);stroke:rgb(169,169,169);stroke-width:1"/></g>
<g fill-rule="evenodd"><path d="M 199.53,344.682 L 175.53,448.682 L 183.53,476.682 L 291.53,332.682 L 199.53,344.682 z " style="fill-opacity:0.5;fill:rgb(169,169,169);stroke:rgb(169,169,169);stroke-width:1"/></g>
<g fill-rule="evenodd"><path d="M 320.731,250.416 L 396.191,119.688 L 265.515,189.17 L 320.731,250.416 z " style="fill-opacity:0.5;fill:rgb(169,169,169);stroke:rgb(169,169,169);stroke-width:1"/></g>
<g fill-rule="evenodd"><path d="M 400,279.209 L 400,147.209 L 340,207.209 L 400,279.209 z " style="fill-opacity:0.5;fill:rgb(169,169,169);stroke:rgb(169,169,169);stroke-width:1"/></g>
<g fill-rule="evenodd"><path d="M 72,492.809 L 76,468.809 L 44,396.809 L 0,484.809 L 72,492.809 z " style="fill-opacity:0.5;fill:rgb(169,169,169);stroke:rgb(169,169,169);stroke-width:1"/></g>
<g fill-rule="evenodd"><path d="M 399.373,387.53 L 311.373,343.53 L 391.373,471.53 L 399.373,387.53 z " style="fill-opacity:0.5;fill:rgb(169,169,169);stroke:rgb(169,169,169);stroke-width:1"/></g>
<g fill-rule="evenodd"><path d="M 14.0974,188.993 L 34.0974,268.993 L 122.097,268.993 L 14.0974,188.993 z " style="fill-opacity:0.5;fill:rgb(169,169,169);stroke:rgb(169,169,169);stroke-width:1"/></g>
<g fill-rule="evenodd"><path d="M 276.897,357.577 L 221.838,448.486 L 317.765,401.688 L 276.897,357.577 z " style="fill-opacity:0.5;fill:rgb(169,169,169);stroke:rgb(169,169,169);stroke-width:1"/></g>
<rect x="0" y="7.19116" width="400" height="485.618" style="opacity:0.8;fill:none;stroke:rgb(0,0,0);stroke-width:1;stroke-linecap:round"/>
</svg>
