<?xml version="1.0" standalone="no"?>
<!DOCTYPE svg PUBLIC "-//W3C//DTD SVG 1.1//EN"
"http://www.w3.org/Graphics/SVG/1.1/DTD/svg11.dtd">
<svg width="100%" height="100%" version="1.1"
xmlns="http://www.w3.org/2000/svg"
xmlns:xlink="http://www.w3.org/1999/xlink">
<g fill-rule="evenodd"><path d="M 244.479,370.268 L 188.88,303.549 L 103.628,310.962 L 14.669,322.082 L 33.2021,355.442 L 118.454,500 L 244.479,370.268 z " style="fill-opacity:0.5;fill:rgb(169,169,169);stroke:rgb(169,169,169);stroke-width:1"/></g>
<g fill-rule="evenodd"><path d="M 385.331,500 L 300.079,355.442 L 288.959,425.868 L 140.694,500 L 385.331,500 z " style="fill-opacity:0.5;fill:rgb(169,169,169);stroke:rgb(169,169,169);stroke-width:1"/></g>
<g fill-rule="evenodd"><path d="M 248.186,255.363 L 233.36,348.029 L 300.079,355.442 L 377.918,362.855 L 370.505,336.909 L 337.145,244.243 L 248.186,255.363 z " style="fill-opacity:0.5;fill:rgb(169,169,169);stroke:rgb(169,169,169);stroke-width:1"/></g>
<g fill-rule="evenodd"><path d="M 235.796,326.75 L 235.796,208.138 L 83.8247,208.138 L 113.478,274.858 L 235.796,326.75 z " style="fill-opacity:0.5;fill:rgb(169,169,169);stroke:rgb(169,169,169);stroke-width:1"/></g>
<g fill-rule="evenodd"><path d="M 384.665,111.197 L 236.4,22.2381 L 236.4,185.329 L 384.665,111.197 z " style="fill-opacity:0.5;fill:rgb(169,169,169);stroke:rgb(169,169,169);stroke-width:1"/></g>
<g fill-rule="evenodd"><path d="M 222.24,205.435 L 88.8014,105.356 L 14.669,205.435 L 222.24,205.435 z " style="fill-opacity:0.5;fill:rgb(169,169,169);stroke:rgb(169,169,169);stroke-width:1"/></g>
<g fill-rule="evenodd"><path d="M 168.634,2.2446 L 93.8526,26.5424 L 179.28,128.312 L 192.679,110.179 L 247.959,34.3431 L 168.634,2.2446 z " style="fill-opacity:0.5;fill:rgb(169,169,169);stroke:rgb(169,169,169);stroke-width:1"/></g>
<g fill-rule="evenodd"><path d="M 374.211,103.785 L 385.331,33.3596 L 366.798,1.3517e-14 L 311.199,3.70662 L 225.946,14.8265 L 374.211,103.785 z " style="fill-opacity:0.5;fill:rgb(169,169,169);stroke:rgb(169,169,169);stroke-width:1"/></g>
<g fill-rule="evenodd"><path d="M 14.669,51.9364 L 14.669,181.669 L 140.694,51.9364 L 14.669,51.9364 z " style="fill-opacity:0.5;fill:rgb(169,169,169);stroke:rgb(169,169,169);stroke-width:1"/></g>
<g fill-rule="evenodd"><path d="M 227.707,132.911 L 131.335,110.671 L 105.389,118.084 L 238.827,218.163 L 227.707,132.911 z " style="fill-opacity:0.5;fill:rgb(169,169,169);stroke:rgb(169,169,169);stroke-width:1"/></g>
<g fill-rule="evenodd"><path d="M 311.912,240.338 L 381.837,119.198 L 260.746,183.584 L 311.912,240.338 z " style="fill-opacity:0.5;fill:rgb(169,169,169);stroke:rgb(169,169,169);stroke-width:1"/></g>
<g fill-rule="evenodd"><path d="M 385.331,302.067 L 385.331,179.748 L 329.732,235.347 L 385.331,302.067 z " style="fill-opacity:0.5;fill:rgb(169,169,169);stroke:rgb(169,169,169);stroke-width:1"/></g>
<g fill-rule="evenodd"><path d="M 81.3882,500 L 85.0948,477.76 L 55.4418,411.041 L 14.669,492.587 L 81.3882,500 z " style="fill-opacity:0.5;fill:rgb(169,169,169);stroke:rgb(169,169,169);stroke-width:1"/></g>
<g fill-rule="evenodd"><path d="M 381.624,396.215 L 300.079,355.442 L 374.211,474.054 L 381.624,396.215 z " style="fill-opacity:0.5;fill:rgb(169,169,169);stroke:rgb(169,169,169);stroke-width:1"/></g>
<g fill-rule="evenodd"><path d="M 29.2098,212.768 L 47.7429,286.901 L 129.289,286.901 L 29.2098,212.768 z " style="fill-opacity:0.5;fill:rgb(169,169,169);stroke:rgb(169,169,169);stroke-width:1"/></g>
<g fill-rule="evenodd"><path d="M 246.392,373.042 L 207.592,463.564 L 289.582,408.249 L 246.392,373.042 z " style="fill-opacity:0.5;fill:rgb(169,169,169);stroke:rgb(169,169,169);stroke-width:1"/></g>
<rect x="14.669" y="1.3517e-14" width="370.662" height="500" style="opacity:0.8;fill:none;stroke:rgb(0,0,0);stroke-width:1;stroke-linecap:round"/>
</svg>
