<?xml version="1.0" standalone="no"?>
<!DOCTYPE svg PUBLIC "-//W3C//DTD SVG 1.1//EN"
"http://www.w3.org/Graphics/SVG/1.1/DTD/svg11.dtd">
<svg width="100%" height="100%" version="1.1"
xmlns="http://www.w3.org/2000/svg"
xmlns:xlink="http://www.w3.org/1999/xlink">
<g fill-rule="evenodd"><path d="M 73.1725,485.709 L 163.98,461.707 L 195.679,374.758 L 225.439,282.482 L 184.27,285.4 L 3.61527,302.89 L 73.1725,485.709 z " style="fill-opacity:0.5;fill:rgb(169,169,169);stroke:rgb(169,169,169);stroke-width:1"/></g>
<g fill-rule="evenodd"><path d="M 400,493.334 L 307.801,336.997 L 295.775,413.161 L 135.429,493.334 L 400,493.334 z " style="fill-opacity:0.5;fill:rgb(169,169,169);stroke:rgb(169,169,169);stroke-width:1"/></g>
<g fill-rule="evenodd"><path d="M 233.72,233.059 L 217.685,333.275 L 289.841,341.292 L 374.023,349.31 L 366.005,321.249 L 329.927,221.033 L 233.72,233.059 z " style="fill-opacity:0.5;fill:rgb(169,169,169);stroke:rgb(169,169,169);stroke-width:1"/></g>
<g fill-rule="evenodd"><path d="M 55.1146,174.126 L 92.6192,296.798 L 249.793,248.745 L 198.028,189.118 L 55.1146,174.126 z " style="fill-opacity:0.5;fill:rgb(169,169,169);stroke:rgb(169,169,169);stroke-width:1"/></g>
<g fill-rule="evenodd"><path d="M 235.029,26.7515 L 235.148,213.746 L 386.336,122.903 L 235.029,26.7515 z " style="fill-opacity:0.5;fill:rgb(169,169,169);stroke:rgb(169,169,169);stroke-width:1"/></g>
<g fill-rule="evenodd"><path d="M 231.244,174.949 L 86.9326,66.7144 L 6.75951,174.949 L 231.244,174.949 z " style="fill-opacity:0.5;fill:rgb(169,169,169);stroke:rgb(169,169,169);stroke-width:1"/></g>
<g fill-rule="evenodd"><path d="M 148.615,9.9334 L 85.4203,66.8339 L 214.587,129.803 L 219.849,105.994 L 241.107,6.7524 L 148.615,9.9334 z " style="fill-opacity:0.5;fill:rgb(169,169,169);stroke:rgb(169,169,169);stroke-width:1"/></g>
<g fill-rule="evenodd"><path d="M 387.974,118.908 L 400,42.7436 L 379.957,6.66573 L 319.827,10.6744 L 227.628,22.7004 L 387.974,118.908 z " style="fill-opacity:0.5;fill:rgb(169,169,169);stroke:rgb(169,169,169);stroke-width:1"/></g>
<g fill-rule="evenodd"><path d="M 5.51005,6.66573 L 5.51005,146.97 L 141.804,6.66573 L 5.51005,6.66573 z " style="fill-opacity:0.5;fill:rgb(169,169,169);stroke:rgb(169,169,169);stroke-width:1"/></g>
<g fill-rule="evenodd"><path d="M 199.786,346.85 L 175.734,451.075 L 183.752,479.135 L 291.985,334.824 L 199.786,346.85 z " style="fill-opacity:0.5;fill:rgb(169,169,169);stroke:rgb(169,169,169);stroke-width:1"/></g>
<g fill-rule="evenodd"><path d="M 353.175,141.219 L 224.898,221.392 L 373.218,221.392 L 353.175,141.219 z " style="fill-opacity:0.5;fill:rgb(169,169,169);stroke:rgb(169,169,169);stroke-width:1"/></g>
<g fill-rule="evenodd"><path d="M 399.106,322.623 L 399.106,190.337 L 338.976,250.467 L 399.106,322.623 z " style="fill-opacity:0.5;fill:rgb(169,169,169);stroke:rgb(169,169,169);stroke-width:1"/></g>
<g fill-rule="evenodd"><path d="M 71.7722,479.016 L 69.4192,454.747 L 19.7673,393.35 L -1.70179e-14,489.948 L 71.7722,479.016 z " style="fill-opacity:0.5;fill:rgb(169,169,169);stroke:rgb(169,169,169);stroke-width:1"/></g>
<g fill-rule="evenodd"><path d="M 399.372,387.828 L 311.181,343.733 L 391.355,472.01 L 399.372,387.828 z " style="fill-opacity:0.5;fill:rgb(169,169,169);stroke:rgb(169,169,169);stroke-width:1"/></g>
<g fill-rule="evenodd"><path d="M 0.697038,195.632 L 13.6765,277.247 L 101.531,284.933 L 0.697038,195.632 z " style="fill-opacity:0.5;fill:rgb(169,169,169);stroke:rgb(169,169,169);stroke-width:1"/></g>
<g fill-rule="evenodd"><path d="M 269.497,357.834 L 214.319,448.94 L 310.453,402.04 L 269.497,357.834 z " style="fill-opacity:0.5;fill:rgb(169,169,169);stroke:rgb(169,169,169);stroke-width:1"/></g>
<rect x="-1.70179e-14" y="6.66573" width="400" height="486.669" style="opacity:0.8;fill:none;stroke:rgb(0,0,0);stroke-width:1;stroke-linecap:round"/>
</svg>
