<?xml version="1.0" standalone="no"?>
<!DOCTYPE svg PUBLIC "-//W3C//DTD SVG 1.1//EN"
"http://www.w3.org/Graphics/SVG/1.1/DTD/svg11.dtd">
<svg width="100%" height="100%" version="1.1"
xmlns="http://www.w3.org/2000/svg"
xmlns:xlink="http://www.w3.org/1999/xlink">
<g fill-rule="evenodd"><path d="M 76.7863,483.685 L 167.398,459.735 L 199.028,372.973 L 228.724,280.896 L 187.645,283.808 L 7.37907,301.26 L 76.7863,483.685 z " style="fill-opacity:0.5;fill:rgb(169,169,169);stroke:rgb(169,169,169);stroke-width:1"/></g>
<g fill-rule="evenodd"><path d="M 400,492.81 L 308,336.809 L 296,412.809 L 135.999,492.81 L 400,492.81 z " style="fill-opacity:0.5;fill:rgb(169,169,169);stroke:rgb(169,169,169);stroke-width:1"/></g>
<g fill-rule="evenodd"><path d="M 222.418,258.279 L 236.355,358.588 L 307.548,345.187 L 390.217,328.279 L 374.38,303.841 L 310.715,218.736 L 222.418,258.279 z " style="fill-opacity:0.5;fill:rgb(169,169,169);stroke:rgb(169,169,169);stroke-width:1"/></g>
<g fill-rule="evenodd"><path d="M 49.9654,171.603 L 87.3891,294.011 L 244.224,246.062 L 192.571,186.564 L 49.9654,171.603 z " style="fill-opacity:0.5;fill:rgb(169,169,169);stroke:rgb(169,169,169);stroke-width:1"/></g>
<g fill-rule="evenodd"><path d="M 232.226,25.1263 L 232.344,211.717 L 383.206,121.07 L 232.226,25.1263 z " style="fill-opacity:0.5;fill:rgb(169,169,169);stroke:rgb(169,169,169);stroke-width:1"/></g>
<g fill-rule="evenodd"><path d="M 228.233,172.53 L 84.2325,64.5292 L 4.23226,172.53 L 228.233,172.53 z " style="fill-opacity:0.5;fill:rgb(169,169,169);stroke:rgb(169,169,169);stroke-width:1"/></g>
<g fill-rule="evenodd"><path d="M 144.292,111.514 L 219.213,151.35 L 234.175,8.7438 L 210.054,11.9355 L 109.743,25.8724 L 144.292,111.514 z " style="fill-opacity:0.5;fill:rgb(169,169,169);stroke:rgb(169,169,169);stroke-width:1"/></g>
<g fill-rule="evenodd"><path d="M 388,119.191 L 400,43.1904 L 380,7.19029 L 320,11.1903 L 227.999,23.1903 L 388,119.191 z " style="fill-opacity:0.5;fill:rgb(169,169,169);stroke:rgb(169,169,169);stroke-width:1"/></g>
<g fill-rule="evenodd"><path d="M -1.07385e-14,12.6076 L 4.88599,152.524 L 135.918,7.86127 L -1.07385e-14,12.6076 z " style="fill-opacity:0.5;fill:rgb(169,169,169);stroke:rgb(169,169,169);stroke-width:1"/></g>
<g fill-rule="evenodd"><path d="M 220.764,354.198 L 170.665,448.443 L 171.145,477.56 L 312.736,366.418 L 220.764,354.198 z " style="fill-opacity:0.5;fill:rgb(169,169,169);stroke:rgb(169,169,169);stroke-width:1"/></g>
<g fill-rule="evenodd"><path d="M 346.011,143.315 L 218.011,223.315 L 366.012,223.315 L 346.011,143.315 z " style="fill-opacity:0.5;fill:rgb(169,169,169);stroke:rgb(169,169,169);stroke-width:1"/></g>
<g fill-rule="evenodd"><path d="M 399.045,319.585 L 399.045,187.585 L 339.044,247.585 L 399.045,319.585 z " style="fill-opacity:0.5;fill:rgb(169,169,169);stroke:rgb(169,169,169);stroke-width:1"/></g>
<g fill-rule="evenodd"><path d="M 70.2919,467.294 L 63.3662,443.969 L 3.04184,393.284 L 2.07156,491.666 L 70.2919,467.294 z " style="fill-opacity:0.5;fill:rgb(169,169,169);stroke:rgb(169,169,169);stroke-width:1"/></g>
<g fill-rule="evenodd"><path d="M 399.373,387.531 L 311.373,343.53 L 391.373,471.531 L 399.373,387.531 z " style="fill-opacity:0.5;fill:rgb(169,169,169);stroke:rgb(169,169,169);stroke-width:1"/></g>
<g fill-rule="evenodd"><path d="M 1.00293,299.778 L 71.6601,257.262 L 45.9313,173.107 L 1.00293,299.778 z " style="fill-opacity:0.5;fill:rgb(169,169,169);stroke:rgb(169,169,169);stroke-width:1"/></g>
<g fill-rule="evenodd"><path d="M 397.392,194.149 L 399.62,87.8892 L 339.943,176.381 L 397.392,194.149 z " style="fill-opacity:0.5;fill:rgb(169,169,169);stroke:rgb(169,169,169);stroke-width:1"/></g>
<rect x="-1.07385e-14" y="7.19029" width="400" height="485.619" style="opacity:0.8;fill:none;stroke:rgb(0,0,0);stroke-width:1;stroke-linecap:round"/>
</svg>
