<?xml version="1.0" standalone="no"?>
<!DOCTYPE svg PUBLIC "-//W3C//DTD SVG 1.1//EN"
"http://www.w3.org/Graphics/SVG/1.1/DTD/svg11.dtd">
<svg width="100%" height="100%" version="1.1"
xmlns="http://www.w3.org/2000/svg"
xmlns:xlink="http://www.w3.org/1999/xlink">
<g fill-rule="evenodd"><path d="M 75.9969,484.095 L 166.804,460.094 L 198.503,373.145 L 228.263,280.868 L 187.095,283.787 L 6.43967,301.276 L 75.9969,484.095 z " style="fill-opacity:0.5;fill:rgb(169,169,169);stroke:rgb(169,169,169);stroke-width:1"/></g>
<g fill-rule="evenodd"><path d="M 400,493.334 L 307.801,336.997 L 295.775,413.161 L 135.429,493.334 L 400,493.334 z " style="fill-opacity:0.5;fill:rgb(169,169,169);stroke:rgb(169,169,169);stroke-width:1"/></g>
<g fill-rule="evenodd"><path d="M 242.544,234.343 L 226.509,334.56 L 298.665,342.577 L 382.847,350.594 L 374.829,322.534 L 338.751,222.317 L 242.544,234.343 z " style="fill-opacity:0.5;fill:rgb(169,169,169);stroke:rgb(169,169,169);stroke-width:1"/></g>
<g fill-rule="evenodd"><path d="M 49.2092,171.434 L 86.7138,294.106 L 243.887,246.053 L 192.123,186.426 L 49.2092,171.434 z " style="fill-opacity:0.5;fill:rgb(169,169,169);stroke:rgb(169,169,169);stroke-width:1"/></g>
<g fill-rule="evenodd"><path d="M 230.834,28.3227 L 230.952,215.317 L 382.14,124.474 L 230.834,28.3227 z " style="fill-opacity:0.5;fill:rgb(169,169,169);stroke:rgb(169,169,169);stroke-width:1"/></g>
<g fill-rule="evenodd"><path d="M 231.244,174.949 L 86.9326,66.7144 L 6.75951,174.949 L 231.244,174.949 z " style="fill-opacity:0.5;fill:rgb(169,169,169);stroke:rgb(169,169,169);stroke-width:1"/></g>
<g fill-rule="evenodd"><path d="M 148.615,9.9334 L 85.4203,66.8339 L 214.587,129.803 L 219.849,105.994 L 241.107,6.7524 L 148.615,9.9334 z " style="fill-opacity:0.5;fill:rgb(169,169,169);stroke:rgb(169,169,169);stroke-width:1"/></g>
<g fill-rule="evenodd"><path d="M 387.974,118.908 L 400,42.7436 L 379.957,6.66573 L 319.827,10.6744 L 227.628,22.7004 L 387.974,118.908 z " style="fill-opacity:0.5;fill:rgb(169,169,169);stroke:rgb(169,169,169);stroke-width:1"/></g>
<g fill-rule="evenodd"><path d="M 5.51005,6.66573 L 5.51005,146.97 L 141.804,6.66573 L 5.51005,6.66573 z " style="fill-opacity:0.5;fill:rgb(169,169,169);stroke:rgb(169,169,169);stroke-width:1"/></g>
<g fill-rule="evenodd"><path d="M 201.809,347.224 L 177.757,451.45 L 185.775,479.51 L 294.008,335.199 L 201.809,347.224 z " style="fill-opacity:0.5;fill:rgb(169,169,169);stroke:rgb(169,169,169);stroke-width:1"/></g>
<g fill-rule="evenodd"><path d="M 353.175,141.219 L 224.898,221.392 L 373.218,221.392 L 353.175,141.219 z " style="fill-opacity:0.5;fill:rgb(169,169,169);stroke:rgb(169,169,169);stroke-width:1"/></g>
<g fill-rule="evenodd"><path d="M 399.106,322.623 L 399.106,190.337 L 338.976,250.467 L 399.106,322.623 z " style="fill-opacity:0.5;fill:rgb(169,169,169);stroke:rgb(169,169,169);stroke-width:1"/></g>
<g fill-rule="evenodd"><path d="M 71.7722,479.016 L 69.4192,454.747 L 19.7673,393.35 L -1.70179e-14,489.948 L 71.7722,479.016 z " style="fill-opacity:0.5;fill:rgb(169,169,169);stroke:rgb(169,169,169);stroke-width:1"/></g>
<g fill-rule="evenodd"><path d="M 399.372,387.828 L 311.181,343.733 L 391.355,472.01 L 399.372,387.828 z " style="fill-opacity:0.5;fill:rgb(169,169,169);stroke:rgb(169,169,169);stroke-width:1"/></g>
<g fill-rule="evenodd"><path d="M 23.1377,178.812 L 10.2615,260.443 L 91.4413,294.902 L 23.1377,178.812 z " style="fill-opacity:0.5;fill:rgb(169,169,169);stroke:rgb(169,169,169);stroke-width:1"/></g>
<g fill-rule="evenodd"><path d="M 397.386,194.028 L 399.619,87.539 L 339.814,176.222 L 397.386,194.028 z " style="fill-opacity:0.5;fill:rgb(169,169,169);stroke:rgb(169,169,169);stroke-width:1"/></g>
<rect x="-1.70179e-14" y="6.66573" width="400" height="486.669" style="opacity:0.8;fill:none;stroke:rgb(0,0,0);stroke-width:1;stroke-linecap:round"/>
</svg>
