<?xml version="1.0" standalone="no"?>
<!DOCTYPE svg PUBLIC "-//W3C//DTD SVG 1.1//EN"
"http://www.w3.org/Graphics/SVG/1.1/DTD/svg11.dtd">
<svg width="100%" height="100%" version="1.1"
xmlns="http://www.w3.org/2000/svg"
xmlns:xlink="http://www.w3.org/1999/xlink">
<g fill-rule="evenodd"><path d="M 75.2661,484.784 L 166.304,460.721 L 198.083,373.552 L 227.919,281.041 L 186.646,283.967 L 5.53244,301.501 L 75.2661,484.784 z " style="fill-opacity:0.5;fill:rgb(169,169,169);stroke:rgb(169,169,169);stroke-width:1"/></g>
<g fill-rule="evenodd"><path d="M 400,493.952 L 307.567,337.217 L 295.51,413.575 L 134.757,493.952 L 400,493.952 z " style="fill-opacity:0.5;fill:rgb(169,169,169);stroke:rgb(169,169,169);stroke-width:1"/></g>
<g fill-rule="evenodd"><path d="M 242.144,234.304 L 226.069,334.774 L 298.408,342.812 L 382.803,350.85 L 374.766,322.718 L 338.596,222.247 L 242.144,234.304 z " style="fill-opacity:0.5;fill:rgb(169,169,169);stroke:rgb(169,169,169);stroke-width:1"/></g>
<g fill-rule="evenodd"><path d="M 48.3191,171.235 L 85.9188,294.218 L 243.491,246.043 L 191.595,186.265 L 48.3191,171.235 z " style="fill-opacity:0.5;fill:rgb(169,169,169);stroke:rgb(169,169,169);stroke-width:1"/></g>
<g fill-rule="evenodd"><path d="M 231.437,24.0686 L 231.555,211.537 L 383.127,120.464 L 231.437,24.0686 z " style="fill-opacity:0.5;fill:rgb(169,169,169);stroke:rgb(169,169,169);stroke-width:1"/></g>
<g fill-rule="evenodd"><path d="M 227.425,172.166 L 82.7474,63.6568 L 2.37083,172.166 L 227.425,172.166 z " style="fill-opacity:0.5;fill:rgb(169,169,169);stroke:rgb(169,169,169);stroke-width:1"/></g>
<g fill-rule="evenodd"><path d="M 143.089,110.862 L 218.363,150.886 L 233.395,7.60909 L 209.161,10.8158 L 108.378,24.8183 L 143.089,110.862 z " style="fill-opacity:0.5;fill:rgb(169,169,169);stroke:rgb(169,169,169);stroke-width:1"/></g>
<g fill-rule="evenodd"><path d="M 387.944,118.575 L 400,42.2177 L 379.906,6.04827 L 319.623,10.0671 L 227.19,22.1236 L 387.944,118.575 z " style="fill-opacity:0.5;fill:rgb(169,169,169);stroke:rgb(169,169,169);stroke-width:1"/></g>
<g fill-rule="evenodd"><path d="M 0.0269794,7.12019 L 0.0269794,147.78 L 136.667,7.12019 L 0.0269794,7.12019 z " style="fill-opacity:0.5;fill:rgb(169,169,169);stroke:rgb(169,169,169);stroke-width:1"/></g>
<g fill-rule="evenodd"><path d="M 205.971,346.57 L 181.858,451.06 L 189.896,479.191 L 298.404,334.514 L 205.971,346.57 z " style="fill-opacity:0.5;fill:rgb(169,169,169);stroke:rgb(169,169,169);stroke-width:1"/></g>
<g fill-rule="evenodd"><path d="M 345.758,142.813 L 217.155,223.189 L 365.852,223.189 L 345.758,142.813 z " style="fill-opacity:0.5;fill:rgb(169,169,169);stroke:rgb(169,169,169);stroke-width:1"/></g>
<g fill-rule="evenodd"><path d="M 399.103,322.807 L 399.103,190.186 L 338.821,250.468 L 399.103,322.807 z " style="fill-opacity:0.5;fill:rgb(169,169,169);stroke:rgb(169,169,169);stroke-width:1"/></g>
<g fill-rule="evenodd"><path d="M 68.8931,468.31 L 61.9348,444.876 L 1.3267,393.952 L 0.351851,492.797 L 68.8931,468.31 z " style="fill-opacity:0.5;fill:rgb(169,169,169);stroke:rgb(169,169,169);stroke-width:1"/></g>
<g fill-rule="evenodd"><path d="M 399.37,388.177 L 310.956,343.97 L 391.333,472.573 L 399.37,388.177 z " style="fill-opacity:0.5;fill:rgb(169,169,169);stroke:rgb(169,169,169);stroke-width:1"/></g>
<g fill-rule="evenodd"><path d="M 12.9089,170.95 L -3.68542e-15,252.789 L 81.3857,287.335 L 12.9089,170.95 z " style="fill-opacity:0.5;fill:rgb(169,169,169);stroke:rgb(169,169,169);stroke-width:1"/></g>
<g fill-rule="evenodd"><path d="M 397.38,193.886 L 399.618,87.1268 L 339.661,176.035 L 397.38,193.886 z " style="fill-opacity:0.5;fill:rgb(169,169,169);stroke:rgb(169,169,169);stroke-width:1"/></g>
<rect x="-3.68542e-15" y="6.04827" width="400" height="487.903" style="opacity:0.8;fill:none;stroke:rgb(0,0,0);stroke-width:1;stroke-linecap:round"/>
</svg>
