<?xml version="1.0" standalone="no"?>
<!DOCTYPE svg PUBLIC "-//W3C//DTD SVG 1.1//EN"
"http://www.w3.org/Graphics/SVG/1.1/DTD/svg11.dtd">
<svg width="100%" height="100%" version="1.1"
xmlns="http://www.w3.org/2000/svg"
xmlns:xlink="http://www.w3.org/1999/xlink">
<g fill-rule="evenodd"><path d="M 69.8615,472.661 L 160.473,448.711 L 192.103,361.95 L 221.799,269.873 L 180.719,272.785 L 0.45447,290.236 L 69.8615,472.661 z " style="fill-opacity:0.5;fill:rgb(169,169,169);stroke:rgb(169,169,169);stroke-width:1"/></g>
<g fill-rule="evenodd"><path d="M 400,492.809 L 308,336.809 L 296,412.809 L 136,492.809 L 400,492.809 z " style="fill-opacity:0.5;fill:rgb(169,169,169);stroke:rgb(169,169,169);stroke-width:1"/></g>
<g fill-rule="evenodd"><path d="M 369.619,351.106 L 385.619,251.106 L 313.619,243.106 L 229.619,235.106 L 237.619,263.106 L 273.619,363.106 L 369.619,351.106 z " style="fill-opacity:0.5;fill:rgb(169,169,169);stroke:rgb(169,169,169);stroke-width:1"/></g>
<g fill-rule="evenodd"><path d="M 234.583,303.379 L 234.583,175.379 L 70.5827,175.379 L 102.583,247.379 L 234.583,303.379 z " style="fill-opacity:0.5;fill:rgb(169,169,169);stroke:rgb(169,169,169);stroke-width:1"/></g>
<g fill-rule="evenodd"><path d="M 235.386,27.2336 L 235.504,213.824 L 386.365,123.177 L 235.386,27.2336 z " style="fill-opacity:0.5;fill:rgb(169,169,169);stroke:rgb(169,169,169);stroke-width:1"/></g>
<g fill-rule="evenodd"><path d="M 231.609,175.111 L 87.6086,67.1102 L 7.60864,175.111 L 231.609,175.111 z " style="fill-opacity:0.5;fill:rgb(169,169,169);stroke:rgb(169,169,169);stroke-width:1"/></g>
<g fill-rule="evenodd"><path d="M 152.742,124.164 L 233.442,150.385 L 223.413,7.34769 L 200.213,14.6794 L 103.847,45.8233 L 152.742,124.164 z " style="fill-opacity:0.5;fill:rgb(169,169,169);stroke:rgb(169,169,169);stroke-width:1"/></g>
<g fill-rule="evenodd"><path d="M 388,119.191 L 400,43.1912 L 380,7.19116 L 320,11.1912 L 228,23.1912 L 388,119.191 z " style="fill-opacity:0.5;fill:rgb(169,169,169);stroke:rgb(169,169,169);stroke-width:1"/></g>
<g fill-rule="evenodd"><path d="M 6.36187,7.19116 L 6.36187,147.192 L 142.362,7.19116 L 6.36187,7.19116 z " style="fill-opacity:0.5;fill:rgb(169,169,169);stroke:rgb(169,169,169);stroke-width:1"/></g>
<g fill-rule="evenodd"><path d="M 194.424,346.169 L 170.424,450.169 L 178.424,478.169 L 286.424,334.169 L 194.424,346.169 z " style="fill-opacity:0.5;fill:rgb(169,169,169);stroke:rgb(169,169,169);stroke-width:1"/></g>
<g fill-rule="evenodd"><path d="M 322.514,252.831 L 397.973,122.103 L 267.297,191.584 L 322.514,252.831 z " style="fill-opacity:0.5;fill:rgb(169,169,169);stroke:rgb(169,169,169);stroke-width:1"/></g>
<g fill-rule="evenodd"><path d="M 400,279.209 L 400,147.209 L 340,207.209 L 400,279.209 z " style="fill-opacity:0.5;fill:rgb(169,169,169);stroke:rgb(169,169,169);stroke-width:1"/></g>
<g fill-rule="evenodd"><path d="M 72,492.809 L 76,468.809 L 44,396.809 L 0,484.809 L 72,492.809 z " style="fill-opacity:0.5;fill:rgb(169,169,169);stroke:rgb(169,169,169);stroke-width:1"/></g>
<g fill-rule="evenodd"><path d="M 396,380.809 L 308,336.809 L 388,464.809 L 396,380.809 z " style="fill-opacity:0.5;fill:rgb(169,169,169);stroke:rgb(169,169,169);stroke-width:1"/></g>
<g fill-rule="evenodd"><path d="M 14.0974,188.993 L 34.0974,268.993 L 122.097,268.993 L 14.0974,188.993 z " style="fill-opacity:0.5;fill:rgb(169,169,169);stroke:rgb(169,169,169);stroke-width:1"/></g>
<g fill-rule="evenodd"><path d="M 263.8,353.723 L 221.928,451.41 L 310.409,391.717 L 263.8,353.723 z " style="fill-opacity:0.5;fill:rgb(169,169,169);stroke:rgb(169,169,169);stroke-width:1"/></g>
<rect x="0" y="7.19116" width="400" height="485.618" style="opacity:0.8;fill:none;stroke:rgb(0,0,0);stroke-width:1;stroke-linecap:round"/>
</svg>
