<?xml version="1.0" standalone="no"?>
<!DOCTYPE svg PUBLIC "-//W3C//DTD SVG 1.1//EN"
"http://www.w3.org/Graphics/SVG/1.1/DTD/svg11.dtd">
<svg width="200mm" height="200mm" viewBox="-250 -250 800 800" version="1.1"
xmlns="http://www.w3.org/2000/svg"
xmlns:xlink="http://www.w3.org/1999/xlink">
<g fill-rule="evenodd"><path d="M 75,136.875 L 30,136.875 L 30,159.375 L 45,159.375 L 45,181.875 L 75,181.875 L 75,136.875 z " style="fill-opacity:0.5;fill:rgb(169,169,169);stroke:rgb(169,169,169);stroke-width:2"/></g>
<g fill-rule="evenodd"><path d="M 45,159.375 L 6.50521e-18,159.375 L 0,204.375 L 45,204.375 L 45,159.375 z " style="fill-opacity:0.5;fill:rgb(169,169,169);stroke:rgb(169,169,169);stroke-width:2"/></g>
<g fill-rule="evenodd"><path d="M 75,151.875 L 75,166.875 L 90,166.875 L 90,181.875 L 105,181.875 L 105,166.875 L 120,166.875 L 120,151.875 L 105,151.875 L 105,136.875 L 90,136.875 L 90,151.875 L 75,151.875 z " style="fill-opacity:0.5;fill:rgb(169,169,169);stroke:rgb(169,169,169);stroke-width:2"/></g>
<g fill-rule="evenodd"><path d="M 105,204.375 L 142.5,204.375 L 142.5,181.875 L 127.5,181.875 L 127.5,166.875 L 105,166.875 L 105,204.375 z " style="fill-opacity:0.5;fill:rgb(169,169,169);stroke:rgb(169,169,169);stroke-width:2"/></g>
<g fill-rule="evenodd"><path d="M 187.5,181.875 L 187.5,159.375 L 172.5,144.375 L 157.5,144.375 L 142.5,159.375 L 142.5,181.875 L 157.5,204.375 L 172.5,204.375 L 187.5,181.875 z " style="fill-opacity:0.5;fill:rgb(169,169,169);stroke:rgb(169,169,169);stroke-width:2"/></g>
<g fill-rule="evenodd"><path d="M 255,151.875 L 217.5,151.875 L 217.5,189.375 L 255,189.375 L 255,151.875 z " style="fill-opacity:0.5;fill:rgb(169,169,169);stroke:rgb(169,169,169);stroke-width:2"/></g>
<g fill-rule="evenodd"><path d="M 262.5,204.375 L 262.5,174.375 L 255,174.375 L 255,189.375 L 232.5,189.375 L 232.5,204.375 L 262.5,204.375 z " style="fill-opacity:0.5;fill:rgb(169,169,169);stroke:rgb(169,169,169);stroke-width:2"/></g>
<g fill-rule="evenodd"><path d="M 277.5,151.875 L 277.5,121.875 L 247.5,151.875 L 277.5,151.875 z " style="fill-opacity:0.5;fill:rgb(169,169,169);stroke:rgb(169,169,169);stroke-width:2"/></g>
<g fill-rule="evenodd"><path d="M 300,181.875 L 300,136.875 L 277.5,136.875 L 277.5,151.875 L 255,151.875 L 277.5,181.875 L 300,181.875 z " style="fill-opacity:0.5;fill:rgb(169,169,169);stroke:rgb(169,169,169);stroke-width:2"/></g>
<g fill-rule="evenodd"><path d="M 221.25,148.125 L 221.25,133.125 L 206.25,118.125 L 191.25,118.125 L 176.25,133.125 L 176.25,148.125 L 191.25,163.125 L 206.25,163.125 L 221.25,148.125 z " style="fill-opacity:0.5;fill:rgb(169,169,169);stroke:rgb(169,169,169);stroke-width:2"/></g>
<g fill-rule="evenodd"><path d="M 127.5,106.875 L 90,106.875 L 90,121.875 L 105,121.875 L 105,114.375 L 127.5,114.375 L 127.5,106.875 z " style="fill-opacity:0.5;fill:rgb(169,169,169);stroke:rgb(169,169,169);stroke-width:2"/></g>
<g fill-rule="evenodd"><path d="M 90,106.875 L 75,106.875 L 75,121.875 L 60,121.875 L 60,136.875 L 75,136.875 L 75,151.875 L 90,151.875 L 90,136.875 L 105,136.875 L 105,121.875 L 90,121.875 L 90,106.875 z " style="fill-opacity:0.5;fill:rgb(169,169,169);stroke:rgb(169,169,169);stroke-width:2"/></g>
<g fill-rule="evenodd"><path d="M 142.5,121.875 L 112.5,121.875 L 112.5,151.875 L 142.5,151.875 L 142.5,121.875 z " style="fill-opacity:0.5;fill:rgb(169,169,169);stroke:rgb(169,169,169);stroke-width:2"/></g>
<g fill-rule="evenodd"><path d="M 150,144.375 L 150,114.375 L 135,114.375 L 135,121.875 L 142.5,121.875 L 142.5,144.375 L 150,144.375 z " style="fill-opacity:0.5;fill:rgb(169,169,169);stroke:rgb(169,169,169);stroke-width:2"/></g>
<g fill-rule="evenodd"><path d="M 22.5,159.375 L 22.5,114.375 L 8.13152e-18,114.375 L 0,159.375 L 22.5,159.375 z " style="fill-opacity:0.5;fill:rgb(169,169,169);stroke:rgb(169,169,169);stroke-width:2"/></g>
<g fill-rule="evenodd"><path d="M 281.25,95.625 L 243.75,95.625 L 243.75,133.125 L 281.25,95.625 z " style="fill-opacity:0.5;fill:rgb(169,169,169);stroke:rgb(169,169,169);stroke-width:2"/></g>
<g fill-rule="evenodd"><path d="M 251.25,140.625 L 251.25,133.125 L 243.75,133.125 L 243.75,125.625 L 236.25,125.625 L 236.25,133.125 L 228.75,133.125 L 228.75,140.625 L 236.25,140.625 L 236.25,148.125 L 243.75,148.125 L 243.75,140.625 L 251.25,140.625 z " style="fill-opacity:0.5;fill:rgb(169,169,169);stroke:rgb(169,169,169);stroke-width:2"/></g>
<g fill-rule="evenodd"><path d="M 165,144.375 L 172.5,129.375 L 172.5,114.375 L 165,99.375 L 157.5,99.375 L 150,114.375 L 150,129.375 L 157.5,144.375 L 165,144.375 z " style="fill-opacity:0.5;fill:rgb(169,169,169);stroke:rgb(169,169,169);stroke-width:2"/></g>
<g fill-rule="evenodd"><path d="M 22.5,150 L 52.5,97.5 L 22.5,97.5 L 22.5,150 z " style="fill-opacity:0.5;fill:rgb(169,169,169);stroke:rgb(169,169,169);stroke-width:2"/></g>
<g fill-rule="evenodd"><path d="M 90,204.375 L 90,166.875 L 75,166.875 L 75,204.375 L 90,204.375 z " style="fill-opacity:0.5;fill:rgb(169,169,169);stroke:rgb(169,169,169);stroke-width:2"/></g>
<g fill-rule="evenodd"><path d="M 210,166.875 L 187.5,166.875 L 210,189.375 L 210,166.875 z " style="fill-opacity:0.5;fill:rgb(169,169,169);stroke:rgb(169,169,169);stroke-width:2"/></g>
<g fill-rule="evenodd"><path d="M 202.5,189.375 L 202.5,196.875 L 210,196.875 L 210,204.375 L 217.5,204.375 L 217.5,196.875 L 225,196.875 L 225,189.375 L 217.5,189.375 L 217.5,181.875 L 210,181.875 L 210,189.375 L 202.5,189.375 z " style="fill-opacity:0.5;fill:rgb(169,169,169);stroke:rgb(169,169,169);stroke-width:2"/></g>
<g fill-rule="evenodd"><path d="M 221.25,148.125 L 243.75,103.125 L 221.25,103.125 L 221.25,148.125 z " style="fill-opacity:0.5;fill:rgb(169,169,169);stroke:rgb(169,169,169);stroke-width:2"/></g>
<g fill-rule="evenodd"><path d="M 75,204.375 L 75,196.875 L 45,196.875 L 45,204.375 L 75,204.375 z " style="fill-opacity:0.5;fill:rgb(169,169,169);stroke:rgb(169,169,169);stroke-width:2"/></g>
<g fill-rule="evenodd"><path d="M 105,204.375 L 105,189.375 L 90,204.375 L 105,204.375 z " style="fill-opacity:0.5;fill:rgb(169,169,169);stroke:rgb(169,169,169);stroke-width:2"/></g>
<rect x="0" y="95.625" width="300" height="108.75" style="opacity:0.8;fill:none;stroke:rgb(0,0,0);stroke-width:2;stroke-linecap:round"/>
</svg>
