<?xml version="1.0" standalone="no"?>
<!DOCTYPE svg PUBLIC "-//W3C//DTD SVG 1.1//EN"
"http://www.w3.org/Graphics/SVG/1.1/DTD/svg11.dtd">
<svg width="200mm" height="200mm" viewBox="-250 -250 800 800" version="1.1"
xmlns="http://www.w3.org/2000/svg"
xmlns:xlink="http://www.w3.org/1999/xlink">
<g fill-rule="evenodd"><path d="M 44.6809,124.468 L 44.6809,150 L 51.0638,150 L 51.0638,137.234 L 70.2128,137.234 L 70.2128,124.468 L 44.6809,124.468 z " style="fill-opacity:0.5;fill:rgb(204,153,0);stroke:rgb(204,153,0);stroke-width:1"/></g>
<g fill-rule="evenodd"><path d="M 51.0638,137.234 L 51.0638,175.532 L 89.3617,175.532 L 89.3617,137.234 L 51.0638,137.234 z " style="fill-opacity:0.5;fill:rgb(204,153,0);stroke:rgb(204,153,0);stroke-width:1"/></g>
<g fill-rule="evenodd"><path d="M 134.043,162.766 L 134.043,130.851 L 102.128,130.851 L 102.128,162.766 L 134.043,162.766 z " style="fill-opacity:0.5;fill:rgb(204,153,0);stroke:rgb(204,153,0);stroke-width:1"/></g>
<g fill-rule="evenodd"><path d="M 89.3617,143.617 L 102.128,143.617 L 102.128,130.851 L 114.894,130.851 L 114.894,118.085 L 102.128,118.085 L 102.128,105.319 L 89.3617,105.319 L 89.3617,118.085 L 76.5957,118.085 L 76.5957,130.851 L 89.3617,130.851 L 89.3617,143.617 z " style="fill-opacity:0.5;fill:rgb(204,153,0);stroke:rgb(204,153,0);stroke-width:1"/></g>
<g fill-rule="evenodd"><path d="M 127.66,175.532 L 172.34,201.064 L 172.34,175.532 L 127.66,175.532 z " style="fill-opacity:0.5;fill:rgb(204,153,0);stroke:rgb(204,153,0);stroke-width:1"/></g>
<g fill-rule="evenodd"><path d="M 197.872,156.383 L 159.574,156.383 L 159.574,175.532 L 172.34,175.532 L 172.34,194.681 L 197.872,194.681 L 197.872,156.383 z " style="fill-opacity:0.5;fill:rgb(204,153,0);stroke:rgb(204,153,0);stroke-width:1"/></g>
<g fill-rule="evenodd"><path d="M 217.021,175.532 L 236.17,175.532 L 248.936,162.766 L 248.936,150 L 236.17,137.234 L 217.021,137.234 L 197.872,150 L 197.872,162.766 L 217.021,175.532 z " style="fill-opacity:0.5;fill:rgb(204,153,0);stroke:rgb(204,153,0);stroke-width:1"/></g>
<g fill-rule="evenodd"><path d="M 236.17,175.532 L 274.468,194.681 L 274.468,175.532 L 236.17,175.532 z " style="fill-opacity:0.5;fill:rgb(204,153,0);stroke:rgb(204,153,0);stroke-width:1"/></g>
<g fill-rule="evenodd"><path d="M 300,156.383 L 261.702,156.383 L 261.702,175.532 L 274.468,175.532 L 274.468,194.681 L 300,175.532 L 300,156.383 z " style="fill-opacity:0.5;fill:rgb(204,153,0);stroke:rgb(204,153,0);stroke-width:1"/></g>
<g fill-rule="evenodd"><path d="M 159.574,150 L 159.574,118.085 L 127.66,118.085 L 159.574,150 z " style="fill-opacity:0.5;fill:rgb(204,153,0);stroke:rgb(204,153,0);stroke-width:1"/></g>
<g fill-rule="evenodd"><path d="M 102.128,105.319 L 102.128,118.085 L 114.894,118.085 L 114.894,130.851 L 127.66,130.851 L 127.66,118.085 L 140.426,118.085 L 140.426,105.319 L 127.66,105.319 L 127.66,92.5532 L 114.894,92.5532 L 114.894,105.319 L 102.128,105.319 z " style="fill-opacity:0.5;fill:rgb(204,153,0);stroke:rgb(204,153,0);stroke-width:1"/></g>
<g fill-rule="evenodd"><path d="M 172.34,156.383 L 185.106,156.383 L 197.872,143.617 L 197.872,130.851 L 185.106,118.085 L 172.34,118.085 L 159.574,130.851 L 159.574,143.617 L 172.34,156.383 z " style="fill-opacity:0.5;fill:rgb(204,153,0);stroke:rgb(204,153,0);stroke-width:1"/></g>
<g fill-rule="evenodd"><path d="M 51.0638,175.532 L 19.1489,175.532 L 19.1489,194.681 L 31.9149,194.681 L 31.9149,207.447 L 51.0638,207.447 L 51.0638,175.532 z " style="fill-opacity:0.5;fill:rgb(204,153,0);stroke:rgb(204,153,0);stroke-width:1"/></g>
<g fill-rule="evenodd"><path d="M 31.9149,194.681 L 19.1489,194.681 L 31.9149,207.447 L 31.9149,194.681 z " style="fill-opacity:0.5;fill:rgb(204,153,0);stroke:rgb(204,153,0);stroke-width:1"/></g>
<g fill-rule="evenodd"><path d="M 223.404,137.234 L 223.404,111.702 L 197.872,111.702 L 197.872,137.234 L 223.404,137.234 z " style="fill-opacity:0.5;fill:rgb(204,153,0);stroke:rgb(204,153,0);stroke-width:1"/></g>
<g fill-rule="evenodd"><path d="M 229.787,130.851 L 229.787,98.9362 L 217.021,98.9362 L 217.021,111.702 L 223.404,111.702 L 223.404,130.851 L 229.787,130.851 z " style="fill-opacity:0.5;fill:rgb(204,153,0);stroke:rgb(204,153,0);stroke-width:1"/></g>
<g fill-rule="evenodd"><path d="M 44.6809,150 L 6.38298,150 L 6.38298,169.149 L 44.6809,169.149 L 44.6809,150 z " style="fill-opacity:0.5;fill:rgb(204,153,0);stroke:rgb(204,153,0);stroke-width:1"/></g>
<g fill-rule="evenodd"><path d="M 25.5319,143.617 L 2.66454e-15,143.617 L 2.66454e-15,156.383 L 6.38298,156.383 L 6.38298,150 L 25.5319,150 L 25.5319,143.617 z " style="fill-opacity:0.5;fill:rgb(204,153,0);stroke:rgb(204,153,0);stroke-width:1"/></g>
<g fill-rule="evenodd"><path d="M 89.3617,175.532 L 102.128,181.915 L 114.894,181.915 L 127.66,175.532 L 127.66,169.149 L 114.894,162.766 L 102.128,162.766 L 89.3617,169.149 L 89.3617,175.532 z " style="fill-opacity:0.5;fill:rgb(204,153,0);stroke:rgb(204,153,0);stroke-width:1"/></g>
<g fill-rule="evenodd"><path d="M 44.6809,118.085 L 19.1489,118.085 L 44.6809,143.617 L 44.6809,118.085 z " style="fill-opacity:0.5;fill:rgb(204,153,0);stroke:rgb(204,153,0);stroke-width:1"/></g>
<g fill-rule="evenodd"><path d="M 6.38298,111.702 L 6.38298,118.085 L 12.766,118.085 L 12.766,124.468 L 19.1489,124.468 L 19.1489,118.085 L 25.5319,118.085 L 25.5319,111.702 L 19.1489,111.702 L 19.1489,105.319 L 12.766,105.319 L 12.766,111.702 L 6.38298,111.702 z " style="fill-opacity:0.5;fill:rgb(204,153,0);stroke:rgb(204,153,0);stroke-width:1"/></g>
<g fill-rule="evenodd"><path d="M 127.66,175.532 L 159.574,175.532 L 159.574,162.766 L 127.66,162.766 L 127.66,175.532 z " style="fill-opacity:0.5;fill:rgb(204,153,0);stroke:rgb(204,153,0);stroke-width:1"/></g>
<g fill-rule="evenodd"><path d="M 197.872,111.702 L 178.723,111.702 L 197.872,130.851 L 197.872,111.702 z " style="fill-opacity:0.5;fill:rgb(204,153,0);stroke:rgb(204,153,0);stroke-width:1"/></g>
<g fill-rule="evenodd"><path d="M 165.957,105.319 L 165.957,111.702 L 172.34,111.702 L 172.34,118.085 L 178.723,118.085 L 178.723,111.702 L 185.106,111.702 L 185.106,105.319 L 178.723,105.319 L 178.723,98.9362 L 172.34,98.9362 L 172.34,105.319 L 165.957,105.319 z " style="fill-opacity:0.5;fill:rgb(204,153,0);stroke:rgb(204,153,0);stroke-width:1"/></g>
<g fill-rule="evenodd"><path d="M 44.6809,175.532 L 51.0638,175.532 L 51.0638,150 L 44.6809,150 L 44.6809,175.532 z " style="fill-opacity:0.5;fill:rgb(204,153,0);stroke:rgb(204,153,0);stroke-width:1"/></g>
<rect x="2.66454e-15" y="92.5532" width="300" height="114.894" style="opacity:0.8;fill:none;stroke:rgb(212,0,0);stroke-width:4;stroke-dasharray:1,7;stroke-linecap:round"/>
</svg>
