<?xml version="1.0" standalone="no"?>
<!DOCTYPE svg PUBLIC "-//W3C//DTD SVG 1.1//EN"
"http://www.w3.org/Graphics/SVG/1.1/DTD/svg11.dtd">
<svg width="200mm" height="200mm" viewBox="-250 -250 800 800" version="1.1"
xmlns="http://www.w3.org/2000/svg"
xmlns:xlink="http://www.w3.org/1999/xlink">
<g fill-rule="evenodd"><path d="M 37.5,155 L 15,155 L 0,170 L 0,185 L 15,200 L 37.5,200 L 60,185 L 60,170 L 37.5,155 z " style="fill-opacity:0.5;fill:rgb(169,169,169);stroke:rgb(169,169,169);stroke-width:2"/></g>
<g fill-rule="evenodd"><path d="M 105,200 L 105,155 L 60,155 L 60,200 L 105,200 z " style="fill-opacity:0.5;fill:rgb(169,169,169);stroke:rgb(169,169,169);stroke-width:2"/></g>
<g fill-rule="evenodd"><path d="M 150,200 L 150,155 L 127.5,155 L 127.5,170 L 105,170 L 105,200 L 150,200 z " style="fill-opacity:0.5;fill:rgb(169,169,169);stroke:rgb(169,169,169);stroke-width:2"/></g>
<g fill-rule="evenodd"><path d="M 300,185 L 300,170 L 285,155 L 270,155 L 255,170 L 255,185 L 270,200 L 285,200 L 300,185 z " style="fill-opacity:0.5;fill:rgb(169,169,169);stroke:rgb(169,169,169);stroke-width:2"/></g>
<g fill-rule="evenodd"><path d="M 255,200 L 255,162.5 L 217.5,162.5 L 217.5,200 L 255,200 z " style="fill-opacity:0.5;fill:rgb(169,169,169);stroke:rgb(169,169,169);stroke-width:2"/></g>
<g fill-rule="evenodd"><path d="M 217.5,155 L 172.5,155 L 172.5,177.5 L 187.5,177.5 L 187.5,200 L 217.5,177.5 L 217.5,155 z " style="fill-opacity:0.5;fill:rgb(169,169,169);stroke:rgb(169,169,169);stroke-width:2"/></g>
<g fill-rule="evenodd"><path d="M 255,162.5 L 255,125 L 232.5,125 L 232.5,140 L 217.5,140 L 217.5,162.5 L 255,162.5 z " style="fill-opacity:0.5;fill:rgb(169,169,169);stroke:rgb(169,169,169);stroke-width:2"/></g>
<g fill-rule="evenodd"><path d="M 75,145 L 75,130 L 60,130 L 60,115 L 45,115 L 45,130 L 30,130 L 30,145 L 45,145 L 45,160 L 60,160 L 60,145 L 75,145 z " style="fill-opacity:0.5;fill:rgb(169,169,169);stroke:rgb(169,169,169);stroke-width:2"/></g>
<g fill-rule="evenodd"><path d="M 135,140 L 135,125 L 120,125 L 120,110 L 105,110 L 105,125 L 90,125 L 90,140 L 105,140 L 105,155 L 120,155 L 120,140 L 135,140 z " style="fill-opacity:0.5;fill:rgb(169,169,169);stroke:rgb(169,169,169);stroke-width:2"/></g>
<g fill-rule="evenodd"><path d="M 22.5,155 L 22.5,110 L 8.13152e-18,110 L 0,155 L 22.5,155 z " style="fill-opacity:0.5;fill:rgb(169,169,169);stroke:rgb(169,169,169);stroke-width:2"/></g>
<g fill-rule="evenodd"><path d="M 172.5,155 L 172.5,125 L 142.5,125 L 142.5,155 L 172.5,155 z " style="fill-opacity:0.5;fill:rgb(169,169,169);stroke:rgb(169,169,169);stroke-width:2"/></g>
<g fill-rule="evenodd"><path d="M 270,155 L 277.5,140 L 277.5,125 L 270,110 L 262.5,110 L 255,125 L 255,140 L 262.5,155 L 270,155 z " style="fill-opacity:0.5;fill:rgb(169,169,169);stroke:rgb(169,169,169);stroke-width:2"/></g>
<g fill-rule="evenodd"><path d="M 165,120.714 L 217.5,150.714 L 217.5,120.714 L 165,120.714 z " style="fill-opacity:0.5;fill:rgb(169,169,169);stroke:rgb(169,169,169);stroke-width:2"/></g>
<g fill-rule="evenodd"><path d="M 90,145 L 90,107.5 L 52.5,107.5 L 90,145 z " style="fill-opacity:0.5;fill:rgb(169,169,169);stroke:rgb(169,169,169);stroke-width:2"/></g>
<g fill-rule="evenodd"><path d="M 232.5,110 L 202.5,110 L 202.5,117.5 L 217.5,117.5 L 217.5,140 L 232.5,140 L 232.5,110 z " style="fill-opacity:0.5;fill:rgb(169,169,169);stroke:rgb(169,169,169);stroke-width:2"/></g>
<g fill-rule="evenodd"><path d="M 292.5,155 L 292.5,117.5 L 277.5,117.5 L 277.5,155 L 292.5,155 z " style="fill-opacity:0.5;fill:rgb(169,169,169);stroke:rgb(169,169,169);stroke-width:2"/></g>
<g fill-rule="evenodd"><path d="M 172.5,155 L 150,200 L 172.5,200 L 172.5,155 z " style="fill-opacity:0.5;fill:rgb(169,169,169);stroke:rgb(169,169,169);stroke-width:2"/></g>
<g fill-rule="evenodd"><path d="M 142.5,102.5 L 112.5,102.5 L 142.5,132.5 L 142.5,102.5 z " style="fill-opacity:0.5;fill:rgb(169,169,169);stroke:rgb(169,169,169);stroke-width:2"/></g>
<g fill-rule="evenodd"><path d="M 300,140 L 300,102.5 L 285,102.5 L 285,117.5 L 292.5,117.5 L 292.5,140 L 300,140 z " style="fill-opacity:0.5;fill:rgb(169,169,169);stroke:rgb(169,169,169);stroke-width:2"/></g>
<g fill-rule="evenodd"><path d="M 187.5,105.714 L 157.5,105.714 L 157.5,120.714 L 165,120.714 L 165,113.214 L 187.5,113.214 L 187.5,105.714 z " style="fill-opacity:0.5;fill:rgb(169,169,169);stroke:rgb(169,169,169);stroke-width:2"/></g>
<g fill-rule="evenodd"><path d="M 258.75,117.5 L 258.75,110 L 251.25,110 L 251.25,102.5 L 243.75,102.5 L 243.75,110 L 236.25,110 L 236.25,117.5 L 243.75,117.5 L 243.75,125 L 251.25,125 L 251.25,117.5 L 258.75,117.5 z " style="fill-opacity:0.5;fill:rgb(169,169,169);stroke:rgb(169,169,169);stroke-width:2"/></g>
<g fill-rule="evenodd"><path d="M 52.5,115 L 52.5,107.5 L 45,107.5 L 45,100 L 37.5,100 L 37.5,107.5 L 30,107.5 L 30,115 L 37.5,115 L 37.5,122.5 L 45,122.5 L 45,115 L 52.5,115 z " style="fill-opacity:0.5;fill:rgb(169,169,169);stroke:rgb(169,169,169);stroke-width:2"/></g>
<g fill-rule="evenodd"><path d="M 217.5,200 L 217.5,177.5 L 195,200 L 217.5,200 z " style="fill-opacity:0.5;fill:rgb(169,169,169);stroke:rgb(169,169,169);stroke-width:2"/></g>
<g fill-rule="evenodd"><path d="M 30,110 L 30,102.5 L 1.6263e-18,102.5 L 0,110 L 30,110 z " style="fill-opacity:0.5;fill:rgb(169,169,169);stroke:rgb(169,169,169);stroke-width:2"/></g>
<g fill-rule="evenodd"><path d="M 60,200 L 60,185 L 45,200 L 60,200 z " style="fill-opacity:0.5;fill:rgb(169,169,169);stroke:rgb(169,169,169);stroke-width:2"/></g>
<rect x="0" y="100" width="300" height="100" style="opacity:0.8;fill:none;stroke:rgb(0,0,0);stroke-width:2;stroke-linecap:round"/>
</svg>
